<?xml version="1.0" encoding="UTF-8" standalone="no"?>
<svg
   xmlns:dc="http://purl.org/dc/elements/1.1/"
   xmlns:cc="http://creativecommons.org/ns#"
   xmlns:rdf="http://www.w3.org/1999/02/22-rdf-syntax-ns#"
   xmlns:svg="http://www.w3.org/2000/svg"
   xmlns="http://www.w3.org/2000/svg"
   xmlns:sodipodi="http://sodipodi.sourceforge.net/DTD/sodipodi-0.dtd"
   xmlns:inkscape="http://www.inkscape.org/namespaces/inkscape"
   inkscape:version="1.0 (4035a4fb49, 2020-05-01)"
   sodipodi:docname="alien_karova.svg"
   id="svg125"
   version="1.1"
   viewBox="0 0 400 300">
  <metadata
     id="metadata131">
    <rdf:RDF>
      <cc:Work
         rdf:about="">
        <dc:format>image/svg+xml</dc:format>
        <dc:type
           rdf:resource="http://purl.org/dc/dcmitype/StillImage" />
      </cc:Work>
    </rdf:RDF>
  </metadata>
  <defs
     id="defs129" />
  <sodipodi:namedview
     inkscape:current-layer="svg125"
     inkscape:window-maximized="1"
     inkscape:window-y="-8"
     inkscape:window-x="-8"
     inkscape:cy="148.57039"
     inkscape:cx="73.179576"
     inkscape:zoom="2.0977501"
     showgrid="false"
     id="namedview127"
     inkscape:window-height="1057"
     inkscape:window-width="1920"
     inkscape:pageshadow="2"
     inkscape:pageopacity="0"
     guidetolerance="10"
     gridtolerance="10"
     objecttolerance="10"
     borderopacity="1"
     bordercolor="#666666"
     pagecolor="#ffffff" />
  <g
     data-name="#278_alien_flatline"
     id="_278_alien_flatline">
    <path
       id="path2"
       fill="#eeeeee"
       d="M261.2,67.28c0,16.53-27.4,29.94-61.2,29.94s-61.2-13.41-61.2-29.94S166.2,31.07,200,31.07,261.2,50.74,261.2,67.28Z" />
    <path
       id="path4"
       fill="#231f20"
       d="M200,97.72c-34,0-61.7-13.66-61.7-30.44,0-8.32,6.79-17.56,18.16-24.73,12.25-7.72,27.71-12,43.54-12s31.29,4.26,43.54,12C254.91,49.72,261.7,59,261.7,67.28,261.7,84.06,234,97.72,200,97.72Zm0-66.15c-33.62,0-60.7,19.53-60.7,35.71S166.53,96.72,200,96.72s60.7-13.21,60.7-29.44S233.62,31.57,200,31.57Z" />
    <ellipse
       id="ellipse6"
       fill="#fff"
       ry="29.32"
       rx="133.32"
       cy="78.16"
       cx="200" />
    <path
       id="path8"
       fill="#231f20"
       d="M200,108c-35.65,0-69.17-3.06-94.38-8.6C80.18,93.79,66.17,86.25,66.17,78.16s14-15.62,39.45-21.21c25.21-5.55,58.73-8.6,94.38-8.6s69.17,3,94.38,8.6c25.44,5.59,39.45,13.12,39.45,21.21s-14,15.63-39.45,21.22C269.17,104.92,235.65,108,200,108Zm0-58.63c-73.24,0-132.83,12.93-132.83,28.81S126.76,107,200,107,332.83,94.05,332.83,78.16,273.24,49.35,200,49.35Z" />
    <ellipse
       id="ellipse10"
       fill="#fff"
       ry="26.68"
       rx="133.32"
       cy="80.8"
       cx="200" />
    <path
       id="path12"
       fill="#231f20"
       d="M200,108C125,108,66.17,96,66.17,80.8S125,53.62,200,53.62,333.83,65.56,333.83,80.8,275,108,200,108Zm0-53.36c-35.58,0-69,2.78-94.18,7.81C81.26,67.34,67.17,74,67.17,80.8s14.09,13.46,38.65,18.37c25.15,5,58.6,7.81,94.18,7.81s69-2.77,94.18-7.81c24.56-4.91,38.65-11.61,38.65-18.37s-14.09-13.46-38.65-18.37C269,57.4,235.58,54.62,200,54.62Z" />
    <polygon
       id="polygon14"
       fill="#eeeeee"
       points="170.67 103.14 113.18 263.08 286.82 263.08 229.33 103.14 170.67 103.14" />
    <ellipse
       id="ellipse16"
       fill="#231f20"
       ry="4.34"
       rx="29.33"
       cy="103.14"
       cx="200" />
    <path
       id="path18"
       fill="#231f20"
       d="M200,108c-12,0-29.84-1.29-29.84-4.85S188,98.28,200,98.28s29.84,1.29,29.84,4.86S212,108,200,108Zm0-8.68c-17.59,0-28.81,2.27-28.81,3.83S182.41,107,200,107s28.81-2.26,28.81-3.82S217.59,99.31,200,99.31Z" />
    <ellipse
       id="ellipse20"
       fill="#d1d3d4"
       ry="1.74"
       rx="3.29"
       cy="79.06"
       cx="200" />
    <ellipse
       id="ellipse22"
       fill="#d1d3d4"
       ry="1.74"
       rx="3.29"
       cy="80.8"
       cx="156.17" />
    <ellipse
       id="ellipse24"
       fill="#d1d3d4"
       ry="1.74"
       rx="3.29"
       cy="80.8"
       cx="243.83" />
    <ellipse
       id="ellipse26"
       fill="#d1d3d4"
       ry="1.74"
       rx="3.29"
       cy="86.92"
       cx="105.97" />
    <ellipse
       id="ellipse28"
       fill="#d1d3d4"
       ry="1.74"
       rx="3.29"
       cy="85.76"
       cx="294.03" />
    <ellipse
       id="ellipse30"
       fill="#d1d3d4"
       ry="1.74"
       rx="3.29"
       cy="99.44"
       cx="277.13" />
    <ellipse
       id="ellipse32"
       fill="#d1d3d4"
       ry="1.74"
       rx="3.29"
       cy="99.44"
       cx="126.18" />
    <path
       id="path106"
       fill="#fff"
       d="M143.45,204.48a.47.47,0,0,1-.17,0,.49.49,0,0,1-.3-.64l31.88-88.25a.5.5,0,0,1,.64-.3.49.49,0,0,1,.3.64l-31.88,88.25A.5.5,0,0,1,143.45,204.48Z" />
    <path
       style="fill:#ffffff"
       id="path108"
       fill="#fff"
       d="M238.43,173.6a.5.5,0,0,1-.48-.37l-11.51-40.85a.51.51,0,0,1,.35-.62.49.49,0,0,1,.61.35L238.91,173a.51.51,0,0,1-.35.62Z" />
    <path
       id="path110"
       fill="#fff"
       d="M264.33,244.74a.51.51,0,0,1-.48-.35l-3.94-12.55a.51.51,0,0,1,.33-.63.5.5,0,0,1,.62.33l3.95,12.55a.5.5,0,0,1-.33.62Z" />
    <path
       id="path112"
       fill="#fff"
       d="M145.23,243.61l-.17,0a.49.49,0,0,1-.3-.63l7-20.15a.5.5,0,0,1,.63-.31.51.51,0,0,1,.31.64l-7,20.15A.5.5,0,0,1,145.23,243.61Z" />
    <path
       id="path114"
       fill="#fff"
       d="M205.47,137.45A.49.49,0,0,1,205,137l-2.21-18a.49.49,0,0,1,.43-.55.5.5,0,0,1,.56.43l2.21,18a.5.5,0,0,1-.43.56Z" />
    <path
       id="path116"
       fill="#fff"
       d="M175.85,248.68h-.11a.5.5,0,0,1-.38-.6l2.41-11.29a.49.49,0,0,1,.59-.38.51.51,0,0,1,.39.59l-2.41,11.29A.5.5,0,0,1,175.85,248.68Z" />
    <path
       id="path118"
       fill="#fff"
       d="M220,119.44a.51.51,0,0,1-.49-.38l-3.83-15.81a.5.5,0,1,1,1-.23l3.84,15.81a.51.51,0,0,1-.37.6Z" />
    <path
       id="path120"
       fill="#fff"
       d="M187.75,118l-.11,0a.49.49,0,0,1-.38-.59l2.81-13a.5.5,0,0,1,.6-.38.49.49,0,0,1,.38.59l-2.82,13A.49.49,0,0,1,187.75,118Z" />
    <path
       id="path122"
       fill="#fff"
       d="M229.33,42.77a.42.42,0,0,1-.24-.07c-14.64-8.07-32.18-7.45-32.36-7.44a.53.53,0,0,1-.52-.48.5.5,0,0,1,.48-.52c.18,0,18-.64,32.88,7.57a.51.51,0,0,1,.2.68A.53.53,0,0,1,229.33,42.77Z" />
    <path
       d="m 212.0912,220.68185 a 0.49,0.49 0 0 1 -0.47,-0.45 l -2.21,-18 a 0.49,0.49 0 0 1 0.43,-0.55 0.5,0.5 0 0 1 0.56,0.43 l 2.21,18 a 0.5,0.5 0 0 1 -0.43,0.56 z"
       fill="#ffffff"
       id="path114-7" />
    <path
       style="stroke-width:1.81713"
       d="m 178.43853,206.52242 -0.10915,-0.0137 a 0.49,1.6179534 7.1265761 0 1 -0.13537,-1.98025 l 8.11367,-42.24505 a 0.5,1.6509729 7.1265761 0 1 0.75103,-1.17061 0.49,1.6179534 7.1265761 0 1 0.13537,1.98024 l -8.1236,42.24382 a 0.49,1.6179534 7.1265761 0 1 -0.63195,1.1855 z"
       fill="#ffffff"
       id="path120-7" />
  </g>
</svg>
