<?xml version="1.0" encoding="UTF-8" standalone="no"?>
<svg
   xmlns:dc="http://purl.org/dc/elements/1.1/"
   xmlns:cc="http://creativecommons.org/ns#"
   xmlns:rdf="http://www.w3.org/1999/02/22-rdf-syntax-ns#"
   xmlns:svg="http://www.w3.org/2000/svg"
   xmlns="http://www.w3.org/2000/svg"
   xmlns:sodipodi="http://sodipodi.sourceforge.net/DTD/sodipodi-0.dtd"
   xmlns:inkscape="http://www.inkscape.org/namespaces/inkscape"
   inkscape:version="1.0 (4035a4fb49, 2020-05-01)"
   id="svg1132"
   version="1.1"
   viewBox="0 0 400 3000">
  <metadata
     id="metadata1138">
    <rdf:RDF>
      <cc:Work
         rdf:about="">
        <dc:format>image/svg+xml</dc:format>
        <dc:type
           rdf:resource="http://purl.org/dc/dcmitype/StillImage" />
        <dc:title></dc:title>
      </cc:Work>
    </rdf:RDF>
  </metadata>
  <defs
     id="defs1136" />
  <sodipodi:namedview
     inkscape:current-layer="_277_alien_flatline"
     inkscape:window-maximized="0"
     inkscape:window-y="-8"
     inkscape:window-x="952"
     inkscape:cy="2523.9089"
     inkscape:cx="182.65093"
     inkscape:zoom="1.31125"
     inkscape:pagecheckerboard="true"
     showgrid="false"
     id="namedview1134"
     inkscape:window-height="1057"
     inkscape:window-width="960"
     inkscape:pageshadow="2"
     inkscape:pageopacity="0"
     guidetolerance="10"
     gridtolerance="10"
     objecttolerance="10"
     borderopacity="1"
     bordercolor="#666666"
     pagecolor="#ffffff" />
  <g
     data-name="#277_alien_flatline"
     id="_277_alien_flatline">
    <circle
       cx="204.35596"
       cy="825.63385"
       r="4.6100001"
       fill="#ffffff"
       id="circle295" />
    <path
       d="m 204.35596,830.74386 a 5.12,5.12 0 1 1 5.11,-5.12 5.12,5.12 0 0 1 -5.11,5.12 z m 0,-9.23 a 4.12,4.12 0 1 0 4.11,4.11 4.12,4.12 0 0 0 -4.11,-4.11 z"
       fill="#d1d3d4"
       id="path297" />
    <path
       d="m 248.75164,881.68869 a 0.5,0.5 0 0 1 -0.5,-0.5 v -5.89 a 0.5,0.5 0 0 1 0.5,-0.5 0.5,0.5 0 0 1 0.5,0.5 v 5.89 a 0.5,0.5 0 0 1 -0.5,0.5 z"
       fill="#d1d3d4"
       id="path311" />
    <path
       d="m 251.75164,878.73869 h -5.89 a 0.5,0.5 0 0 1 -0.5,-0.5 0.51,0.51 0 0 1 0.5,-0.5 h 5.89 a 0.5,0.5 0 0 1 0.5,0.5 0.5,0.5 0 0 1 -0.5,0.5 z"
       fill="#d1d3d4"
       id="path313" />
    <circle
       cx="113.4977"
       cy="111.39887"
       r="4.6100001"
       fill="#ffffff"
       id="circle295-883" />
    <path
       d="m 113.4977,116.50886 a 5.12,5.12 0 1 1 5.11,-5.11999 5.12,5.12 0 0 1 -5.11,5.11999 z m 0,-9.22999 a 4.12,4.12 0 1 0 4.11,4.11 4.12,4.12 0 0 0 -4.11,-4.11 z"
       fill="#d1d3d4"
       id="path297-20" />
    <circle
       cx="319.91769"
       cy="44.698868"
       r="4.6100001"
       fill="#d1d3d4"
       id="circle303" />
    <path
       d="m 157.89338,167.45369 a 0.5,0.5 0 0 1 -0.5,-0.5 v -5.89 a 0.5,0.5 0 0 1 0.5,-0.5 0.5,0.5 0 0 1 0.5,0.5 v 5.89 a 0.5,0.5 0 0 1 -0.5,0.5 z"
       fill="#d1d3d4"
       id="path311-3" />
    <path
       d="m 160.89338,164.50369 h -5.89 a 0.5,0.5 0 0 1 -0.5,-0.5 0.51,0.51 0 0 1 0.5,-0.5 h 5.89 a 0.5,0.5 0 0 1 0.5,0.5 0.5,0.5 0 0 1 -0.5,0.5 z"
       fill="#d1d3d4"
       id="path313-54" />
    <path
       d="m 342.9377,63.848873 a 0.5,0.5 0 0 1 -0.5,-0.5 v -5.89 a 0.5,0.5 0 0 1 0.5,-0.5 0.5,0.5 0 0 1 0.5,0.5 v 5.89 a 0.5,0.5 0 0 1 -0.5,0.5 z"
       fill="#d1d3d4"
       id="path315" />
    <path
       d="m 345.8877,60.908873 h -5.89 a 0.5,0.5 0 0 1 -0.5,-0.5 0.5,0.5 0 0 1 0.5,-0.5 h 5.89 a 0.5,0.5 0 0 1 0.5,0.5 0.51,0.51 0 0 1 -0.5,0.5 z"
       fill="#d1d3d4"
       id="path317" />
    <path
       d="m 94.587703,192.95886 a 0.5,0.5 0 0 1 -0.5,-0.5 v -5.89 a 0.5,0.5 0 0 1 0.5,-0.5 0.5,0.5 0 0 1 0.5,0.5 v 5.89 a 0.5,0.5 0 0 1 -0.5,0.5 z"
       fill="#d1d3d4"
       id="path319" />
    <path
       d="m 97.527703,190.01886 h -5.89 a 0.51,0.51 0 0 1 -0.5,-0.5 0.5,0.5 0 0 1 0.5,-0.5 h 5.89 a 0.5,0.5 0 0 1 0.5,0.5 0.5,0.5 0 0 1 -0.5,0.5 z"
       fill="#d1d3d4"
       id="path321" />
    <path
       d="m 90.511899,56.748053 a 0.5,0.5 0 0 1 -0.5,-0.5 v -5.89 a 0.5,0.5 0 0 1 1,0 v 5.94 a 0.5,0.5 0 0 1 -0.5,0.45 z"
       fill="#d1d3d4"
       id="path323" />
    <path
       d="m 93.451899,53.798053 h -5.89 a 0.5,0.5 0 0 1 0,-1 h 5.89 a 0.5,0.5 0 0 1 0,1 z"
       fill="#d1d3d4"
       id="path325" />
    <circle
       id="circle303-8"
       fill="#d1d3d4"
       r="6.2918844"
       cy="460.03445"
       cx="201.9164"
       style="stroke-width:1.36483" />
    <path
       id="path311-2"
       fill="#d1d3d4"
       d="m 309.72789,325.68559 a 0.5,0.5 0 0 1 -0.5,-0.5 v -5.89 a 0.5,0.5 0 0 1 0.5,-0.5 0.5,0.5 0 0 1 0.5,0.5 v 5.89 a 0.5,0.5 0 0 1 -0.5,0.5 z" />
    <path
       id="path313-4"
       fill="#d1d3d4"
       d="m 312.72789,322.73559 h -5.89 a 0.5,0.5 0 0 1 -0.5,-0.5 0.51,0.51 0 0 1 0.5,-0.5 h 5.89 a 0.5,0.5 0 0 1 0.5,0.5 0.5,0.5 0 0 1 -0.5,0.5 z" />
    <path
       id="path311-27"
       fill="#d1d3d4"
       d="m 100.91502,361.42309 a 0.5,0.5 0 0 1 -0.5,-0.5 v -5.89 a 0.5,0.5 0 0 1 0.5,-0.5 0.5,0.5 0 0 1 0.5,0.5 v 5.89 a 0.5,0.5 0 0 1 -0.5,0.5 z" />
    <path
       id="path313-3"
       fill="#d1d3d4"
       d="m 103.91502,358.47309 h -5.889997 a 0.5,0.5 0 0 1 -0.5,-0.5 0.51,0.51 0 0 1 0.5,-0.5 h 5.889997 a 0.5,0.5 0 0 1 0.5,0.5 0.5,0.5 0 0 1 -0.5,0.5 z" />
    <path
       id="path311-6"
       fill="#d1d3d4"
       d="m 37.396181,496.01196 a 0.5,0.5 0 0 1 -0.5,-0.5 v -5.89 a 0.5,0.5 0 0 1 0.5,-0.5 0.5,0.5 0 0 1 0.5,0.5 v 5.89 a 0.5,0.5 0 0 1 -0.5,0.5 z" />
    <path
       id="path313-7"
       fill="#d1d3d4"
       d="m 40.396181,493.06196 h -5.89 a 0.5,0.5 0 0 1 -0.5,-0.5 0.51,0.51 0 0 1 0.5,-0.5 h 5.89 a 0.5,0.5 0 0 1 0.5,0.5 0.5,0.5 0 0 1 -0.5,0.5 z" />
    <path
       id="path311-4"
       fill="#d1d3d4"
       d="m 280.36685,583.96113 a 0.5,0.5 0 0 1 -0.5,-0.5 v -5.89 a 0.5,0.5 0 0 1 0.5,-0.5 0.5,0.5 0 0 1 0.5,0.5 v 5.89 a 0.5,0.5 0 0 1 -0.5,0.5 z" />
    <path
       id="path313-6"
       fill="#d1d3d4"
       d="m 283.36685,581.01113 h -5.89 a 0.5,0.5 0 0 1 -0.5,-0.5 0.51,0.51 0 0 1 0.5,-0.5 h 5.89 a 0.5,0.5 0 0 1 0.5,0.5 0.5,0.5 0 0 1 -0.5,0.5 z" />
    <path
       id="path311-21"
       fill="#d1d3d4"
       d="m 281.69942,409.83955 a 0.5,0.5 0 0 1 -0.5,-0.5 v -5.89 a 0.5,0.5 0 0 1 0.5,-0.5 0.5,0.5 0 0 1 0.5,0.5 v 5.89 a 0.5,0.5 0 0 1 -0.5,0.5 z" />
    <path
       id="path313-2"
       fill="#d1d3d4"
       d="m 284.69942,406.88955 h -5.89 a 0.5,0.5 0 0 1 -0.5,-0.5 0.51,0.51 0 0 1 0.5,-0.5 h 5.89 a 0.5,0.5 0 0 1 0.5,0.5 0.5,0.5 0 0 1 -0.5,0.5 z" />
    <path
       id="path311-8"
       fill="#d1d3d4"
       d="m 166.21061,539.09817 a 0.5,0.5 0 0 1 -0.5,-0.5 v -5.89 a 0.5,0.5 0 0 1 0.5,-0.5 0.5,0.5 0 0 1 0.5,0.5 v 5.89 a 0.5,0.5 0 0 1 -0.5,0.5 z" />
    <path
       id="path313-1"
       fill="#d1d3d4"
       d="m 169.21061,536.14817 h -5.89 a 0.5,0.5 0 0 1 -0.5,-0.5 0.51,0.51 0 0 1 0.5,-0.5 h 5.89 a 0.5,0.5 0 0 1 0.5,0.5 0.5,0.5 0 0 1 -0.5,0.5 z" />
    <path
       id="path311-44"
       fill="#d1d3d4"
       d="m 70.266071,641.70553 a 0.5,0.5 0 0 1 -0.5,-0.5 v -5.89 a 0.5,0.5 0 0 1 0.5,-0.5 0.5,0.5 0 0 1 0.5,0.5 v 5.89 a 0.5,0.5 0 0 1 -0.5,0.5 z" />
    <path
       id="path313-65"
       fill="#d1d3d4"
       d="m 73.266071,638.75553 h -5.89 a 0.5,0.5 0 0 1 -0.5,-0.5 0.51,0.51 0 0 1 0.5,-0.5 h 5.89 a 0.5,0.5 0 0 1 0.5,0.5 0.5,0.5 0 0 1 -0.5,0.5 z" />
    <path
       id="path311-9"
       fill="#d1d3d4"
       d="m 72.931198,759.41528 a 0.5,0.5 0 0 1 -0.5,-0.5 v -5.89 a 0.5,0.5 0 0 1 0.5,-0.5 0.5,0.5 0 0 1 0.5,0.5 v 5.89 a 0.5,0.5 0 0 1 -0.5,0.5 z" />
    <path
       id="path313-69"
       fill="#d1d3d4"
       d="m 75.931198,756.46528 h -5.89 a 0.5,0.5 0 0 1 -0.5,-0.5 0.51,0.51 0 0 1 0.5,-0.5 h 5.89 a 0.5,0.5 0 0 1 0.5,0.5 0.5,0.5 0 0 1 -0.5,0.5 z" />
    <path
       id="path311-1"
       fill="#d1d3d4"
       d="m 154.66173,656.36373 a 0.5,0.5 0 0 1 -0.5,-0.5 v -5.89 a 0.5,0.5 0 0 1 0.5,-0.5 0.5,0.5 0 0 1 0.5,0.5 v 5.89 a 0.5,0.5 0 0 1 -0.5,0.5 z" />
    <path
       id="path313-8"
       fill="#d1d3d4"
       d="m 157.66173,653.41373 h -5.89 a 0.5,0.5 0 0 1 -0.5,-0.5 0.51,0.51 0 0 1 0.5,-0.5 h 5.89 a 0.5,0.5 0 0 1 0.5,0.5 0.5,0.5 0 0 1 -0.5,0.5 z" />
    <path
       id="path311-5"
       fill="#d1d3d4"
       d="m 355.87876,643.0381 a 0.5,0.5 0 0 1 -0.5,-0.5 v -5.89 a 0.5,0.5 0 0 1 0.5,-0.5 0.5,0.5 0 0 1 0.5,0.5 v 5.89 a 0.5,0.5 0 0 1 -0.5,0.5 z" />
    <path
       id="path313-0"
       fill="#d1d3d4"
       d="m 358.87876,640.0881 h -5.89 a 0.5,0.5 0 0 1 -0.5,-0.5 0.51,0.51 0 0 1 0.5,-0.5 h 5.89 a 0.5,0.5 0 0 1 0.5,0.5 0.5,0.5 0 0 1 -0.5,0.5 z" />
    <path
       id="path311-10"
       fill="#d1d3d4"
       d="m 290.58317,778.07116 a 0.5,0.5 0 0 1 -0.5,-0.5 v -5.89 a 0.5,0.5 0 0 1 0.5,-0.5 0.5,0.5 0 0 1 0.5,0.5 v 5.89 a 0.5,0.5 0 0 1 -0.5,0.5 z" />
    <path
       id="path313-39"
       fill="#d1d3d4"
       d="m 293.58317,775.12116 h -5.89 a 0.5,0.5 0 0 1 -0.5,-0.5 0.51,0.51 0 0 1 0.5,-0.5 h 5.89 a 0.5,0.5 0 0 1 0.5,0.5 0.5,0.5 0 0 1 -0.5,0.5 z" />
    <path
       id="path311-87"
       fill="#d1d3d4"
       d="m 193.75025,775.85022 a 0.5,0.5 0 0 1 -0.5,-0.5 v -5.89 a 0.5,0.5 0 0 1 0.5,-0.5 0.5,0.5 0 0 1 0.5,0.5 v 5.89 a 0.5,0.5 0 0 1 -0.5,0.5 z" />
    <path
       id="path313-80"
       fill="#d1d3d4"
       d="m 196.75025,772.90022 h -5.89 a 0.5,0.5 0 0 1 -0.5,-0.5 0.51,0.51 0 0 1 0.5,-0.5 h 5.89 a 0.5,0.5 0 0 1 0.5,0.5 0.5,0.5 0 0 1 -0.5,0.5 z" />
    <path
       id="path311-65"
       fill="#d1d3d4"
       d="m 87.589392,896.66928 a 0.5,0.5 0 0 1 -0.5,-0.5 v -5.89 a 0.5,0.5 0 0 1 0.5,-0.5 0.5,0.5 0 0 1 0.5,0.5 v 5.89 a 0.5,0.5 0 0 1 -0.5,0.5 z" />
    <path
       id="path313-5"
       fill="#d1d3d4"
       d="m 90.589392,893.71928 h -5.89 a 0.5,0.5 0 0 1 -0.5,-0.5 0.51,0.51 0 0 1 0.5,-0.5 h 5.89 a 0.5,0.5 0 0 1 0.5,0.5 0.5,0.5 0 0 1 -0.5,0.5 z" />
    <path
       id="path311-0"
       fill="#d1d3d4"
       d="m 111.13134,1006.8279 a 0.5,0.5 0 0 1 -0.5,-0.5 v -5.89 a 0.5,0.5 0 0 1 0.5,-0.50002 0.5,0.5 0 0 1 0.5,0.50002 v 5.89 a 0.5,0.5 0 0 1 -0.5,0.5 z" />
    <path
       id="path313-62"
       fill="#d1d3d4"
       d="m 114.13134,1003.8779 h -5.89 a 0.5,0.5 0 0 1 -0.5,-0.5 0.51,0.51 0 0 1 0.5,-0.5 h 5.89 a 0.5,0.5 0 0 1 0.5,0.5 0.5,0.5 0 0 1 -0.5,0.5 z" />
    <path
       id="path311-43"
       fill="#d1d3d4"
       d="m 365.20671,859.8017 a 0.5,0.5 0 0 1 -0.5,-0.5 v -5.89 a 0.5,0.5 0 0 1 0.5,-0.5 0.5,0.5 0 0 1 0.5,0.5 v 5.89 a 0.5,0.5 0 0 1 -0.5,0.5 z" />
    <path
       id="path313-88"
       fill="#d1d3d4"
       d="m 368.20671,856.8517 h -5.89 a 0.5,0.5 0 0 1 -0.5,-0.5 0.51,0.51 0 0 1 0.5,-0.5 h 5.89 a 0.5,0.5 0 0 1 0.5,0.5 0.5,0.5 0 0 1 -0.5,0.5 z" />
    <path
       id="path311-82"
       fill="#d1d3d4"
       d="m 388.74866,986.39518 a 0.5,0.5 0 0 1 -0.5,-0.5 v -5.89 a 0.5,0.5 0 0 1 0.5,-0.5 0.5,0.5 0 0 1 0.5,0.5 v 5.89 a 0.5,0.5 0 0 1 -0.5,0.5 z" />
    <path
       id="path313-15"
       fill="#d1d3d4"
       d="m 391.74866,983.44518 h -5.89 a 0.5,0.5 0 0 1 -0.5,-0.5 0.51,0.51 0 0 1 0.5,-0.5 h 5.89 a 0.5,0.5 0 0 1 0.5,0.5 0.5,0.5 0 0 1 -0.5,0.5 z" />
    <path
       id="path311-03"
       fill="#d1d3d4"
       d="m 155.9943,837.14812 a 0.5,0.5 0 0 1 -0.5,-0.5 v -5.89 a 0.5,0.5 0 0 1 0.5,-0.5 0.5,0.5 0 0 1 0.5,0.5 v 5.89 a 0.5,0.5 0 0 1 -0.5,0.5 z" />
    <path
       id="path313-9"
       fill="#d1d3d4"
       d="m 158.9943,834.19812 h -5.89 a 0.5,0.5 0 0 1 -0.5,-0.5 0.51,0.51 0 0 1 0.5,-0.5 h 5.89 a 0.5,0.5 0 0 1 0.5,0.5 0.5,0.5 0 0 1 -0.5,0.5 z" />
    <path
       id="path311-67"
       fill="#d1d3d4"
       d="m 44.947372,1114.3213 a 0.5,0.5 0 0 1 -0.5,-0.5 v -5.89 a 0.5,0.5 0 0 1 0.5,-0.5 0.5,0.5 0 0 1 0.5,0.5 v 5.89 a 0.5,0.5 0 0 1 -0.5,0.5 z" />
    <path
       id="path313-44"
       fill="#d1d3d4"
       d="m 47.947372,1111.3713 h -5.89 a 0.5,0.5 0 0 1 -0.5,-0.5 0.51,0.51 0 0 1 0.5,-0.5 h 5.89 a 0.5,0.5 0 0 1 0.5,0.5 0.5,0.5 0 0 1 -0.5,0.5 z" />
    <path
       id="path311-57"
       fill="#d1d3d4"
       d="m 35.61943,1237.3613 a 0.5,0.5 0 0 1 -0.5,-0.5 v -5.89 a 0.5,0.5 0 0 1 0.5,-0.5 0.5,0.5 0 0 1 0.5,0.5 v 5.89 a 0.5,0.5 0 0 1 -0.5,0.5 z" />
    <path
       id="path313-98"
       fill="#d1d3d4"
       d="m 38.61943,1234.4113 h -5.89 a 0.5,0.5 0 0 1 -0.5,-0.5 0.51,0.51 0 0 1 0.5,-0.5 h 5.89 a 0.5,0.5 0 0 1 0.5,0.5 0.5,0.5 0 0 1 -0.5,0.5 z" />
    <path
       id="path311-13-1"
       fill="#d1d3d4"
       d="m 186.64325,1260.0149 a 0.5,0.5 0 0 1 -0.5,-0.5 v -5.89 a 0.5,0.5 0 0 1 0.5,-0.5 0.5,0.5 0 0 1 0.5,0.5 v 5.89 a 0.5,0.5 0 0 1 -0.5,0.5 z" />
    <path
       id="path313-73-3"
       fill="#d1d3d4"
       d="m 189.64325,1257.0649 h -5.89 a 0.5,0.5 0 0 1 -0.5,-0.5 0.51,0.51 0 0 1 0.5,-0.5 h 5.89 a 0.5,0.5 0 0 1 0.5,0.5 0.5,0.5 0 0 1 -0.5,0.5 z" />
    <path
       id="path311-279"
       fill="#d1d3d4"
       d="m 92.031269,1061.463 a 0.5,0.5 0 0 1 -0.5,-0.5 v -5.89 a 0.5,0.5 0 0 1 0.5,-0.5 0.5,0.5 0 0 1 0.5,0.5 v 5.89 a 0.5,0.5 0 0 1 -0.5,0.5 z" />
    <path
       id="path313-82"
       fill="#d1d3d4"
       d="m 95.031269,1058.513 h -5.89 a 0.5,0.5 0 0 1 -0.5,-0.5 0.51,0.51 0 0 1 0.5,-0.5 h 5.89 a 0.5,0.5 0 0 1 0.5,0.5 0.5,0.5 0 0 1 -0.5,0.5 z" />
    <path
       id="path311-26"
       fill="#d1d3d4"
       d="m 126.3415,1198.8586 a 0.5,0.5 0 0 1 -0.5,-0.5 v -5.89 a 0.5,0.5 0 0 1 0.5,-0.5 0.5,0.5 0 0 1 0.5,0.5 v 5.89 a 0.5,0.5 0 0 1 -0.5,0.5 z" />
    <path
       id="path313-08"
       fill="#d1d3d4"
       d="m 129.3415,1195.9086 h -5.89 a 0.5,0.5 0 0 1 -0.5,-0.5 0.51,0.51 0 0 1 0.5,-0.5 h 5.89 a 0.5,0.5 0 0 1 0.5,0.5 0.5,0.5 0 0 1 -0.5,0.5 z" />
    <path
       id="path311-84"
       fill="#d1d3d4"
       d="m 81.814952,1393.7154 a 0.5,0.5 0 0 1 -0.5,-0.5 v -5.89 a 0.5,0.5 0 0 1 0.5,-0.5 0.5,0.5 0 0 1 0.5,0.5 v 5.89 a 0.5,0.5 0 0 1 -0.5,0.5 z" />
    <path
       id="path313-19"
       fill="#d1d3d4"
       d="m 84.814952,1390.7654 h -5.89 a 0.5,0.5 0 0 1 -0.5,-0.5 0.51,0.51 0 0 1 0.5,-0.5 h 5.89 a 0.5,0.5 0 0 1 0.5,0.5 0.5,0.5 0 0 1 -0.5,0.5 z" />
    <path
       id="path311-17"
       fill="#d1d3d4"
       d="m 321.67631,1378.613 a 0.5,0.5 0 0 1 -0.5,-0.5 v -5.89 a 0.5,0.5 0 0 1 0.5,-0.5 0.5,0.5 0 0 1 0.5,0.5 v 5.89 a 0.5,0.5 0 0 1 -0.5,0.5 z" />
    <path
       id="path313-46"
       fill="#d1d3d4"
       d="m 324.67631,1375.663 h -5.89 a 0.5,0.5 0 0 1 -0.5,-0.5 0.51,0.51 0 0 1 0.5,-0.5 h 5.89 a 0.5,0.5 0 0 1 0.5,0.5 0.5,0.5 0 0 1 -0.5,0.5 z" />
    <path
       id="path311-7"
       fill="#d1d3d4"
       d="m 297.24599,1182.282 a 0.5,0.5 0 0 1 -0.5,-0.5 v -5.89 a 0.5,0.5 0 0 1 0.5,-0.5 0.5,0.5 0 0 1 0.5,0.5 v 5.89 a 0.5,0.5 0 0 1 -0.5,0.5 z" />
    <path
       id="path313-58"
       fill="#d1d3d4"
       d="m 300.24599,1179.332 h -5.89 a 0.5,0.5 0 0 1 -0.5,-0.5 0.51,0.51 0 0 1 0.5,-0.5 h 5.89 a 0.5,0.5 0 0 1 0.5,0.5 0.5,0.5 0 0 1 -0.5,0.5 z" />
    <path
       id="path311-14-1"
       fill="#d1d3d4"
       d="m 231.15858,1315.1585 a 0.5,0.5 0 0 1 -0.5,-0.5 v -5.89 a 0.5,0.5 0 0 1 0.5,-0.5 0.5,0.5 0 0 1 0.5,0.5 v 5.89 a 0.5,0.5 0 0 1 -0.5,0.5 z" />
    <path
       id="path313-193-8"
       fill="#d1d3d4"
       d="m 234.15858,1312.2085 h -5.89 a 0.5,0.5 0 0 1 -0.5,-0.5 0.51,0.51 0 0 1 0.5,-0.5 h 5.89 a 0.5,0.5 0 0 1 0.5,0.5 0.5,0.5 0 0 1 -0.5,0.5 z" />
    <path
       id="path311-73"
       fill="#d1d3d4"
       d="m 221.73594,1465.2927 a 0.5,0.5 0 0 1 -0.5,-0.5 v -5.89 a 0.5,0.5 0 0 1 0.5,-0.5 0.5,0.5 0 0 1 0.5,0.5 v 5.89 a 0.5,0.5 0 0 1 -0.5,0.5 z" />
    <path
       id="path313-72"
       fill="#d1d3d4"
       d="m 224.73594,1462.3427 h -5.89 a 0.5,0.5 0 0 1 -0.5,-0.5 0.51,0.51 0 0 1 0.5,-0.5 h 5.89 a 0.5,0.5 0 0 1 0.5,0.5 0.5,0.5 0 0 1 -0.5,0.5 z" />
    <path
       id="path311-11"
       fill="#d1d3d4"
       d="m 146.98296,1557.0064 a 0.5,0.5 0 0 1 -0.5,-0.5 v -5.89 a 0.5,0.5 0 0 1 0.5,-0.5 0.5,0.5 0 0 1 0.5,0.5 v 5.89 a 0.5,0.5 0 0 1 -0.5,0.5 z" />
    <path
       id="path313-50"
       fill="#d1d3d4"
       d="m 149.98296,1554.0564 h -5.89 a 0.5,0.5 0 0 1 -0.5,-0.5 0.51,0.51 0 0 1 0.5,-0.5 h 5.89 a 0.5,0.5 0 0 1 0.5,0.5 0.5,0.5 0 0 1 -0.5,0.5 z" />
    <path
       id="path311-99"
       fill="#d1d3d4"
       d="m 368.72919,1666.3091 a 0.5,0.5 0 0 1 -0.5,-0.5 v -5.89 a 0.5,0.5 0 0 1 0.5,-0.5 0.5,0.5 0 0 1 0.5,0.5 v 5.89 a 0.5,0.5 0 0 1 -0.5,0.5 z" />
    <path
       id="path313-30"
       fill="#d1d3d4"
       d="m 371.72919,1663.3591 h -5.89 a 0.5,0.5 0 0 1 -0.5,-0.5 0.51,0.51 0 0 1 0.5,-0.5 h 5.89 a 0.5,0.5 0 0 1 0.5,0.5 0.5,0.5 0 0 1 -0.5,0.5 z" />
    <path
       id="path311-038"
       fill="#d1d3d4"
       d="m 296.48891,1490.4197 a 0.5,0.5 0 0 1 -0.5,-0.5 v -5.89 a 0.5,0.5 0 0 1 0.5,-0.5 0.5,0.5 0 0 1 0.5,0.5 v 5.89 a 0.5,0.5 0 0 1 -0.5,0.5 z" />
    <path
       id="path313-41"
       fill="#d1d3d4"
       d="m 299.48891,1487.4697 h -5.89 a 0.5,0.5 0 0 1 -0.5,-0.5 0.51,0.51 0 0 1 0.5,-0.5 h 5.89 a 0.5,0.5 0 0 1 0.5,0.5 0.5,0.5 0 0 1 -0.5,0.5 z" />
    <path
       id="path311-2794"
       fill="#d1d3d4"
       d="m 55.269224,1612.9141 a 0.5,0.5 0 0 1 -0.5,-0.5 v -5.89 a 0.5,0.5 0 0 1 0.5,-0.5 0.5,0.5 0 0 1 0.5,0.5 v 5.89 a 0.5,0.5 0 0 1 -0.5,0.5 z" />
    <path
       id="path313-01"
       fill="#d1d3d4"
       d="m 58.269224,1609.9641 h -5.89 a 0.5,0.5 0 0 1 -0.5,-0.5 0.51,0.51 0 0 1 0.5,-0.5 h 5.89 a 0.5,0.5 0 0 1 0.5,0.5 0.5,0.5 0 0 1 -0.5,0.5 z" />
    <path
       id="path311-278"
       fill="#d1d3d4"
       d="m 40.192993,1845.3393 a 0.5,0.5 0 0 1 -0.5,-0.5 v -5.89 a 0.5,0.5 0 0 1 0.5,-0.5 0.5,0.5 0 0 1 0.5,0.5 v 5.89 a 0.5,0.5 0 0 1 -0.5,0.5 z" />
    <path
       id="path313-95"
       fill="#d1d3d4"
       d="m 43.192993,1842.3893 h -5.89 a 0.5,0.5 0 0 1 -0.5,-0.5 0.51,0.51 0 0 1 0.5,-0.5 h 5.89 a 0.5,0.5 0 0 1 0.5,0.5 0.5,0.5 0 0 1 -0.5,0.5 z" />
    <path
       id="path311-78"
       fill="#d1d3d4"
       d="m 306.53973,1934.5403 a 0.5,0.5 0 0 1 -0.5,-0.5 v -5.89 a 0.5,0.5 0 0 1 0.5,-0.5 0.5,0.5 0 0 1 0.5,0.5 v 5.89 a 0.5,0.5 0 0 1 -0.5,0.5 z" />
    <path
       id="path313-40"
       fill="#d1d3d4"
       d="m 309.53973,1931.5903 h -5.89 a 0.5,0.5 0 0 1 -0.5,-0.5 0.51,0.51 0 0 1 0.5,-0.5 h 5.89 a 0.5,0.5 0 0 1 0.5,0.5 0.5,0.5 0 0 1 -0.5,0.5 z" />
    <path
       id="path311-77"
       fill="#d1d3d4"
       d="m 75.152136,2036.455 a 0.5,0.5 0 0 1 -0.5,-0.5 v -5.89 a 0.5,0.5 0 0 1 0.5,-0.5 0.5,0.5 0 0 1 0.5,0.5 v 5.89 a 0.5,0.5 0 0 1 -0.5,0.5 z" />
    <path
       id="path313-83"
       fill="#d1d3d4"
       d="m 78.152136,2033.505 h -5.89 a 0.5,0.5 0 0 1 -0.5,-0.5 0.51,0.51 0 0 1 0.5,-0.5 h 5.89 a 0.5,0.5 0 0 1 0.5,0.5 0.5,0.5 0 0 1 -0.5,0.5 z" />
    <path
       id="path311-58"
       fill="#d1d3d4"
       d="m 215.45417,1852.8774 a 0.5,0.5 0 0 1 -0.5,-0.5 v -5.89 a 0.5,0.5 0 0 1 0.5,-0.5 0.5,0.5 0 0 1 0.5,0.5 v 5.89 a 0.5,0.5 0 0 1 -0.5,0.5 z" />
    <path
       id="path313-880"
       fill="#d1d3d4"
       d="m 218.45417,1849.9274 h -5.89 a 0.5,0.5 0 0 1 -0.5,-0.5 0.51,0.51 0 0 1 0.5,-0.5 h 5.89 a 0.5,0.5 0 0 1 0.5,0.5 0.5,0.5 0 0 1 -0.5,0.5 z" />
    <path
       id="path311-93"
       fill="#d1d3d4"
       d="m 170.22548,2084.6745 a 0.5,0.5 0 0 1 -0.5,-0.5 v -5.89 a 0.5,0.5 0 0 1 0.5,-0.5 0.5,0.5 0 0 1 0.5,0.5 v 5.89 a 0.5,0.5 0 0 1 -0.5,0.5 z" />
    <path
       id="path313-26"
       fill="#d1d3d4"
       d="m 173.22548,2081.7245 h -5.89 a 0.5,0.5 0 0 1 -0.5,-0.5 0.51,0.51 0 0 1 0.5,-0.5 h 5.89 a 0.5,0.5 0 0 1 0.5,0.5 0.5,0.5 0 0 1 -0.5,0.5 z" />
    <path
       id="path311-219"
       fill="#d1d3d4"
       d="m 279.92076,2296.4727 a 0.5,0.5 0 0 1 -0.5,-0.5 v -5.89 a 0.5,0.5 0 0 1 0.5,-0.5 0.5,0.5 0 0 1 0.5,0.5 v 5.89 a 0.5,0.5 0 0 1 -0.5,0.5 z" />
    <path
       id="path313-465"
       fill="#d1d3d4"
       d="m 282.92076,2293.5227 h -5.89 a 0.5,0.5 0 0 1 -0.5,-0.5 0.51,0.51 0 0 1 0.5,-0.5 h 5.89 a 0.5,0.5 0 0 1 0.5,0.5 0.5,0.5 0 0 1 -0.5,0.5 z" />
    <path
       id="path311-59"
       fill="#d1d3d4"
       d="m 159.54648,2002.3834 a 0.5,0.5 0 0 1 -0.5,-0.5 v -5.89 a 0.5,0.5 0 0 1 0.5,-0.5 0.5,0.5 0 0 1 0.5,0.5 v 5.89 a 0.5,0.5 0 0 1 -0.5,0.5 z" />
    <path
       id="path313-31"
       fill="#d1d3d4"
       d="m 162.54648,1999.4334 h -5.89 a 0.5,0.5 0 0 1 -0.5,-0.5 0.51,0.51 0 0 1 0.5,-0.5 h 5.89 a 0.5,0.5 0 0 1 0.5,0.5 0.5,0.5 0 0 1 -0.5,0.5 z" />
    <path
       id="path311-840"
       fill="#d1d3d4"
       d="m 383.17724,1827.1222 a 0.5,0.5 0 0 1 -0.5,-0.5 v -5.89 a 0.5,0.5 0 0 1 0.5,-0.5 0.5,0.5 0 0 1 0.5,0.5 v 5.89 a 0.5,0.5 0 0 1 -0.5,0.5 z" />
    <path
       id="path313-53"
       fill="#d1d3d4"
       d="m 386.17724,1824.1722 h -5.89 a 0.5,0.5 0 0 1 -0.5,-0.5 0.51,0.51 0 0 1 0.5,-0.5 h 5.89 a 0.5,0.5 0 0 1 0.5,0.5 0.5,0.5 0 0 1 -0.5,0.5 z" />
    <path
       id="path311-90"
       fill="#d1d3d4"
       d="m 221.72901,2358.4681 a 0.5,0.5 0 0 1 -0.5,-0.5 v -5.89 a 0.5,0.5 0 0 1 0.5,-0.5 0.5,0.5 0 0 1 0.5,0.5 v 5.89 a 0.5,0.5 0 0 1 -0.5,0.5 z" />
    <path
       id="path313-950"
       fill="#d1d3d4"
       d="m 224.72901,2355.5181 h -5.89 a 0.5,0.5 0 0 1 -0.5,-0.5 0.51,0.51 0 0 1 0.5,-0.5 h 5.89 a 0.5,0.5 0 0 1 0.5,0.5 0.5,0.5 0 0 1 -0.5,0.5 z" />
    <path
       id="path311-443"
       fill="#d1d3d4"
       d="m 72.944762,2313.4358 a 0.5,0.5 0 0 1 -0.5,-0.5 v -5.89 a 0.5,0.5 0 0 1 0.5,-0.5 0.5,0.5 0 0 1 0.5,0.5 v 5.89 a 0.5,0.5 0 0 1 -0.5,0.5 z" />
    <path
       id="path313-55"
       fill="#d1d3d4"
       d="m 75.944762,2310.4858 h -5.89 a 0.5,0.5 0 0 1 -0.5,-0.5 0.51,0.51 0 0 1 0.5,-0.5 h 5.89 a 0.5,0.5 0 0 1 0.5,0.5 0.5,0.5 0 0 1 -0.5,0.5 z" />
    <path
       id="path311-179"
       fill="#d1d3d4"
       d="m 179.01995,2499.2708 a 0.5,0.5 0 0 1 -0.5,-0.5 v -5.89 a 0.5,0.5 0 0 1 0.5,-0.5 0.5,0.5 0 0 1 0.5,0.5 v 5.89 a 0.5,0.5 0 0 1 -0.5,0.5 z" />
    <path
       id="path313-00"
       fill="#d1d3d4"
       d="m 182.01995,2496.3208 h -5.89 a 0.5,0.5 0 0 1 -0.5,-0.5 0.51,0.51 0 0 1 0.5,-0.5 h 5.89 a 0.5,0.5 0 0 1 0.5,0.5 0.5,0.5 0 0 1 -0.5,0.5 z" />
    <path
       id="path311-63"
       fill="#d1d3d4"
       d="m 70.973631,2556.4349 a 0.5,0.5 0 0 1 -0.5,-0.5 v -5.89 a 0.5,0.5 0 0 1 0.5,-0.5 0.5,0.5 0 0 1 0.5,0.5 v 5.89 a 0.5,0.5 0 0 1 -0.5,0.5 z" />
    <path
       id="path313-415"
       fill="#d1d3d4"
       d="m 73.973631,2553.4849 h -5.89 a 0.5,0.5 0 0 1 -0.5,-0.5 0.51,0.51 0 0 1 0.5,-0.5 h 5.89 a 0.5,0.5 0 0 1 0.5,0.5 0.5,0.5 0 0 1 -0.5,0.5 z" />
    <path
       id="path311-66"
       fill="#d1d3d4"
       d="m 101.12609,2244.8594 a 0.5,0.5 0 0 1 -0.5,-0.5 v -5.89 a 0.5,0.5 0 0 1 0.5,-0.5 0.5,0.5 0 0 1 0.5,0.5 v 5.89 a 0.5,0.5 0 0 1 -0.5,0.5 z" />
    <path
       id="path313-51"
       fill="#d1d3d4"
       d="m 104.12609,2241.9094 h -5.889998 a 0.5,0.5 0 0 1 -0.5,-0.5 0.51,0.51 0 0 1 0.5,-0.5 h 5.889998 a 0.5,0.5 0 0 1 0.5,0.5 0.5,0.5 0 0 1 -0.5,0.5 z" />
    <path
       id="path311-08"
       fill="#d1d3d4"
       d="m 100.85011,1859.5796 a 0.5,0.5 0 0 1 -0.5,-0.5 v -5.89 a 0.5,0.5 0 0 1 0.5,-0.5 0.5,0.5 0 0 1 0.5,0.5 v 5.89 a 0.5,0.5 0 0 1 -0.5,0.5 z" />
    <path
       id="path313-59"
       fill="#d1d3d4"
       d="m 103.85011,1856.6296 h -5.890002 a 0.5,0.5 0 0 1 -0.5,-0.5 0.51,0.51 0 0 1 0.5,-0.5 h 5.890002 a 0.5,0.5 0 0 1 0.5,0.5 0.5,0.5 0 0 1 -0.5,0.5 z" />
    <path
       id="path311-06"
       fill="#d1d3d4"
       d="m 63.699949,2364.2926 a 0.5,0.5 0 0 1 -0.5,-0.5 v -5.89 a 0.5,0.5 0 0 1 0.5,-0.5 0.5,0.5 0 0 1 0.5,0.5 v 5.89 a 0.5,0.5 0 0 1 -0.5,0.5 z" />
    <path
       id="path313-05"
       fill="#d1d3d4"
       d="m 66.699949,2361.3426 h -5.89 a 0.5,0.5 0 0 1 -0.5,-0.5 0.51,0.51 0 0 1 0.5,-0.5 h 5.89 a 0.5,0.5 0 0 1 0.5,0.5 0.5,0.5 0 0 1 -0.5,0.5 z" />
    <path
       id="path311-98"
       fill="#d1d3d4"
       d="m 34.263427,2005.9446 a 0.5,0.5 0 0 1 -0.5,-0.5 v -5.89 a 0.5,0.5 0 0 1 0.5,-0.5 0.5,0.5 0 0 1 0.5,0.5 v 5.89 a 0.5,0.5 0 0 1 -0.5,0.5 z" />
    <path
       id="path313-76"
       fill="#d1d3d4"
       d="m 37.263422,2002.9946 h -5.889995 a 0.5,0.5 0 0 1 -0.5,-0.5 0.51,0.51 0 0 1 0.5,-0.5 h 5.889995 a 0.5,0.5 0 0 1 0.5,0.5 0.5,0.5 0 0 1 -0.5,0.5 z" />
    <path
       id="path311-570"
       fill="#d1d3d4"
       d="m 41.801542,1928.0508 a 0.5,0.5 0 0 1 -0.5,-0.5 v -5.89 a 0.5,0.5 0 0 1 0.5,-0.5 0.5,0.5 0 0 1 0.5,0.5 v 5.89 a 0.5,0.5 0 0 1 -0.5,0.5 z" />
    <path
       id="path313-45"
       fill="#d1d3d4"
       d="m 44.801542,1925.1008 h -5.89 a 0.5,0.5 0 0 1 -0.5,-0.5 0.51,0.51 0 0 1 0.5,-0.5 h 5.89 a 0.5,0.5 0 0 1 0.5,0.5 0.5,0.5 0 0 1 -0.5,0.5 z" />
    <path
       id="path311-56"
       fill="#d1d3d4"
       d="m 289.34341,2428.3897 a 0.5,0.5 0 0 1 -0.5,-0.5 v -5.89 a 0.5,0.5 0 0 1 0.5,-0.5 0.5,0.5 0 0 1 0.5,0.5 v 5.89 a 0.5,0.5 0 0 1 -0.5,0.5 z" />
    <path
       id="path313-49"
       fill="#d1d3d4"
       d="m 292.34341,2425.4397 h -5.89 a 0.5,0.5 0 0 1 -0.5,-0.5 0.51,0.51 0 0 1 0.5,-0.5 h 5.89 a 0.5,0.5 0 0 1 0.5,0.5 0.5,0.5 0 0 1 -0.5,0.5 z" />
    <path
       id="path311-74"
       fill="#d1d3d4"
       d="m 172.4622,1896.0138 a 0.5,0.5 0 0 1 -0.5,-0.5 v -5.89 a 0.5,0.5 0 0 1 0.5,-0.5 0.5,0.5 0 0 1 0.5,0.5 v 5.89 a 0.5,0.5 0 0 1 -0.5,0.5 z" />
    <path
       id="path313-468"
       fill="#d1d3d4"
       d="m 175.4622,1893.0638 h -5.89 a 0.5,0.5 0 0 1 -0.5,-0.5 0.51,0.51 0 0 1 0.5,-0.5 h 5.89 a 0.5,0.5 0 0 1 0.5,0.5 0.5,0.5 0 0 1 -0.5,0.5 z" />
    <path
       id="path311-75"
       fill="#d1d3d4"
       d="m 55.533659,2393.8169 a 0.5,0.5 0 0 1 -0.5,-0.5 v -5.89 a 0.5,0.5 0 0 1 0.5,-0.5 0.5,0.5 0 0 1 0.5,0.5 v 5.89 a 0.5,0.5 0 0 1 -0.5,0.5 z" />
    <path
       id="path313-921"
       fill="#d1d3d4"
       d="m 58.533659,2390.8669 h -5.89 a 0.5,0.5 0 0 1 -0.5,-0.5 0.51,0.51 0 0 1 0.5,-0.5 h 5.89 a 0.5,0.5 0 0 1 0.5,0.5 0.5,0.5 0 0 1 -0.5,0.5 z" />
    <path
       id="path311-48"
       fill="#d1d3d4"
       d="m 30.142173,2087.1872 a 0.5,0.5 0 0 1 -0.5,-0.5 v -5.89 a 0.5,0.5 0 0 1 0.5,-0.5 0.5,0.5 0 0 1 0.5,0.5 v 5.89 a 0.5,0.5 0 0 1 -0.5,0.5 z" />
    <path
       id="path313-507"
       fill="#d1d3d4"
       d="m 33.142173,2084.2372 h -5.89 a 0.5,0.5 0 0 1 -0.5,-0.5 0.51,0.51 0 0 1 0.5,-0.5 h 5.89 a 0.5,0.5 0 0 1 0.5,0.5 0.5,0.5 0 0 1 -0.5,0.5 z" />
    <path
       id="path313-32"
       fill="#d1d3d4"
       d="m 255.02812,2162.8597 h -5.89 a 0.5,0.5 0 0 1 -0.5,-0.5 0.51,0.51 0 0 1 0.5,-0.5 h 5.89 a 0.5,0.5 0 0 1 0.5,0.5 0.5,0.5 0 0 1 -0.5,0.5 z" />
    <path
       id="path311-735"
       fill="#d1d3d4"
       d="m 227.05811,2156.387 a 0.5,0.5 0 0 1 -0.5,-0.5 v -5.89 a 0.5,0.5 0 0 1 0.5,-0.5 0.5,0.5 0 0 1 0.5,0.5 v 5.89 a 0.5,0.5 0 0 1 -0.5,0.5 z" />
    <path
       id="path313-411"
       fill="#d1d3d4"
       d="m 230.05811,2153.437 h -5.89 a 0.5,0.5 0 0 1 -0.5,-0.5 0.51,0.51 0 0 1 0.5,-0.5 h 5.89 a 0.5,0.5 0 0 1 0.5,0.5 0.5,0.5 0 0 1 -0.5,0.5 z" />
    <path
       id="path311-446"
       fill="#d1d3d4"
       d="m 61.913577,2160.2462 a 0.5,0.5 0 0 1 -0.5,-0.5 v -5.89 a 0.5,0.5 0 0 1 0.5,-0.5 0.5,0.5 0 0 1 0.5,0.5 v 5.89 a 0.5,0.5 0 0 1 -0.5,0.5 z" />
    <path
       id="path313-38"
       fill="#d1d3d4"
       d="m 64.913567,2157.2962 h -5.88999 a 0.5,0.5 0 0 1 -0.5,-0.5 0.51,0.51 0 0 1 0.5,-0.5 h 5.88999 a 0.5,0.5 0 0 1 0.5,0.5 0.5,0.5 0 0 1 -0.5,0.5 z" />
    <path
       id="path311-447"
       fill="#d1d3d4"
       d="m 158.91831,273.9563 a 0.5,0.5 0 0 1 -0.5,-0.5 v -5.89 a 0.5,0.5 0 0 1 0.5,-0.5 0.5,0.5 0 0 1 0.5,0.5 v 5.89 a 0.5,0.5 0 0 1 -0.5,0.5 z" />
    <path
       id="path313-43"
       fill="#d1d3d4"
       d="m 161.91831,271.0063 h -5.89 a 0.5,0.5 0 0 1 -0.5,-0.5 0.51,0.51 0 0 1 0.5,-0.5 h 5.89 a 0.5,0.5 0 0 1 0.5,0.5 0.5,0.5 0 0 1 -0.5,0.5 z" />
    <path
       id="path311-907"
       fill="#d1d3d4"
       d="m 41.763434,18.602645 a 0.5,0.5 0 0 1 -0.5,-0.5 v -5.89 a 0.5,0.5 0 0 1 0.5,-0.5 0.5,0.5 0 0 1 0.5,0.5 v 5.89 a 0.5,0.5 0 0 1 -0.5,0.5 z" />
    <path
       id="path313-825"
       fill="#d1d3d4"
       d="m 44.763434,15.652645 h -5.89 a 0.5,0.5 0 0 1 -0.5,-0.5 0.51,0.51 0 0 1 0.5,-0.5 h 5.89 a 0.5,0.5 0 0 1 0.5,0.5 0.5,0.5 0 0 1 -0.5,0.5 z" />
    <circle
       id="circle295-8"
       fill="#ffffff"
       r="4.6100001"
       cy="417.20047"
       cx="27.694468" />
    <path
       id="path297-8"
       fill="#d1d3d4"
       d="m 27.694468,422.31045 a 5.12,5.12 0 1 1 5.11,-5.12 5.12,5.12 0 0 1 -5.11,5.12 z m 0,-9.23 a 4.12,4.12 0 1 0 4.11,4.11 4.12,4.12 0 0 0 -4.11,-4.11 z" />
    <circle
       id="circle295-3"
       fill="#ffffff"
       r="4.6100001"
       cy="284.65527"
       cx="375.07593" />
    <path
       id="path297-1"
       fill="#d1d3d4"
       d="m 375.07595,289.76525 a 5.12,5.12 0 1 1 5.11,-5.12 5.12,5.12 0 0 1 -5.11,5.12 z m 0,-9.23 a 4.12,4.12 0 1 0 4.11,4.11 4.12,4.12 0 0 0 -4.11,-4.11 z" />
    <circle
       id="circle295-4"
       fill="#ffffff"
       r="4.6100001"
       cy="249.47739"
       cx="269.54233" />
    <path
       id="path297-3"
       fill="#d1d3d4"
       d="m 269.54233,254.58738 a 5.12,5.12 0 1 1 5.11,-5.12 5.12,5.12 0 0 1 -5.11,5.12 z m 0,-9.23 a 4.12,4.12 0 1 0 4.11,4.11 4.12,4.12 0 0 0 -4.11,-4.11 z" />
    <circle
       id="circle295-34"
       fill="#ffffff"
       r="4.6100001"
       cy="700.50806"
       cx="233.10812" />
    <path
       id="path297-88"
       fill="#d1d3d4"
       d="m 233.10811,705.61795 a 5.12,5.12 0 1 1 5.11,-5.12 5.12,5.12 0 0 1 -5.11,5.12 z m 0,-9.23 a 4.12,4.12 0 1 0 4.11,4.11 4.12,4.12 0 0 0 -4.11,-4.11 z" />
    <circle
       id="circle295-2"
       fill="#ffffff"
       r="4.6100001"
       cy="948.00952"
       cx="45.911579" />
    <path
       id="path297-7"
       fill="#d1d3d4"
       d="m 45.91158,953.11938 a 5.12,5.12 0 1 1 5.11,-5.12 5.12,5.12 0 0 1 -5.11,5.12 z m 0,-9.23 a 4.12,4.12 0 1 0 4.11,4.11 4.12,4.12 0 0 0 -4.11,-4.11 z" />
    <circle
       id="circle295-45"
       fill="#ffffff"
       r="4.6100001"
       cy="966.85474"
       cx="302.83566" />
    <path
       id="path297-5"
       fill="#d1d3d4"
       d="m 302.83568,971.96468 a 5.12,5.12 0 1 1 5.11,-5.12 5.12,5.12 0 0 1 -5.11,5.12 z m 0,-9.23 a 4.12,4.12 0 1 0 4.11,4.11 4.12,4.12 0 0 0 -4.11,-4.11 z" />
    <circle
       id="circle295-88"
       fill="#ffffff"
       r="4.6100001"
       cy="1098.7717"
       cx="151.44521" />
    <path
       id="path297-77"
       fill="#d1d3d4"
       d="m 151.44519,1103.8818 a 5.12,5.12 0 1 1 5.11,-5.12 5.12,5.12 0 0 1 -5.11,5.12 z m 0,-9.23 a 4.12,4.12 0 1 0 4.11,4.11 4.12,4.12 0 0 0 -4.11,-4.11 z" />
    <circle
       id="circle295-7"
       fill="#ffffff"
       r="4.6100001"
       cy="1284.0837"
       cx="91.140274" />
    <path
       id="path297-15"
       fill="#d1d3d4"
       d="m 91.140272,1289.1938 a 5.12,5.12 0 1 1 5.11,-5.12 5.12,5.12 0 0 1 -5.11,5.12 z m 0,-9.23 a 4.12,4.12 0 1 0 4.11,4.11 4.12,4.12 0 0 0 -4.11,-4.11 z" />
    <circle
       id="circle295-0"
       fill="#ffffff"
       r="4.6100001"
       cy="1303.5573"
       cx="369.42233" />
    <path
       id="path297-31"
       fill="#d1d3d4"
       d="m 369.42236,1308.6672 a 5.12,5.12 0 1 1 5.11,-5.12 5.12,5.12 0 0 1 -5.11,5.12 z m 0,-9.23 a 4.12,4.12 0 1 0 4.11,4.11 4.12,4.12 0 0 0 -4.11,-4.11 z" />
    <circle
       id="circle295-71"
       fill="#ffffff"
       r="4.6100001"
       cy="1441.1278"
       cx="343.66711" />
    <path
       id="path297-0"
       fill="#d1d3d4"
       d="m 343.66713,1446.2378 a 5.12,5.12 0 1 1 5.11,-5.12 5.12,5.12 0 0 1 -5.11,5.12 z m 0,-9.23 a 4.12,4.12 0 1 0 4.11,4.11 4.12,4.12 0 0 0 -4.11,-4.11 z" />
    <circle
       id="circle295-01"
       fill="#ffffff"
       r="4.6100001"
       cy="1394.0145"
       cx="226.19818" />
    <path
       id="path297-08"
       fill="#d1d3d4"
       d="m 226.19817,1399.1246 a 5.12,5.12 0 1 1 5.11,-5.12 5.12,5.12 0 0 1 -5.11,5.12 z m 0,-9.23 a 4.12,4.12 0 1 0 4.11,4.11 4.12,4.12 0 0 0 -4.11,-4.11 z" />
    <circle
       id="circle295-48"
       fill="#ffffff"
       r="4.6100001"
       cy="1745.1652"
       cx="82.345802" />
    <path
       id="path297-80"
       fill="#d1d3d4"
       d="m 82.345804,1750.2751 a 5.12,5.12 0 1 1 5.11,-5.12 5.12,5.12 0 0 1 -5.11,5.12 z m 0,-9.23 a 4.12,4.12 0 1 0 4.11,4.11 4.12,4.12 0 0 0 -4.11,-4.11 z" />
    <circle
       id="circle295-5"
       fill="#ffffff"
       r="4.6100001"
       cy="1902.8374"
       cx="330.4754" />
    <path
       id="path297-9"
       fill="#d1d3d4"
       d="m 330.47543,1907.9474 a 5.12,5.12 0 1 1 5.11,-5.12 5.12,5.12 0 0 1 -5.11,5.12 z m 0,-9.23 a 4.12,4.12 0 1 0 4.11,4.11 4.12,4.12 0 0 0 -4.11,-4.11 z" />
    <circle
       id="circle295-010"
       fill="#ffffff"
       r="4.6100001"
       cy="2019.05"
       cx="388.26764" />
    <path
       id="path297-81"
       fill="#d1d3d4"
       d="m 388.26765,2024.16 a 5.12,5.12 0 1 1 5.11,-5.12 5.12,5.12 0 0 1 -5.11,5.12 z m 0,-9.23 a 4.12,4.12 0 1 0 4.11,4.11 4.12,4.12 0 0 0 -4.11,-4.11 z" />
    <circle
       id="circle295-29"
       fill="#ffffff"
       r="4.6100001"
       cy="2317.7454"
       cx="148.88512" />
    <path
       id="path297-59"
       fill="#d1d3d4"
       d="m 148.88515,2322.8555 a 5.12,5.12 0 1 1 5.11,-5.12 5.12,5.12 0 0 1 -5.11,5.12 z m 0,-9.23 a 4.12,4.12 0 1 0 4.11,4.11 4.12,4.12 0 0 0 -4.11,-4.11 z" />
    <circle
       id="circle295-6"
       fill="#ffffff"
       r="4.6100001"
       cy="2351.2617"
       cx="348.68677" />
    <path
       id="path297-22"
       fill="#d1d3d4"
       d="m 348.68676,2356.3717 a 5.12,5.12 0 1 1 5.11,-5.12 5.12,5.12 0 0 1 -5.11,5.12 z m 0,-9.23 a 4.12,4.12 0 1 0 4.11,4.11 4.12,4.12 0 0 0 -4.11,-4.11 z" />
    <circle
       id="circle295-80"
       fill="#ffffff"
       r="4.6100001"
       cy="2163.5305"
       cx="164.00873" />
    <path
       id="path297-92"
       fill="#d1d3d4"
       d="m 164.00872,2168.6405 a 5.12,5.12 0 1 1 5.11,-5.12 5.12,5.12 0 0 1 -5.11,5.12 z m 0,-9.23 a 4.12,4.12 0 1 0 4.11,4.11 4.12,4.12 0 0 0 -4.11,-4.11 z" />
    <circle
       id="circle295-94"
       fill="#ffffff"
       r="4.6100001"
       cy="2577.4988"
       cx="301.57932" />
    <path
       id="path297-19"
       fill="#d1d3d4"
       d="m 301.57932,2582.6087 a 5.12,5.12 0 1 1 5.11,-5.12 5.12,5.12 0 0 1 -5.11,5.12 z m 0,-9.23 a 4.12,4.12 0 1 0 4.11,4.11 4.12,4.12 0 0 0 -4.11,-4.11 z" />
    <circle
       id="circle295-16"
       fill="#ffffff"
       r="4.6100001"
       cy="2498.9766"
       cx="348.69254" />
    <path
       id="path297-62"
       fill="#d1d3d4"
       d="m 348.69254,2504.0867 a 5.12,5.12 0 1 1 5.11,-5.12 5.12,5.12 0 0 1 -5.11,5.12 z m 0,-9.23 a 4.12,4.12 0 1 0 4.11,4.11 4.12,4.12 0 0 0 -4.11,-4.11 z" />
    <circle
       id="circle295-43"
       fill="#ffffff"
       r="4.6100001"
       cy="2581.2678"
       cx="246.92799" />
    <path
       id="path297-776"
       fill="#d1d3d4"
       d="m 246.92799,2586.3778 a 5.12,5.12 0 1 1 5.11,-5.12 5.12,5.12 0 0 1 -5.11,5.12 z m 0,-9.23 a 4.12,4.12 0 1 0 4.11,4.11 4.12,4.12 0 0 0 -4.11,-4.11 z" />
    <circle
       id="circle295-42"
       fill="#ffffff"
       r="4.6100001"
       cy="2644.0854"
       cx="41.514347" />
    <path
       id="path297-778"
       fill="#d1d3d4"
       d="m 41.514346,2649.1954 a 5.12,5.12 0 1 1 5.11,-5.12 5.12,5.12 0 0 1 -5.11,5.12 z m 0,-9.23 a 4.12,4.12 0 1 0 4.11,4.11 4.12,4.12 0 0 0 -4.11,-4.11 z" />
    <circle
       r="4.6100001"
       id="circle295-70"
       fill="#ffffff"
       cy="2708.1387"
       cx="185.37364" />
    <path
       id="path297-4"
       fill="#d1d3d4"
       d="m 185.37364,2713.2486 a 5.12,5.12 0 1 1 5.11,-5.12 5.12,5.12 0 0 1 -5.11,5.12 z m 0,-9.23 a 4.12,4.12 0 1 0 4.11,4.11 4.12,4.12 0 0 0 -4.11,-4.11 z" />
    <circle
       r="4.6100001"
       id="circle295-55"
       fill="#ffffff"
       cy="2841.0786"
       cx="68.642563" />
    <path
       id="path297-73"
       fill="#d1d3d4"
       d="m 68.642553,2846.1887 a 5.12,5.12 0 1 1 5.11,-5.12 5.12,5.12 0 0 1 -5.11,5.12 z m 0,-9.23 a 4.12,4.12 0 1 0 4.11,4.11 4.12,4.12 0 0 0 -4.11,-4.11 z" />
    <circle
       r="4.6100001"
       id="circle295-12"
       fill="#ffffff"
       cy="2900.6516"
       cx="206.91179" />
    <path
       id="path297-43"
       fill="#d1d3d4"
       d="m 206.91177,2905.7616 a 5.12,5.12 0 1 1 5.11,-5.12 5.12,5.12 0 0 1 -5.11,5.12 z m 0,-9.23 a 4.12,4.12 0 1 0 4.11,4.11 4.12,4.12 0 0 0 -4.11,-4.11 z" />
    <circle
       style="stroke-width:0.4879"
       id="circle173-8"
       fill="#ffffff"
       r="9.6311417"
       cy="2447.873"
       cx="195.49095" />
    <path
       style="stroke-width:0.4879"
       id="path175-9"
       fill="#d1d3d4"
       d="m 195.49093,2457.7482 a 9.8750914,9.8750914 0 1 1 9.87021,-9.8751 9.8848494,9.8848494 0 0 1 -9.87021,9.8751 z m 0,-19.2574 a 9.3871916,9.3871916 0 1 0 9.38231,9.3823 9.3969496,9.3969496 0 0 0 -9.38231,-9.3823 z" />
    <circle
       r="12.388103"
       style="stroke-width:0.627564"
       id="circle173-0"
       fill="#ffffff"
       cy="2835.3206"
       cx="264.61249" />
    <path
       style="stroke-width:0.627564"
       id="path175-7"
       fill="#d1d3d4"
       d="m 264.6125,2848.0224 a 12.701885,12.701885 0 1 1 12.69561,-12.7018 12.714436,12.714436 0 0 1 -12.69561,12.7018 z m 0,-24.7699 a 12.074321,12.074321 0 1 0 12.06805,12.0681 12.086872,12.086872 0 0 0 -12.06805,-12.0681 z" />
    <circle
       id="circle303-8-7-2-7-6"
       fill="#d1d3d4"
       r="9.6102171"
       cy="2636.6611"
       cx="144.94461"
       style="stroke-width:0.542535" />
    <circle
       id="circle303-7"
       fill="#d1d3d4"
       r="4.6100001"
       cy="248.21106"
       cx="82.3358" />
    <circle
       id="circle303-71"
       fill="#d1d3d4"
       r="4.6100001"
       cy="616.32239"
       cx="212.99648" />
    <circle
       id="circle303-2"
       fill="#d1d3d4"
       r="4.6100001"
       cy="1055.4176"
       cx="27.684467" />
    <circle
       cx="108.72921"
       cy="715.58429"
       r="4.6100001"
       fill="#ffffff"
       id="circle295-34-6" />
    <path
       d="m 108.72921,720.69418 a 5.12,5.12 0 1 1 5.10999,-5.12 5.12,5.12 0 0 1 -5.10999,5.12 z m 0,-9.23 a 4.12,4.12 0 1 0 4.10999,4.11 4.12,4.12 0 0 0 -4.10999,-4.11 z"
       fill="#d1d3d4"
       id="path297-88-1" />
    <circle
       cx="42.770702"
       cy="594.97443"
       r="4.6100001"
       fill="#ffffff"
       id="circle295-34-2" />
    <path
       d="m 42.770698,600.08433 a 5.12,5.12 0 1 1 5.11,-5.12 5.12,5.12 0 0 1 -5.11,5.12 z m 0,-9.23 a 4.12,4.12 0 1 0 4.11,4.11 4.12,4.12 0 0 0 -4.11,-4.11 z"
       fill="#d1d3d4"
       id="path297-88-12" />
    <path
       d="m 54.012871,155.54507 a 0.5,0.5 0 0 1 -0.5,-0.5 v -5.89 a 0.5,0.5 0 0 1 0.5,-0.5 0.5,0.5 0 0 1 0.5,0.5 v 5.89 a 0.5,0.5 0 0 1 -0.5,0.5 z"
       fill="#d1d3d4"
       id="path311-27-4" />
    <path
       d="m 57.012871,152.59507 h -5.89 a 0.5,0.5 0 0 1 -0.5,-0.5 0.51,0.51 0 0 1 0.5,-0.5 h 5.89 a 0.5,0.5 0 0 1 0.5,0.5 0.5,0.5 0 0 1 -0.5,0.5 z"
       fill="#d1d3d4"
       id="path313-3-6" />
    <path
       d="m 72.229984,307.56373 a 0.5,0.5 0 0 1 -0.5,-0.5 v -5.89 a 0.5,0.5 0 0 1 0.5,-0.5 0.5,0.5 0 0 1 0.5,0.5 v 5.89 a 0.5,0.5 0 0 1 -0.5,0.5 z"
       fill="#d1d3d4"
       id="path311-27-3" />
    <path
       d="m 75.229984,304.61373 h -5.89 a 0.5,0.5 0 0 1 -0.5,-0.5 0.51,0.51 0 0 1 0.5,-0.5 h 5.89 a 0.5,0.5 0 0 1 0.5,0.5 0.5,0.5 0 0 1 -0.5,0.5 z"
       fill="#d1d3d4"
       id="path313-3-3" />
    <path
       d="m 365.5883,1092.7841 a 0.5,0.5 0 0 1 -0.5,-0.5 v -5.89 a 0.5,0.5 0 0 1 0.5,-0.5 0.5,0.5 0 0 1 0.5,0.5 v 5.89 a 0.5,0.5 0 0 1 -0.5,0.5 z"
       fill="#d1d3d4"
       id="path311-27-2" />
    <path
       d="m 368.5883,1089.8341 h -5.89 a 0.5,0.5 0 0 1 -0.5,-0.5 0.51,0.51 0 0 1 0.5,-0.5 h 5.89 a 0.5,0.5 0 0 1 0.5,0.5 0.5,0.5 0 0 1 -0.5,0.5 z"
       fill="#d1d3d4"
       id="path313-3-0" />
    <circle
       style="stroke-width:0.441345"
       cx="124.42802"
       cy="478.12357"
       r="8.7121544"
       fill="#ffffff"
       id="circle173-86-5" />
    <path
       style="stroke-width:0.441345"
       d="m 124.42802,487.05638 a 8.9328269,8.9328269 0 1 1 8.92842,-8.93283 8.9416538,8.9416538 0 0 1 -8.92842,8.93283 z m 0,-17.41989 a 8.4914817,8.4914817 0 1 0 8.48707,8.48706 8.5003086,8.5003086 0 0 0 -8.48707,-8.48706 z"
       fill="#d1d3d4"
       id="path175-3-9" />
    <circle
       style="stroke-width:0.596527"
       cx="337.38129"
       cy="446.71463"
       r="11.775444"
       fill="#ffffff"
       id="circle173-86-2" />
    <path
       style="stroke-width:0.596527"
       d="m 337.38133,458.78845 a 12.073708,12.073708 0 1 1 12.06775,-12.07371 12.085639,12.085639 0 0 1 -12.06775,12.07371 z m 0,-23.54493 a 11.477181,11.477181 0 1 0 11.47122,11.47122 11.489112,11.489112 0 0 0 -11.47122,-11.47122 z"
       fill="#d1d3d4"
       id="path175-3-0" />
    <circle
       cx="320.42462"
       cy="515.19598"
       r="4.6100001"
       fill="#ffffff"
       id="circle295-4-0" />
    <path
       d="m 320.42461,520.30595 a 5.12,5.12 0 1 1 5.11,-5.12 5.12,5.12 0 0 1 -5.11,5.12 z m 0,-9.23 a 4.12,4.12 0 1 0 4.11,4.11 4.12,4.12 0 0 0 -4.11,-4.11 z"
       fill="#d1d3d4"
       id="path297-3-1" />
    <path
       d="m 388.20265,494.76026 a 0.5,0.5 0 0 1 -0.5,-0.5 v -5.89 a 0.5,0.5 0 0 1 0.5,-0.5 0.5,0.5 0 0 1 0.5,0.5 v 5.89 a 0.5,0.5 0 0 1 -0.5,0.5 z"
       fill="#d1d3d4"
       id="path311-4-2" />
    <path
       d="m 391.20265,491.81026 h -5.89 a 0.5,0.5 0 0 1 -0.5,-0.5 0.51,0.51 0 0 1 0.5,-0.5 h 5.89 a 0.5,0.5 0 0 1 0.5,0.5 0.5,0.5 0 0 1 -0.5,0.5 z"
       fill="#d1d3d4"
       id="path313-6-8" />
    <path
       d="m 133.16308,2776.9247 a 0.5,0.5 0 0 1 -0.5,-0.5 v -5.89 a 0.5,0.5 0 0 1 0.5,-0.5 0.5,0.5 0 0 1 0.5,0.5 v 5.89 a 0.5,0.5 0 0 1 -0.5,0.5 z"
       fill="#d1d3d4"
       id="path311-08-8" />
    <path
       d="m 136.16308,2773.9747 h -5.89 a 0.5,0.5 0 0 1 -0.5,-0.5 0.51,0.51 0 0 1 0.5,-0.5 h 5.89 a 0.5,0.5 0 0 1 0.5,0.5 0.5,0.5 0 0 1 -0.5,0.5 z"
       fill="#d1d3d4"
       id="path313-59-1" />
    <path
       d="m 91.650337,2774.3659 a 0.5,0.5 0 0 1 -0.5,-0.5 v -5.89 a 0.5,0.5 0 0 1 0.5,-0.5 0.5,0.5 0 0 1 0.5,0.5 v 5.89 a 0.5,0.5 0 0 1 -0.5,0.5 z"
       fill="#d1d3d4"
       id="path311-08-2" />
    <path
       d="m 94.650337,2771.4159 h -5.89 a 0.5,0.5 0 0 1 -0.5,-0.5 0.51,0.51 0 0 1 0.5,-0.5 h 5.89 a 0.5,0.5 0 0 1 0.5,0.5 0.5,0.5 0 0 1 -0.5,0.5 z"
       fill="#d1d3d4"
       id="path313-59-8" />
    <path
       d="m 356.09176,2711.8184 a 0.5,0.5 0 0 1 -0.5,-0.5 v -5.89 a 0.5,0.5 0 0 1 0.5,-0.5 0.5,0.5 0 0 1 0.5,0.5 v 5.89 a 0.5,0.5 0 0 1 -0.5,0.5 z"
       fill="#d1d3d4"
       id="path311-08-6" />
    <path
       d="m 359.09176,2708.8684 h -5.89 a 0.5,0.5 0 0 1 -0.5,-0.5 0.51,0.51 0 0 1 0.5,-0.5 h 5.89 a 0.5,0.5 0 0 1 0.5,0.5 0.5,0.5 0 0 1 -0.5,0.5 z"
       fill="#d1d3d4"
       id="path313-59-5" />
    <path
       d="m 101.24272,2841.3728 a 0.5,0.5 0 0 1 -0.5,-0.5 v -5.89 a 0.5,0.5 0 0 1 0.5,-0.5 0.5,0.5 0 0 1 0.5,0.5 v 5.89 a 0.5,0.5 0 0 1 -0.5,0.5 z"
       fill="#d1d3d4"
       id="path311-08-9" />
    <path
       d="m 104.24272,2838.4228 h -5.889997 a 0.5,0.5 0 0 1 -0.5,-0.5 0.51,0.51 0 0 1 0.5,-0.5 h 5.889997 a 0.5,0.5 0 0 1 0.5,0.5 0.5,0.5 0 0 1 -0.5,0.5 z"
       fill="#d1d3d4"
       id="path313-59-3" />
    <path
       d="m 369.98554,2807.0772 a 0.5,0.5 0 0 1 -0.5,-0.5 v -5.89 a 0.5,0.5 0 0 1 0.5,-0.5 0.5,0.5 0 0 1 0.5,0.5 v 5.89 a 0.5,0.5 0 0 1 -0.5,0.5 z"
       fill="#d1d3d4"
       id="path311-08-86" />
    <path
       d="m 372.98554,2804.1272 h -5.89 a 0.5,0.5 0 0 1 -0.5,-0.5 0.51,0.51 0 0 1 0.5,-0.5 h 5.89 a 0.5,0.5 0 0 1 0.5,0.5 0.5,0.5 0 0 1 -0.5,0.5 z"
       fill="#d1d3d4"
       id="path313-59-55" />
    <path
       d="m 300.25797,2881.8302 a 0.5,0.5 0 0 1 -0.5,-0.5 v -5.89 a 0.5,0.5 0 0 1 0.5,-0.5 0.5,0.5 0 0 1 0.5,0.5 v 5.89 a 0.5,0.5 0 0 1 -0.5,0.5 z"
       fill="#d1d3d4"
       id="path311-08-5" />
    <path
       d="m 303.25797,2878.8802 h -5.89 a 0.5,0.5 0 0 1 -0.5,-0.5 0.51,0.51 0 0 1 0.5,-0.5 h 5.89 a 0.5,0.5 0 0 1 0.5,0.5 0.5,0.5 0 0 1 -0.5,0.5 z"
       fill="#d1d3d4"
       id="path313-59-0" />
    <path
       d="m 81.718448,2915.2933 a 0.5,0.5 0 0 1 -0.5,-0.5 v -5.89 a 0.5,0.5 0 0 1 0.5,-0.5 0.5,0.5 0 0 1 0.5,0.5 v 5.89 a 0.5,0.5 0 0 1 -0.5,0.5 z"
       fill="#d1d3d4"
       id="path311-08-3" />
    <path
       d="m 84.718443,2912.3433 h -5.889995 a 0.5,0.5 0 0 1 -0.5,-0.5 0.51,0.51 0 0 1 0.5,-0.5 h 5.889995 a 0.5,0.5 0 0 1 0.5,0.5 0.5,0.5 0 0 1 -0.5,0.5 z"
       fill="#d1d3d4"
       id="path313-59-9" />
    <path
       d="m 30.770349,2727.2988 a 0.5,0.5 0 0 1 -0.5,-0.5 v -5.89 a 0.5,0.5 0 0 1 0.5,-0.5 0.5,0.5 0 0 1 0.5,0.5 v 5.89 a 0.5,0.5 0 0 1 -0.5,0.5 z"
       fill="#d1d3d4"
       id="path311-08-50" />
    <path
       d="m 33.770349,2724.3488 h -5.89 a 0.5,0.5 0 0 1 -0.5,-0.5 0.51,0.51 0 0 1 0.5,-0.5 h 5.89 a 0.5,0.5 0 0 1 0.5,0.5 0.5,0.5 0 0 1 -0.5,0.5 z"
       fill="#d1d3d4"
       id="path313-59-6" />
    <path
       d="m 76.290038,2704.3912 a 0.5,0.5 0 0 1 -0.5,-0.5 v -5.89 a 0.5,0.5 0 0 1 0.5,-0.5 0.5,0.5 0 0 1 0.5,0.5 v 5.89 a 0.5,0.5 0 0 1 -0.5,0.5 z"
       fill="#d1d3d4"
       id="path311-08-20" />
    <path
       d="m 79.290038,2701.4412 h -5.89 a 0.5,0.5 0 0 1 -0.5,-0.5 0.51,0.51 0 0 1 0.5,-0.5 h 5.89 a 0.5,0.5 0 0 1 0.5,0.5 0.5,0.5 0 0 1 -0.5,0.5 z"
       fill="#d1d3d4"
       id="path313-59-68" />
    <path
       d="m 65.266927,2763.0587 a 0.5,0.5 0 0 1 -0.5,-0.5 v -5.89 a 0.5,0.5 0 0 1 0.5,-0.5 0.5,0.5 0 0 1 0.5,0.5 v 5.89 a 0.5,0.5 0 0 1 -0.5,0.5 z"
       fill="#d1d3d4"
       id="path311-08-34" />
    <path
       d="m 68.266927,2760.1087 h -5.89 a 0.5,0.5 0 0 1 -0.5,-0.5 0.51,0.51 0 0 1 0.5,-0.5 h 5.89 a 0.5,0.5 0 0 1 0.5,0.5 0.5,0.5 0 0 1 -0.5,0.5 z"
       fill="#d1d3d4"
       id="path313-59-33" />
    <circle
       cx="116.25732"
       cy="1515.8708"
       r="4.6100001"
       fill="#d1d3d4"
       id="circle303-2-1" />
    <circle
       cx="262.38681"
       cy="2255.3372"
       r="4.6100001"
       fill="#d1d3d4"
       id="circle303-2-3" />
    <circle
       cx="243.15353"
       cy="2714.3906"
       r="4.6100001"
       fill="#d1d3d4"
       id="circle303-2-6" />
    <circle
       cx="157.56223"
       cy="2839.0676"
       r="4.6100001"
       fill="#d1d3d4"
       id="circle303-2-67" />
    <circle
       cx="335.30722"
       cy="2767.8054"
       r="4.6100001"
       fill="#d1d3d4"
       id="circle303-2-5" />
    <circle
       cx="72.284988"
       cy="2517.1838"
       r="4.6100001"
       fill="#d1d3d4"
       id="circle303-2-55" />
    <circle
       cx="52.525711"
       cy="2241.8984"
       r="4.6100001"
       fill="#d1d3d4"
       id="circle303-2-7" />
  </g>
</svg>
