<?xml version="1.0" encoding="UTF-8" standalone="no"?>
<svg
   xmlns:dc="http://purl.org/dc/elements/1.1/"
   xmlns:cc="http://creativecommons.org/ns#"
   xmlns:rdf="http://www.w3.org/1999/02/22-rdf-syntax-ns#"
   xmlns:svg="http://www.w3.org/2000/svg"
   xmlns="http://www.w3.org/2000/svg"
   xmlns:sodipodi="http://sodipodi.sourceforge.net/DTD/sodipodi-0.dtd"
   xmlns:inkscape="http://www.inkscape.org/namespaces/inkscape"
   viewBox="0 0 400 3000"
   version="1.1"
   id="svg1132"
   sodipodi:docname="cosmosBG3.svg"
   width="400"
   height="3000"
   inkscape:version="1.0 (4035a4fb49, 2020-05-01)">
  <metadata
     id="metadata1138">
    <rdf:RDF>
      <cc:Work
         rdf:about="">
        <dc:format>image/svg+xml</dc:format>
        <dc:type
           rdf:resource="http://purl.org/dc/dcmitype/StillImage" />
        <dc:title />
      </cc:Work>
    </rdf:RDF>
  </metadata>
  <defs
     id="defs1136" />
  <sodipodi:namedview
     inkscape:document-rotation="0"
     pagecolor="#ffffff"
     bordercolor="#666666"
     borderopacity="1"
     objecttolerance="10"
     gridtolerance="10"
     guidetolerance="10"
     inkscape:pageopacity="0"
     inkscape:pageshadow="2"
     inkscape:window-width="960"
     inkscape:window-height="1041"
     id="namedview1134"
     showgrid="false"
     inkscape:pagecheckerboard="true"
     inkscape:zoom="0.46359688"
     inkscape:cx="-93.217008"
     inkscape:cy="1556.4956"
     inkscape:window-x="952"
     inkscape:window-y="-8"
     inkscape:window-maximized="1"
     inkscape:current-layer="_277_alien_flatline" />
  <g
     id="_277_alien_flatline"
     data-name="#277_alien_flatline">
    <ellipse
       ry="244.68729"
       rx="246.50801"
       cy="1823.1575"
       cx="12.860673"
       id="path74"
       style="fill:#ffffff;stroke-width:2.18763" />
    <path
       d="m 48.738698,1900.0665 a 1.1719558,1.1719558 0 0 1 -1.17196,-1.1718 v -13.8058 a 1.1719558,1.1719558 0 0 1 1.17196,-1.1719 1.1719558,1.1719558 0 0 1 1.17195,1.1719 v 13.8058 a 1.1719558,1.1719558 0 0 1 -1.17195,1.1718 z"
       fill="#d1d3d4"
       id="path311-14"
       style="stroke-width:2.34391" />
    <path
       d="M 55.770438,1893.1519 H 41.964787 a 1.1719558,1.1719558 0 0 1 -1.17196,-1.1718 1.1953949,1.195395 0 0 1 1.17196,-1.1721 h 13.805651 a 1.1719558,1.1719558 0 0 1 1.171949,1.1721 1.1719558,1.1719558 0 0 1 -1.171949,1.1718 z"
       fill="#d1d3d4"
       id="path313-193"
       style="stroke-width:2.34391" />
    <ellipse
       cx="210.625"
       cy="1693.489"
       fill="#fff"
       id="circle1017"
       style="fill:#ffffff;stroke-width:1.67515"
       r="103.70879" />
    <path
       style="stroke-width:3.92641"
       d="M 13.907224,1578.8698 A 243.12351,243.12351 0 1 1 -229.21619,1821.9931 243.08426,243.08426 0 0 1 13.907224,1578.8698 m 0,-3.5731 A 246.69655,246.69655 0 1 0 260.56455,1821.9931 246.93214,246.93214 0 0 0 13.907224,1575.2967 Z"
       fill="#d1d3d4"
       id="path1019" />
    <path
       style="stroke-width:3.92641"
       d="m 196.17147,1661.1282 a 9.2663351,9.2663353 0 0 1 -5.61484,0.3532 l 3.25898,-2.9841 q -6.59647,-7.2637 -13.78173,-13.9779 a 10.915429,10.915429 0 0 0 5.49694,8.7561 c -5.14372,0.2746 -9.14853,-2.788 -13.66385,-3.9267 a 145.98403,145.98403 0 0 0 -16.21611,-3.0626 l 8.04899,5.8111 a 39.264132,39.264132 0 0 1 -4.59384,1.4528 c -1.53127,-3.259 -3.45515,-0.5891 -5.22198,-0.7068 -3.92653,-0.2355 -8.32418,4.4368 -11.34735,-0.3925 a 25.914329,25.914329 0 0 0 -4.16208,0.903 43.190544,43.190544 0 0 0 -10.60129,4.9864 c -3.65157,2.9057 -4.79025,3.2592 -7.61724,-1.0991 l 3.73009,-1.2567 v -1.5313 l -7.57808,-1.6098 a 24.854196,24.854196 0 0 0 -0.3141,5.4186 9.6197121,9.6197121 0 0 0 1.53129,3.1804 60.545291,60.545293 0 0 0 -6.63561,1.0207 58.503556,58.503559 0 0 0 -6.12512,2.5523 l 1.84536,3.9263 -10.090774,-1.6489 -0.35347,0.9422 3.926294,2.5129 c -5.771634,1.7278 -9.384084,-1.2957 -9.384084,-7.1852 l -4.9473,-2.6308 a 11.425862,11.425862 0 0 1 5.22224,0.6282 c 5.4578,1.178 10.954744,2.5523 16.294634,-0.197 2.78762,-1.4135 2.63058,-3.3768 0,-4.7116 a 57.364897,57.364897 0 0 0 -10.130134,-4.3193 c -6.1645,-1.7668 -12.44688,-2.984 -18.807549,-4.4367 l 1.020769,-1.6098 a 63.097459,63.097457 0 0 0 -8.834435,-1.8454 14.292144,14.292144 0 0 0 -5.143486,1.6883 l 1.531269,-3.3374 c -2.944881,1.3741 -5.300751,3.5336 -7.067587,3.1018 -3.926295,-0.8639 -6.910565,2.1595 -10.954737,1.3743 -2.277115,-0.432 -5.300541,2.984 -7.067366,3.9263 a 29.64442,29.64442 0 0 0 -5.457807,1.2172 33.806417,33.806417 0 0 0 -4.554684,3.5339 l 6.203874,-1.4922 c -2.787847,3.4552 -5.811273,7.5389 -9.187912,11.2689 -2.316492,2.5521 -4.790251,5.8895 -7.852811,6.7141 a 27.484892,27.484892 0 0 0 -11.0724044,6.3216 6.4393176,6.4393176 0 0 0 -1.64918,4.6723 32.589228,32.589228 0 0 0 2.1594484,7.4996 5.5362426,5.5362424 0 0 0 6.989087,3.1411 c 2.434381,-1.2171 5.496941,-4.1228 6.949688,-3.4551 2.198825,1.0206 3.258982,4.5153 4.751117,6.9496 0.314078,0.5105 0.549656,1.0602 0.824357,1.5706 1.374235,2.9056 1.217191,9.6197 6.596464,2.67 4.358273,0.9422 4.358273,-2.6307 4.633218,-5.0652 a 6.9104873,6.9104873 0 0 1 3.926283,-5.8504 3.3767154,3.3767154 0 0 0 0.392833,-6.2036 c -3.337493,-2.3952 -3.730094,-4.5939 -0.863956,-7.8528 1.53128,-1.6493 3.926505,-2.5129 5.536319,-3.9266 1.609802,-1.4132 2.630571,-3.5731 4.27975,-4.9079 a 19.632066,19.632066 0 0 1 6.557087,-3.6908 c 1.374224,-0.3927 3.219594,0.903 5.22224,1.5705 -3.926516,3.1019 -6.949942,5.4184 -9.894602,7.8528 -1.649169,1.3351 -3.573049,9.3056 -2.081147,10.1695 a 20.849253,20.849253 0 0 0 9.070234,2.984 49.747654,49.747657 0 0 0 8.55949,-1.8061 12.525258,12.525257 0 0 1 4.161862,0.8637 v 1.7672 l -7.5385,0.6672 a 49.865448,49.865449 0 0 0 -5.92892,0.707 c -2.669948,0.5887 -3.023403,2.3949 -1.138679,4.1227 1.884747,1.7273 1.688325,3.9263 -0.353456,5.6146 -5.064963,-4.1229 -6.164486,-3.9263 -7.381687,2.7093 a 24.343762,24.343762 0 0 0 0,4.4761 c -2.080915,0.8638 -4.593829,2.9056 -5.889542,2.3165 -5.300763,-2.5521 -8.795289,2.1597 -13.506797,2.5129 -1.452746,-3.6906 -3.926516,-1.4133 -6.557087,-1.3742 a 7.420921,7.4209207 0 0 1 -4.319128,-2.0809 c -0.667545,-0.5496 -1.138668,-2.5523 -0.70669,-3.0234 a 7.3031285,7.3031285 0 0 0 1.374236,-8.1279 c -6.400054,3.4947 -6.360909,3.4947 -4.868763,10.0125 a 21.359687,21.359687 0 0 1 0.274701,3.9264 l -9.5017584,3.9265 c -3.062781,3.0234 -5.222229,5.2221 -7.421043,7.3423 -0.785223,0.7461 -1.92389202,1.2566 -2.43439202,2.1596 a 6.9497514,6.949751 0 0 1 -9.42323598,3.6518 c 0,1.3346 0.31409,2.5913 0.471123,3.9262 l -8.4418336,-0.3926 a 86.145505,86.145506 0 0 0 7.8528106,8.638 c 3.376639,3.9265 0.628168,7.8527 0,11.7794 -7.0675976,0.5497 -14.1351856,-2.7485 -20.9669956,1.4135 3.926295,7.8527 -2.630803,16.0983 2.041792,23.8331 l 4.632974,-0.5496 2.787847,3.6911 c 7.067588,-1.6886 13.9387756,-2.7095 16.0590776,-8.8345 0,-2.3559 -0.549656,-3.9265 0,-4.9868 1.648937,-2.2378 3.92628398,-3.9262 5.69313098,-6.2036 1.21718002,-1.4136 3.25897102,-3.0626 3.18044902,-4.5153 -0.235567,-4.5547 2.473769,-4.2799 5.025818,-3.2982 a 5.3006577,5.3006577 0 0 0 6.5179424,-1.1388 39.264132,39.264132 0 0 1 4.98644,-3.416 c 1.217202,1.5315 2.395247,3.1413 3.926527,4.6726 a 47.862977,47.862977 0 0 0 7.02821,7.5778 c 4.59384,3.3374 10.051636,5.8113 8.088378,13.2321 l 3.219594,-4.4761 -1.531269,-5.34 5.300751,2.2774 c 0,-0.8637 0,-1.4528 -0.353455,-1.6097 -3.101716,-2.0419 -4.947296,-5.7327 -9.030636,-6.6357 -1.099523,-0.2356 -2.120291,-1.5313 -2.86637,-2.5523 -0.746067,-1.0208 -2.002392,-3.4551 -3.219593,-4.9864 -3.101927,-3.9266 -2.552281,-5.772 1.688324,-6.9107 a 11.77924,11.77924 0 0 0 1.452747,2.7095 c 0.471123,0.5102 1.923892,0.4711 2.041791,0.9421 1.138669,4.2407 4.750874,5.497 7.8528,7.4603 2.002414,1.2171 4.71174,3.6122 4.71174,5.4577 0,8.5986 6.125109,13.8209 9.109135,20.5746 a 34.434644,34.434644 0 0 0 3.455393,-6.0469 5.7325633,5.732563 0 0 0 -0.392601,-3.9264 48.020034,48.020034 0 0 0 -3.455393,-5.5754 c 1.924125,0 3.730094,0.7852 4.39764,0 3.337504,-2.9843 3.219604,-3.0628 6.085975,-1.4137 -0.235556,3.1411 -0.431979,5.772 -0.589034,8.1279 1.295724,1.9238 2.238202,4.8294 4.122717,5.693 1.884735,0.8639 4.240605,5.0652 8.206269,1.5707 1.25634,-1.0993 5.41842,1.0993 8.24541,1.8061 0,0 0.31408,0 0.43198,0 l 7.18526,-3.2982 c -1.4919,6.5963 -2.63057,11.7793 -3.92629,17.0407 -0.74606,3.3767 -2.04177,5.9288 -6.28238,6.0465 -1.64893,0 -3.25897,1.8063 -3.92628,2.2774 l 6.59623,6.9499 -3.21959,2.5129 0.43198,1.2564 6.32154,-1.8847 c 0.86372,1.5313 2.12006,3.4553 3.10169,5.4972 1.68855,3.4156 3.29835,6.9104 4.86876,10.4441 1.256584,2.8271 2.395254,5.6932 3.494554,8.5987 a 63.450837,63.450834 0 0 0 2.08092,6.361 58.307236,58.307237 0 0 0 4.2406,6.557 c 4.31914,6.2824 4.20124,13.7818 5.4578,20.8885 0.43175,2.5129 1.53129,3.416 3.92628,2.2772 3.92653,-2.0809 8.32417,-3.9262 12.17194,-6.4785 3.84799,-2.552 7.61725,-6.3999 11.77932,-8.9129 a 30.743816,30.743816 0 0 0 10.20869,-8.2455 c 0.74582,-1.0209 1.29571,-2.1594 1.96302,-3.2588 a 22.81246,22.81246 0 0 1 2.04178,-3.2592 c 4.90816,-5.3788 3.92652,-10.13 -2.63057,-13.3496 a 6.7926949,6.7926947 0 0 1 -2.78785,-3.5337 28.545025,28.545025 0 0 1 -0.62818,-5.772 45.467865,45.467865 0 0 0 -4.90814,6.3609 c -1.8845,3.7301 -4.90791,1.4527 -7.34231,1.9239 -0.27493,-1.5312 -0.5105,-3.0627 -0.82457,-4.594 -0.31411,-1.5313 -0.43176,-2.0024 -0.90313,-4.2402 l -1.72745,3.9261 -7.46021,-16.0196 c 3.92629,-4.4368 4.79027,-4.3583 7.61725,1.0602 0.39261,0.7852 0.74607,1.6097 1.06015,2.4343 a 11.033221,11.033221 0 0 0 15.70562,6.243 c 2.08092,5.183 2.51291,5.8505 8.40245,6.2035 5.88954,0.3536 12.13255,0 17.51183,0 l 9.93373,11.3083 -2.82699,1.1778 6.51796,5.6539 c 1.41337,-1.6882 2.7876,-3.4159 3.37663,-3.9261 1.53128,8.1668 2.78785,17.7079 5.14372,26.9743 a 144.80612,144.80612 0 0 0 8.91296,27.4851 33.374512,33.374512 0 0 0 7.85281,-23.912 11.151013,11.151013 0 0 1 0.7852,-6.3215 c 2.12031,-3.102 5.53632,-5.3007 7.53873,-8.4418 3.10193,-4.8688 9.26641,-7.3423 10.44424,-13.7032 0,-0.8246 1.88474,-1.6099 3.0234,-1.8848 3.18046,-0.8243 6.40005,-1.3742 9.73756,-2.081 a 24.068912,24.068912 0 0 0 2.31649,6.9498 39.264132,39.264132 0 0 1 4.90791,8.3633 245.71494,245.71494 0 0 0 1.57066,-27.485 242.22042,242.22042 0 0 0 -61.13415,-160.8649 z"
       fill="#d1d3d4"
       id="path1021" />
    <path
       style="stroke-width:3.92641"
       d="m -140.95061,2009.5188 a 14.056559,14.056559 0 0 0 1.41361,-4.8689 8.8344295,8.8344293 0 0 1 5.10433,-8.4417 c 3.92629,-1.8061 8.24542,-3.0234 12.32898,-4.5939 a 4.8294881,4.8294881 0 0 0 2.47354,-1.5705 46.488733,46.488733 0 0 0 4.98667,-10.7192 134.08701,134.08701 0 0 0 1.84535,-15.902 3.4945078,3.4945078 0 0 1 0.35346,-1.7276 c 2.08093,-2.7091 4.51533,-5.2614 6.40006,-8.1278 a 24.500818,24.500818 0 0 0 5.18286,-10.2085 7.5387133,7.5387136 0 0 0 -7.06759,-8.3632 2.8270174,2.8270174 0 0 1 -1.68833,-1.2956 c -4.79026,-6.4002 -11.77933,-4.9868 -18.29727,-5.0653 0.58903,-2.7485 -0.82437,-3.6515 -3.69074,-4.3191 a 16.490936,16.490936 0 0 1 -13.9779,-12.2502 c -2.00265,-7.8529 -5.92893,-10.1696 -14.2531,-10.6407 a 15.430803,15.430803 0 0 1 -6.79265,-3.2981 30.194116,30.194116 0 0 1 -4.35827,-4.3192 14.998898,14.998898 0 0 0 -2.12031,-2.3163 c -2.31648,-1.5708 -3.92628,-4.9868 -7.0676,-4.3193 a 15.313011,15.313011 0 0 1 -9.7373,0 c -2.98428,-1.2957 -5.8898,-2.7484 -9.38433,-4.3975 -0.90288,2.3951 -2.04154,5.4969 -3.25873,8.8738 -2.19883,-3.4946 0,-6.9106 0.54964,-10.5232 -6.43943,3.9266 -13.89963,6.2431 -15.43091,15.0775 l -0.43175,-0.2355 a 243.43762,243.43762 0 0 0 76.91828,113.552 z"
       fill="#d1d3d4"
       id="path1023" />
    <path
       style="stroke-width:3.92641"
       d="m -189.5594,1742.9152 c 8.16689,1.8454 14.25285,-2.2773 20.77056,-5.4183 a 4.2797903,4.2797903 0 0 0 2.2382,-3.1021 5.8110914,5.8110916 0 0 0 -2.3167,-3.9261 20.456613,20.456613 0 0 0 -5.73252,-1.4138 l 2.51291,-1.6488 a 55.323162,55.323162 0 0 1 -9.38408,-5.8113 c -1.41362,-1.2957 -0.94226,-4.4367 -2.04178,-6.3216 -1.84537,-3.2196 -4.24038,-6.0856 -6.51771,-9.2662 -2.19883,3.0626 -2.78785,8.599 -8.12775,7.2638 a 6.3607893,6.3607893 0 0 1 -3.92653,-2.709 241.35663,241.35663 0 0 0 -26.38542,93.2913 14.370672,14.370672 0 0 1 2.82699,-2.2773 c 6.675,-3.9263 7.0676,-4.9865 5.33991,-12.6821 a 38.950018,38.950018 0 0 1 0,-7.4997 l 1.68831,6.4 c 1.57067,-2.7874 3.92652,-5.065 3.92652,-7.5386 0.432,-4.3583 2.59144,-5.3399 6.28216,-5.4184 a 18.179293,18.179293 0 0 0 4.27998,-0.9422 l -1.21718,-0.5497 c 0.23555,-2.1597 -0.31433,-5.4969 0.82434,-6.2825 a 144.0601,144.0601 0 0 1 14.41013,-7.4601 l -3.1413,6.7535 1.09953,0.2355 15.23448,-8.1277 -0.66755,-1.1778 -1.88472,1.0993 1.021,-3.573 a 1.8846783,1.8846783 0 0 0 -1.6098,0.9816 c -2.7487,3.9264 -4.2406,4.3976 -8.36331,1.4527 -3.06255,-2.1987 -4.1621,-4.7115 -0.9031,-7.8529 0.27493,-0.2746 -0.51053,-2.5129 -0.90313,-2.552 a 13.938767,13.938767 0 0 0 -5.10434,0.3926 66.749023,66.749025 0 0 0 -6.51794,2.67 c 3.57307,-3.4551 7.0676,-8.2063 12.28984,-6.9891 z"
       fill="#d1d3d4"
       id="path1025" />
    <path
       style="stroke-width:3.92641"
       d="m 17.500875,1896.1702 a 8.9522221,8.9522219 0 0 1 1.138668,6.2821 c -1.884747,6.4787 -1.963269,11.7794 3.337493,17.2764 a 23.28363,23.28363 0 0 1 6.203642,17.7865 4.2405262,4.2405262 0 0 0 0.667534,2.5129 c 2.120314,2.9056 0.82459,4.9867 -0.589033,7.8528 -3.141072,6.4395 -6.164476,13.0751 -1.727691,20.6529 a 30.70455,30.70455 0 0 1 5.73274,14.8418 22.341291,22.341291 0 0 0 5.575463,15.3524 14.724049,14.724049 0 0 1 4.358273,9.7769 7.3816569,7.3816571 0 0 0 4.122706,7.8527 26.778137,26.778137 0 0 1 4.162083,-1.3742 74.052153,74.05215 0 0 0 11.779095,-1.2565 c 9.933969,-2.8269 14.763364,-11.3471 19.632128,-19.3179 0.9425,-1.492 0.35348,-3.9263 0.5105,-6.7536 0.58903,-0.3139 1.92389,-1.1777 3.37665,-1.8452 a 6.4785817,6.4785819 0 0 0 3.92651,-8.7951 c -0.43197,-1.5313 -1.13866,-3.0234 -1.53126,-4.5547 -0.19689,-0.9031 -0.35346,-2.2774 0,-2.7093 3.25873,-3.0232 6.87117,-5.7327 10.13015,-8.7951 2.080924,-2.0025 4.907914,-4.2013 5.418424,-6.7142 a 33.335249,33.335249 0 0 0 -0.58903,-11.7793 c -0.43198,-2.5914 -2.15944,-4.9864 -2.6308,-7.5779 -0.47113,-2.5913 1.41361,-6.1644 -1.648944,-8.6774 -0.35348,-0.314 0,-1.8848 0.2747,-2.5129 4.908154,-6.7926 8.912964,-14.8419 15.234504,-19.9462 8.36331,-6.7927 12.52538,-15.7056 17.11922,-24.6186 a 30.70455,30.70455 0 0 0 1.68832,-8.4023 c -6.40006,1.6488 -12.05405,3.2195 -17.78654,4.4367 a 3.6908284,3.6908284 0 0 1 -3.18045,-1.4922 c -0.94227,-1.6098 -0.8246,-3.9261 -1.96327,-5.3399 -2.08092,-2.5521 -4.86877,-4.5546 -7.18526,-6.9496 a 13.035691,13.035691 0 0 1 -3.062554,-4.4369 c -1.88475,-5.8112 -6.24301,-10.405 -6.91056,-16.9621 -0.43199,-3.9263 -4.16208,-7.8529 -6.00745,-11.7793 a 154.85774,154.85774 0 0 1 -6.12511,-15.2737 c -1.29572,-3.9264 -3.45539,-3.4945 -6.478562,-2.67 a 14.488464,14.488464 0 0 1 -6.949942,0.5105 138.40607,138.40607 0 0 1 -13.388886,-4.6331 c -3.926516,-1.4921 -7.067609,0.1969 -7.421065,4.1618 -0.274701,2.9058 -1.491892,4.4761 -4.240362,2.4344 -2.748471,-2.0416 -8.167133,-0.9423 -9.148535,-6.0859 0,-0.197 -1.060146,0 -1.531501,-0.2747 -4.161851,-1.8063 -9.815837,0.5103 -12.171707,-3.9267 l 3.101694,-9.1876 a 37.732831,37.732831 0 0 0 -5.771642,-0.8246 c -5.025807,0 -10.0910024,0.3534 -15.0774434,1.0208 a 43.190544,43.190544 0 0 0 -10.405092,2.7878 c -5.3005186,2.1594 -10.4442366,3.9264 -15.1951206,0.2747 a 34.473907,34.473907 0 0 1 -6.871166,7.0286 8.9522221,8.9522219 0 0 0 -4.986672,8.1275 c 0,5.3401 -2.826993,7.2245 -7.067599,8.5203 a 5.1828655,5.1828656 0 0 0 -2.709093,1.8847 c -2.512914,3.9265 -4.986684,8.1669 -7.14612,12.4467 -1.492135,2.9843 -4.279751,5.5364 -1.492135,9.9339 a 13.624653,13.624653 0 0 1 0.314089,10.2088 33.335249,33.335249 0 0 0 -1.099291,13.4281 c 0,0.9817 1.020769,1.924 1.72768,2.788 0.706701,0.8635 1.570436,1.2172 2.120314,2.0024 a 105.77757,105.77757 0 0 0 7.656389,11.0332 106.01316,106.01316 0 0 0 10.09077,8.5204 6.3215253,6.3215255 0 0 0 6.83203,0.9423 63.254516,63.254513 0 0 1 10.993883,-1.0602 19.082369,19.082369 0 0 0 4.240617,-0.6282 89.914862,89.914862 0 0 1 8.5988666,-3.0626 c 2.90551498,-0.6284 6.910565,-2.4738 8.284789,1.924 1.374246,4.3976 3.494549,3.9261 6.6747654,3.5336 a 5.5755067,5.5755067 0 0 1 5.065196,2.0811 z"
       fill="#d1d3d4"
       id="path1027" />
    <path
       style="stroke-width:3.92641"
       d="m -163.29175,1655.5525 a 9.3448634,9.3448632 0 0 0 2.43439,-1.1384 l 7.14612,4.9864 -9.10915,-1.2956 -0.23555,1.335 8.75568,3.2981 v 4.3189 l -10.44424,5.3007 4.79025,3.9266 c 0,1.4527 -0.43174,2.827 0,3.9263 3.29835,6.7926 6.67499,13.546 10.24806,20.1817 a 11.425862,11.425862 0 0 0 4.16184,3.9265 74.601851,74.601851 0 0 0 7.65662,3.4552 c 1.92389,0.8245 3.92628,1.8063 4.35826,-1.5707 0.432,-3.3765 1.41363,-6.4391 2.19883,-9.6588 0,-0.5889 0.39262,-1.4135 0.8246,-1.61 a 8.3632601,8.3632601 0 0 0 4.20122,-8.638 c 0,-1.2172 2.1203,-3.573 3.06256,-3.4946 a 16.176822,16.176822 0 0 0 15.35238,-8.2454 c 1.06015,-1.4527 2.82699,-3.259 4.39742,-3.3767 a 57.561217,57.561217 0 0 0 25.325489,-9.4628 l -11.111781,-1.1386 3.023415,-3.6513 8.795057,3.7297 a 6.3607893,6.3607893 0 0 0 -4.358262,-7.8527 c -3.926527,-1.492 -4.162094,-3.5336 -2.198825,-6.1645 h 10.169281 l -2.944638,-3.2981 6.517709,-0.9422 -2.905515,-3.0235 c 5.10434,-3.4551 -1.570425,-5.1828 -1.177824,-7.8528 l 6.321542,-0.3926 c -1.138679,-1.7668 -1.766847,-3.9264 -3.101926,-4.4368 a 17.982971,17.982971 0 0 0 -6.282165,-0.4715 c 5.850164,-8.795 15.705622,-11.779 24.971813,-15.9801 a 19.632066,19.632066 0 0 0 -16.098223,-1.021 101.37999,101.37999 0 0 1 -14.409908,2.8664 l 2.23797,-3.5731 c -1.884515,0.2355 -3.926284,0.4711 -5.653986,0.6282 -1.020769,0 -2.080926,0 -3.101926,0 v -1.8061 l 11.42586,-1.9242 c -3.926284,-1.0601 -7.617244,-2.5129 -11.347349,-3.2586 a 243.79099,243.79099 0 0 0 -73.895098,53.399 z"
       fill="#d1d3d4"
       id="path1029" />
    <path
       style="stroke-width:3.92641"
       d="m -194.19271,1696.2301 -1.41337,2.356 a 27.210042,27.210042 0 0 1 2.82698,1.0209 z"
       fill="#d1d3d4"
       id="path1031" />
    <path
       style="stroke-width:3.92641"
       d="m 115.87625,1986.2745 a 11.77924,11.77924 0 0 0 1.53127,11.7791 4.9472807,4.9472807 0 0 0 7.85281,-2.0024 c 2.51291,-8.3634 4.75088,-16.8052 7.10675,-25.2468 0,-0.6284 0,-1.4527 0.43197,-1.9242 a 7.5779774,7.5779778 0 0 0 -1.37422,-9.9337 c -4.86877,3.6516 -5.37928,11.7794 -14.17435,11.3079 0,2.8273 0,5.4972 0,8.0887 a 23.126573,23.126573 0 0 1 -1.37423,7.9314 z"
       fill="#d1d3d4"
       id="path1037" />
    <path
       style="stroke-width:3.92641"
       d="m -1.4843534,1718.2967 c 0.392601,-1.0602 1.41362398,-2.6306 1.06015698,-3.1021 a 4.5153751,4.5153751 0 0 0 -2.31649198,-1.06 c -3.416005,-4.6724 -6.400043,-8.7558 -9.5411136,-13.1142 2.5914146,-4.5544 2.4735146,-6.2821 -0.942501,-8.5204 -2.159448,-1.3743 -6.989076,0.5499 -9.187658,3.691 -0.981634,1.4133 0.471123,4.1228 4.27974,7.8528 l -0.549646,2.7093 c 0.745836,0 1.295724,0 1.570425,0.2356 1.374236,1.0207 3.416016,1.9238 3.926516,3.2587 0.510269,1.3351 -0.863956,3.0234 -3.101926,2.0813 a 3.2196589,3.2196589 0 0 0 -1.099291,1.6097 c 0,1.6098 0,3.2197 0,5.2613 l 3.612195,1.0602 c -1.884736,1.492 -3.730105,2.8662 -6.439431,4.9472 l 17.4333126,-2.7877 c 0.6284,-2.2381 0.94249,-3.1804 1.295713,-4.1227 z"
       fill="#d1d3d4"
       id="path1039" />
    <path
       style="stroke-width:3.92641"
       d="m -72.473696,1694.9344 a 10.247938,10.247938 0 0 0 5.221997,0 22.262763,22.262763 0 0 0 7.538721,-3.5728 c 1.688314,-1.3745 5.536319,-2.513 3.69096,-5.6934 a 30.90087,30.90087 0 0 0 -6.400053,-6.1645 l -0.353456,1.4529 -13.310607,3.1804 -3.219593,-4.3192 0.5105,1.4136 -5.811274,3.3767 0.589034,0.746 h 6.243009 l -5.653986,2.9448 6.282153,1.8456 -3.180216,2.3164 c 2.748471,0.9422 5.261374,1.9238 7.852811,2.4735 z"
       fill="#d1d3d4"
       id="path1043" />
    <path
       style="stroke-width:3.92641"
       d="m 41.549339,1621.5498 c 2.866127,-2.2774 5.221997,-4.3192 7.8528,-6.0074 a 3.2196589,3.2196589 0 0 1 2.984037,0 c 0.70669,0.4711 0.863724,1.8062 1.41337,3.0234 h 8.481222 v -1.5707 l -23.911889,-9.5411 1.492135,3.259 -14.253096,-1.2566 -0.314079,1.4921 a 22.576877,22.576877 0 0 0 6.164487,4.1228 18.925312,18.925312 0 0 0 6.910553,-0.9424 v 1.0994 l -5.418418,1.9632 v 0.7461 l 4.279739,0.3926 -2.86637,1.4919 z"
       fill="#d1d3d4"
       id="path1045" />
    <path
       style="stroke-width:3.92641"
       d="m -21.626848,1710.3259 c 2.002647,-1.2563 2.35587,-2.984 0.314322,-3.9263 -2.041791,-0.9422 -4.358516,-2.7877 -6.674987,0 -1.217201,1.4527 -2.74847,2.6306 -4.436794,4.2797 v 6.8713 l -1.413624,0.6675 c 0.746079,0.6282 1.688325,1.924 2.23797,1.7669 a 43.504659,43.504659 0 0 0 9.187912,-3.3375 c 0.706679,-0.4318 0,-3.1017 0.274933,-4.751 0.03994,-0.6675 0.157045,-1.3742 0.510268,-1.5706 z"
       fill="#d1d3d4"
       id="path1047" />
    <path
       style="stroke-width:3.92641"
       d="m -194.27107,1863.8095 c 0.35324,-3.9263 -6.67499,-6.4001 -13.03566,-4.6722 l 3.37664,3.9261 -6.59646,-0.628 c 5.18307,3.6123 10.68001,0.9423 16.25548,1.3741 z"
       fill="#d1d3d4"
       id="path1051" />
    <path
       style="stroke-width:3.92641"
       d="m 21.328212,1760.427 -2.905505,1.178 v 7.4995 c 4.98643,-0.2355 2.709094,-4.2406 3.690728,-6.4002 0.235556,-0.5105 -0.471123,-1.4527 -0.785223,-2.2773 z"
       fill="#d1d3d4"
       id="path1057" />
  </g>
</svg>
