<?xml version="1.0" encoding="UTF-8" standalone="no"?>
<svg
   xmlns:dc="http://purl.org/dc/elements/1.1/"
   xmlns:cc="http://creativecommons.org/ns#"
   xmlns:rdf="http://www.w3.org/1999/02/22-rdf-syntax-ns#"
   xmlns:svg="http://www.w3.org/2000/svg"
   xmlns="http://www.w3.org/2000/svg"
   xmlns:sodipodi="http://sodipodi.sourceforge.net/DTD/sodipodi-0.dtd"
   xmlns:inkscape="http://www.inkscape.org/namespaces/inkscape"
   inkscape:version="1.0 (4035a4fb49, 2020-05-01)"
   sodipodi:docname="cosmos.svg"
   id="svg310"
   version="1.1"
   height="3000"
   width="400">
  <metadata
     id="metadata314">
    <rdf:RDF>
      <cc:Work
         rdf:about="">
        <dc:format>image/svg+xml</dc:format>
        <dc:type
           rdf:resource="http://purl.org/dc/dcmitype/StillImage" />
        <dc:title></dc:title>
      </cc:Work>
    </rdf:RDF>
  </metadata>
  <sodipodi:namedview
     inkscape:current-layer="_319_rocket_boy_flatline"
     inkscape:window-maximized="1"
     inkscape:window-y="-8"
     inkscape:window-x="-8"
     inkscape:cy="310.41519"
     inkscape:cx="115.60732"
     inkscape:zoom="1.3386348"
     showguides="true"
     showgrid="false"
     id="namedview312"
     inkscape:window-height="1057"
     inkscape:window-width="1920"
     inkscape:pageshadow="2"
     inkscape:pageopacity="0"
     guidetolerance="10"
     gridtolerance="10"
     objecttolerance="10"
     borderopacity="1"
     bordercolor="#666666"
     pagecolor="#eeeee0">
    <inkscape:grid
       id="grid316"
       type="xygrid" />
  </sodipodi:namedview>
  <defs
     id="defs206">
    <filter
       id="svg_118_blur"
       x="-50%"
       y="-50%"
       width="200%"
       height="200%">
      <feGaussianBlur
         id="feGaussianBlur203"
         in="SourceGraphic"
         stdDeviation="10" />
    </filter>
  </defs>
  <g
     id="g211">
    <title
       id="title208">background</title>
    <rect
       x="-1"
       y="-1"
       width="402"
       height="3002"
       id="canvas_background"
       fill="none" />
  </g>
  <g
     id="g308">
    <title
       id="title213">Layer 1</title>
    <g
       id="_319_rocket_boy_flatline"
       stroke="null">
      <circle
         style="fill:#ffffff"
         r="19.74"
         cx="103.5985"
         cy="62.27124"
         fill="#ffffff"
         id="svg_1"
         stroke="null"
         transform="rotate(1)" />
      <path
         d="M 102.1427,84.306714 A 20.24,20.24 0 1 1 122.72286,64.422859 20.26,20.26 0 0 1 102.1427,84.306714 Z m 0.68885,-39.463988 a 19.24,19.24 0 1 0 18.89146,19.562681 19.26,19.26 0 0 0 -18.89146,-19.562681 z"
         fill="#d1d3d4"
         id="svg_2"
         stroke="null" />
      <circle
         cx="242.061322"
         cy="587.047053"
         r="4.037712"
         fill="#fff"
         id="svg_62"
         transform="rotate(1 242.06135559081025,587.0470581054693) "
         stroke="null" />
      <path
         d="m242.061476,591.522534a4.75573,4.4844 0 1 1 4.746441,-4.4844a4.75573,4.4844 0 0 1 -4.746441,4.4844zm0,-8.084182a3.826876,3.608541 0 1 0 3.817588,3.599782a3.826876,3.608541 0 0 0 -3.817588,-3.599782z"
         fill="#d1d3d4"
         id="svg_63"
         stroke="null"
         transform="rotate(1 242.05220031738193,587.0381469726564) " />
      <circle
         cx="385.064033"
         cy="699.901756"
         r="2.023236"
         fill="#fff"
         id="svg_64"
         stroke="null"
         transform="rotate(1 385.06405639646584,699.9017333984353) " />
      <path
         d="m385.064034,702.362759a2.610078,2.461165 0 1 1 2.60079,-2.461165a2.610078,2.461165 0 0 1 -2.60079,2.461165zm0,-4.04647a1.681225,1.585305 0 1 0 1.671936,1.585305a1.681225,1.585305 0 0 0 -1.671936,-1.585305z"
         fill="#d1d3d4"
         id="svg_65"
         stroke="null"
         transform="rotate(1 385.0547485351521,699.9016113281251) " />
      <circle
         cx="259.0334"
         cy="164.404318"
         r="12.734726"
         fill="#d1d3d4"
         id="svg_66"
         transform="rotate(1 259.0334472656258,164.40432739257886) "
         stroke="null" />
      <circle
         style="fill:#ffffff"
         ry="23.970522"
         rx="22.746069"
         cx="375.73352"
         cy="-192.40349"
         fill="#ffffff"
         id="svg_67"
         stroke="null"
         transform="rotate(80.354952)" />
      <path
         d="m252.644935,361.370474a24.586751,23.183998 0 1 1 23.70434,-29.341289l0,0a24.596039,23.192756 0 0 1 -23.70434,29.341289zm0,-45.500895a23.667186,22.316897 0 1 0 22.812641,16.396088l0,0a23.70434,22.351931 0 0 0 -22.821929,-16.396088l0.009289,0z"
         fill="#d1d3d4"
         id="svg_68"
         stroke="null"
         transform="rotate(1 252.64404296874272,338.18646240234455) " />
      <path
         d="m223.590267,350.632161c-4.30988,0 -8.211065,-0.586826 -8.805531,-2.627578c-0.956719,-3.354541 8.062448,-7.733838 13.551972,-10.063624a0.464427,0.43793 0 0 1 0.371541,0.805791c-10.291696,4.317987 -13.477664,7.488598 -13.003948,9.021352s4.913635,2.732681 16.087742,1.471444a173.695596,163.785704 0 0 0 44.780025,-11.596378c10.282408,-4.30047 13.468375,-7.479839 13.003948,-9.021352s-4.904346,-2.723923 -16.087742,-1.462685a0.464427,0.43793 0 0 1 -0.111462,-0.875859c5.963239,-0.674412 16.106319,-1.287513 17.090904,2.102063s-8.053159,7.760114 -13.533395,10.046107a173.909232,163.987152 0 0 1 -45.077258,11.701481a71.828237,67.730206 0 0 1 -8.266796,0.49924z"
         fill="#d1d3d4"
         id="svg_69"
         stroke="null"
         transform="rotate(1 252.6281585693295,338.1938781738284) " />
      <path
         d="m372.181509,194.178176a0.464427,0.43793 0 0 1 -0.464427,-0.43793l0,-5.158812a0.464427,0.43793 0 0 1 0.464427,-0.43793a0.464427,0.43793 0 0 1 0.464427,0.43793l0,5.158812a0.464427,0.43793 0 0 1 -0.464427,0.43793z"
         fill="#d1d3d4"
         id="svg_70"
         stroke="null"
         transform="rotate(1 372.1815185546883,191.16084289550713) " />
      <path
         d="m374.968138,191.595283l-5.470947,0a0.464427,0.43793 0 0 1 -0.464427,-0.43793a0.473715,0.446688 0 0 1 0.464427,-0.43793l5.470947,0a0.464427,0.43793 0 0 1 0.464427,0.43793a0.464427,0.43793 0 0 1 -0.464427,0.43793z"
         fill="#d1d3d4"
         id="svg_71"
         stroke="null"
         transform="rotate(1 372.23266601562176,191.1573486328127) " />
      <path
         d="m338.282132,99.692613a0.464427,0.43793 0 0 1 -0.464427,-0.43793l0,-5.158812a0.464427,0.43793 0 0 1 0.464427,-0.43793a0.464427,0.43793 0 0 1 0.464427,0.43793l0,5.158812a0.464427,0.43793 0 0 1 -0.464427,0.43793z"
         fill="#d1d3d4"
         id="svg_72"
         stroke="null"
         transform="rotate(1 338.28210449218545,96.67527008056678) " />
      <path
         d="m341.022172,97.117667l-5.470947,0a0.464427,0.43793 0 0 1 -0.464427,-0.43793a0.464427,0.43793 0 0 1 0.464427,-0.43793l5.470947,0a0.464427,0.43793 0 0 1 0.464427,0.43793a0.473715,0.446688 0 0 1 -0.464427,0.43793z"
         fill="#d1d3d4"
         id="svg_73"
         stroke="null"
         transform="rotate(1 338.2867126464831,96.67973327636733) " />
      <path
         d="m294.192934,266.426202a0.464427,0.43793 0 0 1 -0.464427,-0.43793l0,-5.158812a0.464427,0.43793 0 0 1 0.464427,-0.43793a0.464427,0.43793 0 0 1 0.464427,0.43793l0,5.158812a0.464427,0.43793 0 0 1 -0.464427,0.43793z"
         fill="#d1d3d4"
         id="svg_74"
         stroke="null"
         transform="rotate(1 294.1929321289048,263.40887451171824) " />
      <path
         d="m296.923688,263.851094l-5.470947,0a0.473715,0.446688 0 0 1 -0.464427,-0.43793a0.464427,0.43793 0 0 1 0.464427,-0.437929l5.470947,0a0.464427,0.43793 0 0 1 0.464426,0.437929a0.464427,0.43793 0 0 1 -0.464426,0.43793z"
         fill="#d1d3d4"
         id="svg_75"
         stroke="null"
         transform="rotate(1 294.1882324218683,263.41317749023506) " />
      <path
         d="m162.729048,99.212501a0.464427,0.43793 0 0 1 -0.464427,-0.43793l0,-5.158812a0.464427,0.43793 0 0 1 0.928853,0l0,5.202605a0.464427,0.43793 0 0 1 -0.464427,0.394137z"
         fill="#d1d3d4"
         id="svg_76"
         stroke="null"
         transform="rotate(1 162.72904968261795,96.1951599121096) " />
      <path
         d="m165.459954,96.628636l-5.470947,0a0.464427,0.43793 0 0 1 0,-0.875859l5.470947,0a0.464427,0.43793 0 0 1 0,0.875859z"
         fill="#d1d3d4"
         id="svg_77"
         stroke="null"
         transform="rotate(1 162.7244873046853,96.19070434570392) " />
      <path
         d="m313.644489,742.430806a0.464427,0.43793 0 0 1 -0.464427,-0.43793l0,-5.158812a0.464427,0.43793 0 0 1 0.464427,-0.437929a0.464427,0.43793 0 0 1 0.464427,0.437929l0,5.158812a0.464427,0.43793 0 0 1 -0.464427,0.43793z"
         fill="#d1d3d4"
         id="svg_78"
         stroke="null"
         transform="rotate(1 313.6445007324121,739.4134521484364) " />
      <path
         d="m316.375242,739.855697l-5.470947,0a0.473715,0.446688 0 0 1 -0.464426,-0.43793a0.464427,0.43793 0 0 1 0.464426,-0.437929l5.470947,0a0.464427,0.43793 0 0 1 0.464427,0.437929a0.464427,0.43793 0 0 1 -0.464427,0.43793z"
         fill="#d1d3d4"
         id="svg_79"
         stroke="null"
         transform="rotate(1 313.63977050780085,739.4177856445335) " />
      <circle
         cx="324.713758"
         cy="488.656569"
         r="4.037712"
         fill="#fff"
         id="svg_80"
         stroke="null"
         transform="rotate(1 324.71374511718335,488.65658569335983) " />
      <path
         d="m324.713912,493.13205a4.75573,4.4844 0 1 1 4.746442,-4.4844a4.75573,4.4844 0 0 1 -4.746442,4.4844zm0,-8.084183a3.826876,3.608541 0 1 0 3.817588,3.599783a3.826876,3.608541 0 0 0 -3.817588,-3.599783z"
         fill="#d1d3d4"
         id="svg_81"
         stroke="null"
         transform="rotate(1 324.70462036131806,488.6476440429683) " />
      <circle
         cx="344.672989"
         cy="398.902583"
         r="2.023236"
         fill="#fff"
         id="svg_82"
         stroke="null"
         transform="rotate(1 344.67297363281403,398.9025878906272) " />
      <path
         d="m344.67299,401.363586a2.610078,2.461165 0 1 1 2.60079,-2.461165a2.610078,2.461165 0 0 1 -2.60079,2.461165zm0,-4.046471a1.681225,1.585305 0 1 0 1.671937,1.585306a1.681225,1.585305 0 0 0 -1.671937,-1.585306z"
         fill="#d1d3d4"
         id="svg_83"
         stroke="null"
         transform="rotate(1 344.66369628905755,398.9024353027368) " />
      <path
         d="m133.43293,462.722527a0.464427,0.43793 0 0 1 -0.464426,-0.437929l0,-5.158812a0.464427,0.43793 0 0 1 0.464426,-0.43793a0.464427,0.43793 0 0 1 0.464427,0.43793l0,5.158812a0.464427,0.43793 0 0 1 -0.464427,0.437929z"
         fill="#d1d3d4"
         id="svg_84"
         stroke="null"
         transform="rotate(1 133.4329376220662,459.70523071289006) " />
      <path
         d="m136.163684,460.147419l-5.470947,0a0.473715,0.446688 0 0 1 -0.464427,-0.43793a0.464427,0.43793 0 0 1 0.464427,-0.437929l5.470947,0a0.464427,0.43793 0 0 1 0.464426,0.437929a0.464427,0.43793 0 0 1 -0.464426,0.43793z"
         fill="#d1d3d4"
         id="svg_85"
         stroke="null"
         transform="rotate(1 133.42820739746662,459.70950317382835) " />
      <path
         d="m336.675532,360.525622a0.464427,0.43793 0 0 1 -0.464427,-0.43793l0,-5.158812a0.464427,0.43793 0 0 1 0.464427,-0.437929a0.464427,0.43793 0 0 1 0.464427,0.437929l0,5.158812a0.464427,0.43793 0 0 1 -0.464427,0.43793z"
         fill="#d1d3d4"
         id="svg_86"
         stroke="null"
         transform="rotate(1 336.67553710937887,357.50830078124824) " />
      <path
         d="m339.406286,357.950513l-5.470947,0a0.473715,0.446688 0 0 1 -0.464426,-0.43793a0.464427,0.43793 0 0 1 0.464426,-0.437929l5.470947,0a0.464427,0.43793 0 0 1 0.464427,0.437929a0.464427,0.43793 0 0 1 -0.464427,0.43793z"
         fill="#d1d3d4"
         id="svg_87"
         stroke="null"
         transform="rotate(1 336.67080688476176,357.5125732421883) " />
      <circle
         cx="220.692147"
         cy="488.353075"
         r="2.023236"
         fill="#fff"
         id="svg_88"
         stroke="null"
         transform="rotate(1 220.69215393066187,488.3530578613279) " />
      <path
         d="m220.692147,490.814078a2.610078,2.461165 0 1 1 2.60079,-2.461165a2.610078,2.461165 0 0 1 -2.60079,2.461165zm0,-4.046471a1.681225,1.585305 0 1 0 1.671937,1.585306a1.681225,1.585305 0 0 0 -1.671937,-1.585306z"
         fill="#d1d3d4"
         id="svg_89"
         stroke="null"
         transform="rotate(1 220.682861328118,488.35296630859307) " />
      <circle
         cx="281.473446"
         cy="502.746767"
         r="4.037712"
         fill="#d1d3d4"
         id="svg_90"
         stroke="null"
         transform="rotate(1 281.4734497070268,502.74676513672017) " />
      <path
         d="m253.284367,404.936686a0.464427,0.43793 0 0 1 -0.464427,-0.437929l0,-5.158812a0.464427,0.43793 0 0 1 0.464427,-0.43793a0.464427,0.43793 0 0 1 0.464427,0.43793l0,5.158812a0.464427,0.43793 0 0 1 -0.464427,0.437929z"
         fill="#d1d3d4"
         id="svg_91"
         stroke="null"
         transform="rotate(1 253.28436279296344,401.91937255859386) " />
      <path
         d="m256.070997,402.353794l-5.470947,0a0.464427,0.43793 0 0 1 -0.464427,-0.43793a0.473715,0.446688 0 0 1 0.464427,-0.437929l5.470947,0a0.464427,0.43793 0 0 1 0.464426,0.437929a0.464427,0.43793 0 0 1 -0.464426,0.43793z"
         fill="#d1d3d4"
         id="svg_92"
         stroke="null"
         transform="rotate(1 253.3355255126901,401.91586303711085) " />
      <path
         d="m219.384989,310.451124a0.464427,0.43793 0 0 1 -0.464427,-0.43793l0,-5.158812a0.464427,0.43793 0 0 1 0.464427,-0.437929a0.464427,0.43793 0 0 1 0.464427,0.437929l0,5.158812a0.464427,0.43793 0 0 1 -0.464427,0.43793z"
         fill="#d1d3d4"
         id="svg_93"
         stroke="null"
         transform="rotate(1 219.38497924804702,307.43380737304676) " />
      <path
         d="m222.12503,307.876178l-5.470947,0a0.464427,0.43793 0 0 1 -0.464427,-0.43793a0.464427,0.43793 0 0 1 0.464427,-0.437929l5.470947,0a0.464427,0.43793 0 0 1 0.464426,0.437929a0.473715,0.446688 0 0 1 -0.464426,0.43793z"
         fill="#d1d3d4"
         id="svg_94"
         stroke="null"
         transform="rotate(1 219.3895568847612,307.43823242187545) " />
      <circle
         cx="305.957037"
         cy="95.778664"
         r="2.023236"
         fill="#fff"
         id="svg_95"
         stroke="null"
         transform="rotate(1 305.957061767577,95.77866363525531) " />
      <path
         d="m305.957037,98.239667a2.610078,2.461165 0 1 1 2.60079,-2.461165a2.610078,2.461165 0 0 1 -2.60079,2.461165zm0,-4.046471a1.681225,1.585305 0 1 0 1.671937,1.585306a1.681225,1.585305 0 0 0 -1.671937,-1.585306z"
         fill="#d1d3d4"
         id="svg_96"
         stroke="null"
         transform="rotate(1 305.94775390624864,95.77852630615509) " />
      <path
         d="m245.584788,73.854489a0.464427,0.43793 0 0 1 -0.464427,-0.43793l0,-5.158812a0.464427,0.43793 0 0 1 0.928853,0l0,5.202605a0.464427,0.43793 0 0 1 -0.464426,0.394137z"
         fill="#d1d3d4"
         id="svg_97"
         stroke="null"
         transform="rotate(1 245.58479309082063,70.83715820312572) " />
      <path
         d="m248.315694,71.270624l-5.470947,0a0.464427,0.43793 0 0 1 0,-0.87586l5.470947,0a0.464427,0.43793 0 0 1 0,0.87586z"
         fill="#d1d3d4"
         id="svg_98"
         stroke="null"
         transform="rotate(1 245.58024597167974,70.8326950073249) " />
      <circle
         style="fill:#ffffff;fill-opacity:1"
         cx="288.67719"
         cy="14.501853"
         r="2.023236"
         fill="#ffffff"
         id="svg_99"
         stroke="null"
         transform="rotate(1)" />
      <path
         d="m 288.39599,21.935153 a 2.610078,2.461165 1 1 1 2.64335,-2.4154 2.610078,2.461165 1 0 1 -2.64335,2.4154 z m 0.0706,-4.045855 a 1.681225,1.585305 1 1 0 1.64401,1.614244 1.681225,1.585305 1 0 0 -1.64401,-1.614244 z"
         fill="#d1d3d4"
         id="svg_100"
         stroke="null" />
      <circle
         cx="330.114035"
         cy="56.387945"
         r="2.493439"
         fill="#d1d3d4"
         id="svg_101"
         transform="rotate(1 330.11401367187466,56.38794326782257) "
         stroke="null" />
      <circle
         cx="168.282258"
         cy="52.969111"
         r="2.023236"
         fill="#fff"
         id="svg_102"
         stroke="null"
         transform="rotate(1 168.28225708007744,52.96911239624057) " />
      <path
         d="m168.282259,55.430115a2.610078,2.461165 0 1 1 2.60079,-2.461165a2.610078,2.461165 0 0 1 -2.60079,2.461165zm0,-4.046471a1.681225,1.585305 0 1 0 1.671937,1.585306a1.681225,1.585305 0 0 0 -1.671937,-1.585306z"
         fill="#d1d3d4"
         id="svg_103"
         stroke="null"
         transform="rotate(1 168.27297973632753,52.96896743774353) " />
      <circle
         cx="113.267301"
         cy="352.58729"
         r="4.037712"
         fill="#d1d3d4"
         id="svg_104"
         stroke="null"
         transform="rotate(1 113.26730346679985,352.5872802734372) " />
      <path
         transform="rotate(-4,41.010998,658.54395)"
         style="fill:#ffffff;fill-opacity:1"
         sodipodi:nodetypes="sssss"
         fill="#ffffff"
         fill-opacity="null"
         stroke="null"
         stroke-width="null"
         stroke-linejoin="null"
         stroke-linecap="null"
         stroke-opacity="null"
         d="m 17.407968,658.65391 c 0,-12.56689 11.03614,-22.856 23.603028,-22.856 12.566889,0 24.019687,10.18332 24.019687,22.7502 0,12.56689 -11.452798,22.74194 -24.019687,22.74194 -12.566888,0 -23.603028,-10.06925 -23.603028,-22.63614 z"
         id="svg_107" />
      <path
         d="m41.020284,681.728127a24.586751,23.183998 0 1 1 23.70434,-29.34129l0,0a24.596039,23.192756 0 0 1 -23.70434,29.34129zm0,-45.500895a23.667186,22.316897 0 1 0 22.81264,16.396087l0,0a23.70434,22.351931 0 0 0 -22.821929,-16.396087l0.009289,0z"
         fill="#d1d3d4"
         id="svg_108"
         stroke="null"
         stroke-width="0"
         transform="rotate(1 41.019386291487635,658.5441284179688) " />
      <path
         transform="rotate(-55 41.00351715087918,658.5515136718751) "
         d="m11.965606,670.989796c-4.30988,0 -8.211065,-0.586826 -8.805531,-2.627579c-0.956719,-3.354541 8.062448,-7.733838 13.551972,-10.063624a0.464427,0.43793 0 0 1 0.371541,0.805791c-10.291696,4.317987 -13.477663,7.488598 -13.003948,9.021351s4.913635,2.732682 16.087742,1.471444a173.695596,163.785704 0 0 0 44.780025,-11.596378c10.282407,-4.30047 13.468375,-7.479839 13.003948,-9.021352s-4.904346,-2.723922 -16.087742,-1.462685a0.464427,0.43793 0 0 1 -0.111462,-0.875859c5.963239,-0.674412 16.106319,-1.287513 17.090903,2.102062s-8.053159,7.760114 -13.533395,10.046107a173.909232,163.987152 0 0 1 -45.077258,11.701482a71.828237,67.730206 0 0 1 -8.266795,0.49924z"
         fill="#d1d3d4"
         id="svg_109"
         stroke="null" />
      <circle
         cx="330.756986"
         cy="624.873141"
         r="4.037712"
         fill="#fff"
         id="svg_121"
         stroke="null"
         transform="rotate(1 330.75701904297085,624.8731689453116) " />
      <path
         d="m330.75714,629.348622a4.75573,4.4844 0 1 1 4.746441,-4.4844a4.75573,4.4844 0 0 1 -4.746441,4.4844zm0,-8.084182a3.826876,3.608541 0 1 0 3.817588,3.599782a3.826876,3.608541 0 0 0 -3.817588,-3.599782z"
         fill="#d1d3d4"
         id="svg_122"
         stroke="null"
         transform="rotate(1 330.7478637695192,624.8642578124972) " />
      <circle
         cx="162.455341"
         cy="445.119154"
         r="2.023236"
         fill="#fff"
         id="svg_123"
         stroke="null"
         transform="rotate(1 162.45533752440747,445.11920166015676) " />
      <path
         d="m162.455342,447.580156a2.610078,2.461165 0 1 1 2.60079,-2.461164a2.610078,2.461165 0 0 1 -2.60079,2.461164zm0,-4.04647a1.681225,1.585305 0 1 0 1.671936,1.585306a1.681225,1.585305 0 0 0 -1.671936,-1.585306z"
         fill="#d1d3d4"
         id="svg_124"
         stroke="null"
         transform="rotate(1 162.44604492186943,445.11901855468614) " />
      <circle
         cx="136.859536"
         cy="568.099979"
         r="4.037712"
         fill="#d1d3d4"
         id="svg_125"
         stroke="null"
         transform="rotate(1 136.85951232909994,568.1000366210938) " />
      <path
         d="m361.746725,475.482528a0.464427,0.43793 0 0 1 -0.464426,-0.43793l0,-5.158811a0.464427,0.43793 0 0 1 0.464426,-0.43793a0.464427,0.43793 0 0 1 0.464427,0.43793l0,5.158811a0.464427,0.43793 0 0 1 -0.464427,0.43793z"
         fill="#d1d3d4"
         id="svg_126"
         stroke="null"
         transform="rotate(1 361.7467346191412,472.46517944335903) " />
      <path
         d="m364.533354,472.899635l-5.470946,0a0.464427,0.43793 0 0 1 -0.464427,-0.43793a0.473715,0.446688 0 0 1 0.464427,-0.437929l5.470946,0a0.464427,0.43793 0 0 1 0.464427,0.437929a0.464427,0.43793 0 0 1 -0.464427,0.43793z"
         fill="#d1d3d4"
         id="svg_127"
         stroke="null"
         transform="rotate(1 361.7978820800688,472.4617004394547) " />
      <path
         d="m41.149462,426.42621a0.464427,0.43793 0 0 1 -0.464427,-0.43793l0,-5.158812a0.464427,0.43793 0 0 1 0.464427,-0.437929a0.464427,0.43793 0 0 1 0.464427,0.437929l0,5.158812a0.464427,0.43793 0 0 1 -0.464427,0.43793z"
         fill="#d1d3d4"
         id="svg_128"
         stroke="null"
         transform="rotate(1 41.14946746825025,423.408905029297) " />
      <path
         d="m43.880216,423.851102l-5.470947,0a0.473715,0.446688 0 0 1 -0.464427,-0.43793a0.464427,0.43793 0 0 1 0.464427,-0.437929l5.470947,0a0.464427,0.43793 0 0 1 0.464426,0.437929a0.464427,0.43793 0 0 1 -0.464426,0.43793z"
         fill="#d1d3d4"
         id="svg_129"
         stroke="null"
         transform="rotate(1 41.14474487304144,423.41317749023443) " />
      <path
         d="m68.427101,567.648206a0.464427,0.43793 0 0 1 -0.464427,-0.43793l0,-5.158812a0.464427,0.43793 0 0 1 0.464427,-0.437929a0.464427,0.43793 0 0 1 0.464427,0.437929l0,5.158812a0.464427,0.43793 0 0 1 -0.464427,0.43793z"
         fill="#d1d3d4"
         id="svg_130"
         stroke="null"
         transform="rotate(1 68.42710876465165,564.6308593749999) " />
      <path
         d="m71.157854,565.073097l-5.470947,0a0.473715,0.446688 0 0 1 -0.464426,-0.43793a0.464427,0.43793 0 0 1 0.464426,-0.437929l5.470947,0a0.464427,0.43793 0 0 1 0.464427,0.437929a0.464427,0.43793 0 0 1 -0.464427,0.43793z"
         fill="#d1d3d4"
         id="svg_131"
         stroke="null"
         transform="rotate(1 68.42239379882196,564.6351928710938) " />
      <path
         d="m266.253185,715.909066a0.464427,0.43793 0 0 1 -0.464427,-0.43793l0,-5.158812a0.464427,0.43793 0 0 1 0.464427,-0.437929a0.464427,0.43793 0 0 1 0.464427,0.437929l0,5.158812a0.464427,0.43793 0 0 1 -0.464427,0.43793z"
         fill="#d1d3d4"
         id="svg_132"
         stroke="null"
         transform="rotate(1 266.2532043456918,712.8917236328138) " />
      <path
         d="m268.983938,713.333957l-5.470947,0a0.473715,0.446688 0 0 1 -0.464426,-0.43793a0.464427,0.43793 0 0 1 0.464426,-0.437929l5.470947,0a0.464427,0.43793 0 0 1 0.464427,0.437929a0.464427,0.43793 0 0 1 -0.464427,0.43793z"
         fill="#d1d3d4"
         id="svg_133"
         stroke="null"
         transform="rotate(1 266.24847412108056,712.8959960937489) " />
      <path
         d="m187.122749,726.778634a0.464427,0.43793 0 0 1 -0.464427,-0.43793l0,-5.158812a0.464427,0.43793 0 0 1 0.464427,-0.437929a0.464427,0.43793 0 0 1 0.464427,0.437929l0,5.158812a0.464427,0.43793 0 0 1 -0.464427,0.43793z"
         fill="#d1d3d4"
         id="svg_134"
         stroke="null"
         transform="rotate(1 187.1227569580045,723.7612915039059) " />
      <path
         d="m189.853502,724.203525l-5.470947,0a0.473715,0.446688 0 0 1 -0.464426,-0.43793a0.464427,0.43793 0 0 1 0.464426,-0.437929l5.470947,0a0.464427,0.43793 0 0 1 0.464427,0.437929a0.464427,0.43793 0 0 1 -0.464427,0.43793z"
         fill="#d1d3d4"
         id="svg_135"
         stroke="null"
         transform="rotate(1 187.118057250968,723.7656249999998) " />
      <path
         d="m224.514055,636.778635a0.464427,0.43793 0 0 1 -0.464427,-0.43793l0,-5.158812a0.464427,0.43793 0 0 1 0.464427,-0.437929a0.464427,0.43793 0 0 1 0.464427,0.437929l0,5.158812a0.464427,0.43793 0 0 1 -0.464427,0.43793z"
         fill="#d1d3d4"
         id="svg_136"
         stroke="null"
         transform="rotate(1 224.5140686035034,633.7613525390625) " />
      <path
         d="m227.244808,634.203526l-5.470947,0a0.473715,0.446688 0 0 1 -0.464426,-0.43793a0.464427,0.43793 0 0 1 0.464426,-0.437929l5.470947,0a0.464427,0.43793 0 0 1 0.464427,0.437929a0.464427,0.43793 0 0 1 -0.464427,0.43793z"
         fill="#d1d3d4"
         id="svg_137"
         stroke="null"
         transform="rotate(1 224.50935363768534,633.7656249999992) " />
      <path
         d="m313.644489,742.430806a0.464427,0.43793 0 0 1 -0.464427,-0.43793l0,-5.158812a0.464427,0.43793 0 0 1 0.464427,-0.437929a0.464427,0.43793 0 0 1 0.464427,0.437929l0,5.158812a0.464427,0.43793 0 0 1 -0.464427,0.43793z"
         fill="#d1d3d4"
         id="svg_138"
         stroke="null"
         transform="rotate(1 313.6445007324121,739.4134521484364) " />
      <path
         d="m316.375242,739.855697l-5.470947,0a0.473715,0.446688 0 0 1 -0.464426,-0.43793a0.464427,0.43793 0 0 1 0.464426,-0.437929l5.470947,0a0.464427,0.43793 0 0 1 0.464427,0.437929a0.464427,0.43793 0 0 1 -0.464427,0.43793z"
         fill="#d1d3d4"
         id="svg_139"
         stroke="null"
         transform="rotate(1 313.63977050780085,739.4177856445335) " />
      <circle
         cx="351.642096"
         cy="566.57821"
         r="6.992371"
         fill="#d1d3d4"
         id="svg_140"
         transform="rotate(1 351.6420898437589,566.5781860351574) "
         stroke="null" />
      <circle
         cx="363.592284"
         cy="265.300987"
         r="4.747793"
         fill="#d1d3d4"
         id="svg_141"
         transform="rotate(1 363.59228515624864,265.3009948730483) "
         stroke="null" />
      <circle
         cx="262.06133"
         cy="750.090514"
         r="4.037712"
         fill="#fff"
         id="svg_142"
         transform="rotate(1 262.06134033203455,750.0905761718741) "
         stroke="null" />
      <path
         d="m262.061485,754.565995a4.75573,4.4844 0 1 1 4.746441,-4.4844a4.75573,4.4844 0 0 1 -4.746441,4.4844zm0,-8.084182a3.826876,3.608541 0 1 0 3.817588,3.599782a3.826876,3.608541 0 0 0 -3.817588,-3.599782z"
         fill="#d1d3d4"
         id="svg_143"
         stroke="null"
         transform="rotate(1 262.06134033203455,750.0905761718741) " />
      <path
         d="m287.345978,844.461647a0.464427,0.43793 0 0 1 -0.464426,-0.437929l0,-5.158812a0.464427,0.43793 0 0 1 0.464426,-0.43793a0.464427,0.43793 0 0 1 0.464427,0.43793l0,5.158812a0.464427,0.43793 0 0 1 -0.464427,0.437929z"
         fill="#d1d3d4"
         id="svg_144"
         stroke="null"
         transform="rotate(1 287.3459777831999,841.4443359375015) " />
      <path
         d="m290.076732,841.886539l-5.470947,0a0.473715,0.446688 0 0 1 -0.464427,-0.43793a0.464427,0.43793 0 0 1 0.464427,-0.437929l5.470947,0a0.464427,0.43793 0 0 1 0.464426,0.437929a0.464427,0.43793 0 0 1 -0.464426,0.43793z"
         fill="#d1d3d4"
         id="svg_145"
         stroke="null"
         transform="rotate(1 287.341247558577,841.4486083984383) " />
      <circle
         cx="316.368388"
         cy="826.858274"
         r="2.023236"
         fill="#fff"
         id="svg_146"
         stroke="null"
         transform="rotate(1 316.36837768554113,826.8583374023418) " />
      <path
         d="m316.36839,829.319276a2.610078,2.461165 0 1 1 2.60079,-2.461164a2.610078,2.461165 0 0 1 -2.60079,2.461164zm0,-4.04647a1.681225,1.585305 0 1 0 1.671936,1.585306a1.681225,1.585305 0 0 0 -1.671936,-1.585306z"
         fill="#d1d3d4"
         id="svg_147"
         stroke="null"
         transform="rotate(1 316.3591003417905,826.8581542968744) " />
      <path
         d="m141.47058,232.430821a0.464427,0.43793 0 0 1 -0.464427,-0.43793l0,-5.158812a0.464427,0.43793 0 0 1 0.464427,-0.437929a0.464427,0.43793 0 0 1 0.464427,0.437929l0,5.158812a0.464427,0.43793 0 0 1 -0.464427,0.43793z"
         fill="#d1d3d4"
         id="svg_148"
         stroke="null"
         transform="rotate(1 141.4705963134785,229.41346740722727) " />
      <path
         d="m144.201333,229.855712l-5.470947,0a0.473715,0.446688 0 0 1 -0.464426,-0.43793a0.464427,0.43793 0 0 1 0.464426,-0.437929l5.470947,0a0.464427,0.43793 0 0 1 0.464427,0.437929a0.464427,0.43793 0 0 1 -0.464427,0.43793z"
         fill="#d1d3d4"
         id="svg_149"
         stroke="null"
         transform="rotate(1 141.46586608886724,229.41780090331952) " />
      <path
         d="m94.079276,205.909081a0.464427,0.43793 0 0 1 -0.464427,-0.43793l0,-5.158812a0.464427,0.43793 0 0 1 0.464427,-0.437929a0.464427,0.43793 0 0 1 0.464427,0.437929l0,5.158812a0.464427,0.43793 0 0 1 -0.464427,0.43793z"
         fill="#d1d3d4"
         id="svg_150"
         stroke="null"
         transform="rotate(1 94.07929229736455,202.8917388916014) " />
      <path
         d="m96.810029,203.333972l-5.470947,0a0.473715,0.446688 0 0 1 -0.464426,-0.43793a0.464427,0.43793 0 0 1 0.464426,-0.437929l5.470947,0a0.464427,0.43793 0 0 1 0.464427,0.437929a0.464427,0.43793 0 0 1 -0.464427,0.43793z"
         fill="#d1d3d4"
         id="svg_151"
         stroke="null"
         transform="rotate(1 94.0745620727533,202.89601135253895) " />
      <path
         d="m141.47058,232.430821a0.464427,0.43793 0 0 1 -0.464427,-0.43793l0,-5.158812a0.464427,0.43793 0 0 1 0.464427,-0.437929a0.464427,0.43793 0 0 1 0.464427,0.437929l0,5.158812a0.464427,0.43793 0 0 1 -0.464427,0.43793z"
         fill="#d1d3d4"
         id="svg_152"
         stroke="null"
         transform="rotate(1 141.4705963134785,229.41346740722727) " />
      <path
         d="m144.201333,229.855712l-5.470947,0a0.473715,0.446688 0 0 1 -0.464426,-0.43793a0.464427,0.43793 0 0 1 0.464426,-0.437929l5.470947,0a0.464427,0.43793 0 0 1 0.464427,0.437929a0.464427,0.43793 0 0 1 -0.464427,0.43793z"
         fill="#d1d3d4"
         id="svg_153"
         stroke="null"
         transform="rotate(1 141.46586608886724,229.41780090331952) " />
      <circle
         cx="89.887421"
         cy="240.090529"
         r="4.037712"
         fill="#fff"
         id="svg_154"
         transform="rotate(1 89.88742828368686,240.09059143066347) "
         stroke="null" />
      <path
         d="m89.887576,244.56601a4.75573,4.4844 0 1 1 4.746441,-4.4844a4.75573,4.4844 0 0 1 -4.746441,4.4844zm0,-8.084182a3.826876,3.608541 0 1 0 3.817588,3.599782a3.826876,3.608541 0 0 0 -3.817588,-3.599782z"
         fill="#d1d3d4"
         id="svg_155"
         stroke="null"
         transform="rotate(1 89.88742828368686,240.09059143066347) " />
      <circle
         cx="38.565741"
         cy="139.256924"
         r="2.023236"
         fill="#fff"
         id="svg_156"
         stroke="null"
         transform="rotate(1 38.5657653808611,139.2569274902347) " />
      <path
         d="m38.565741,141.717927a2.610078,2.461165 0 1 1 2.60079,-2.461165a2.610078,2.461165 0 0 1 -2.60079,2.461165zm0,-4.046471a1.681225,1.585305 0 1 0 1.671937,1.585306a1.681225,1.585305 0 0 0 -1.671937,-1.585306z"
         fill="#d1d3d4"
         id="svg_157"
         stroke="null"
         transform="rotate(1 38.55645751952986,139.25679016113284) " />
      <circle
         cx="252.043993"
         cy="229.691704"
         r="2.023236"
         fill="#fff"
         id="svg_158"
         stroke="null"
         transform="rotate(1 252.04402160644185,229.6917114257804) " />
      <path
         d="m252.043993,232.152707a2.610078,2.461165 0 1 1 2.60079,-2.461165a2.610078,2.461165 0 0 1 -2.60079,2.461165zm0,-4.046471a1.681225,1.585305 0 1 0 1.671937,1.585306a1.681225,1.585305 0 0 0 -1.671937,-1.585306z"
         fill="#d1d3d4"
         id="svg_159"
         stroke="null"
         transform="rotate(1 252.03471374511642,229.69157409668017) " />
      <path
         d="m183.598614,173.560325a0.464427,0.43793 0 0 1 -0.464427,-0.437929l0,-5.158812a0.464427,0.43793 0 0 1 0.928853,0l0,5.202605a0.464427,0.43793 0 0 1 -0.464426,0.394136z"
         fill="#d1d3d4"
         id="svg_160"
         stroke="null"
         transform="rotate(1 183.59861755370923,170.5429840087893) " />
      <path
         d="m186.32952,170.97646l-5.470947,0a0.464427,0.43793 0 0 1 0,-0.875859l5.470947,0a0.464427,0.43793 0 0 1 0,0.875859z"
         fill="#d1d3d4"
         id="svg_161"
         stroke="null"
         transform="rotate(1 183.59405517577954,170.53852844238358) " />
      <path
         d="m28.816008,291.386421a0.464427,0.43793 0 0 1 -0.464427,-0.437929l0,-5.158812a0.464427,0.43793 0 0 1 0.928853,0l0,5.202605a0.464427,0.43793 0 0 1 -0.464426,0.394136z"
         fill="#d1d3d4"
         id="svg_162"
         stroke="null"
         transform="rotate(1 28.816009521475507,288.36907958984375) " />
      <path
         d="m31.546914,288.802556l-5.470947,0a0.464427,0.43793 0 0 1 0,-0.875859l5.470947,0a0.464427,0.43793 0 0 1 0,0.875859z"
         fill="#d1d3d4"
         id="svg_163"
         stroke="null"
         transform="rotate(1 28.81144714354872,288.3646240234376) " />
      <path
         stroke="null"
         id="svg_84-6"
         fill="#d1d3d4"
         d="m 333.77056,1139.7381 a 0.464427,0.43793 1 0 1 -0.45672,-0.4459 l 0.09,-5.1581 a 0.464427,0.43793 1 0 1 0.472,-0.4297 0.464427,0.43793 1 0 1 0.45672,0.446 l -0.09,5.158 a 0.464427,0.43793 1 0 1 -0.472,0.4297 z" />
      <path
         stroke="null"
         id="svg_85-0"
         fill="#d1d3d4"
         d="m 336.54591,1137.2112 -5.47011,-0.095 a 0.473715,0.446688 1 0 1 -0.45672,-0.446 0.464427,0.43793 1 0 1 0.472,-0.4298 l 5.47011,0.095 a 0.464427,0.43793 1 0 1 0.45672,0.446 0.464427,0.43793 1 0 1 -0.472,0.4298 z" />
      <circle
         transform="rotate(1)"
         stroke="null"
         id="svg_88-9"
         fill="#ffffff"
         r="2.023236"
         cy="1023.1674"
         cx="184.528" />
      <path
         stroke="null"
         id="svg_89-3"
         fill="#d1d3d4"
         d="m 166.60021,1028.6927 a 2.610078,2.461165 1 1 1 2.64334,-2.4154 2.610078,2.461165 1 0 1 -2.64334,2.4154 z m 0.0706,-4.0458 a 1.681225,1.585305 1 1 0 1.64401,1.6142 1.681225,1.585305 1 0 0 -1.64401,-1.6142 z" />
      <circle
         transform="rotate(1)"
         stroke="null"
         id="svg_123-3"
         fill="#ffffff"
         r="2.023236"
         cy="931.76324"
         cx="195.30898" />
      <path
         stroke="null"
         id="svg_124-8"
         fill="#d1d3d4"
         d="m 178.97477,937.49075 a 2.610078,2.461165 1 1 1 2.64334,-2.4154 2.610078,2.461165 1 0 1 -2.64334,2.4154 z m 0.0706,-4.04585 a 1.681225,1.585305 1 1 0 1.64401,1.61424 1.681225,1.585305 1 0 0 -1.64401,-1.61424 z" />
      <circle
         transform="rotate(1)"
         stroke="null"
         id="svg_125-8"
         fill="#d1d3d4"
         r="4.0377121"
         cy="983.74329"
         cx="320.50238" />
      <path
         stroke="null"
         id="svg_128-6"
         fill="#d1d3d4"
         d="m 57.659188,916.33656 a 0.464427,0.43793 1 0 1 -0.456714,-0.44597 l 0.09003,-5.15803 a 0.464427,0.43793 1 0 1 0.471999,-0.42975 0.464427,0.43793 1 0 1 0.456714,0.44597 l -0.09003,5.15802 a 0.464427,0.43793 1 0 1 -0.471999,0.42976 z" />
      <path
         stroke="null"
         id="svg_129-1"
         fill="#d1d3d4"
         d="m 60.434541,913.80958 -5.470113,-0.0955 a 0.473715,0.446688 1 0 1 -0.456714,-0.44597 0.464427,0.43793 1 0 1 0.472,-0.42976 l 5.470113,0.0955 a 0.464427,0.43793 1 0 1 0.456713,0.44597 0.464427,0.43793 1 0 1 -0.471999,0.42976 z" />
      <path
         stroke="null"
         id="svg_130-8"
         fill="#d1d3d4"
         d="m 84.936825,1057.5586 a 0.464427,0.43793 1 0 1 -0.456713,-0.446 l 0.09003,-5.158 a 0.464427,0.43793 1 0 1 0.471999,-0.4298 0.464427,0.43793 1 0 1 0.456714,0.446 l -0.09003,5.158 a 0.464427,0.43793 1 0 1 -0.472,0.4298 z" />
      <path
         stroke="null"
         id="svg_131-4"
         fill="#d1d3d4"
         d="m 87.712179,1055.0316 -5.470113,-0.096 a 0.473715,0.446688 1 0 1 -0.456713,-0.446 0.464427,0.43793 1 0 1 0.471998,-0.4297 l 5.470114,0.095 a 0.464427,0.43793 1 0 1 0.456713,0.4459 0.464427,0.43793 1 0 1 -0.471999,0.4298 z" />
      <path
         stroke="null"
         id="svg_132-3"
         fill="#d1d3d4"
         d="m 350.56477,1059.0755 a 0.464427,0.43793 1 0 1 -0.4567,-0.446 l 0.09,-5.158 a 0.464427,0.43793 1 0 1 0.47199,-0.4297 0.464427,0.43793 1 0 1 0.45671,0.4459 l -0.09,5.1581 a 0.464427,0.43793 1 0 1 -0.472,0.4297 z" />
      <path
         stroke="null"
         id="svg_133-1"
         fill="#d1d3d4"
         d="m 353.34013,1056.5485 -5.47011,-0.095 a 0.473715,0.446688 1 0 1 -0.45672,-0.446 0.464427,0.43793 1 0 1 0.472,-0.4298 l 5.47012,0.096 a 0.464427,0.43793 1 0 1 0.45671,0.446 0.464427,0.43793 1 0 1 -0.472,0.4297 z" />
      <path
         stroke="null"
         id="svg_134-6"
         fill="#d1d3d4"
         d="m 271.43434,1069.9451 a 0.464427,0.43793 1 0 1 -0.45671,-0.446 l 0.09,-5.158 a 0.464427,0.43793 1 0 1 0.472,-0.4298 0.464427,0.43793 1 0 1 0.45672,0.446 l -0.09,5.158 a 0.464427,0.43793 1 0 1 -0.472,0.4298 z" />
      <path
         stroke="null"
         id="svg_135-6"
         fill="#d1d3d4"
         d="m 274.20969,1067.4181 -5.47011,-0.096 a 0.473715,0.446688 1 0 1 -0.45671,-0.446 0.464427,0.43793 1 0 1 0.47199,-0.4297 l 5.47012,0.096 a 0.464427,0.43793 1 0 1 0.45672,0.4459 0.464427,0.43793 1 0 1 -0.47201,0.4298 z" />
      <path
         stroke="null"
         id="svg_136-8"
         fill="#d1d3d4"
         d="m 39.787409,977.26364 a 0.464427,0.43793 1 0 1 -0.45671,-0.44597 l 0.09,-5.15803 a 0.464427,0.43793 1 0 1 0.472,-0.42975 0.464427,0.43793 1 0 1 0.45671,0.44596 l -0.09,5.15803 a 0.464427,0.43793 1 0 1 -0.472,0.42976 z" />
      <path
         stroke="null"
         id="svg_137-7"
         fill="#d1d3d4"
         d="m 42.562759,974.73667 -5.47011,-0.0955 a 0.473715,0.446688 1 0 1 -0.45672,-0.44597 0.464427,0.43793 1 0 1 0.472,-0.42976 l 5.47012,0.0955 a 0.464427,0.43793 1 0 1 0.45671,0.44597 0.464427,0.43793 1 0 1 -0.472,0.42976 z" />
      <path
         stroke="null"
         id="svg_132-32"
         fill="#d1d3d4"
         d="m 187.89049,877.92906 a 0.464427,0.43793 1 0 1 -0.45671,-0.44597 l 0.09,-5.15803 a 0.464427,0.43793 1 0 1 0.47199,-0.42976 0.464427,0.43793 1 0 1 0.45672,0.44597 l -0.09,5.15803 a 0.464427,0.43793 1 0 1 -0.472,0.42976 z" />
      <path
         stroke="null"
         id="svg_133-4"
         fill="#d1d3d4"
         d="m 190.66585,875.40208 -5.47012,-0.0955 a 0.473715,0.446688 1 0 1 -0.45672,-0.44596 0.464427,0.43793 1 0 1 0.47201,-0.42976 l 5.47011,0.0955 a 0.464427,0.43793 1 0 1 0.45672,0.44597 0.464427,0.43793 1 0 1 -0.472,0.42975 z" />
      <path
         stroke="null"
         id="svg_134-3"
         fill="#d1d3d4"
         d="m 108.76006,888.79862 a 0.464427,0.43793 1 0 1 -0.45672,-0.44597 l 0.09,-5.15802 a 0.464427,0.43793 1 0 1 0.472,-0.42976 0.464427,0.43793 1 0 1 0.45671,0.44597 l -0.09,5.15802 a 0.464427,0.43793 1 0 1 -0.472,0.42976 z" />
      <path
         stroke="null"
         id="svg_135-7"
         fill="#d1d3d4"
         d="m 111.53541,886.27165 -5.47012,-0.0955 a 0.473715,0.446688 1 0 1 -0.4567,-0.44598 0.464427,0.43793 1 0 1 0.47199,-0.42975 l 5.47011,0.0955 a 0.464427,0.43793 1 0 1 0.45672,0.44596 0.464427,0.43793 1 0 1 -0.472,0.42977 z" />
      <path
         stroke="null"
         id="svg_136-3"
         fill="#d1d3d4"
         d="m 146.15137,798.79862 a 0.464427,0.43793 1 0 1 -0.45672,-0.44597 l 0.09,-5.15802 a 0.464427,0.43793 1 0 1 0.47201,-0.42976 0.464427,0.43793 1 0 1 0.4567,0.44597 l -0.09,5.15802 a 0.464427,0.43793 1 0 1 -0.47199,0.42976 z" />
      <path
         stroke="null"
         id="svg_137-8"
         fill="#d1d3d4"
         d="m 148.92672,796.27165 -5.47012,-0.0955 a 0.473715,0.446688 1 0 1 -0.45671,-0.44597 0.464427,0.43793 1 0 1 0.472,-0.42975 l 5.47011,0.0955 a 0.464427,0.43793 1 0 1 0.45671,0.44596 0.464427,0.43793 1 0 1 -0.47199,0.42976 z" />
      <circle
         transform="rotate(1)"
         stroke="null"
         id="svg_80-1"
         fill="#ffffff"
         r="4.0377121"
         cy="1172.1749"
         cx="246.33174" />
      <path
         stroke="null"
         id="svg_81-1"
         fill="#d1d3d4"
         d="m 225.75885,1180.7705 a 4.75573,4.4844 1 1 1 4.82398,-4.4009 4.75573,4.4844 1 0 1 -4.82398,4.4009 z m 0.14109,-8.083 a 3.826876,3.608541 1 1 0 3.75418,3.6659 3.826876,3.608541 1 0 0 -3.75418,-3.6659 z" />
      <circle
         transform="rotate(1)"
         stroke="null"
         id="svg_88-3"
         fill="#ffffff"
         r="2.023236"
         cy="1140.5497"
         cx="282.39056" />
      <path
         stroke="null"
         id="svg_89-7"
         fill="#d1d3d4"
         d="m 262.39925,1147.7652 a 2.610078,2.461165 1 1 1 2.64335,-2.4154 2.610078,2.461165 1 0 1 -2.64335,2.4154 z m 0.0706,-4.0459 a 1.681225,1.585305 1 1 0 1.644,1.6143 1.681225,1.585305 1 0 0 -1.644,-1.6143 z" />
      <circle
         transform="rotate(1)"
         stroke="null"
         id="svg_90-9"
         fill="#d1d3d4"
         r="4.0377121"
         cy="1192.4733"
         cx="78.584038" />
      <circle
         transform="rotate(1)"
         stroke="null"
         id="svg_80-7"
         fill="#ffffff"
         r="4.0377121"
         cy="1122.9229"
         cx="63.404045" />
      <path
         stroke="null"
         id="svg_81-5"
         fill="#d1d3d4"
         d="m 43.718574,1128.3334 a 4.75573,4.4844 1 1 1 4.82398,-4.4009 4.75573,4.4844 1 0 1 -4.82398,4.4009 z m 0.14109,-8.083 a 3.826876,3.608541 1 1 0 3.75418,3.6659 3.826876,3.608541 1 0 0 -3.75418,-3.6659 z" />
      <circle
         transform="rotate(1)"
         stroke="null"
         id="svg_88-7"
         fill="#ffffff"
         r="2.023236"
         cy="1110.6948"
         cx="131.98367" />
      <path
         stroke="null"
         id="svg_89-6"
         fill="#d1d3d4"
         d="m 112.53631,1115.2899 a 2.610078,2.461165 1 1 1 2.64335,-2.4154 2.610078,2.461165 1 0 1 -2.64335,2.4154 z m 0.0706,-4.0458 a 1.681225,1.585305 1 1 0 1.644,1.6142 1.681225,1.585305 1 0 0 -1.644,-1.6142 z" />
      <circle
         transform="rotate(1)"
         stroke="null"
         id="svg_90-2"
         fill="#d1d3d4"
         r="4.0377121"
         cy="1147.528"
         cx="195.20505" />
      <path
         d="m 76.522159,1143.5245 a 0.464427,0.43793 1 0 1 -0.456713,-0.446 l 0.09003,-5.158 a 0.464427,0.43793 1 0 1 0.471999,-0.4298 0.464427,0.43793 1 0 1 0.456714,0.446 l -0.09003,5.158 a 0.464427,0.43793 1 0 1 -0.472,0.4298 z"
         fill="#d1d3d4"
         id="svg_130-8-7"
         stroke="null" />
      <path
         d="m 79.297513,1140.9975 -5.470113,-0.096 a 0.473715,0.446688 1 0 1 -0.456713,-0.446 0.464427,0.43793 1 0 1 0.471998,-0.4297 l 5.470114,0.095 a 0.464427,0.43793 1 0 1 0.456713,0.4459 0.464427,0.43793 1 0 1 -0.471999,0.4298 z"
         fill="#d1d3d4"
         id="svg_131-4-6"
         stroke="null" />
      <path
         d="m 196.29334,1068.1461 a 0.464427,0.43793 1 0 1 -0.45672,-0.446 l 0.09,-5.158 a 0.464427,0.43793 1 0 1 0.472,-0.4298 0.464427,0.43793 1 0 1 0.45672,0.446 l -0.09,5.158 a 0.464427,0.43793 1 0 1 -0.472,0.4298 z"
         fill="#d1d3d4"
         id="svg_130-8-5"
         stroke="null" />
      <path
         d="m 199.06869,1065.6191 -5.47011,-0.096 a 0.473715,0.446688 1 0 1 -0.45672,-0.446 0.464427,0.43793 1 0 1 0.472,-0.4297 l 5.47012,0.095 a 0.464427,0.43793 1 0 1 0.45671,0.4459 0.464427,0.43793 1 0 1 -0.472,0.4298 z"
         fill="#d1d3d4"
         id="svg_131-4-5"
         stroke="null" />
      <path
         d="m 130.44898,1004.6853 a 0.464427,0.43793 1 0 1 -0.45671,-0.446 l 0.09,-5.158 a 0.464427,0.43793 1 0 1 0.472,-0.4298 0.464427,0.43793 1 0 1 0.45671,0.446 l -0.09,5.158 a 0.464427,0.43793 1 0 1 -0.472,0.4298 z"
         fill="#d1d3d4"
         id="svg_130-8-2"
         stroke="null" />
      <path
         d="m 133.22434,1002.1583 -5.47012,-0.096 a 0.473715,0.446688 1 0 1 -0.45671,-0.446 0.464427,0.43793 1 0 1 0.472,-0.4297 l 5.47011,0.095 a 0.464427,0.43793 1 0 1 0.45672,0.4459 0.464427,0.43793 1 0 1 -0.472,0.4298 z"
         fill="#d1d3d4"
         id="svg_131-4-9"
         stroke="null" />
      <path
         d="m 356.28618,1268.0627 a 0.464427,0.43793 1 0 1 -0.45672,-0.446 l 0.09,-5.158 a 0.464427,0.43793 1 0 1 0.472,-0.4298 0.464427,0.43793 1 0 1 0.45672,0.446 l -0.09,5.158 a 0.464427,0.43793 1 0 1 -0.472,0.4298 z"
         fill="#d1d3d4"
         id="svg_130-8-55"
         stroke="null" />
      <path
         d="m 359.06153,1265.5357 -5.47011,-0.096 a 0.473715,0.446688 1 0 1 -0.45672,-0.446 0.464427,0.43793 1 0 1 0.472,-0.4297 l 5.47012,0.095 a 0.464427,0.43793 1 0 1 0.45671,0.4459 0.464427,0.43793 1 0 1 -0.472,0.4298 z"
         fill="#d1d3d4"
         id="svg_131-4-4"
         stroke="null" />
      <path
         d="m 251.41191,1307.9864 a 0.464427,0.43793 1 0 1 -0.45671,-0.446 l 0.09,-5.158 a 0.464427,0.43793 1 0 1 0.472,-0.4298 0.464427,0.43793 1 0 1 0.45671,0.446 l -0.09,5.158 a 0.464427,0.43793 1 0 1 -0.472,0.4298 z"
         fill="#d1d3d4"
         id="svg_130-8-78"
         stroke="null" />
      <path
         d="m 254.18727,1305.4594 -5.47012,-0.096 a 0.473715,0.446688 1 0 1 -0.45671,-0.446 0.464427,0.43793 1 0 1 0.472,-0.4297 l 5.47011,0.095 a 0.464427,0.43793 1 0 1 0.45672,0.4459 0.464427,0.43793 1 0 1 -0.472,0.4298 z"
         fill="#d1d3d4"
         id="svg_131-4-0"
         stroke="null" />
      <path
         d="m 151.30466,1292.1957 a 0.464427,0.43793 1 0 1 -0.45671,-0.446 l 0.09,-5.158 a 0.464427,0.43793 1 0 1 0.472,-0.4298 0.464427,0.43793 1 0 1 0.45671,0.446 l -0.09,5.158 a 0.464427,0.43793 1 0 1 -0.472,0.4298 z"
         fill="#d1d3d4"
         id="svg_130-8-23"
         stroke="null" />
      <path
         d="m 154.08001,1289.6687 -5.47011,-0.096 a 0.473715,0.446688 1 0 1 -0.45671,-0.446 0.464427,0.43793 1 0 1 0.472,-0.4297 l 5.47011,0.095 a 0.464427,0.43793 1 0 1 0.45671,0.4459 0.464427,0.43793 1 0 1 -0.472,0.4298 z"
         fill="#d1d3d4"
         id="svg_131-4-7"
         stroke="null" />
      <path
         d="m 111.38093,1267.7648 a 0.464427,0.43793 1 0 1 -0.45671,-0.446 l 0.09,-5.158 a 0.464427,0.43793 1 0 1 0.472,-0.4298 0.464427,0.43793 1 0 1 0.45671,0.446 l -0.09,5.158 a 0.464427,0.43793 1 0 1 -0.472,0.4298 z"
         fill="#d1d3d4"
         id="svg_130-8-4"
         stroke="null" />
      <path
         d="m 114.15629,1265.2378 -5.47011,-0.096 a 0.473715,0.446688 1 0 1 -0.45672,-0.446 0.464427,0.43793 1 0 1 0.472,-0.4297 l 5.47011,0.095 a 0.464427,0.43793 1 0 1 0.45672,0.4459 0.464427,0.43793 1 0 1 -0.472,0.4298 z"
         fill="#d1d3d4"
         id="svg_131-4-2"
         stroke="null" />
      <path
         d="m 46.132458,1361.3174 a 0.464427,0.43793 1 0 1 -0.456713,-0.446 l 0.09003,-5.158 a 0.464427,0.43793 1 0 1 0.471999,-0.4298 0.464427,0.43793 1 0 1 0.456714,0.446 l -0.09003,5.158 a 0.464427,0.43793 1 0 1 -0.472,0.4298 z"
         fill="#d1d3d4"
         id="svg_130-8-8"
         stroke="null" />
      <path
         d="m 48.907812,1358.7904 -5.470113,-0.096 a 0.473715,0.446688 1 0 1 -0.456713,-0.446 0.464427,0.43793 1 0 1 0.471998,-0.4297 l 5.470114,0.095 a 0.464427,0.43793 1 0 1 0.456713,0.4459 0.464427,0.43793 1 0 1 -0.471999,0.4298 z"
         fill="#d1d3d4"
         id="svg_131-4-43"
         stroke="null" />
      <path
         d="m 119.12733,1399.1555 a 0.464427,0.43793 1 0 1 -0.45671,-0.446 l 0.09,-5.158 a 0.464427,0.43793 1 0 1 0.472,-0.4298 0.464427,0.43793 1 0 1 0.45671,0.446 l -0.09,5.158 a 0.464427,0.43793 1 0 1 -0.472,0.4298 z"
         fill="#d1d3d4"
         id="svg_130-8-71"
         stroke="null" />
      <path
         d="m 121.90268,1396.6285 -5.47011,-0.096 a 0.473715,0.446688 1 0 1 -0.45671,-0.446 0.464427,0.43793 1 0 1 0.472,-0.4297 l 5.47011,0.095 a 0.464427,0.43793 1 0 1 0.45671,0.4459 0.464427,0.43793 1 0 1 -0.472,0.4298 z"
         fill="#d1d3d4"
         id="svg_131-4-45"
         stroke="null" />
      <path
         d="m 196.29334,1399.4535 a 0.464427,0.43793 1 0 1 -0.45672,-0.446 l 0.09,-5.158 a 0.464427,0.43793 1 0 1 0.472,-0.4298 0.464427,0.43793 1 0 1 0.45672,0.446 l -0.09,5.158 a 0.464427,0.43793 1 0 1 -0.472,0.4298 z"
         fill="#d1d3d4"
         id="svg_130-8-83"
         stroke="null" />
      <path
         d="m 199.06869,1396.9265 -5.47011,-0.096 a 0.473715,0.446688 1 0 1 -0.45672,-0.446 0.464427,0.43793 1 0 1 0.472,-0.4297 l 5.47012,0.095 a 0.464427,0.43793 1 0 1 0.45671,0.4459 0.464427,0.43793 1 0 1 -0.472,0.4298 z"
         fill="#d1d3d4"
         id="svg_131-4-8"
         stroke="null" />
      <path
         d="m 247.24078,1351.4854 a 0.464427,0.43793 1 0 1 -0.45672,-0.446 l 0.09,-5.158 a 0.464427,0.43793 1 0 1 0.472,-0.4298 0.464427,0.43793 1 0 1 0.45672,0.446 l -0.09,5.158 a 0.464427,0.43793 1 0 1 -0.472,0.4298 z"
         fill="#d1d3d4"
         id="svg_130-8-44"
         stroke="null" />
      <path
         d="m 250.01613,1348.9584 -5.47011,-0.096 a 0.473715,0.446688 1 0 1 -0.45671,-0.446 0.464427,0.43793 1 0 1 0.47199,-0.4297 l 5.47012,0.095 a 0.464427,0.43793 1 0 1 0.45671,0.4459 0.464427,0.43793 1 0 1 -0.472,0.4298 z"
         fill="#d1d3d4"
         id="svg_131-4-67"
         stroke="null" />
      <path
         d="m 148.92115,1394.6865 a 0.464427,0.43793 1 0 1 -0.45671,-0.446 l 0.09,-5.158 a 0.464427,0.43793 1 0 1 0.472,-0.4298 0.464427,0.43793 1 0 1 0.45671,0.446 l -0.09,5.158 a 0.464427,0.43793 1 0 1 -0.472,0.4298 z"
         fill="#d1d3d4"
         id="svg_130-8-3"
         stroke="null" />
      <path
         d="m 151.69651,1392.1595 -5.47011,-0.096 a 0.473715,0.446688 1 0 1 -0.45672,-0.446 0.464427,0.43793 1 0 1 0.472,-0.4297 l 5.47011,0.095 a 0.464427,0.43793 1 0 1 0.45672,0.4459 0.464427,0.43793 1 0 1 -0.472,0.4298 z"
         fill="#d1d3d4"
         id="svg_131-4-1"
         stroke="null" />
      <path
         d="m 262.13769,1528.1628 a 0.464427,0.43793 1 0 1 -0.45671,-0.446 l 0.09,-5.158 a 0.464427,0.43793 1 0 1 0.472,-0.4298 0.464427,0.43793 1 0 1 0.45671,0.446 l -0.09,5.158 a 0.464427,0.43793 1 0 1 -0.472,0.4298 z"
         fill="#d1d3d4"
         id="svg_130-8-9"
         stroke="null" />
      <path
         d="m 264.91304,1525.6358 -5.47011,-0.096 a 0.473715,0.446688 1 0 1 -0.45671,-0.446 0.464427,0.43793 1 0 1 0.472,-0.4297 l 5.47011,0.095 a 0.464427,0.43793 1 0 1 0.45671,0.4459 0.464427,0.43793 1 0 1 -0.472,0.4298 z"
         fill="#d1d3d4"
         id="svg_131-4-3"
         stroke="null" />
      <path
         d="m 277.0346,1500.1566 a 0.464427,0.43793 1 0 1 -0.45671,-0.446 l 0.09,-5.158 a 0.464427,0.43793 1 0 1 0.472,-0.4298 0.464427,0.43793 1 0 1 0.45671,0.446 l -0.09,5.158 a 0.464427,0.43793 1 0 1 -0.472,0.4298 z"
         fill="#d1d3d4"
         id="svg_130-8-6"
         stroke="null" />
      <path
         d="m 279.80996,1497.6296 -5.47012,-0.096 a 0.473715,0.446688 1 0 1 -0.45671,-0.446 0.464427,0.43793 1 0 1 0.472,-0.4297 l 5.47011,0.095 a 0.464427,0.43793 1 0 1 0.45672,0.4459 0.464427,0.43793 1 0 1 -0.472,0.4298 z"
         fill="#d1d3d4"
         id="svg_131-4-71"
         stroke="null" />
      <path
         d="m 244.85727,1522.7999 a 0.464427,0.43793 1 0 1 -0.45671,-0.446 l 0.09,-5.158 a 0.464427,0.43793 1 0 1 0.472,-0.4298 0.464427,0.43793 1 0 1 0.45671,0.446 l -0.09,5.158 a 0.464427,0.43793 1 0 1 -0.472,0.4298 z"
         fill="#d1d3d4"
         id="svg_130-8-82"
         stroke="null" />
      <path
         d="m 247.63263,1520.2729 -5.47012,-0.096 a 0.473715,0.446688 1 0 1 -0.45671,-0.446 0.464427,0.43793 1 0 1 0.472,-0.4297 l 5.47011,0.095 a 0.464427,0.43793 1 0 1 0.45671,0.4459 0.464427,0.43793 1 0 1 -0.47199,0.4298 z"
         fill="#d1d3d4"
         id="svg_131-4-50"
         stroke="null" />
      <path
         d="m 66.988135,1476.3216 a 0.464427,0.43793 1 0 1 -0.456713,-0.446 l 0.09003,-5.158 a 0.464427,0.43793 1 0 1 0.471999,-0.4298 0.464427,0.43793 1 0 1 0.456714,0.446 l -0.09003,5.158 a 0.464427,0.43793 1 0 1 -0.472,0.4298 z"
         fill="#d1d3d4"
         id="svg_130-8-1"
         stroke="null" />
      <path
         d="m 69.763489,1473.7946 -5.470113,-0.096 a 0.473715,0.446688 1 0 1 -0.456713,-0.446 0.464427,0.43793 1 0 1 0.471998,-0.4297 l 5.470114,0.095 a 0.464427,0.43793 1 0 1 0.456713,0.4459 0.464427,0.43793 1 0 1 -0.471999,0.4298 z"
         fill="#d1d3d4"
         id="svg_131-4-63"
         stroke="null" />
      <path
         d="m 66.09432,1537.9948 a 0.464427,0.43793 1 0 1 -0.456713,-0.446 l 0.09003,-5.158 a 0.464427,0.43793 1 0 1 0.471999,-0.4298 0.464427,0.43793 1 0 1 0.456714,0.446 l -0.09003,5.158 a 0.464427,0.43793 1 0 1 -0.472,0.4298 z"
         fill="#d1d3d4"
         id="svg_130-8-36"
         stroke="null" />
      <path
         d="m 68.869674,1535.4678 -5.470113,-0.096 a 0.473715,0.446688 1 0 1 -0.456713,-0.446 0.464427,0.43793 1 0 1 0.471998,-0.4297 l 5.470114,0.095 a 0.464427,0.43793 1 0 1 0.456713,0.4459 0.464427,0.43793 1 0 1 -0.471999,0.4298 z"
         fill="#d1d3d4"
         id="svg_131-4-56"
         stroke="null" />
      <path
         d="m 103.93248,1544.2515 a 0.464427,0.43793 1 0 1 -0.45671,-0.446 l 0.09,-5.158 a 0.464427,0.43793 1 0 1 0.47199,-0.4298 0.464427,0.43793 1 0 1 0.45672,0.446 l -0.09,5.158 a 0.464427,0.43793 1 0 1 -0.472,0.4298 z"
         fill="#d1d3d4"
         id="svg_130-8-37"
         stroke="null" />
      <path
         d="m 106.70783,1541.7245 -5.47011,-0.096 a 0.473715,0.446688 1 0 1 -0.45671,-0.446 0.464427,0.43793 1 0 1 0.47199,-0.4297 l 5.47012,0.095 a 0.464427,0.43793 1 0 1 0.45671,0.4459 0.464427,0.43793 1 0 1 -0.472,0.4298 z"
         fill="#d1d3d4"
         id="svg_131-4-30"
         stroke="null" />
      <path
         d="m 166.20157,1453.3803 a 0.464427,0.43793 1 0 1 -0.45671,-0.446 l 0.09,-5.158 a 0.464427,0.43793 1 0 1 0.472,-0.4298 0.464427,0.43793 1 0 1 0.45671,0.446 l -0.09,5.158 a 0.464427,0.43793 1 0 1 -0.472,0.4298 z"
         fill="#d1d3d4"
         id="svg_130-8-68"
         stroke="null" />
      <path
         d="m 168.97693,1450.8533 -5.47012,-0.096 a 0.473715,0.446688 1 0 1 -0.45671,-0.446 0.464427,0.43793 1 0 1 0.472,-0.4297 l 5.47011,0.095 a 0.464427,0.43793 1 0 1 0.45672,0.4459 0.464427,0.43793 1 0 1 -0.472,0.4298 z"
         fill="#d1d3d4"
         id="svg_131-4-02"
         stroke="null" />
      <path
         d="m 211.78613,1508.7968 a 0.464427,0.43793 1 0 1 -0.45672,-0.446 l 0.09,-5.158 a 0.464427,0.43793 1 0 1 0.472,-0.4298 0.464427,0.43793 1 0 1 0.45672,0.446 l -0.09,5.158 a 0.464427,0.43793 1 0 1 -0.472,0.4298 z"
         fill="#d1d3d4"
         id="svg_130-8-95"
         stroke="null" />
      <path
         d="m 214.56148,1506.2698 -5.47011,-0.096 a 0.473715,0.446688 1 0 1 -0.45672,-0.446 0.464427,0.43793 1 0 1 0.472,-0.4297 l 5.47012,0.095 a 0.464427,0.43793 1 0 1 0.45671,0.4459 0.464427,0.43793 1 0 1 -0.472,0.4298 z"
         fill="#d1d3d4"
         id="svg_131-4-95"
         stroke="null" />
      <path
         d="m 361.35113,1697.0938 a 0.464427,0.43793 1 0 1 -0.45672,-0.446 l 0.09,-5.158 a 0.464427,0.43793 1 0 1 0.472,-0.4298 0.464427,0.43793 1 0 1 0.45672,0.446 l -0.09,5.158 a 0.464427,0.43793 1 0 1 -0.472,0.4298 z"
         fill="#d1d3d4"
         id="svg_130-8-0"
         stroke="null" />
      <path
         d="m 364.12648,1694.5668 -5.47011,-0.096 a 0.473715,0.446688 1 0 1 -0.45671,-0.446 0.464427,0.43793 1 0 1 0.47199,-0.4297 l 5.47012,0.095 a 0.464427,0.43793 1 0 1 0.45671,0.4459 0.464427,0.43793 1 0 1 -0.472,0.4298 z"
         fill="#d1d3d4"
         id="svg_131-4-34"
         stroke="null" />
      <path
         d="m 377.73773,1715.8639 a 0.464427,0.43793 1 0 1 -0.45671,-0.446 l 0.09,-5.158 a 0.464427,0.43793 1 0 1 0.472,-0.4298 0.464427,0.43793 1 0 1 0.45671,0.446 l -0.09,5.158 a 0.464427,0.43793 1 0 1 -0.472,0.4298 z"
         fill="#d1d3d4"
         id="svg_130-8-719"
         stroke="null" />
      <path
         d="m 380.51308,1713.3369 -5.47011,-0.096 a 0.473715,0.446688 1 0 1 -0.45671,-0.446 0.464427,0.43793 1 0 1 0.472,-0.4297 l 5.47011,0.095 a 0.464427,0.43793 1 0 1 0.45671,0.4459 0.464427,0.43793 1 0 1 -0.472,0.4298 z"
         fill="#d1d3d4"
         id="svg_131-4-78"
         stroke="null" />
      <path
         d="m 370.88515,1780.2186 a 0.464427,0.43793 1 0 1 -0.45671,-0.446 l 0.09,-5.158 a 0.464427,0.43793 1 0 1 0.472,-0.4298 0.464427,0.43793 1 0 1 0.45671,0.446 l -0.09,5.158 a 0.464427,0.43793 1 0 1 -0.472,0.4298 z"
         fill="#d1d3d4"
         id="svg_130-8-81"
         stroke="null" />
      <path
         d="m 373.66051,1777.6916 -5.47012,-0.096 a 0.473715,0.446688 1 0 1 -0.45671,-0.446 0.464427,0.43793 1 0 1 0.472,-0.4297 l 5.47011,0.095 a 0.464427,0.43793 1 0 1 0.45671,0.4459 0.464427,0.43793 1 0 1 -0.47199,0.4298 z"
         fill="#d1d3d4"
         id="svg_131-4-00"
         stroke="null" />
      <path
         d="m 218.34077,1793.9237 a 0.464427,0.43793 1 0 1 -0.45672,-0.446 l 0.09,-5.158 a 0.464427,0.43793 1 0 1 0.472,-0.4298 0.464427,0.43793 1 0 1 0.45672,0.446 l -0.09,5.158 a 0.464427,0.43793 1 0 1 -0.472,0.4298 z"
         fill="#d1d3d4"
         id="svg_130-8-29"
         stroke="null" />
      <path
         d="m 221.11612,1791.3967 -5.47011,-0.096 a 0.473715,0.446688 1 0 1 -0.45672,-0.446 0.464427,0.43793 1 0 1 0.472,-0.4297 l 5.47012,0.095 a 0.464427,0.43793 1 0 1 0.45671,0.4459 0.464427,0.43793 1 0 1 -0.472,0.4298 z"
         fill="#d1d3d4"
         id="svg_131-4-99"
         stroke="null" />
      <path
         d="m 81.587109,1770.3866 a 0.464427,0.43793 1 0 1 -0.456713,-0.446 l 0.09003,-5.158 a 0.464427,0.43793 1 0 1 0.471999,-0.4298 0.464427,0.43793 1 0 1 0.456714,0.446 l -0.09003,5.158 a 0.464427,0.43793 1 0 1 -0.472,0.4298 z"
         fill="#d1d3d4"
         id="svg_130-8-00"
         stroke="null" />
      <path
         d="m 84.362463,1767.8596 -5.470113,-0.096 a 0.473715,0.446688 1 0 1 -0.456713,-0.446 0.464427,0.43793 1 0 1 0.471998,-0.4297 l 5.470114,0.095 a 0.464427,0.43793 1 0 1 0.456713,0.4459 0.464427,0.43793 1 0 1 -0.471999,0.4298 z"
         fill="#d1d3d4"
         id="svg_131-4-92"
         stroke="null" />
      <path
         d="m 26.766471,1676.2381 a 0.464427,0.43793 1 0 1 -0.456713,-0.446 l 0.09003,-5.158 a 0.464427,0.43793 1 0 1 0.471999,-0.4298 0.464427,0.43793 1 0 1 0.456714,0.446 l -0.09003,5.158 a 0.464427,0.43793 1 0 1 -0.472,0.4298 z"
         fill="#d1d3d4"
         id="svg_130-8-17"
         stroke="null" />
      <path
         d="m 29.541825,1673.7111 -5.470113,-0.096 a 0.473715,0.446688 1 0 1 -0.456713,-0.446 0.464427,0.43793 1 0 1 0.471998,-0.4297 l 5.470114,0.095 a 0.464427,0.43793 1 0 1 0.456713,0.4459 0.464427,0.43793 1 0 1 -0.471999,0.4298 z"
         fill="#d1d3d4"
         id="svg_131-4-76"
         stroke="null" />
      <path
         d="m 128.36341,1664.0226 a 0.464427,0.43793 1 0 1 -0.45671,-0.446 l 0.09,-5.158 a 0.464427,0.43793 1 0 1 0.472,-0.4298 0.464427,0.43793 1 0 1 0.45671,0.446 l -0.09,5.158 a 0.464427,0.43793 1 0 1 -0.472,0.4298 z"
         fill="#d1d3d4"
         id="svg_130-8-69"
         stroke="null" />
      <path
         d="m 131.13877,1661.4956 -5.47011,-0.096 a 0.473715,0.446688 1 0 1 -0.45672,-0.446 0.464427,0.43793 1 0 1 0.472,-0.4297 l 5.47011,0.095 a 0.464427,0.43793 1 0 1 0.45672,0.4459 0.464427,0.43793 1 0 1 -0.472,0.4298 z"
         fill="#d1d3d4"
         id="svg_131-4-01"
         stroke="null" />
      <path
         d="m 359.26556,1498.071 a 0.464427,0.43793 1 0 1 -0.45671,-0.446 l 0.09,-5.158 a 0.464427,0.43793 1 0 1 0.472,-0.4298 0.464427,0.43793 1 0 1 0.45671,0.446 l -0.09,5.158 a 0.464427,0.43793 1 0 1 -0.472,0.4298 z"
         fill="#d1d3d4"
         id="svg_130-8-31"
         stroke="null" />
      <path
         d="m 362.04091,1495.544 -5.47011,-0.096 a 0.473715,0.446688 1 0 1 -0.45671,-0.446 0.464427,0.43793 1 0 1 0.472,-0.4297 l 5.47011,0.095 a 0.464427,0.43793 1 0 1 0.45671,0.4459 0.464427,0.43793 1 0 1 -0.472,0.4298 z"
         fill="#d1d3d4"
         id="svg_131-4-89"
         stroke="null" />
      <circle
         cx="327.41922"
         cy="1412.6871"
         r="2.023236"
         fill="#ffffff"
         id="svg_88-3-8"
         stroke="null"
         transform="rotate(1)" />
      <path
         d="m 302.67159,1420.647 a 2.610078,2.461165 1 1 1 2.64335,-2.4154 2.610078,2.461165 1 0 1 -2.64335,2.4154 z m 0.0706,-4.0459 a 1.681225,1.585305 1 1 0 1.644,1.6143 1.681225,1.585305 1 0 0 -1.644,-1.6143 z"
         fill="#d1d3d4"
         id="svg_89-7-9"
         stroke="null" />
      <circle
         cx="65.682083"
         cy="1406.5283"
         r="2.023236"
         fill="#ffffff"
         id="svg_88-3-6"
         stroke="null"
         transform="rotate(1)" />
      <path
         d="m 41.081809,1409.9212 a 2.610078,2.461165 1 1 1 2.64335,-2.4154 2.610078,2.461165 1 0 1 -2.64335,2.4154 z m 0.0706,-4.0459 a 1.681225,1.585305 1 1 0 1.644,1.6143 1.681225,1.585305 1 0 0 -1.644,-1.6143 z"
         fill="#d1d3d4"
         id="svg_89-7-0"
         stroke="null" />
      <circle
         cx="128.39693"
         cy="1516.8795"
         r="2.023236"
         fill="#ffffff"
         id="svg_88-3-0"
         stroke="null"
         transform="rotate(1)" />
      <path
         d="m 101.86121,1521.3501 a 2.610078,2.461165 1 1 1 2.64335,-2.4154 2.610078,2.461165 1 0 1 -2.64335,2.4154 z m 0.0706,-4.0459 a 1.681225,1.585305 1 1 0 1.644,1.6143 1.681225,1.585305 1 0 0 -1.644,-1.6143 z"
         fill="#d1d3d4"
         id="svg_89-7-7"
         stroke="null" />
      <circle
         cx="128.80069"
         cy="1796.0831"
         r="2.023236"
         fill="#ffffff"
         id="svg_88-3-7"
         stroke="null"
         transform="rotate(1)" />
      <path
         d="m 97.392139,1800.5183 a 2.610078,2.461165 1 1 1 2.643351,-2.4154 2.610078,2.461165 1 0 1 -2.643351,2.4154 z m 0.0706,-4.0459 a 1.681225,1.585305 1 1 0 1.644,1.6143 1.681225,1.585305 1 0 0 -1.644,-1.6143 z"
         fill="#d1d3d4"
         id="svg_89-7-3"
         stroke="null" />
      <circle
         cx="268.26926"
         cy="2001.6412"
         r="2.023236"
         fill="#ffffff"
         id="svg_88-3-9"
         stroke="null"
         transform="rotate(1)" />
      <path
         d="m 233.25198,2008.4792 a 2.610078,2.461165 1 1 1 2.64335,-2.4154 2.610078,2.461165 1 0 1 -2.64335,2.4154 z m 0.0706,-4.0459 a 1.681225,1.585305 1 1 0 1.644,1.6143 1.681225,1.585305 1 0 0 -1.644,-1.6143 z"
         fill="#d1d3d4"
         id="svg_89-7-5"
         stroke="null" />
      <circle
         cx="364.99905"
         cy="1960.917"
         r="2.023236"
         fill="#ffffff"
         id="svg_88-3-88"
         stroke="null"
         transform="rotate(1)" />
      <path
         d="m 330.67779,1969.4493 a 2.610078,2.461165 1 1 1 2.64335,-2.4154 2.610078,2.461165 1 0 1 -2.64335,2.4154 z m 0.0706,-4.0459 a 1.681225,1.585305 1 1 0 1.644,1.6143 1.681225,1.585305 1 0 0 -1.644,-1.6143 z"
         fill="#d1d3d4"
         id="svg_89-7-35"
         stroke="null" />
      <circle
         cx="229.54402"
         cy="1934.079"
         r="2.023236"
         fill="#ffffff"
         id="svg_88-3-1"
         stroke="null"
         transform="rotate(1)" />
      <path
         d="m 195.71176,1940.2513 a 2.610078,2.461165 1 1 1 2.64335,-2.4154 2.610078,2.461165 1 0 1 -2.64335,2.4154 z m 0.0706,-4.0459 a 1.681225,1.585305 1 1 0 1.644,1.6143 1.681225,1.585305 1 0 0 -1.644,-1.6143 z"
         fill="#d1d3d4"
         id="svg_89-7-99"
         stroke="null" />
      <circle
         cx="128.84282"
         cy="1969.2108"
         r="2.023236"
         fill="#ffffff"
         id="svg_88-3-82"
         stroke="null"
         transform="rotate(1)" />
      <path
         d="m 94.412756,1973.6204 a 2.610078,2.461165 1 1 1 2.64335,-2.4154 2.610078,2.461165 1 0 1 -2.64335,2.4154 z m 0.0706,-4.0459 a 1.681225,1.585305 1 1 0 1.644,1.6143 1.681225,1.585305 1 0 0 -1.644,-1.6143 z"
         fill="#d1d3d4"
         id="svg_89-7-31"
         stroke="null" />
      <circle
         cx="257.06705"
         cy="1735.4395"
         r="2.023236"
         fill="#ffffff"
         id="svg_88-3-64"
         stroke="null"
         transform="rotate(1)" />
      <path
         d="m 226.69734,1742.1224 a 2.610078,2.461165 1 1 1 2.64335,-2.4154 2.610078,2.461165 1 0 1 -2.64335,2.4154 z m 0.0706,-4.0459 a 1.681225,1.585305 1 1 0 1.644,1.6143 1.681225,1.585305 1 0 0 -1.644,-1.6143 z"
         fill="#d1d3d4"
         id="svg_89-7-2"
         stroke="null" />
      <circle
         cx="326.069"
         cy="1727.9773"
         r="2.023236"
         fill="#ffffff"
         id="svg_88-3-08"
         stroke="null"
         transform="rotate(1)" />
      <path
         d="m 295.81901,1735.8657 a 2.610078,2.461165 1 1 1 2.64335,-2.4154 2.610078,2.461165 1 0 1 -2.64335,2.4154 z m 0.0706,-4.0459 a 1.681225,1.585305 1 1 0 1.644,1.6143 1.681225,1.585305 1 0 0 -1.644,-1.6143 z"
         fill="#d1d3d4"
         id="svg_89-7-78"
         stroke="null" />
      <circle
         cx="102.48831"
         cy="1603.151"
         r="2.023236"
         fill="#ffffff"
         id="svg_88-3-67"
         stroke="null"
         transform="rotate(1)" />
      <path
         d="m 74.450893,1607.1564 a 2.610078,2.461165 1 1 1 2.64335,-2.4154 2.610078,2.461165 1 0 1 -2.64335,2.4154 z m 0.0706,-4.0459 a 1.681225,1.585305 1 1 0 1.644,1.6143 1.681225,1.585305 1 0 0 -1.644,-1.6143 z"
         fill="#d1d3d4"
         id="svg_89-7-4"
         stroke="null" />
      <circle
         cx="314.12744"
         cy="1607.2045"
         r="2.023236"
         fill="#ffffff"
         id="svg_88-3-98"
         stroke="null"
         transform="rotate(1)" />
      <path
         d="m 285.98705,1614.9028 a 2.610078,2.461165 1 1 1 2.64335,-2.4154 2.610078,2.461165 1 0 1 -2.64335,2.4154 z m 0.0706,-4.0459 a 1.681225,1.585305 1 1 0 1.644,1.6143 1.681225,1.585305 1 0 0 -1.644,-1.6143 z"
         fill="#d1d3d4"
         id="svg_89-7-49"
         stroke="null" />
      <circle
         style="stroke-width:1.65508"
         stroke="null"
         transform="rotate(1)"
         id="svg_66-0"
         fill="#d1d3d4"
         r="21.076998"
         cy="931.83136"
         cx="151.54974" />
      <circle
         stroke="null"
         transform="rotate(1)"
         id="svg_66-9"
         fill="#d1d3d4"
         r="12.734726"
         cy="1340.3502"
         cx="135.43774" />
      <circle
         stroke="null"
         transform="rotate(1)"
         id="svg_66-5"
         fill="#d1d3d4"
         r="12.734726"
         cy="1225.6178"
         cx="289.57852" />
      <path
         sodipodi:nodetypes="sssss"
         id="svg_107-3"
         d="m 333.98446,1340.0781 c 10.62608,6.7092 12.95251,21.9042 6.24328,32.5303 -6.70923,10.626 -21.46684,14.7746 -32.09292,8.0654 -10.62608,-6.7092 -13.08263,-21.7267 -6.3734,-32.3528 6.70915,-10.6261 21.59704,-14.9521 32.22304,-8.2429 z"
         stroke-opacity="null"
         stroke-linecap="null"
         stroke-linejoin="null"
         stroke-width="null"
         stroke="null"
         fill-opacity="null"
         fill="#ffffff" />
      <path
         stroke-width="0"
         stroke="null"
         id="svg_108-7"
         fill="#d1d3d4"
         d="m 302.72676,1346.3381 a 23.183998,24.586751 37.268 1 1 8.9961,36.6316 v 0 a 23.192756,24.596039 37.268 0 1 -8.9961,-36.6316 z m 36.21017,27.5528 a 22.316897,23.667186 37.268 1 0 -26.86231,8.226 v 0 a 22.351931,23.70434 37.268 0 0 26.86789,-8.2334 z" />
      <path
         stroke="null"
         id="svg_109-0"
         fill="#d1d3d4"
         d="m 335.19305,1331.9997 c 3.26588,-2.8122 6.60504,-4.9131 8.38705,-3.7546 2.91391,1.9177 -1.06295,11.1213 -3.70245,16.4689 a 0.43936002,0.46594354 49.268 0 1 -0.80736,-0.3682 c 4.98116,-9.9876 5.32645,-14.4691 3.96747,-15.3214 -1.3592,-0.8524 -5.50655,1.1355 -13.15102,9.3825 a 163.7857,173.6956 49.268 0 0 -26.36597,38.0074 c -4.98566,9.9682 -5.32523,14.4564 -3.96747,15.3214 1.35779,0.865 5.49376,-1.1361 13.14521,-9.3892 a 0.4410713,0.46775837 49.268 0 1 0.65596,0.5909 c -4.07874,4.4021 -11.36472,11.4854 -14.32264,9.5593 -2.9578,-1.926 1.03881,-11.1352 3.69996,-16.4434 a 163.98715,173.90923 49.268 0 1 26.52262,-38.2811 67.730206,71.828237 49.268 0 1 5.93864,-5.7725 z" />
      <circle
         stroke="null"
         transform="rotate(1)"
         id="svg_62-5"
         fill="#ffffff"
         r="4.0377121"
         cy="695.12122"
         cx="105.84844" />
      <path
         stroke="null"
         id="svg_63-6"
         fill="#d1d3d4"
         d="m 93.622674,701.3376 a 4.75573,4.4844 1 1 1 4.82398,-4.40088 4.75573,4.4844 1 0 1 -4.82398,4.40088 z m 0.141088,-8.08294 a 3.826876,3.608541 1 1 0 3.754174,3.66585 3.826876,3.608541 1 0 0 -3.754174,-3.66585 z" />
      <path
         stroke="null"
         id="svg_134-0"
         fill="#d1d3d4"
         d="M 50.863717,729.56909 A 0.464427,0.43793 1 0 1 50.407,729.12313 l 0.09003,-5.15803 a 0.464427,0.43793 1 0 1 0.472002,-0.42976 0.464427,0.43793 1 0 1 0.456716,0.44597 l -0.09003,5.15803 a 0.464427,0.43793 1 0 1 -0.472002,0.42975 z" />
      <path
         stroke="null"
         id="svg_135-5"
         fill="#d1d3d4"
         d="m 53.639067,727.04213 -5.470117,-0.0955 a 0.473715,0.446688 1 0 1 -0.456706,-0.44598 0.464427,0.43793 1 0 1 0.471992,-0.42975 l 5.470117,0.0955 a 0.464427,0.43793 1 0 1 0.456717,0.44596 0.464427,0.43793 1 0 1 -0.472003,0.42977 z" />
      <path
         stroke="null"
         id="svg_134-1"
         fill="#d1d3d4"
         d="m 93.99723,741.94346 a 0.464427,0.43793 1 0 1 -0.456716,-0.44597 l 0.09003,-5.15802 a 0.464427,0.43793 1 0 1 0.472002,-0.42976 0.464427,0.43793 1 0 1 0.456716,0.44597 l -0.09003,5.15802 a 0.464427,0.43793 1 0 1 -0.472003,0.42976 z" />
      <path
         stroke="null"
         id="svg_135-3"
         fill="#d1d3d4"
         d="m 96.772581,739.4165 -5.470117,-0.0955 a 0.473715,0.446688 1 0 1 -0.456706,-0.44597 0.464427,0.43793 1 0 1 0.471992,-0.42975 l 5.470117,0.0955 a 0.464427,0.43793 1 0 1 0.456716,0.44596 0.464427,0.43793 1 0 1 -0.472002,0.42977 z" />
      <circle
         style="fill:#ffffff"
         cx="85.668114"
         cy="693.70544"
         r="4.0377121"
         fill="#ffffff"
         id="svg_62-5-0"
         transform="rotate(1)"
         stroke="null" />
      <path
         d="m 73.470131,699.56984 a 4.75573,4.4844 1 1 1 4.82398,-4.40088 4.75573,4.4844 1 0 1 -4.82398,4.40088 z m 0.141088,-8.08294 a 3.826876,3.608541 1 1 0 3.754174,3.66585 3.826876,3.608541 1 0 0 -3.754174,-3.66585 z"
         fill="#d1d3d4"
         id="svg_63-6-8"
         stroke="null" />
      <circle
         cx="88.140823"
         cy="713.81787"
         r="4.0377121"
         fill="#ffffff"
         id="svg_62-5-4"
         transform="rotate(1)"
         stroke="null" />
      <path
         d="m 75.591452,719.72238 a 4.75573,4.4844 1 1 1 4.82398,-4.40088 4.75573,4.4844 1 0 1 -4.82398,4.40088 z m 0.141088,-8.08294 a 3.826876,3.608541 1 1 0 3.754174,3.66585 3.826876,3.608541 1 0 0 -3.754174,-3.66585 z"
         fill="#d1d3d4"
         id="svg_63-6-7"
         stroke="null" />
      <path
         stroke="null"
         id="svg_76-7"
         fill="#d1d3d4"
         d="M 25.951892,28.016208 A 0.464427,0.43793 1 0 1 25.495176,27.57024 l 0.09003,-5.158026 a 0.464427,0.43793 1 0 1 0.928708,0.01621 l -0.0908,5.201813 a 0.464427,0.43793 1 0 1 -0.471228,0.385971 z" />
      <path
         stroke="null"
         id="svg_77-0"
         fill="#d1d3d4"
         d="m 28.727393,25.480477 -5.470107,-0.09548 a 0.464427,0.43793 1 0 1 0.01529,-0.875726 l 5.470106,0.09548 a 0.464427,0.43793 1 0 1 -0.01529,0.875726 z" />
      <path
         stroke="null"
         id="svg_76-4"
         fill="#d1d3d4"
         d="m 64.951892,103.51621 a 0.464427,0.43793 1 0 1 -0.456716,-0.44597 l 0.09003,-5.158026 a 0.464427,0.43793 1 0 1 0.928708,0.01621 l -0.0908,5.201816 a 0.464427,0.43793 1 0 1 -0.471228,0.38597 z" />
      <path
         stroke="null"
         id="svg_77-4"
         fill="#d1d3d4"
         d="m 67.727393,100.98048 -5.470107,-0.0955 a 0.464427,0.43793 1 0 1 0.01529,-0.87573 l 5.470107,0.0955 a 0.464427,0.43793 1 0 1 -0.01529,0.87573 z" />
      <circle
         transform="rotate(1)"
         stroke="null"
         id="svg_1-1"
         fill="#ffffff"
         cy="1584.2864"
         cx="188.27014"
         r="19.74"
         style="fill:#ffffff" />
      <path
         stroke="null"
         id="svg_2-9"
         fill="#d1d3d4"
         d="m 160.23861,1607.5678 a 20.24,20.24 0 1 1 20.58016,-19.8839 20.26,20.26 0 0 1 -20.58016,19.8839 z m 0.68885,-39.464 a 19.24,19.24 0 1 0 18.89146,19.5627 19.26,19.26 0 0 0 -18.89146,-19.5627 z" />
      <circle
         transform="rotate(1)"
         stroke="null"
         id="svg_1-14"
         fill="#ffffff"
         cy="1791.0366"
         cx="329.23965"
         r="19.74"
         style="fill:#ffffff" />
      <path
         stroke="null"
         id="svg_2-1"
         fill="#d1d3d4"
         d="m 297.57836,1816.7468 a 20.24,20.24 0 1 1 20.58016,-19.8839 20.26,20.26 0 0 1 -20.58016,19.8839 z m 0.68885,-39.464 a 19.24,19.24 0 1 0 18.89146,19.5627 19.26,19.26 0 0 0 -18.89146,-19.5627 z" />
      <circle
         cx="363.23123"
         cy="893.90045"
         r="4.0377121"
         fill="#d1d3d4"
         id="svg_125-8-4"
         stroke="null"
         transform="rotate(1)" />
      <circle
         cx="323.74911"
         cy="901.98596"
         r="4.0377121"
         fill="#d1d3d4"
         id="svg_125-8-5"
         stroke="null"
         transform="rotate(1)" />
    </g>
    <path
       fill="none"
       stroke="null"
       stroke-width="5"
       stroke-opacity="null"
       id="svg_118"
       d="m159.491425,682.374512c0,0.338989 -0.071533,3.439026 -1.694916,11.525452c-2.330475,11.608582 -5.931915,24.433289 -13.559357,35.932312c-5.326279,8.029846 -13.949158,13.374329 -21.35598,14.576294c-4.349892,0.705872 -5.762726,-1.016907 -5.762726,-3.050842l0.677963,-3.728821l1.016953,-3.389832"
       filter="url(#svg_118_blur)" />
  </g>
</svg>
