<?xml version="1.0" encoding="UTF-8" standalone="no"?>
<svg
   xmlns:dc="http://purl.org/dc/elements/1.1/"
   xmlns:cc="http://creativecommons.org/ns#"
   xmlns:rdf="http://www.w3.org/1999/02/22-rdf-syntax-ns#"
   xmlns:svg="http://www.w3.org/2000/svg"
   xmlns="http://www.w3.org/2000/svg"
   xmlns:sodipodi="http://sodipodi.sourceforge.net/DTD/sodipodi-0.dtd"
   xmlns:inkscape="http://www.inkscape.org/namespaces/inkscape"
   viewBox="0 0 400 3000"
   version="1.1"
   id="svg328"
   sodipodi:docname="cosmosBG.svg"
   width="400"
   height="3000"
   inkscape:version="1.0 (4035a4fb49, 2020-05-01)">
  <metadata
     id="metadata334">
    <rdf:RDF>
      <cc:Work
         rdf:about="">
        <dc:format>image/svg+xml</dc:format>
        <dc:type
           rdf:resource="http://purl.org/dc/dcmitype/StillImage" />
        <dc:title />
      </cc:Work>
    </rdf:RDF>
  </metadata>
  <defs
     id="defs332">
    <g
       inkscape:label="Clip"
       id="use11991">
      <path
         id="path12349"
         fill="#ffffff"
         d="m 184.44465,379.95345 c 0,0 -4.42,12.73 -18.56,24.67 -14.14,11.94 -49.75,19 -49.75,19 l 19.52,-40.81 z"
         style="fill:#cccccc" />
      <path
         id="path12351"
         fill="#231f20"
         d="m 116.18465,424.07345 a 0.49,0.49 0 0 1 -0.39,-0.19 0.51,0.51 0 0 1 -0.06,-0.53 l 19.45,-40.8 a 0.5,0.5 0 0 1 0.42,-0.28 l 48.79,-2.82 a 0.48,0.48 0 0 1 0.43,0.2 0.51,0.51 0 0 1 0.08,0.46 c -0.05,0.13 -4.63,13 -18.72,24.89 -14.09,11.89 -49.61,19 -50,19.07 z m 19.85,-40.83 -19,39.64 c 5.83,-1.24 36,-8 48.54,-18.65 12,-10.12 17,-20.92 18.13,-23.75 z" />
      <path
         id="path12353"
         fill="#ffffff"
         d="m 157.44465,312.24345 c 0,0 -11.94,-4.24 -30.42,-3.17 -18.48,1.07 -49.169996,18.52 -49.169996,18.52 l 42.249996,16.18 z"
         style="fill:#cccccc" />
      <path
         id="path12355"
         fill="#231f20"
         d="m 120.10465,344.27345 a 0.58,0.58 0 0 1 -0.18,0 l -42.249996,-16.2 a 0.52,0.52 0 0 1 -0.32,-0.43 0.5,0.5 0 0 1 0.25,-0.47 c 0.31,-0.18 30.999996,-17.53 49.389996,-18.59 18.39,-1.06 30.5,3.15 30.61,3.19 a 0.5,0.5 0 0 1 0.16,0.86 l -37.34,31.53 a 0.55,0.55 0 0 1 -0.32,0.11 z m -41.069996,-16.76 40.999996,15.68 36.42,-30.75 c -3,-0.91 -14,-3.77 -29.37,-2.87 -16.4,0.95 -42.779996,15.04 -48.049996,17.94 z" />
      <path
         id="path12357"
         fill="#ffffff"
         d="m 110.49465,340.54345 c 15.53,-15.22 40.58,-30.89 70.63,-42.88 45.54,-18.16 79.27,-2.49 90.44,4.11 a 6.38,6.38 0 0 1 2.89,7.24 c -3.56,12.48 -17.26,47.05 -62.8,65.21 -30.05,12 -59,17.86 -80.74,17.5 0,0 -7,-6.19 -14.13,-24 -7.13,-17.81 -6.29,-27.18 -6.29,-27.18 z"
         style="fill:#cccccc" />
      <path
         id="path12359"
         fill="#231f20"
         d="m 132.78465,392.24345 h -1.88 a 0.5,0.5 0 0 1 -0.33,-0.12 c -0.29,-0.26 -7.18,-6.48 -14.25,-24.22 -7.07,-17.74 -6.36,-27 -6.33,-27.39 a 0.51,0.51 0 0 1 0.15,-0.31 c 16.12,-15.8 41.92,-31.47 70.8,-43 45.21,-18 78.61,-3.11 90.88,4.14 a 6.88,6.88 0 0 1 3.11,7.8 c -3.91,13.71 -17.88,47.52 -63.09,65.55 -28.08,11.2 -56.75,17.55 -79.06,17.55 z m -1.67,-1 c 22.38,0.3 51.69,-6 80.36,-17.47 44.8,-17.87 58.63,-51.33 62.5,-64.89 a 5.89,5.89 0 0 0 -2.66,-6.67 c -12.14,-7.17 -45.21,-21.94 -90,-4.07 -28.67,11.43 -54.29,27 -70.33,42.63 -0.06,1.37 -0.18,10.58 6.27,26.75 6.45,16.17 12.87,22.75 13.86,23.71 z" />
      <path
         id="path12361"
         fill="#ffffff"
         d="m 274.45465,309.01345 a 95.68,95.68 0 0 1 -24.68,40.7 c 0,0 -9.71,-6.64 -18.15,-27.82 -8.44,-21.18 -6,-32.67 -6,-32.67 a 95.5,95.5 0 0 1 45.91,12.55 6.38,6.38 0 0 1 2.92,7.24 z"
         style="fill:#cccccc" />
      <path
         id="path12363"
         fill="#231f20"
         d="m 249.77465,350.21345 a 0.51,0.51 0 0 1 -0.28,-0.09 c -0.4,-0.28 -9.93,-7 -18.34,-28 -8.41,-21 -6.09,-32.49 -6,-33 a 0.51,0.51 0 0 1 0.49,-0.4 v 0 a 95.64,95.64 0 0 1 46.16,12.62 6.88,6.88 0 0 1 3.11,7.8 v 0 a 95.68,95.68 0 0 1 -24.73,40.93 0.51,0.51 0 0 1 -0.41,0.14 z m -23.7,-60.48 c -0.32,2.21 -1.4,13.39 6,32 7.4,18.61 15.89,26 17.65,27.34 a 94.71,94.71 0 0 0 24.24,-40.18 v 0 a 5.89,5.89 0 0 0 -2.66,-6.67 94.53,94.53 0 0 0 -45.23,-12.49 z" />
      <path
         id="path12365"
         fill="#231f20"
         d="m 270.18465,300.53345 c 0,0 19.22,-5 20.36,-2.14 1.14,2.86 -16.24,12.46 -16.24,12.46" />
      <path
         id="path12367"
         fill="#231f20"
         d="m 274.30465,311.29345 a 0.44,0.44 0 0 1 -0.21,-0.82 c 8.2,-4.54 16.67,-10.38 16,-11.92 -0.67,-1.54 -10.78,0.05 -19.84,2.41 a 0.44384682,0.44384682 0 1 1 -0.22,-0.86 c 4.6,-1.19 19.69,-4.85 20.88,-1.87 1.19,2.98 -12.28,10.71 -16.44,13 a 0.54,0.54 0 0 1 -0.17,0.06 z" />
      <path
         id="path12369"
         fill="#ffffff"
         d="m 271.89465,312.66345 a 23.16,23.16 0 0 1 -4.7,-11.78 2.69,2.69 0 0 1 2.36,-2.78 v 0 a 2.17,2.17 0 0 1 2.62,1.73 20.08,20.08 0 0 0 4.01,10.16 2.16,2.16 0 0 1 -0.7,3.06 v 0 a 2.68,2.68 0 0 1 -3.59,-0.39 z"
         style="fill:#cccccc" />
      <path
         id="path12371"
         fill="#231f20"
         d="m 273.88465,314.07345 a 3,3 0 0 1 -2.39,-1.12 23.83,23.83 0 0 1 -4.8,-12 3.17,3.17 0 0 1 2.8,-3.33 3,3 0 0 1 2.27,0.57 2.33,2.33 0 0 1 0.91,1.61 19.66,19.66 0 0 0 3.95,9.91 2.32,2.32 0 0 1 0.45,1.79 3,3 0 0 1 -1.26,2 3.26,3.26 0 0 1 -1.93,0.57 z m -3.93,-15.51 h -0.33 a 2.19,2.19 0 0 0 -1.93,2.24 22.94,22.94 0 0 0 4.59,11.53 v 0 a 2.19,2.19 0 0 0 2.94,0.29 2,2 0 0 0 0.86,-1.31 1.34,1.34 0 0 0 -0.25,-1 20.71,20.71 0 0 1 -4.16,-10.42 1.38,1.38 0 0 0 -0.52,-0.93 1.93,1.93 0 0 0 -1.2,-0.39 z" />
      <path
         id="path12373"
         fill="#d1d3d4"
         d="m 159.77465,381.88345 a 0.50089919,0.50089919 0 0 1 -0.06,-1 c 0.45,-0.05 45.05,-5.4 80.56,-34.17 a 0.5,0.5 0 0 1 0.7,0.07 0.52,0.52 0 0 1 -0.07,0.71 c -35.74,29 -80.62,34.33 -81.07,34.38 z"
         style="fill:#666666" />
    </g>
    <g
       inkscape:label="Clip"
       id="use11991-6">
      <path
         style="fill:#b3b3b3"
         id="path12433"
         fill="#ffffff"
         d="m 184.44465,379.95345 c 0,0 -4.42,12.73 -18.56,24.67 -14.14,11.94 -49.75,19 -49.75,19 l 19.52,-40.81 z" />
      <path
         id="path12435"
         fill="#231f20"
         d="m 116.18465,424.07345 a 0.49,0.49 0 0 1 -0.39,-0.19 0.51,0.51 0 0 1 -0.06,-0.53 l 19.45,-40.8 a 0.5,0.5 0 0 1 0.42,-0.28 l 48.79,-2.82 a 0.48,0.48 0 0 1 0.43,0.2 0.51,0.51 0 0 1 0.08,0.46 c -0.05,0.13 -4.63,13 -18.72,24.89 -14.09,11.89 -49.61,19 -50,19.07 z m 19.85,-40.83 -19,39.64 c 5.83,-1.24 36,-8 48.54,-18.65 12,-10.12 17,-20.92 18.13,-23.75 z" />
      <path
         style="fill:#b3b3b3"
         id="path12437"
         fill="#ffffff"
         d="m 157.44465,312.24345 c 0,0 -11.94,-4.24 -30.42,-3.17 -18.48,1.07 -49.169996,18.52 -49.169996,18.52 l 42.249996,16.18 z" />
      <path
         id="path12439"
         fill="#231f20"
         d="m 120.10465,344.27345 a 0.58,0.58 0 0 1 -0.18,0 l -42.249996,-16.2 a 0.52,0.52 0 0 1 -0.32,-0.43 0.5,0.5 0 0 1 0.25,-0.47 c 0.31,-0.18 30.999996,-17.53 49.389996,-18.59 18.39,-1.06 30.5,3.15 30.61,3.19 a 0.5,0.5 0 0 1 0.16,0.86 l -37.34,31.53 a 0.55,0.55 0 0 1 -0.32,0.11 z m -41.069996,-16.76 40.999996,15.68 36.42,-30.75 c -3,-0.91 -14,-3.77 -29.37,-2.87 -16.4,0.95 -42.779996,15.04 -48.049996,17.94 z" />
      <path
         style="fill:#b3b3b3"
         id="path12441"
         fill="#ffffff"
         d="m 110.49465,340.54345 c 15.53,-15.22 40.58,-30.89 70.63,-42.88 45.54,-18.16 79.27,-2.49 90.44,4.11 a 6.38,6.38 0 0 1 2.89,7.24 c -3.56,12.48 -17.26,47.05 -62.8,65.21 -30.05,12 -59,17.86 -80.74,17.5 0,0 -7,-6.19 -14.13,-24 -7.13,-17.81 -6.29,-27.18 -6.29,-27.18 z" />
      <path
         id="path12443"
         fill="#231f20"
         d="m 132.78465,392.24345 h -1.88 a 0.5,0.5 0 0 1 -0.33,-0.12 c -0.29,-0.26 -7.18,-6.48 -14.25,-24.22 -7.07,-17.74 -6.36,-27 -6.33,-27.39 a 0.51,0.51 0 0 1 0.15,-0.31 c 16.12,-15.8 41.92,-31.47 70.8,-43 45.21,-18 78.61,-3.11 90.88,4.14 a 6.88,6.88 0 0 1 3.11,7.8 c -3.91,13.71 -17.88,47.52 -63.09,65.55 -28.08,11.2 -56.75,17.55 -79.06,17.55 z m -1.67,-1 c 22.38,0.3 51.69,-6 80.36,-17.47 44.8,-17.87 58.63,-51.33 62.5,-64.89 a 5.89,5.89 0 0 0 -2.66,-6.67 c -12.14,-7.17 -45.21,-21.94 -90,-4.07 -28.67,11.43 -54.29,27 -70.33,42.63 -0.06,1.37 -0.18,10.58 6.27,26.75 6.45,16.17 12.87,22.75 13.86,23.71 z" />
      <path
         style="fill:#b3b3b3"
         id="path12445"
         fill="#ffffff"
         d="m 274.45465,309.01345 a 95.68,95.68 0 0 1 -24.68,40.7 c 0,0 -9.71,-6.64 -18.15,-27.82 -8.44,-21.18 -6,-32.67 -6,-32.67 a 95.5,95.5 0 0 1 45.91,12.55 6.38,6.38 0 0 1 2.92,7.24 z" />
      <path
         id="path12447"
         fill="#231f20"
         d="m 249.77465,350.21345 a 0.51,0.51 0 0 1 -0.28,-0.09 c -0.4,-0.28 -9.93,-7 -18.34,-28 -8.41,-21 -6.09,-32.49 -6,-33 a 0.51,0.51 0 0 1 0.49,-0.4 v 0 a 95.64,95.64 0 0 1 46.16,12.62 6.88,6.88 0 0 1 3.11,7.8 v 0 a 95.68,95.68 0 0 1 -24.73,40.93 0.51,0.51 0 0 1 -0.41,0.14 z m -23.7,-60.48 c -0.32,2.21 -1.4,13.39 6,32 7.4,18.61 15.89,26 17.65,27.34 a 94.71,94.71 0 0 0 24.24,-40.18 v 0 a 5.89,5.89 0 0 0 -2.66,-6.67 94.53,94.53 0 0 0 -45.23,-12.49 z" />
      <path
         id="path12449"
         fill="#231f20"
         d="m 270.18465,300.53345 c 0,0 19.22,-5 20.36,-2.14 1.14,2.86 -16.24,12.46 -16.24,12.46" />
      <path
         id="path12451"
         fill="#231f20"
         d="m 274.30465,311.29345 a 0.44,0.44 0 0 1 -0.21,-0.82 c 8.2,-4.54 16.67,-10.38 16,-11.92 -0.67,-1.54 -10.78,0.05 -19.84,2.41 a 0.44384682,0.44384682 0 1 1 -0.22,-0.86 c 4.6,-1.19 19.69,-4.85 20.88,-1.87 1.19,2.98 -12.28,10.71 -16.44,13 a 0.54,0.54 0 0 1 -0.17,0.06 z" />
      <path
         style="fill:#b3b3b3"
         id="path12453"
         fill="#ffffff"
         d="m 271.89465,312.66345 a 23.16,23.16 0 0 1 -4.7,-11.78 2.69,2.69 0 0 1 2.36,-2.78 v 0 a 2.17,2.17 0 0 1 2.62,1.73 20.08,20.08 0 0 0 4.01,10.16 2.16,2.16 0 0 1 -0.7,3.06 v 0 a 2.68,2.68 0 0 1 -3.59,-0.39 z" />
      <path
         id="path12455"
         fill="#231f20"
         d="m 273.88465,314.07345 a 3,3 0 0 1 -2.39,-1.12 23.83,23.83 0 0 1 -4.8,-12 3.17,3.17 0 0 1 2.8,-3.33 3,3 0 0 1 2.27,0.57 2.33,2.33 0 0 1 0.91,1.61 19.66,19.66 0 0 0 3.95,9.91 2.32,2.32 0 0 1 0.45,1.79 3,3 0 0 1 -1.26,2 3.26,3.26 0 0 1 -1.93,0.57 z m -3.93,-15.51 h -0.33 a 2.19,2.19 0 0 0 -1.93,2.24 22.94,22.94 0 0 0 4.59,11.53 v 0 a 2.19,2.19 0 0 0 2.94,0.29 2,2 0 0 0 0.86,-1.31 1.34,1.34 0 0 0 -0.25,-1 20.71,20.71 0 0 1 -4.16,-10.42 1.38,1.38 0 0 0 -0.52,-0.93 1.93,1.93 0 0 0 -1.2,-0.39 z" />
      <path
         style="fill:#666666"
         id="path12457"
         fill="#d1d3d4"
         d="m 159.77465,381.88345 a 0.50089919,0.50089919 0 0 1 -0.06,-1 c 0.45,-0.05 45.05,-5.4 80.56,-34.17 a 0.5,0.5 0 0 1 0.7,0.07 0.52,0.52 0 0 1 -0.07,0.71 c -35.74,29 -80.62,34.33 -81.07,34.38 z" />
    </g>
    <g
       inkscape:label="Clip"
       id="use11991-3">
      <path
         id="path12377"
         fill="#ffffff"
         d="m 184.44465,379.95345 c 0,0 -4.42,12.73 -18.56,24.67 -14.14,11.94 -49.75,19 -49.75,19 l 19.52,-40.81 z" />
      <path
         id="path12379"
         fill="#231f20"
         d="m 116.18465,424.07345 a 0.49,0.49 0 0 1 -0.39,-0.19 0.51,0.51 0 0 1 -0.06,-0.53 l 19.45,-40.8 a 0.5,0.5 0 0 1 0.42,-0.28 l 48.79,-2.82 a 0.48,0.48 0 0 1 0.43,0.2 0.51,0.51 0 0 1 0.08,0.46 c -0.05,0.13 -4.63,13 -18.72,24.89 -14.09,11.89 -49.61,19 -50,19.07 z m 19.85,-40.83 -19,39.64 c 5.83,-1.24 36,-8 48.54,-18.65 12,-10.12 17,-20.92 18.13,-23.75 z" />
      <path
         id="path12381"
         fill="#ffffff"
         d="m 157.44465,312.24345 c 0,0 -11.94,-4.24 -30.42,-3.17 -18.48,1.07 -49.169996,18.52 -49.169996,18.52 l 42.249996,16.18 z" />
      <path
         id="path12383"
         fill="#231f20"
         d="m 120.10465,344.27345 a 0.58,0.58 0 0 1 -0.18,0 l -42.249996,-16.2 a 0.52,0.52 0 0 1 -0.32,-0.43 0.5,0.5 0 0 1 0.25,-0.47 c 0.31,-0.18 30.999996,-17.53 49.389996,-18.59 18.39,-1.06 30.5,3.15 30.61,3.19 a 0.5,0.5 0 0 1 0.16,0.86 l -37.34,31.53 a 0.55,0.55 0 0 1 -0.32,0.11 z m -41.069996,-16.76 40.999996,15.68 36.42,-30.75 c -3,-0.91 -14,-3.77 -29.37,-2.87 -16.4,0.95 -42.779996,15.04 -48.049996,17.94 z" />
      <path
         id="path12385"
         fill="#ffffff"
         d="m 110.49465,340.54345 c 15.53,-15.22 40.58,-30.89 70.63,-42.88 45.54,-18.16 79.27,-2.49 90.44,4.11 a 6.38,6.38 0 0 1 2.89,7.24 c -3.56,12.48 -17.26,47.05 -62.8,65.21 -30.05,12 -59,17.86 -80.74,17.5 0,0 -7,-6.19 -14.13,-24 -7.13,-17.81 -6.29,-27.18 -6.29,-27.18 z" />
      <path
         id="path12387"
         fill="#231f20"
         d="m 132.78465,392.24345 h -1.88 a 0.5,0.5 0 0 1 -0.33,-0.12 c -0.29,-0.26 -7.18,-6.48 -14.25,-24.22 -7.07,-17.74 -6.36,-27 -6.33,-27.39 a 0.51,0.51 0 0 1 0.15,-0.31 c 16.12,-15.8 41.92,-31.47 70.8,-43 45.21,-18 78.61,-3.11 90.88,4.14 a 6.88,6.88 0 0 1 3.11,7.8 c -3.91,13.71 -17.88,47.52 -63.09,65.55 -28.08,11.2 -56.75,17.55 -79.06,17.55 z m -1.67,-1 c 22.38,0.3 51.69,-6 80.36,-17.47 44.8,-17.87 58.63,-51.33 62.5,-64.89 a 5.89,5.89 0 0 0 -2.66,-6.67 c -12.14,-7.17 -45.21,-21.94 -90,-4.07 -28.67,11.43 -54.29,27 -70.33,42.63 -0.06,1.37 -0.18,10.58 6.27,26.75 6.45,16.17 12.87,22.75 13.86,23.71 z" />
      <path
         id="path12389"
         fill="#ffffff"
         d="m 274.45465,309.01345 a 95.68,95.68 0 0 1 -24.68,40.7 c 0,0 -9.71,-6.64 -18.15,-27.82 -8.44,-21.18 -6,-32.67 -6,-32.67 a 95.5,95.5 0 0 1 45.91,12.55 6.38,6.38 0 0 1 2.92,7.24 z" />
      <path
         id="path12391"
         fill="#231f20"
         d="m 249.77465,350.21345 a 0.51,0.51 0 0 1 -0.28,-0.09 c -0.4,-0.28 -9.93,-7 -18.34,-28 -8.41,-21 -6.09,-32.49 -6,-33 a 0.51,0.51 0 0 1 0.49,-0.4 v 0 a 95.64,95.64 0 0 1 46.16,12.62 6.88,6.88 0 0 1 3.11,7.8 v 0 a 95.68,95.68 0 0 1 -24.73,40.93 0.51,0.51 0 0 1 -0.41,0.14 z m -23.7,-60.48 c -0.32,2.21 -1.4,13.39 6,32 7.4,18.61 15.89,26 17.65,27.34 a 94.71,94.71 0 0 0 24.24,-40.18 v 0 a 5.89,5.89 0 0 0 -2.66,-6.67 94.53,94.53 0 0 0 -45.23,-12.49 z" />
      <path
         id="path12393"
         fill="#231f20"
         d="m 270.18465,300.53345 c 0,0 19.22,-5 20.36,-2.14 1.14,2.86 -16.24,12.46 -16.24,12.46" />
      <path
         id="path12395"
         fill="#231f20"
         d="m 274.30465,311.29345 a 0.44,0.44 0 0 1 -0.21,-0.82 c 8.2,-4.54 16.67,-10.38 16,-11.92 -0.67,-1.54 -10.78,0.05 -19.84,2.41 a 0.44384682,0.44384682 0 1 1 -0.22,-0.86 c 4.6,-1.19 19.69,-4.85 20.88,-1.87 1.19,2.98 -12.28,10.71 -16.44,13 a 0.54,0.54 0 0 1 -0.17,0.06 z" />
      <path
         id="path12397"
         fill="#ffffff"
         d="m 271.89465,312.66345 a 23.16,23.16 0 0 1 -4.7,-11.78 2.69,2.69 0 0 1 2.36,-2.78 v 0 a 2.17,2.17 0 0 1 2.62,1.73 20.08,20.08 0 0 0 4.01,10.16 2.16,2.16 0 0 1 -0.7,3.06 v 0 a 2.68,2.68 0 0 1 -3.59,-0.39 z" />
      <path
         id="path12399"
         fill="#231f20"
         d="m 273.88465,314.07345 a 3,3 0 0 1 -2.39,-1.12 23.83,23.83 0 0 1 -4.8,-12 3.17,3.17 0 0 1 2.8,-3.33 3,3 0 0 1 2.27,0.57 2.33,2.33 0 0 1 0.91,1.61 19.66,19.66 0 0 0 3.95,9.91 2.32,2.32 0 0 1 0.45,1.79 3,3 0 0 1 -1.26,2 3.26,3.26 0 0 1 -1.93,0.57 z m -3.93,-15.51 h -0.33 a 2.19,2.19 0 0 0 -1.93,2.24 22.94,22.94 0 0 0 4.59,11.53 v 0 a 2.19,2.19 0 0 0 2.94,0.29 2,2 0 0 0 0.86,-1.31 1.34,1.34 0 0 0 -0.25,-1 20.71,20.71 0 0 1 -4.16,-10.42 1.38,1.38 0 0 0 -0.52,-0.93 1.93,1.93 0 0 0 -1.2,-0.39 z" />
      <path
         id="path12401"
         fill="#d1d3d4"
         d="m 159.77465,381.88345 a 0.50089919,0.50089919 0 0 1 -0.06,-1 c 0.45,-0.05 45.05,-5.4 80.56,-34.17 a 0.5,0.5 0 0 1 0.7,0.07 0.52,0.52 0 0 1 -0.07,0.71 c -35.74,29 -80.62,34.33 -81.07,34.38 z" />
    </g>
    <g
       inkscape:label="Clip"
       id="use11991-60">
      <path
         id="path12405"
         fill="#ffffff"
         d="m 184.44465,379.95345 c 0,0 -4.42,12.73 -18.56,24.67 -14.14,11.94 -49.75,19 -49.75,19 l 19.52,-40.81 z" />
      <path
         id="path12407"
         fill="#231f20"
         d="m 116.18465,424.07345 a 0.49,0.49 0 0 1 -0.39,-0.19 0.51,0.51 0 0 1 -0.06,-0.53 l 19.45,-40.8 a 0.5,0.5 0 0 1 0.42,-0.28 l 48.79,-2.82 a 0.48,0.48 0 0 1 0.43,0.2 0.51,0.51 0 0 1 0.08,0.46 c -0.05,0.13 -4.63,13 -18.72,24.89 -14.09,11.89 -49.61,19 -50,19.07 z m 19.85,-40.83 -19,39.64 c 5.83,-1.24 36,-8 48.54,-18.65 12,-10.12 17,-20.92 18.13,-23.75 z" />
      <path
         id="path12409"
         fill="#ffffff"
         d="m 157.44465,312.24345 c 0,0 -11.94,-4.24 -30.42,-3.17 -18.48,1.07 -49.169996,18.52 -49.169996,18.52 l 42.249996,16.18 z" />
      <path
         id="path12411"
         fill="#231f20"
         d="m 120.10465,344.27345 a 0.58,0.58 0 0 1 -0.18,0 l -42.249996,-16.2 a 0.52,0.52 0 0 1 -0.32,-0.43 0.5,0.5 0 0 1 0.25,-0.47 c 0.31,-0.18 30.999996,-17.53 49.389996,-18.59 18.39,-1.06 30.5,3.15 30.61,3.19 a 0.5,0.5 0 0 1 0.16,0.86 l -37.34,31.53 a 0.55,0.55 0 0 1 -0.32,0.11 z m -41.069996,-16.76 40.999996,15.68 36.42,-30.75 c -3,-0.91 -14,-3.77 -29.37,-2.87 -16.4,0.95 -42.779996,15.04 -48.049996,17.94 z" />
      <path
         id="path12413"
         fill="#ffffff"
         d="m 110.49465,340.54345 c 15.53,-15.22 40.58,-30.89 70.63,-42.88 45.54,-18.16 79.27,-2.49 90.44,4.11 a 6.38,6.38 0 0 1 2.89,7.24 c -3.56,12.48 -17.26,47.05 -62.8,65.21 -30.05,12 -59,17.86 -80.74,17.5 0,0 -7,-6.19 -14.13,-24 -7.13,-17.81 -6.29,-27.18 -6.29,-27.18 z" />
      <path
         id="path12415"
         fill="#231f20"
         d="m 132.78465,392.24345 h -1.88 a 0.5,0.5 0 0 1 -0.33,-0.12 c -0.29,-0.26 -7.18,-6.48 -14.25,-24.22 -7.07,-17.74 -6.36,-27 -6.33,-27.39 a 0.51,0.51 0 0 1 0.15,-0.31 c 16.12,-15.8 41.92,-31.47 70.8,-43 45.21,-18 78.61,-3.11 90.88,4.14 a 6.88,6.88 0 0 1 3.11,7.8 c -3.91,13.71 -17.88,47.52 -63.09,65.55 -28.08,11.2 -56.75,17.55 -79.06,17.55 z m -1.67,-1 c 22.38,0.3 51.69,-6 80.36,-17.47 44.8,-17.87 58.63,-51.33 62.5,-64.89 a 5.89,5.89 0 0 0 -2.66,-6.67 c -12.14,-7.17 -45.21,-21.94 -90,-4.07 -28.67,11.43 -54.29,27 -70.33,42.63 -0.06,1.37 -0.18,10.58 6.27,26.75 6.45,16.17 12.87,22.75 13.86,23.71 z" />
      <path
         id="path12417"
         fill="#ffffff"
         d="m 274.45465,309.01345 a 95.68,95.68 0 0 1 -24.68,40.7 c 0,0 -9.71,-6.64 -18.15,-27.82 -8.44,-21.18 -6,-32.67 -6,-32.67 a 95.5,95.5 0 0 1 45.91,12.55 6.38,6.38 0 0 1 2.92,7.24 z" />
      <path
         id="path12419"
         fill="#231f20"
         d="m 249.77465,350.21345 a 0.51,0.51 0 0 1 -0.28,-0.09 c -0.4,-0.28 -9.93,-7 -18.34,-28 -8.41,-21 -6.09,-32.49 -6,-33 a 0.51,0.51 0 0 1 0.49,-0.4 v 0 a 95.64,95.64 0 0 1 46.16,12.62 6.88,6.88 0 0 1 3.11,7.8 v 0 a 95.68,95.68 0 0 1 -24.73,40.93 0.51,0.51 0 0 1 -0.41,0.14 z m -23.7,-60.48 c -0.32,2.21 -1.4,13.39 6,32 7.4,18.61 15.89,26 17.65,27.34 a 94.71,94.71 0 0 0 24.24,-40.18 v 0 a 5.89,5.89 0 0 0 -2.66,-6.67 94.53,94.53 0 0 0 -45.23,-12.49 z" />
      <path
         id="path12421"
         fill="#231f20"
         d="m 270.18465,300.53345 c 0,0 19.22,-5 20.36,-2.14 1.14,2.86 -16.24,12.46 -16.24,12.46" />
      <path
         id="path12423"
         fill="#231f20"
         d="m 274.30465,311.29345 a 0.44,0.44 0 0 1 -0.21,-0.82 c 8.2,-4.54 16.67,-10.38 16,-11.92 -0.67,-1.54 -10.78,0.05 -19.84,2.41 a 0.44384682,0.44384682 0 1 1 -0.22,-0.86 c 4.6,-1.19 19.69,-4.85 20.88,-1.87 1.19,2.98 -12.28,10.71 -16.44,13 a 0.54,0.54 0 0 1 -0.17,0.06 z" />
      <path
         id="path12425"
         fill="#ffffff"
         d="m 271.89465,312.66345 a 23.16,23.16 0 0 1 -4.7,-11.78 2.69,2.69 0 0 1 2.36,-2.78 v 0 a 2.17,2.17 0 0 1 2.62,1.73 20.08,20.08 0 0 0 4.01,10.16 2.16,2.16 0 0 1 -0.7,3.06 v 0 a 2.68,2.68 0 0 1 -3.59,-0.39 z" />
      <path
         id="path12427"
         fill="#231f20"
         d="m 273.88465,314.07345 a 3,3 0 0 1 -2.39,-1.12 23.83,23.83 0 0 1 -4.8,-12 3.17,3.17 0 0 1 2.8,-3.33 3,3 0 0 1 2.27,0.57 2.33,2.33 0 0 1 0.91,1.61 19.66,19.66 0 0 0 3.95,9.91 2.32,2.32 0 0 1 0.45,1.79 3,3 0 0 1 -1.26,2 3.26,3.26 0 0 1 -1.93,0.57 z m -3.93,-15.51 h -0.33 a 2.19,2.19 0 0 0 -1.93,2.24 22.94,22.94 0 0 0 4.59,11.53 v 0 a 2.19,2.19 0 0 0 2.94,0.29 2,2 0 0 0 0.86,-1.31 1.34,1.34 0 0 0 -0.25,-1 20.71,20.71 0 0 1 -4.16,-10.42 1.38,1.38 0 0 0 -0.52,-0.93 1.93,1.93 0 0 0 -1.2,-0.39 z" />
      <path
         id="path12429"
         fill="#d1d3d4"
         d="m 159.77465,381.88345 a 0.50089919,0.50089919 0 0 1 -0.06,-1 c 0.45,-0.05 45.05,-5.4 80.56,-34.17 a 0.5,0.5 0 0 1 0.7,0.07 0.52,0.52 0 0 1 -0.07,0.71 c -35.74,29 -80.62,34.33 -81.07,34.38 z" />
    </g>
    <g
       id="use12274"
       inkscape:label="Clip">
      <title
         id="title12315">w</title>
      <g
         id="g12345"
         clip-path="url(#clipPath11989)"
         transform="matrix(0.23681074,-0.24648995,0.22005282,0.26700962,179.56662,605.07818)">
        <g
           inkscape:label="Clip"
           id="g12343">
          <path
             id="path12317"
             fill="#ffffff"
             d="m 184.44465,379.95345 c 0,0 -4.42,12.73 -18.56,24.67 -14.14,11.94 -49.75,19 -49.75,19 l 19.52,-40.81 z"
             style="fill:#cccccc" />
          <path
             id="path12319"
             fill="#231f20"
             d="m 116.18465,424.07345 a 0.49,0.49 0 0 1 -0.39,-0.19 0.51,0.51 0 0 1 -0.06,-0.53 l 19.45,-40.8 a 0.5,0.5 0 0 1 0.42,-0.28 l 48.79,-2.82 a 0.48,0.48 0 0 1 0.43,0.2 0.51,0.51 0 0 1 0.08,0.46 c -0.05,0.13 -4.63,13 -18.72,24.89 -14.09,11.89 -49.61,19 -50,19.07 z m 19.85,-40.83 -19,39.64 c 5.83,-1.24 36,-8 48.54,-18.65 12,-10.12 17,-20.92 18.13,-23.75 z" />
          <path
             id="path12321"
             fill="#ffffff"
             d="m 157.44465,312.24345 c 0,0 -11.94,-4.24 -30.42,-3.17 -18.48,1.07 -49.169996,18.52 -49.169996,18.52 l 42.249996,16.18 z"
             style="fill:#cccccc" />
          <path
             id="path12323"
             fill="#231f20"
             d="m 120.10465,344.27345 a 0.58,0.58 0 0 1 -0.18,0 l -42.249996,-16.2 a 0.52,0.52 0 0 1 -0.32,-0.43 0.5,0.5 0 0 1 0.25,-0.47 c 0.31,-0.18 30.999996,-17.53 49.389996,-18.59 18.39,-1.06 30.5,3.15 30.61,3.19 a 0.5,0.5 0 0 1 0.16,0.86 l -37.34,31.53 a 0.55,0.55 0 0 1 -0.32,0.11 z m -41.069996,-16.76 40.999996,15.68 36.42,-30.75 c -3,-0.91 -14,-3.77 -29.37,-2.87 -16.4,0.95 -42.779996,15.04 -48.049996,17.94 z" />
          <path
             id="path12325"
             fill="#ffffff"
             d="m 110.49465,340.54345 c 15.53,-15.22 40.58,-30.89 70.63,-42.88 45.54,-18.16 79.27,-2.49 90.44,4.11 a 6.38,6.38 0 0 1 2.89,7.24 c -3.56,12.48 -17.26,47.05 -62.8,65.21 -30.05,12 -59,17.86 -80.74,17.5 0,0 -7,-6.19 -14.13,-24 -7.13,-17.81 -6.29,-27.18 -6.29,-27.18 z"
             style="fill:#cccccc" />
          <path
             id="path12327"
             fill="#231f20"
             d="m 132.78465,392.24345 h -1.88 a 0.5,0.5 0 0 1 -0.33,-0.12 c -0.29,-0.26 -7.18,-6.48 -14.25,-24.22 -7.07,-17.74 -6.36,-27 -6.33,-27.39 a 0.51,0.51 0 0 1 0.15,-0.31 c 16.12,-15.8 41.92,-31.47 70.8,-43 45.21,-18 78.61,-3.11 90.88,4.14 a 6.88,6.88 0 0 1 3.11,7.8 c -3.91,13.71 -17.88,47.52 -63.09,65.55 -28.08,11.2 -56.75,17.55 -79.06,17.55 z m -1.67,-1 c 22.38,0.3 51.69,-6 80.36,-17.47 44.8,-17.87 58.63,-51.33 62.5,-64.89 a 5.89,5.89 0 0 0 -2.66,-6.67 c -12.14,-7.17 -45.21,-21.94 -90,-4.07 -28.67,11.43 -54.29,27 -70.33,42.63 -0.06,1.37 -0.18,10.58 6.27,26.75 6.45,16.17 12.87,22.75 13.86,23.71 z" />
          <path
             id="path12329"
             fill="#ffffff"
             d="m 274.45465,309.01345 a 95.68,95.68 0 0 1 -24.68,40.7 c 0,0 -9.71,-6.64 -18.15,-27.82 -8.44,-21.18 -6,-32.67 -6,-32.67 a 95.5,95.5 0 0 1 45.91,12.55 6.38,6.38 0 0 1 2.92,7.24 z"
             style="fill:#cccccc" />
          <path
             id="path12331"
             fill="#231f20"
             d="m 249.77465,350.21345 a 0.51,0.51 0 0 1 -0.28,-0.09 c -0.4,-0.28 -9.93,-7 -18.34,-28 -8.41,-21 -6.09,-32.49 -6,-33 a 0.51,0.51 0 0 1 0.49,-0.4 v 0 a 95.64,95.64 0 0 1 46.16,12.62 6.88,6.88 0 0 1 3.11,7.8 v 0 a 95.68,95.68 0 0 1 -24.73,40.93 0.51,0.51 0 0 1 -0.41,0.14 z m -23.7,-60.48 c -0.32,2.21 -1.4,13.39 6,32 7.4,18.61 15.89,26 17.65,27.34 a 94.71,94.71 0 0 0 24.24,-40.18 v 0 a 5.89,5.89 0 0 0 -2.66,-6.67 94.53,94.53 0 0 0 -45.23,-12.49 z" />
          <path
             id="path12333"
             fill="#231f20"
             d="m 270.18465,300.53345 c 0,0 19.22,-5 20.36,-2.14 1.14,2.86 -16.24,12.46 -16.24,12.46" />
          <path
             id="path12335"
             fill="#231f20"
             d="m 274.30465,311.29345 a 0.44,0.44 0 0 1 -0.21,-0.82 c 8.2,-4.54 16.67,-10.38 16,-11.92 -0.67,-1.54 -10.78,0.05 -19.84,2.41 a 0.44384682,0.44384682 0 1 1 -0.22,-0.86 c 4.6,-1.19 19.69,-4.85 20.88,-1.87 1.19,2.98 -12.28,10.71 -16.44,13 a 0.54,0.54 0 0 1 -0.17,0.06 z" />
          <path
             id="path12337"
             fill="#ffffff"
             d="m 271.89465,312.66345 a 23.16,23.16 0 0 1 -4.7,-11.78 2.69,2.69 0 0 1 2.36,-2.78 v 0 a 2.17,2.17 0 0 1 2.62,1.73 20.08,20.08 0 0 0 4.01,10.16 2.16,2.16 0 0 1 -0.7,3.06 v 0 a 2.68,2.68 0 0 1 -3.59,-0.39 z"
             style="fill:#cccccc" />
          <path
             id="path12339"
             fill="#231f20"
             d="m 273.88465,314.07345 a 3,3 0 0 1 -2.39,-1.12 23.83,23.83 0 0 1 -4.8,-12 3.17,3.17 0 0 1 2.8,-3.33 3,3 0 0 1 2.27,0.57 2.33,2.33 0 0 1 0.91,1.61 19.66,19.66 0 0 0 3.95,9.91 2.32,2.32 0 0 1 0.45,1.79 3,3 0 0 1 -1.26,2 3.26,3.26 0 0 1 -1.93,0.57 z m -3.93,-15.51 h -0.33 a 2.19,2.19 0 0 0 -1.93,2.24 22.94,22.94 0 0 0 4.59,11.53 v 0 a 2.19,2.19 0 0 0 2.94,0.29 2,2 0 0 0 0.86,-1.31 1.34,1.34 0 0 0 -0.25,-1 20.71,20.71 0 0 1 -4.16,-10.42 1.38,1.38 0 0 0 -0.52,-0.93 1.93,1.93 0 0 0 -1.2,-0.39 z" />
          <path
             id="path12341"
             fill="#d1d3d4"
             d="m 159.77465,381.88345 a 0.50089919,0.50089919 0 0 1 -0.06,-1 c 0.45,-0.05 45.05,-5.4 80.56,-34.17 a 0.5,0.5 0 0 1 0.7,0.07 0.52,0.52 0 0 1 -0.07,0.71 c -35.74,29 -80.62,34.33 -81.07,34.38 z"
             style="fill:#666666" />
        </g>
      </g>
    </g>
  </defs>
  <sodipodi:namedview
     inkscape:document-rotation="0"
     pagecolor="#ffffff"
     bordercolor="#666666"
     borderopacity="1"
     objecttolerance="10"
     gridtolerance="10"
     guidetolerance="10"
     inkscape:pageopacity="0"
     inkscape:pageshadow="2"
     inkscape:window-width="1920"
     inkscape:window-height="1057"
     id="namedview330"
     showgrid="false"
     inkscape:zoom="1.5919098"
     inkscape:cx="125.54883"
     inkscape:cy="2706.1155"
     inkscape:window-x="-8"
     inkscape:window-y="-8"
     inkscape:window-maximized="1"
     inkscape:current-layer="_319_rocket_boy_flatline"
     inkscape:pagecheckerboard="true" />
  <g
     transform="translate(3.3103476,-4.4137929)"
     id="_319_rocket_boy_flatline"
     data-name="#319_rocket_boy_flatline">
    <circle
       cx="155.34674"
       cy="79.701759"
       r="19.74"
       fill="#ffffff"
       id="circle173" />
    <path
       d="m 155.34674,99.941762 a 20.24,20.24 0 1 1 20.23,-20.24 20.26,20.26 0 0 1 -20.23,20.24 z m 0,-39.47 a 19.24,19.24 0 1 0 19.23,19.23 19.26,19.26 0 0 0 -19.23,-19.23 z"
       fill="#d1d3d4"
       id="path175" />
    <circle
       cx="100.72"
       cy="154.05"
       r="4.6100001"
       fill="#ffffff"
       id="circle295" />
    <path
       d="m 100.72,159.16 a 5.12,5.12 0 1 1 5.11,-5.12 5.12,5.12 0 0 1 -5.11,5.12 z m 0,-9.23 a 4.12,4.12 0 1 0 4.11,4.11 4.12,4.12 0 0 0 -4.11,-4.11 z"
       fill="#d1d3d4"
       id="path297" />
    <circle
       cx="307.14001"
       cy="87.349998"
       r="4.6100001"
       fill="#d1d3d4"
       id="circle303" />
    <circle
       cx="294.49335"
       cy="205.31105"
       fill="#ffffff"
       id="circle305"
       r="25.969999" />
    <path
       d="m 294.50335,231.78104 a 26.47,26.47 0 1 1 25.52,-33.5 v 0 a 26.48,26.48 0 0 1 -25.52,33.5 z m 0,-51.95 a 25.48,25.48 0 1 0 24.56,18.72 v 0 a 25.52,25.52 0 0 0 -24.57,-18.72 z"
       fill="#d1d3d4"
       id="path307" />
    <path
       d="m 263.22335,219.52104 c -4.64,0 -8.84,-0.67 -9.48,-3 -1.03,-3.83 8.68,-8.83 14.59,-11.49 a 0.50159745,0.50159745 0 0 1 0.4,0.92 c -11.08,4.93 -14.51,8.55 -14,10.3 0.51,1.75 5.29,3.12 17.32,1.68 a 187,187 0 0 0 48.21,-13.24 c 11.07,-4.91 14.5,-8.54 14,-10.3 -0.5,-1.76 -5.28,-3.11 -17.32,-1.67 a 0.50358713,0.50358713 0 0 1 -0.12,-1 c 6.42,-0.77 17.34,-1.47 18.4,2.4 1.06,3.87 -8.67,8.86 -14.57,11.47 a 187.23,187.23 0 0 1 -48.53,13.36 77.33,77.33 0 0 1 -8.9,0.57 z"
       fill="#d1d3d4"
       id="path309" />
    <path
       d="m 145.11568,210.10483 a 0.5,0.5 0 0 1 -0.5,-0.5 v -5.89 a 0.5,0.5 0 0 1 0.5,-0.5 0.5,0.5 0 0 1 0.5,0.5 v 5.89 a 0.5,0.5 0 0 1 -0.5,0.5 z"
       fill="#d1d3d4"
       id="path311" />
    <path
       d="m 148.11568,207.15483 h -5.89 a 0.5,0.5 0 0 1 -0.5,-0.5 0.51,0.51 0 0 1 0.5,-0.5 h 5.89 a 0.5,0.5 0 0 1 0.5,0.5 0.5,0.5 0 0 1 -0.5,0.5 z"
       fill="#d1d3d4"
       id="path313" />
    <path
       d="m 330.16,106.5 a 0.5,0.5 0 0 1 -0.5,-0.5 v -5.89 a 0.5,0.5 0 0 1 0.5,-0.5 0.5,0.5 0 0 1 0.5,0.5 V 106 a 0.5,0.5 0 0 1 -0.5,0.5 z"
       fill="#d1d3d4"
       id="path315" />
    <path
       d="m 333.11,103.56 h -5.89 a 0.5,0.5 0 0 1 -0.5,-0.5 0.5,0.5 0 0 1 0.5,-0.5 h 5.89 a 0.5,0.5 0 0 1 0.5,0.5 0.51,0.51 0 0 1 -0.5,0.5 z"
       fill="#d1d3d4"
       id="path317" />
    <path
       d="m 81.81,235.61 a 0.5,0.5 0 0 1 -0.5,-0.5 v -5.89 a 0.5,0.5 0 0 1 0.5,-0.5 0.5,0.5 0 0 1 0.5,0.5 v 5.89 a 0.5,0.5 0 0 1 -0.5,0.5 z"
       fill="#d1d3d4"
       id="path319" />
    <path
       d="m 84.75,232.67 h -5.89 a 0.51,0.51 0 0 1 -0.5,-0.5 0.5,0.5 0 0 1 0.5,-0.5 h 5.89 a 0.5,0.5 0 0 1 0.5,0.5 0.5,0.5 0 0 1 -0.5,0.5 z"
       fill="#d1d3d4"
       id="path321" />
    <path
       d="m 77.734196,99.399181 a 0.5,0.5 0 0 1 -0.5,-0.5 v -5.89 a 0.5,0.5 0 0 1 1,0 v 5.94 a 0.5,0.5 0 0 1 -0.5,0.45 z"
       fill="#d1d3d4"
       id="path323" />
    <path
       d="m 80.674196,96.449181 h -5.89 a 0.5,0.5 0 0 1 0,-1 h 5.89 a 0.5,0.5 0 0 1 0,1 z"
       fill="#d1d3d4"
       id="path325" />
    <circle
       r="25.969999"
       id="circle305-0"
       fill="#ffffff"
       cy="1977.6807"
       cx="83.305962" />
    <path
       id="path307-6"
       fill="#d1d3d4"
       d="m 83.315965,2004.1506 a 26.47,26.47 0 1 1 25.519995,-33.5 v 0 a 26.48,26.48 0 0 1 -25.519995,33.5 z m 0,-51.95 a 25.48,25.48 0 1 0 24.559995,18.72 v 0 a 25.52,25.52 0 0 0 -24.569995,-18.72 z" />
    <path
       id="path309-8"
       fill="#d1d3d4"
       d="m 93.585019,2010.4576 c -0.565429,4.6055 -1.742326,8.6925 -4.132955,9.0438 -3.926991,0.5555 -7.706378,-9.6915 -9.626266,-15.8816 a 0.50159745,0.50159745 0 0 1 0.961858,-0.2849 c 3.54295,11.5983 6.717994,15.4439 8.517065,15.1509 1.799139,-0.2929 3.741425,-4.8703 3.778273,-16.9861 a 187,187 0 0 0 -7.265981,-49.4642 c -3.524347,-11.5859 -6.709278,-15.4327 -8.517065,-15.1509 -1.807787,0.2818 -3.7303,4.8616 -3.768319,16.9874 a 0.50358713,0.50358713 0 0 1 -1.007164,-0 c 0.01811,-6.466 0.65419,-17.3899 4.624496,-17.9703 3.970313,-0.5805 7.737334,9.6851 9.608839,15.8592 a 187.23,187.23 0 0 1 7.346143,49.7964 77.33,77.33 0 0 1 -0.518924,8.9031 z" />
    <circle
       r="25.969999"
       id="circle305-00"
       fill="#ffffff"
       cy="1119.0089"
       cx="242.1097"
       style="fill:#ffffff" />
    <path
       id="path307-3"
       fill="#d1d3d4"
       d="m 242.11971,1145.4788 a 26.47,26.47 0 1 1 25.52,-33.5 v 0 a 26.48,26.48 0 0 1 -25.52,33.5 z m 0,-51.95 a 25.48,25.48 0 1 0 24.56,18.72 v 0 a 25.52,25.52 0 0 0 -24.57,-18.72 z" />
    <path
       id="path309-3"
       fill="#d1d3d4"
       d="m 274.45774,1130.5269 c 3.33777,3.2233 5.89352,6.6228 4.7354,8.7434 -1.91968,3.4706 -12.37773,0.3222 -18.47676,-1.8698 a 0.50159745,0.50159745 0 0 1 0.35109,-0.9397 c 11.39493,4.1504 16.37693,3.9291 17.22575,2.316 0.84882,-1.6131 -1.638,-5.9191 -11.29192,-13.24 a 187,187 0 0 0 -43.87668,-23.9654 c -11.37383,-4.1579 -16.36274,-3.9294 -17.22575,-2.316 -0.86291,1.6133 1.63773,5.9049 11.29892,13.2328 a 0.50358982,0.50358982 0 0 1 -0.60837,0.8026 c -5.15301,-3.9058 -13.49448,-10.9879 -11.56863,-14.5081 1.92585,-3.5201 12.39137,-0.3506 18.44848,1.8704 a 187.23,187.23 0 0 1 44.19023,24.1014 77.33,77.33 0 0 1 6.79805,5.7724 z" />
    <circle
       id="circle303-8"
       fill="#d1d3d4"
       r="13.83"
       cy="447.40604"
       cx="196.04863"
       style="stroke-width:3" />
    <circle
       style="stroke-width:3"
       cx="264.29276"
       cy="1610.0323"
       r="53.140614"
       fill="#d1d3d4"
       id="circle303-8-7" />
    <circle
       id="circle173-4"
       fill="#ffffff"
       r="19.74"
       cy="1486.9098"
       cx="146.20561" />
    <path
       id="path175-2"
       fill="#d1d3d4"
       d="m 146.20561,1507.1498 a 20.24,20.24 0 1 1 20.23,-20.24 20.26,20.26 0 0 1 -20.23,20.24 z m 0,-39.47 a 19.24,19.24 0 1 0 19.23,19.23 19.26,19.26 0 0 0 -19.23,-19.23 z" />
    <path
       id="path311-2"
       fill="#d1d3d4"
       d="m 301.34742,379.6439 a 0.5,0.5 0 0 1 -0.5,-0.5 v -5.89 a 0.5,0.5 0 0 1 0.5,-0.5 0.5,0.5 0 0 1 0.5,0.5 v 5.89 a 0.5,0.5 0 0 1 -0.5,0.5 z" />
    <path
       id="path313-4"
       fill="#d1d3d4"
       d="m 304.34742,376.6939 h -5.89 a 0.5,0.5 0 0 1 -0.5,-0.5 0.51,0.51 0 0 1 0.5,-0.5 h 5.89 a 0.5,0.5 0 0 1 0.5,0.5 0.5,0.5 0 0 1 -0.5,0.5 z" />
    <path
       id="path311-27"
       fill="#d1d3d4"
       d="m 88.13732,404.07423 a 0.5,0.5 0 0 1 -0.5,-0.5 v -5.89 a 0.5,0.5 0 0 1 0.5,-0.5 0.5,0.5 0 0 1 0.5,0.5 v 5.89 a 0.5,0.5 0 0 1 -0.5,0.5 z" />
    <path
       id="path313-3"
       fill="#d1d3d4"
       d="m 91.13732,401.12423 h -5.89 a 0.5,0.5 0 0 1 -0.5,-0.5 0.51,0.51 0 0 1 0.5,-0.5 h 5.89 a 0.5,0.5 0 0 1 0.5,0.5 0.5,0.5 0 0 1 -0.5,0.5 z" />
    <path
       id="path311-6"
       fill="#d1d3d4"
       d="m 24.618478,538.6631 a 0.5,0.5 0 0 1 -0.5,-0.5 v -5.89 a 0.5,0.5 0 0 1 0.5,-0.5 0.5,0.5 0 0 1 0.5,0.5 v 5.89 a 0.5,0.5 0 0 1 -0.5,0.5 z" />
    <path
       id="path313-7"
       fill="#d1d3d4"
       d="m 27.618478,535.7131 h -5.89 a 0.5,0.5 0 0 1 -0.5,-0.5 0.51,0.51 0 0 1 0.5,-0.5 h 5.89 a 0.5,0.5 0 0 1 0.5,0.5 0.5,0.5 0 0 1 -0.5,0.5 z" />
    <path
       id="path311-4"
       fill="#d1d3d4"
       d="m 267.58915,626.61227 a 0.5,0.5 0 0 1 -0.5,-0.5 v -5.89 a 0.5,0.5 0 0 1 0.5,-0.5 0.5,0.5 0 0 1 0.5,0.5 v 5.89 a 0.5,0.5 0 0 1 -0.5,0.5 z" />
    <path
       id="path313-6"
       fill="#d1d3d4"
       d="m 270.58915,623.66227 h -5.89 a 0.5,0.5 0 0 1 -0.5,-0.5 0.51,0.51 0 0 1 0.5,-0.5 h 5.89 a 0.5,0.5 0 0 1 0.5,0.5 0.5,0.5 0 0 1 -0.5,0.5 z" />
    <path
       id="path311-21"
       fill="#d1d3d4"
       d="m 268.92172,452.49069 a 0.5,0.5 0 0 1 -0.5,-0.5 v -5.89 a 0.5,0.5 0 0 1 0.5,-0.5 0.5,0.5 0 0 1 0.5,0.5 v 5.89 a 0.5,0.5 0 0 1 -0.5,0.5 z" />
    <path
       id="path313-2"
       fill="#d1d3d4"
       d="m 271.92172,449.54069 h -5.89 a 0.5,0.5 0 0 1 -0.5,-0.5 0.51,0.51 0 0 1 0.5,-0.5 h 5.89 a 0.5,0.5 0 0 1 0.5,0.5 0.5,0.5 0 0 1 -0.5,0.5 z" />
    <path
       id="path311-8"
       fill="#d1d3d4"
       d="m 153.43291,581.74931 a 0.5,0.5 0 0 1 -0.5,-0.5 v -5.89 a 0.5,0.5 0 0 1 0.5,-0.5 0.5,0.5 0 0 1 0.5,0.5 v 5.89 a 0.5,0.5 0 0 1 -0.5,0.5 z" />
    <path
       id="path313-1"
       fill="#d1d3d4"
       d="m 156.43291,578.79931 h -5.89 a 0.5,0.5 0 0 1 -0.5,-0.5 0.51,0.51 0 0 1 0.5,-0.5 h 5.89 a 0.5,0.5 0 0 1 0.5,0.5 0.5,0.5 0 0 1 -0.5,0.5 z" />
    <path
       id="path311-44"
       fill="#d1d3d4"
       d="m 57.488368,684.35667 a 0.5,0.5 0 0 1 -0.5,-0.5 v -5.89 a 0.5,0.5 0 0 1 0.5,-0.5 0.5,0.5 0 0 1 0.5,0.5 v 5.89 a 0.5,0.5 0 0 1 -0.5,0.5 z" />
    <path
       id="path313-65"
       fill="#d1d3d4"
       d="m 60.488368,681.40667 h -5.89 a 0.5,0.5 0 0 1 -0.5,-0.5 0.51,0.51 0 0 1 0.5,-0.5 h 5.89 a 0.5,0.5 0 0 1 0.5,0.5 0.5,0.5 0 0 1 -0.5,0.5 z" />
    <path
       id="path311-9"
       fill="#d1d3d4"
       d="m 60.153495,802.06642 a 0.5,0.5 0 0 1 -0.5,-0.5 v -5.89 a 0.5,0.5 0 0 1 0.5,-0.5 0.5,0.5 0 0 1 0.5,0.5 v 5.89 a 0.5,0.5 0 0 1 -0.5,0.5 z" />
    <path
       id="path313-69"
       fill="#d1d3d4"
       d="m 63.153495,799.11642 h -5.89 a 0.5,0.5 0 0 1 -0.5,-0.5 0.51,0.51 0 0 1 0.5,-0.5 h 5.89 a 0.5,0.5 0 0 1 0.5,0.5 0.5,0.5 0 0 1 -0.5,0.5 z" />
    <path
       id="path311-1"
       fill="#d1d3d4"
       d="m 141.88403,699.01487 a 0.5,0.5 0 0 1 -0.5,-0.5 v -5.89 a 0.5,0.5 0 0 1 0.5,-0.5 0.5,0.5 0 0 1 0.5,0.5 v 5.89 a 0.5,0.5 0 0 1 -0.5,0.5 z" />
    <path
       id="path313-8"
       fill="#d1d3d4"
       d="m 144.88403,696.06487 h -5.89 a 0.5,0.5 0 0 1 -0.5,-0.5 0.51,0.51 0 0 1 0.5,-0.5 h 5.89 a 0.5,0.5 0 0 1 0.5,0.5 0.5,0.5 0 0 1 -0.5,0.5 z" />
    <path
       id="path311-5"
       fill="#d1d3d4"
       d="m 343.10106,685.68924 a 0.5,0.5 0 0 1 -0.5,-0.5 v -5.89 a 0.5,0.5 0 0 1 0.5,-0.5 0.5,0.5 0 0 1 0.5,0.5 v 5.89 a 0.5,0.5 0 0 1 -0.5,0.5 z" />
    <path
       id="path313-0"
       fill="#d1d3d4"
       d="m 346.10106,682.73924 h -5.89 a 0.5,0.5 0 0 1 -0.5,-0.5 0.51,0.51 0 0 1 0.5,-0.5 h 5.89 a 0.5,0.5 0 0 1 0.5,0.5 0.5,0.5 0 0 1 -0.5,0.5 z" />
    <path
       id="path311-10"
       fill="#d1d3d4"
       d="m 277.80547,820.7223 a 0.5,0.5 0 0 1 -0.5,-0.5 v -5.89 a 0.5,0.5 0 0 1 0.5,-0.5 0.5,0.5 0 0 1 0.5,0.5 v 5.89 a 0.5,0.5 0 0 1 -0.5,0.5 z" />
    <path
       id="path313-39"
       fill="#d1d3d4"
       d="m 280.80547,817.7723 h -5.89 a 0.5,0.5 0 0 1 -0.5,-0.5 0.51,0.51 0 0 1 0.5,-0.5 h 5.89 a 0.5,0.5 0 0 1 0.5,0.5 0.5,0.5 0 0 1 -0.5,0.5 z" />
    <path
       id="path311-87"
       fill="#d1d3d4"
       d="m 180.97255,818.50136 a 0.5,0.5 0 0 1 -0.5,-0.5 v -5.89 a 0.5,0.5 0 0 1 0.5,-0.5 0.5,0.5 0 0 1 0.5,0.5 v 5.89 a 0.5,0.5 0 0 1 -0.5,0.5 z" />
    <path
       id="path313-80"
       fill="#d1d3d4"
       d="m 183.97255,815.55136 h -5.89 a 0.5,0.5 0 0 1 -0.5,-0.5 0.51,0.51 0 0 1 0.5,-0.5 h 5.89 a 0.5,0.5 0 0 1 0.5,0.5 0.5,0.5 0 0 1 -0.5,0.5 z" />
    <path
       id="path311-65"
       fill="#d1d3d4"
       d="m 74.811689,939.32042 a 0.5,0.5 0 0 1 -0.5,-0.5 v -5.89 a 0.5,0.5 0 0 1 0.5,-0.5 0.5,0.5 0 0 1 0.5,0.5 v 5.89 a 0.5,0.5 0 0 1 -0.5,0.5 z" />
    <path
       id="path313-5"
       fill="#d1d3d4"
       d="m 77.811689,936.37042 h -5.89 a 0.5,0.5 0 0 1 -0.5,-0.5 0.51,0.51 0 0 1 0.5,-0.5 h 5.89 a 0.5,0.5 0 0 1 0.5,0.5 0.5,0.5 0 0 1 -0.5,0.5 z" />
    <path
       id="path311-0"
       fill="#d1d3d4"
       d="m 98.353638,1049.479 a 0.5,0.5 0 0 1 -0.5,-0.5 v -5.89 a 0.5,0.5 0 0 1 0.5,-0.5 0.5,0.5 0 0 1 0.5,0.5 v 5.89 a 0.5,0.5 0 0 1 -0.5,0.5 z" />
    <path
       id="path313-62"
       fill="#d1d3d4"
       d="m 101.35364,1046.529 h -5.890002 a 0.5,0.5 0 0 1 -0.5,-0.5 0.51,0.51 0 0 1 0.5,-0.5 h 5.890002 a 0.5,0.5 0 0 1 0.5,0.5 0.5,0.5 0 0 1 -0.5,0.5 z" />
    <path
       id="path311-43"
       fill="#d1d3d4"
       d="m 352.42901,902.45284 a 0.5,0.5 0 0 1 -0.5,-0.5 v -5.89 a 0.5,0.5 0 0 1 0.5,-0.5 0.5,0.5 0 0 1 0.5,0.5 v 5.89 a 0.5,0.5 0 0 1 -0.5,0.5 z" />
    <path
       id="path313-88"
       fill="#d1d3d4"
       d="m 355.42901,899.50284 h -5.89 a 0.5,0.5 0 0 1 -0.5,-0.5 0.51,0.51 0 0 1 0.5,-0.5 h 5.89 a 0.5,0.5 0 0 1 0.5,0.5 0.5,0.5 0 0 1 -0.5,0.5 z" />
    <path
       id="path311-82"
       fill="#d1d3d4"
       d="m 375.97096,1029.0463 a 0.5,0.5 0 0 1 -0.5,-0.5 v -5.89 a 0.5,0.5 0 0 1 0.5,-0.5 0.5,0.5 0 0 1 0.5,0.5 v 5.89 a 0.5,0.5 0 0 1 -0.5,0.5 z" />
    <path
       id="path313-15"
       fill="#d1d3d4"
       d="m 378.97096,1026.0963 h -5.89 a 0.5,0.5 0 0 1 -0.5,-0.5 0.51,0.51 0 0 1 0.5,-0.5 h 5.89 a 0.5,0.5 0 0 1 0.5,0.5 0.5,0.5 0 0 1 -0.5,0.5 z" />
    <path
       id="path311-03"
       fill="#d1d3d4"
       d="m 143.2166,879.79926 a 0.5,0.5 0 0 1 -0.5,-0.5 v -5.89 a 0.5,0.5 0 0 1 0.5,-0.5 0.5,0.5 0 0 1 0.5,0.5 v 5.89 a 0.5,0.5 0 0 1 -0.5,0.5 z" />
    <path
       id="path313-9"
       fill="#d1d3d4"
       d="m 146.2166,876.84926 h -5.89 a 0.5,0.5 0 0 1 -0.5,-0.5 0.51,0.51 0 0 1 0.5,-0.5 h 5.89 a 0.5,0.5 0 0 1 0.5,0.5 0.5,0.5 0 0 1 -0.5,0.5 z" />
    <path
       id="path311-67"
       fill="#d1d3d4"
       d="m 32.169669,1156.9724 a 0.5,0.5 0 0 1 -0.5,-0.5 v -5.89 a 0.5,0.5 0 0 1 0.5,-0.5 0.5,0.5 0 0 1 0.5,0.5 v 5.89 a 0.5,0.5 0 0 1 -0.5,0.5 z" />
    <path
       id="path313-44"
       fill="#d1d3d4"
       d="m 35.169669,1154.0224 h -5.89 a 0.5,0.5 0 0 1 -0.5,-0.5 0.51,0.51 0 0 1 0.5,-0.5 h 5.89 a 0.5,0.5 0 0 1 0.5,0.5 0.5,0.5 0 0 1 -0.5,0.5 z" />
    <path
       id="path311-57"
       fill="#d1d3d4"
       d="m 22.841727,1280.0124 a 0.5,0.5 0 0 1 -0.5,-0.5 v -5.89 a 0.5,0.5 0 0 1 0.5,-0.5 0.5,0.5 0 0 1 0.5,0.5 v 5.89 a 0.5,0.5 0 0 1 -0.5,0.5 z" />
    <path
       id="path313-98"
       fill="#d1d3d4"
       d="m 25.841727,1277.0624 h -5.89 a 0.5,0.5 0 0 1 -0.5,-0.5 0.51,0.51 0 0 1 0.5,-0.5 h 5.89 a 0.5,0.5 0 0 1 0.5,0.5 0.5,0.5 0 0 1 -0.5,0.5 z" />
    <path
       id="path311-13"
       fill="#d1d3d4"
       d="m 173.86555,1302.666 a 0.5,0.5 0 0 1 -0.5,-0.5 v -5.89 a 0.5,0.5 0 0 1 0.5,-0.5 0.5,0.5 0 0 1 0.5,0.5 v 5.89 a 0.5,0.5 0 0 1 -0.5,0.5 z" />
    <path
       id="path313-73"
       fill="#d1d3d4"
       d="m 176.86555,1299.716 h -5.89 a 0.5,0.5 0 0 1 -0.5,-0.5 0.51,0.51 0 0 1 0.5,-0.5 h 5.89 a 0.5,0.5 0 0 1 0.5,0.5 0.5,0.5 0 0 1 -0.5,0.5 z" />
    <path
       id="path311-279"
       fill="#d1d3d4"
       d="m 79.253566,1104.1141 a 0.5,0.5 0 0 1 -0.5,-0.5 v -5.89 a 0.5,0.5 0 0 1 0.5,-0.5 0.5,0.5 0 0 1 0.5,0.5 v 5.89 a 0.5,0.5 0 0 1 -0.5,0.5 z" />
    <path
       id="path313-82"
       fill="#d1d3d4"
       d="m 82.253566,1101.1641 h -5.89 a 0.5,0.5 0 0 1 -0.5,-0.5 0.51,0.51 0 0 1 0.5,-0.5 h 5.89 a 0.5,0.5 0 0 1 0.5,0.5 0.5,0.5 0 0 1 -0.5,0.5 z" />
    <path
       id="path311-26"
       fill="#d1d3d4"
       d="m 113.5638,1241.5097 a 0.5,0.5 0 0 1 -0.5,-0.5 v -5.89 a 0.5,0.5 0 0 1 0.5,-0.5 0.5,0.5 0 0 1 0.5,0.5 v 5.89 a 0.5,0.5 0 0 1 -0.5,0.5 z" />
    <path
       id="path313-08"
       fill="#d1d3d4"
       d="m 116.5638,1238.5597 h -5.89 a 0.5,0.5 0 0 1 -0.5,-0.5 0.51,0.51 0 0 1 0.5,-0.5 h 5.89 a 0.5,0.5 0 0 1 0.5,0.5 0.5,0.5 0 0 1 -0.5,0.5 z" />
    <path
       id="path311-84"
       fill="#d1d3d4"
       d="m 69.037249,1436.3665 a 0.5,0.5 0 0 1 -0.5,-0.5 v -5.89 a 0.5,0.5 0 0 1 0.5,-0.5 0.5,0.5 0 0 1 0.5,0.5 v 5.89 a 0.5,0.5 0 0 1 -0.5,0.5 z" />
    <path
       id="path313-19"
       fill="#d1d3d4"
       d="m 72.037249,1433.4165 h -5.89 a 0.5,0.5 0 0 1 -0.5,-0.5 0.51,0.51 0 0 1 0.5,-0.5 h 5.89 a 0.5,0.5 0 0 1 0.5,0.5 0.5,0.5 0 0 1 -0.5,0.5 z" />
    <path
       id="path311-17"
       fill="#d1d3d4"
       d="m 308.89861,1421.2641 a 0.5,0.5 0 0 1 -0.5,-0.5 v -5.89 a 0.5,0.5 0 0 1 0.5,-0.5 0.5,0.5 0 0 1 0.5,0.5 v 5.89 a 0.5,0.5 0 0 1 -0.5,0.5 z" />
    <path
       id="path313-46"
       fill="#d1d3d4"
       d="m 311.89861,1418.3141 h -5.89 a 0.5,0.5 0 0 1 -0.5,-0.5 0.51,0.51 0 0 1 0.5,-0.5 h 5.89 a 0.5,0.5 0 0 1 0.5,0.5 0.5,0.5 0 0 1 -0.5,0.5 z" />
    <path
       id="path311-7"
       fill="#d1d3d4"
       d="m 284.46829,1224.9331 a 0.5,0.5 0 0 1 -0.5,-0.5 v -5.89 a 0.5,0.5 0 0 1 0.5,-0.5 0.5,0.5 0 0 1 0.5,0.5 v 5.89 a 0.5,0.5 0 0 1 -0.5,0.5 z" />
    <path
       id="path313-58"
       fill="#d1d3d4"
       d="m 287.46829,1221.9831 h -5.89 a 0.5,0.5 0 0 1 -0.5,-0.5 0.51,0.51 0 0 1 0.5,-0.5 h 5.89 a 0.5,0.5 0 0 1 0.5,0.5 0.5,0.5 0 0 1 -0.5,0.5 z" />
    <path
       id="path311-14"
       fill="#d1d3d4"
       d="m 218.38088,1357.8096 a 0.5,0.5 0 0 1 -0.5,-0.5 v -5.89 a 0.5,0.5 0 0 1 0.5,-0.5 0.5,0.5 0 0 1 0.5,0.5 v 5.89 a 0.5,0.5 0 0 1 -0.5,0.5 z" />
    <path
       id="path313-193"
       fill="#d1d3d4"
       d="m 221.38088,1354.8596 h -5.89 a 0.5,0.5 0 0 1 -0.5,-0.5 0.51,0.51 0 0 1 0.5,-0.5 h 5.89 a 0.5,0.5 0 0 1 0.5,0.5 0.5,0.5 0 0 1 -0.5,0.5 z" />
    <path
       id="path311-73"
       fill="#d1d3d4"
       d="m 208.95824,1507.9438 a 0.5,0.5 0 0 1 -0.5,-0.5 v -5.89 a 0.5,0.5 0 0 1 0.5,-0.5 0.5,0.5 0 0 1 0.5,0.5 v 5.89 a 0.5,0.5 0 0 1 -0.5,0.5 z" />
    <path
       id="path313-72"
       fill="#d1d3d4"
       d="m 211.95824,1504.9938 h -5.89 a 0.5,0.5 0 0 1 -0.5,-0.5 0.51,0.51 0 0 1 0.5,-0.5 h 5.89 a 0.5,0.5 0 0 1 0.5,0.5 0.5,0.5 0 0 1 -0.5,0.5 z" />
    <path
       id="path311-11"
       fill="#d1d3d4"
       d="m 134.20526,1599.6575 a 0.5,0.5 0 0 1 -0.5,-0.5 v -5.89 a 0.5,0.5 0 0 1 0.5,-0.5 0.5,0.5 0 0 1 0.5,0.5 v 5.89 a 0.5,0.5 0 0 1 -0.5,0.5 z" />
    <path
       id="path313-50"
       fill="#d1d3d4"
       d="m 137.20526,1596.7075 h -5.89 a 0.5,0.5 0 0 1 -0.5,-0.5 0.51,0.51 0 0 1 0.5,-0.5 h 5.89 a 0.5,0.5 0 0 1 0.5,0.5 0.5,0.5 0 0 1 -0.5,0.5 z" />
    <path
       id="path311-41"
       fill="#d1d3d4"
       d="m 147.39696,1762.3551 a 0.5,0.5 0 0 1 -0.5,-0.5 v -5.89 a 0.5,0.5 0 0 1 0.5,-0.5 0.5,0.5 0 0 1 0.5,0.5 v 5.89 a 0.5,0.5 0 0 1 -0.5,0.5 z" />
    <path
       id="path313-881"
       fill="#d1d3d4"
       d="m 150.39696,1759.4051 h -5.89 a 0.5,0.5 0 0 1 -0.5,-0.5 0.51,0.51 0 0 1 0.5,-0.5 h 5.89 a 0.5,0.5 0 0 1 0.5,0.5 0.5,0.5 0 0 1 -0.5,0.5 z" />
    <path
       id="path311-99"
       fill="#d1d3d4"
       d="m 355.95149,1708.9602 a 0.5,0.5 0 0 1 -0.5,-0.5 v -5.89 a 0.5,0.5 0 0 1 0.5,-0.5 0.5,0.5 0 0 1 0.5,0.5 v 5.89 a 0.5,0.5 0 0 1 -0.5,0.5 z" />
    <path
       id="path313-30"
       fill="#d1d3d4"
       d="m 358.95149,1706.0102 h -5.89 a 0.5,0.5 0 0 1 -0.5,-0.5 0.51,0.51 0 0 1 0.5,-0.5 h 5.89 a 0.5,0.5 0 0 1 0.5,0.5 0.5,0.5 0 0 1 -0.5,0.5 z" />
    <path
       id="path311-038"
       fill="#d1d3d4"
       d="m 283.71121,1533.0708 a 0.5,0.5 0 0 1 -0.5,-0.5 v -5.89 a 0.5,0.5 0 0 1 0.5,-0.5 0.5,0.5 0 0 1 0.5,0.5 v 5.89 a 0.5,0.5 0 0 1 -0.5,0.5 z" />
    <path
       id="path313-41"
       fill="#d1d3d4"
       d="m 286.71121,1530.1208 h -5.89 a 0.5,0.5 0 0 1 -0.5,-0.5 0.51,0.51 0 0 1 0.5,-0.5 h 5.89 a 0.5,0.5 0 0 1 0.5,0.5 0.5,0.5 0 0 1 -0.5,0.5 z" />
    <path
       id="path311-210"
       fill="#d1d3d4"
       d="m 217.7527,1691.3712 a 0.5,0.5 0 0 1 -0.5,-0.5 v -5.89 a 0.5,0.5 0 0 1 0.5,-0.5 0.5,0.5 0 0 1 0.5,0.5 v 5.89 a 0.5,0.5 0 0 1 -0.5,0.5 z" />
    <path
       id="path313-92"
       fill="#d1d3d4"
       d="m 220.7527,1688.4212 h -5.89 a 0.5,0.5 0 0 1 -0.5,-0.5 0.51,0.51 0 0 1 0.5,-0.5 h 5.89 a 0.5,0.5 0 0 1 0.5,0.5 0.5,0.5 0 0 1 -0.5,0.5 z" />
    <path
       id="path311-2794"
       fill="#d1d3d4"
       d="m 42.491521,1655.5652 a 0.5,0.5 0 0 1 -0.5,-0.5 v -5.89 a 0.5,0.5 0 0 1 0.5,-0.5 0.5,0.5 0 0 1 0.5,0.5 v 5.89 a 0.5,0.5 0 0 1 -0.5,0.5 z" />
    <path
       id="path313-01"
       fill="#d1d3d4"
       d="m 45.491521,1652.6152 h -5.89 a 0.5,0.5 0 0 1 -0.5,-0.5 0.51,0.51 0 0 1 0.5,-0.5 h 5.89 a 0.5,0.5 0 0 1 0.5,0.5 0.5,0.5 0 0 1 -0.5,0.5 z" />
    <path
       id="path311-278"
       fill="#d1d3d4"
       d="m 27.41529,1887.9904 a 0.5,0.5 0 0 1 -0.5,-0.5 v -5.89 a 0.5,0.5 0 0 1 0.5,-0.5 0.5,0.5 0 0 1 0.5,0.5 v 5.89 a 0.5,0.5 0 0 1 -0.5,0.5 z" />
    <path
       id="path313-95"
       fill="#d1d3d4"
       d="m 30.41529,1885.0404 h -5.89 a 0.5,0.5 0 0 1 -0.5,-0.5 0.51,0.51 0 0 1 0.5,-0.5 h 5.89 a 0.5,0.5 0 0 1 0.5,0.5 0.5,0.5 0 0 1 -0.5,0.5 z" />
    <path
       id="path311-78"
       fill="#d1d3d4"
       d="m 293.76203,1977.1914 a 0.5,0.5 0 0 1 -0.5,-0.5 v -5.89 a 0.5,0.5 0 0 1 0.5,-0.5 0.5,0.5 0 0 1 0.5,0.5 v 5.89 a 0.5,0.5 0 0 1 -0.5,0.5 z" />
    <path
       id="path313-40"
       fill="#d1d3d4"
       d="m 296.76203,1974.2414 h -5.89 a 0.5,0.5 0 0 1 -0.5,-0.5 0.51,0.51 0 0 1 0.5,-0.5 h 5.89 a 0.5,0.5 0 0 1 0.5,0.5 0.5,0.5 0 0 1 -0.5,0.5 z" />
    <path
       id="path311-77"
       fill="#d1d3d4"
       d="m 62.374433,2079.1061 a 0.5,0.5 0 0 1 -0.5,-0.5 v -5.89 a 0.5,0.5 0 0 1 0.5,-0.5 0.5,0.5 0 0 1 0.5,0.5 v 5.89 a 0.5,0.5 0 0 1 -0.5,0.5 z" />
    <path
       id="path313-83"
       fill="#d1d3d4"
       d="m 65.374433,2076.1561 h -5.89 a 0.5,0.5 0 0 1 -0.5,-0.5 0.51,0.51 0 0 1 0.5,-0.5 h 5.89 a 0.5,0.5 0 0 1 0.5,0.5 0.5,0.5 0 0 1 -0.5,0.5 z" />
    <path
       id="path311-58"
       fill="#d1d3d4"
       d="m 202.67647,1895.5285 a 0.5,0.5 0 0 1 -0.5,-0.5 v -5.89 a 0.5,0.5 0 0 1 0.5,-0.5 0.5,0.5 0 0 1 0.5,0.5 v 5.89 a 0.5,0.5 0 0 1 -0.5,0.5 z" />
    <path
       id="path313-880"
       fill="#d1d3d4"
       d="m 205.67647,1892.5785 h -5.89 a 0.5,0.5 0 0 1 -0.5,-0.5 0.51,0.51 0 0 1 0.5,-0.5 h 5.89 a 0.5,0.5 0 0 1 0.5,0.5 0.5,0.5 0 0 1 -0.5,0.5 z" />
    <path
       id="path311-93"
       fill="#d1d3d4"
       d="m 157.44778,2127.3256 a 0.5,0.5 0 0 1 -0.5,-0.5 v -5.89 a 0.5,0.5 0 0 1 0.5,-0.5 0.5,0.5 0 0 1 0.5,0.5 v 5.89 a 0.5,0.5 0 0 1 -0.5,0.5 z" />
    <path
       id="path313-26"
       fill="#d1d3d4"
       d="m 160.44778,2124.3756 h -5.89 a 0.5,0.5 0 0 1 -0.5,-0.5 0.51,0.51 0 0 1 0.5,-0.5 h 5.89 a 0.5,0.5 0 0 1 0.5,0.5 0.5,0.5 0 0 1 -0.5,0.5 z" />
    <path
       id="path311-219"
       fill="#d1d3d4"
       d="m 303.81285,2095.9168 a 0.5,0.5 0 0 1 -0.5,-0.5 v -5.89 a 0.5,0.5 0 0 1 0.5,-0.5 0.5,0.5 0 0 1 0.5,0.5 v 5.89 a 0.5,0.5 0 0 1 -0.5,0.5 z" />
    <path
       id="path313-465"
       fill="#d1d3d4"
       d="m 306.81285,2092.9668 h -5.89 a 0.5,0.5 0 0 1 -0.5,-0.5 0.51,0.51 0 0 1 0.5,-0.5 h 5.89 a 0.5,0.5 0 0 1 0.5,0.5 0.5,0.5 0 0 1 -0.5,0.5 z" />
    <path
       id="path311-59"
       fill="#d1d3d4"
       d="m 146.76878,2045.0345 a 0.5,0.5 0 0 1 -0.5,-0.5 v -5.89 a 0.5,0.5 0 0 1 0.5,-0.5 0.5,0.5 0 0 1 0.5,0.5 v 5.89 a 0.5,0.5 0 0 1 -0.5,0.5 z" />
    <path
       id="path313-31"
       fill="#d1d3d4"
       d="m 149.76878,2042.0845 h -5.89 a 0.5,0.5 0 0 1 -0.5,-0.5 0.51,0.51 0 0 1 0.5,-0.5 h 5.89 a 0.5,0.5 0 0 1 0.5,0.5 0.5,0.5 0 0 1 -0.5,0.5 z" />
    <path
       id="path311-840"
       fill="#d1d3d4"
       d="m 370.39954,1869.7733 a 0.5,0.5 0 0 1 -0.5,-0.5 v -5.89 a 0.5,0.5 0 0 1 0.5,-0.5 0.5,0.5 0 0 1 0.5,0.5 v 5.89 a 0.5,0.5 0 0 1 -0.5,0.5 z" />
    <path
       id="path313-53"
       fill="#d1d3d4"
       d="m 373.39954,1866.8233 h -5.89 a 0.5,0.5 0 0 1 -0.5,-0.5 0.51,0.51 0 0 1 0.5,-0.5 h 5.89 a 0.5,0.5 0 0 1 0.5,0.5 0.5,0.5 0 0 1 -0.5,0.5 z" />
    <path
       id="path311-90"
       fill="#d1d3d4"
       d="m 330.82443,2343.4182 a 0.5,0.5 0 0 1 -0.5,-0.5 v -5.89 a 0.5,0.5 0 0 1 0.5,-0.5 0.5,0.5 0 0 1 0.5,0.5 v 5.89 a 0.5,0.5 0 0 1 -0.5,0.5 z" />
    <path
       id="path313-950"
       fill="#d1d3d4"
       d="m 333.82443,2340.4682 h -5.89 a 0.5,0.5 0 0 1 -0.5,-0.5 0.51,0.51 0 0 1 0.5,-0.5 h 5.89 a 0.5,0.5 0 0 1 0.5,0.5 0.5,0.5 0 0 1 -0.5,0.5 z" />
    <path
       id="path311-443"
       fill="#d1d3d4"
       d="m 296.90291,2463.3999 a 0.5,0.5 0 0 1 -0.5,-0.5 v -5.89 a 0.5,0.5 0 0 1 0.5,-0.5 0.5,0.5 0 0 1 0.5,0.5 v 5.89 a 0.5,0.5 0 0 1 -0.5,0.5 z" />
    <path
       id="path313-55"
       fill="#d1d3d4"
       d="m 299.90291,2460.4499 h -5.89 a 0.5,0.5 0 0 1 -0.5,-0.5 0.51,0.51 0 0 1 0.5,-0.5 h 5.89 a 0.5,0.5 0 0 1 0.5,0.5 0.5,0.5 0 0 1 -0.5,0.5 z" />
    <path
       id="path311-179"
       fill="#d1d3d4"
       d="m 166.24225,2541.9219 a 0.5,0.5 0 0 1 -0.5,-0.5 v -5.89 a 0.5,0.5 0 0 1 0.5,-0.5 0.5,0.5 0 0 1 0.5,0.5 v 5.89 a 0.5,0.5 0 0 1 -0.5,0.5 z" />
    <path
       id="path313-00"
       fill="#d1d3d4"
       d="m 169.24225,2538.9719 h -5.89 a 0.5,0.5 0 0 1 -0.5,-0.5 0.51,0.51 0 0 1 0.5,-0.5 h 5.89 a 0.5,0.5 0 0 1 0.5,0.5 0.5,0.5 0 0 1 -0.5,0.5 z" />
    <path
       id="path311-63"
       fill="#d1d3d4"
       d="m 58.195928,2599.086 a 0.5,0.5 0 0 1 -0.5,-0.5 v -5.89 a 0.5,0.5 0 0 1 0.5,-0.5 0.5,0.5 0 0 1 0.5,0.5 v 5.89 a 0.5,0.5 0 0 1 -0.5,0.5 z" />
    <path
       id="path313-415"
       fill="#d1d3d4"
       d="m 61.195928,2596.136 h -5.89 a 0.5,0.5 0 0 1 -0.5,-0.5 0.51,0.51 0 0 1 0.5,-0.5 h 5.89 a 0.5,0.5 0 0 1 0.5,0.5 0.5,0.5 0 0 1 -0.5,0.5 z" />
    <path
       id="path311-66"
       fill="#d1d3d4"
       d="m 88.348389,2287.5105 a 0.5,0.5 0 0 1 -0.5,-0.5 v -5.89 a 0.5,0.5 0 0 1 0.5,-0.5 0.5,0.5 0 0 1 0.5,0.5 v 5.89 a 0.5,0.5 0 0 1 -0.5,0.5 z" />
    <path
       id="path313-51"
       fill="#d1d3d4"
       d="m 91.348389,2284.5605 h -5.89 a 0.5,0.5 0 0 1 -0.5,-0.5 0.51,0.51 0 0 1 0.5,-0.5 h 5.89 a 0.5,0.5 0 0 1 0.5,0.5 0.5,0.5 0 0 1 -0.5,0.5 z" />
    <path
       id="path311-08"
       fill="#d1d3d4"
       d="m 151.16602,2331.4829 a 0.5,0.5 0 0 1 -0.5,-0.5 v -5.89 a 0.5,0.5 0 0 1 0.5,-0.5 0.5,0.5 0 0 1 0.5,0.5 v 5.89 a 0.5,0.5 0 0 1 -0.5,0.5 z" />
    <path
       id="path313-59"
       fill="#d1d3d4"
       d="m 154.16602,2328.5329 h -5.89 a 0.5,0.5 0 0 1 -0.5,-0.5 0.51,0.51 0 0 1 0.5,-0.5 h 5.89 a 0.5,0.5 0 0 1 0.5,0.5 0.5,0.5 0 0 1 -0.5,0.5 z" />
    <path
       id="path311-06"
       fill="#d1d3d4"
       d="m 288.73662,2472.1943 a 0.5,0.5 0 0 1 -0.5,-0.5 v -5.89 a 0.5,0.5 0 0 1 0.5,-0.5 0.5,0.5 0 0 1 0.5,0.5 v 5.89 a 0.5,0.5 0 0 1 -0.5,0.5 z" />
    <path
       id="path313-05"
       fill="#d1d3d4"
       d="m 291.73662,2469.2443 h -5.89 a 0.5,0.5 0 0 1 -0.5,-0.5 0.51,0.51 0 0 1 0.5,-0.5 h 5.89 a 0.5,0.5 0 0 1 0.5,0.5 0.5,0.5 0 0 1 -0.5,0.5 z" />
    <path
       id="path311-98"
       fill="#d1d3d4"
       d="m 84.579332,2477.8479 a 0.5,0.5 0 0 1 -0.5,-0.5 v -5.89 a 0.5,0.5 0 0 1 0.5,-0.5 0.5,0.5 0 0 1 0.5,0.5 v 5.89 a 0.5,0.5 0 0 1 -0.5,0.5 z" />
    <path
       id="path313-76"
       fill="#d1d3d4"
       d="m 87.579332,2474.8979 h -5.89 a 0.5,0.5 0 0 1 -0.5,-0.5 0.51,0.51 0 0 1 0.5,-0.5 h 5.89 a 0.5,0.5 0 0 1 0.5,0.5 0.5,0.5 0 0 1 -0.5,0.5 z" />
    <path
       id="path311-570"
       fill="#d1d3d4"
       d="m 92.117447,2399.9541 a 0.5,0.5 0 0 1 -0.5,-0.5 v -5.89 a 0.5,0.5 0 0 1 0.5,-0.5 0.5,0.5 0 0 1 0.5,0.5 v 5.89 a 0.5,0.5 0 0 1 -0.5,0.5 z" />
    <path
       id="path313-45"
       fill="#d1d3d4"
       d="m 95.117447,2397.0041 h -5.89 a 0.5,0.5 0 0 1 -0.5,-0.5 0.51,0.51 0 0 1 0.5,-0.5 h 5.89 a 0.5,0.5 0 0 1 0.5,0.5 0.5,0.5 0 0 1 -0.5,0.5 z" />
    <path
       id="path311-56"
       fill="#d1d3d4"
       d="m 313.2355,2227.8338 a 0.5,0.5 0 0 1 -0.5,-0.5 v -5.89 a 0.5,0.5 0 0 1 0.5,-0.5 0.5,0.5 0 0 1 0.5,0.5 v 5.89 a 0.5,0.5 0 0 1 -0.5,0.5 z" />
    <path
       id="path313-49"
       fill="#d1d3d4"
       d="m 316.2355,2224.8838 h -5.89 a 0.5,0.5 0 0 1 -0.5,-0.5 0.51,0.51 0 0 1 0.5,-0.5 h 5.89 a 0.5,0.5 0 0 1 0.5,0.5 0.5,0.5 0 0 1 -0.5,0.5 z" />
    <path
       id="path311-74"
       fill="#d1d3d4"
       d="m 222.77811,2367.9171 a 0.5,0.5 0 0 1 -0.5,-0.5 v -5.89 a 0.5,0.5 0 0 1 0.5,-0.5 0.5,0.5 0 0 1 0.5,0.5 v 5.89 a 0.5,0.5 0 0 1 -0.5,0.5 z" />
    <path
       id="path313-468"
       fill="#d1d3d4"
       d="m 225.77811,2364.9671 h -5.89 a 0.5,0.5 0 0 1 -0.5,-0.5 0.51,0.51 0 0 1 0.5,-0.5 h 5.89 a 0.5,0.5 0 0 1 0.5,0.5 0.5,0.5 0 0 1 -0.5,0.5 z" />
    <path
       id="path311-75"
       fill="#d1d3d4"
       d="m 280.57033,2501.7186 a 0.5,0.5 0 0 1 -0.5,-0.5 v -5.89 a 0.5,0.5 0 0 1 0.5,-0.5 0.5,0.5 0 0 1 0.5,0.5 v 5.89 a 0.5,0.5 0 0 1 -0.5,0.5 z" />
    <path
       id="path313-921"
       fill="#d1d3d4"
       d="m 283.57033,2498.7686 h -5.89 a 0.5,0.5 0 0 1 -0.5,-0.5 0.51,0.51 0 0 1 0.5,-0.5 h 5.89 a 0.5,0.5 0 0 1 0.5,0.5 0.5,0.5 0 0 1 -0.5,0.5 z" />
    <path
       id="path311-48"
       fill="#d1d3d4"
       d="m 17.36447,2129.8383 a 0.5,0.5 0 0 1 -0.5,-0.5 v -5.89 a 0.5,0.5 0 0 1 0.5,-0.5 0.5,0.5 0 0 1 0.5,0.5 v 5.89 a 0.5,0.5 0 0 1 -0.5,0.5 z" />
    <path
       id="path313-507"
       fill="#d1d3d4"
       d="m 20.36447,2126.8883 h -5.89 a 0.5,0.5 0 0 1 -0.5,-0.5 0.51,0.51 0 0 1 0.5,-0.5 h 5.89 a 0.5,0.5 0 0 1 0.5,0.5 0.5,0.5 0 0 1 -0.5,0.5 z" />
    <path
       id="path311-53"
       fill="#d1d3d4"
       d="m 30.556172,2201.4504 a 0.5,0.5 0 0 1 -0.5,-0.5 v -5.89 a 0.5,0.5 0 0 1 0.5,-0.5 0.5,0.5 0 0 1 0.5,0.5 v 5.89 a 0.5,0.5 0 0 1 -0.5,0.5 z" />
    <path
       id="path313-32"
       fill="#d1d3d4"
       d="m 33.556172,2198.5004 h -5.89 a 0.5,0.5 0 0 1 -0.5,-0.5 0.51,0.51 0 0 1 0.5,-0.5 h 5.89 a 0.5,0.5 0 0 1 0.5,0.5 0.5,0.5 0 0 1 -0.5,0.5 z" />
    <path
       id="path311-735"
       fill="#d1d3d4"
       d="m 5.5861644,2192.0277 a 0.5,0.5 0 0 1 -0.5,-0.5 v -5.89 a 0.5,0.5 0 0 1 0.5,-0.5 0.5,0.5 0 0 1 0.5,0.5 v 5.89 a 0.5,0.5 0 0 1 -0.5,0.5 z" />
    <path
       id="path313-411"
       fill="#d1d3d4"
       d="m 8.5861644,2189.0777 h -5.89 a 0.5,0.5 0 0 1 -0.5,-0.5 0.51,0.51 0 0 1 0.5,-0.5 h 5.89 a 0.5,0.5 0 0 1 0.5,0.5 0.5,0.5 0 0 1 -0.5,0.5 z" />
    <path
       id="path311-446"
       fill="#d1d3d4"
       d="m 2.7593711,2225.007 a 0.5,0.5 0 0 1 -0.5,-0.5 v -5.89 a 0.5,0.5 0 0 1 0.5,-0.5 0.5,0.5 0 0 1 0.5,0.5 v 5.89 a 0.5,0.5 0 0 1 -0.5,0.5 z" />
    <path
       id="path313-38"
       fill="#d1d3d4"
       d="m 5.7593711,2222.057 h -5.88999995 a 0.5,0.5 0 0 1 -0.5,-0.5 0.51,0.51 0 0 1 0.5,-0.5 H 5.7593711 a 0.5,0.5 0 0 1 0.5,0.5 0.5,0.5 0 0 1 -0.5,0.5 z" />
    <path
       id="path311-447"
       fill="#d1d3d4"
       d="m 146.14061,316.60744 a 0.5,0.5 0 0 1 -0.5,-0.5 v -5.89 a 0.5,0.5 0 0 1 0.5,-0.5 0.5,0.5 0 0 1 0.5,0.5 v 5.89 a 0.5,0.5 0 0 1 -0.5,0.5 z" />
    <path
       id="path313-43"
       fill="#d1d3d4"
       d="m 149.14061,313.65744 h -5.89 a 0.5,0.5 0 0 1 -0.5,-0.5 0.51,0.51 0 0 1 0.5,-0.5 h 5.89 a 0.5,0.5 0 0 1 0.5,0.5 0.5,0.5 0 0 1 -0.5,0.5 z" />
    <path
       id="path311-907"
       fill="#d1d3d4"
       d="m 28.985731,61.253777 a 0.5,0.5 0 0 1 -0.5,-0.5 v -5.89 a 0.5,0.5 0 0 1 0.5,-0.5 0.5,0.5 0 0 1 0.5,0.5 v 5.89 a 0.5,0.5 0 0 1 -0.5,0.5 z" />
    <path
       id="path313-825"
       fill="#d1d3d4"
       d="m 31.985731,58.303777 h -5.89 a 0.5,0.5 0 0 1 -0.5,-0.5 0.51,0.51 0 0 1 0.5,-0.5 h 5.89 a 0.5,0.5 0 0 1 0.5,0.5 0.5,0.5 0 0 1 -0.5,0.5 z" />
    <circle
       transform="rotate(7.2831481)"
       r="25.969999"
       id="circle305-5"
       fill="#ffffff"
       cy="2407.3948"
       cx="483.55829" />
    <path
       id="path307-32"
       fill="#d1d3d4"
       d="m 171.11874,2475.531 a 26.47,26.47 0 1 1 29.56099,-29.9944 v 0 a 26.48,26.48 0 0 1 -29.56099,29.9944 z m 6.58587,-51.5307 a 25.48,25.48 0 1 0 21.98863,21.6824 v 0 a 25.52,25.52 0 0 0 -21.99852,-21.6837 z" />
    <path
       id="path309-0"
       fill="#d1d3d4"
       d="m 141.64539,2459.4046 c -4.60257,-0.5883 -8.68375,-1.7853 -9.0232,-4.1777 -0.53617,-3.9296 9.72922,-7.6585 15.92889,-9.5477 a 0.50159891,0.50159891 0 0 1 0.28013,0.9633 c -11.6156,3.4856 -15.47682,6.6416 -15.19278,8.4421 0.28408,1.8006 4.85175,3.7654 16.96726,3.8622 a 187,187 0 0 0 49.49949,-7.0215 c 11.60318,-3.467 15.46567,-6.6329 15.19285,-8.442 -0.27285,-1.8093 -4.84313,-3.7543 -16.96859,-3.8523 a 0.50358713,0.50358713 0 0 1 0.008,-1.0071 c 6.46579,0.05 17.38644,0.7401 17.94731,4.7133 0.56084,3.973 -9.72071,7.6926 -15.90657,9.5303 a 187.23,187.23 0 0 1 -49.83211,7.1 77.33,77.33 0 0 1 -8.90046,-0.5629 z" />
    <circle
       id="circle303-8-7-2"
       fill="#d1d3d4"
       r="16.273033"
       cy="922.54974"
       cx="191.24387"
       style="stroke-width:0.918678" />
    <circle
       style="stroke-width:0.918678"
       cx="121.30167"
       cy="733.80157"
       r="16.273033"
       fill="#d1d3d4"
       id="circle303-8-7-2-7" />
    <circle
       style="stroke-width:0.918678"
       cx="344.04443"
       cy="799.50977"
       r="16.273033"
       fill="#d1d3d4"
       id="circle303-8-7-2-4" />
    <circle
       style="stroke-width:0.918678"
       cx="126.88447"
       cy="339.61768"
       r="16.273033"
       fill="#d1d3d4"
       id="circle303-8-7-2-8" />
    <circle
       id="circle295-8"
       fill="#ffffff"
       r="4.6100001"
       cy="459.85159"
       cx="14.916765" />
    <path
       id="path297-8"
       fill="#d1d3d4"
       d="m 14.916765,464.96159 a 5.12,5.12 0 1 1 5.11,-5.12 5.12,5.12 0 0 1 -5.11,5.12 z m 0,-9.23 a 4.12,4.12 0 1 0 4.11,4.11 4.12,4.12 0 0 0 -4.11,-4.11 z" />
    <circle
       id="circle295-3"
       fill="#ffffff"
       r="4.6100001"
       cy="327.3064"
       cx="362.29825" />
    <path
       id="path297-1"
       fill="#d1d3d4"
       d="m 362.29825,332.41639 a 5.12,5.12 0 1 1 5.11,-5.12 5.12,5.12 0 0 1 -5.11,5.12 z m 0,-9.23 a 4.12,4.12 0 1 0 4.11,4.11 4.12,4.12 0 0 0 -4.11,-4.11 z" />
    <circle
       id="circle295-4"
       fill="#ffffff"
       r="4.6100001"
       cy="292.12851"
       cx="256.76465" />
    <path
       id="path297-3"
       fill="#d1d3d4"
       d="m 256.76463,297.23852 a 5.12,5.12 0 1 1 5.11,-5.12 5.12,5.12 0 0 1 -5.11,5.12 z m 0,-9.23 a 4.12,4.12 0 1 0 4.11,4.11 4.12,4.12 0 0 0 -4.11,-4.11 z" />
    <circle
       id="circle295-34"
       fill="#ffffff"
       r="4.6100001"
       cy="743.15912"
       cx="220.33041" />
    <path
       id="path297-88"
       fill="#d1d3d4"
       d="m 220.33041,748.26909 a 5.12,5.12 0 1 1 5.11,-5.12 5.12,5.12 0 0 1 -5.11,5.12 z m 0,-9.23 a 4.12,4.12 0 1 0 4.11,4.11 4.12,4.12 0 0 0 -4.11,-4.11 z" />
    <circle
       id="circle295-2"
       fill="#ffffff"
       r="4.6100001"
       cy="990.66058"
       cx="33.133877" />
    <path
       id="path297-7"
       fill="#d1d3d4"
       d="m 33.133877,995.77051 a 5.12,5.12 0 1 1 5.11,-5.11997 5.12,5.12 0 0 1 -5.11,5.11997 z m 0,-9.22997 a 4.12,4.12 0 1 0 4.11,4.11 4.12,4.12 0 0 0 -4.11,-4.11 z" />
    <circle
       id="circle295-45"
       fill="#ffffff"
       r="4.6100001"
       cy="1009.5059"
       cx="290.05798" />
    <path
       id="path297-5"
       fill="#d1d3d4"
       d="m 290.05798,1014.6158 a 5.12,5.12 0 1 1 5.11,-5.12 5.12,5.12 0 0 1 -5.11,5.12 z m 0,-9.23 a 4.12,4.12 0 1 0 4.11,4.11 4.12,4.12 0 0 0 -4.11,-4.11 z" />
    <circle
       id="circle295-88"
       fill="#ffffff"
       r="4.6100001"
       cy="1141.4229"
       cx="138.6675" />
    <path
       id="path297-77"
       fill="#d1d3d4"
       d="m 138.66749,1146.5329 a 5.12,5.12 0 1 1 5.11,-5.12 5.12,5.12 0 0 1 -5.11,5.12 z m 0,-9.23 a 4.12,4.12 0 1 0 4.11,4.11 4.12,4.12 0 0 0 -4.11,-4.11 z" />
    <circle
       id="circle295-7"
       fill="#ffffff"
       r="4.6100001"
       cy="1326.7349"
       cx="78.362572" />
    <path
       id="path297-15"
       fill="#d1d3d4"
       d="m 78.362569,1331.8449 a 5.12,5.12 0 1 1 5.11,-5.12 5.12,5.12 0 0 1 -5.11,5.12 z m 0,-9.23 a 4.12,4.12 0 1 0 4.11,4.11 4.12,4.12 0 0 0 -4.11,-4.11 z" />
    <circle
       id="circle295-0"
       fill="#ffffff"
       r="4.6100001"
       cy="1346.2084"
       cx="356.64465" />
    <path
       id="path297-31"
       fill="#d1d3d4"
       d="m 356.64466,1351.3183 a 5.12,5.12 0 1 1 5.11,-5.12 5.12,5.12 0 0 1 -5.11,5.12 z m 0,-9.23 a 4.12,4.12 0 1 0 4.11,4.11 4.12,4.12 0 0 0 -4.11,-4.11 z" />
    <circle
       id="circle295-71"
       fill="#ffffff"
       r="4.6100001"
       cy="1483.7789"
       cx="330.88943" />
    <path
       id="path297-0"
       fill="#d1d3d4"
       d="m 330.88943,1488.8889 a 5.12,5.12 0 1 1 5.11,-5.12 5.12,5.12 0 0 1 -5.11,5.12 z m 0,-9.23 a 4.12,4.12 0 1 0 4.11,4.11 4.12,4.12 0 0 0 -4.11,-4.11 z" />
    <circle
       id="circle295-01"
       fill="#ffffff"
       r="4.6100001"
       cy="1436.6656"
       cx="213.42047" />
    <path
       id="path297-08"
       fill="#d1d3d4"
       d="m 213.42047,1441.7757 a 5.12,5.12 0 1 1 5.11,-5.12 5.12,5.12 0 0 1 -5.11,5.12 z m 0,-9.23 a 4.12,4.12 0 1 0 4.11,4.11 4.12,4.12 0 0 0 -4.11,-4.11 z" />
    <circle
       id="circle295-1"
       fill="#ffffff"
       r="4.6100001"
       cy="1735.0494"
       cx="220.33041" />
    <path
       id="path297-11"
       fill="#d1d3d4"
       d="m 220.33041,1740.1594 a 5.12,5.12 0 1 1 5.11,-5.12 5.12,5.12 0 0 1 -5.11,5.12 z m 0,-9.23 a 4.12,4.12 0 1 0 4.11,4.11 4.12,4.12 0 0 0 -4.11,-4.11 z" />
    <circle
       id="circle295-72"
       fill="#ffffff"
       r="4.6100001"
       cy="1809.8024"
       cx="252.3674" />
    <path
       id="path297-2"
       fill="#d1d3d4"
       d="m 252.3674,1814.9124 a 5.12,5.12 0 1 1 5.11,-5.12 5.12,5.12 0 0 1 -5.11,5.12 z m 0,-9.23 a 4.12,4.12 0 1 0 4.11,4.11 4.12,4.12 0 0 0 -4.11,-4.11 z" />
    <circle
       id="circle295-9"
       fill="#ffffff"
       r="4.6100001"
       cy="1818.5969"
       cx="202.74147" />
    <path
       id="path297-6"
       fill="#d1d3d4"
       d="m 202.74147,1823.7069 a 5.12,5.12 0 1 1 5.11,-5.12 5.12,5.12 0 0 1 -5.11,5.12 z m 0,-9.23 a 4.12,4.12 0 1 0 4.11,4.11 4.12,4.12 0 0 0 -4.11,-4.11 z" />
    <circle
       id="circle295-48"
       fill="#ffffff"
       r="4.6100001"
       cy="1787.8163"
       cx="69.5681" />
    <path
       id="path297-80"
       fill="#d1d3d4"
       d="m 69.568101,1792.9262 a 5.12,5.12 0 1 1 5.11,-5.12 5.12,5.12 0 0 1 -5.11,5.12 z m 0,-9.23 a 4.12,4.12 0 1 0 4.11,4.11 4.12,4.12 0 0 0 -4.11,-4.11 z" />
    <circle
       id="circle295-5"
       fill="#ffffff"
       r="4.6100001"
       cy="1945.4885"
       cx="317.69772" />
    <path
       id="path297-9"
       fill="#d1d3d4"
       d="m 317.69773,1950.5985 a 5.12,5.12 0 1 1 5.11,-5.12 5.12,5.12 0 0 1 -5.11,5.12 z m 0,-9.23 a 4.12,4.12 0 1 0 4.11,4.11 4.12,4.12 0 0 0 -4.11,-4.11 z" />
    <circle
       id="circle295-010"
       fill="#ffffff"
       r="4.6100001"
       cy="2061.7012"
       cx="375.48996" />
    <path
       id="path297-81"
       fill="#d1d3d4"
       d="m 375.48995,2066.8111 a 5.12,5.12 0 1 1 5.11,-5.12 5.12,5.12 0 0 1 -5.11,5.12 z m 0,-9.23 a 4.12,4.12 0 1 0 4.11,4.11 4.12,4.12 0 0 0 -4.11,-4.11 z" />
    <circle
       id="circle295-29"
       fill="#ffffff"
       r="4.6100001"
       cy="2156.5557"
       cx="284.40439" />
    <path
       id="path297-59"
       fill="#d1d3d4"
       d="m 284.40439,2161.6657 a 5.12,5.12 0 1 1 5.11,-5.12 5.12,5.12 0 0 1 -5.11,5.12 z m 0,-9.23 a 4.12,4.12 0 1 0 4.11,4.11 4.12,4.12 0 0 0 -4.11,-4.11 z" />
    <circle
       id="circle295-6"
       fill="#ffffff"
       r="4.6100001"
       cy="2279.05"
       cx="46.325581" />
    <path
       id="path297-22"
       fill="#d1d3d4"
       d="m 46.325579,2284.1601 a 5.12,5.12 0 1 1 5.11,-5.12 5.12,5.12 0 0 1 -5.11,5.12 z m 0,-9.23 a 4.12,4.12 0 1 0 4.11,4.11 4.12,4.12 0 0 0 -4.11,-4.11 z" />
    <circle
       id="circle295-80"
       fill="#ffffff"
       r="4.6100001"
       cy="2206.1816"
       cx="151.23102" />
    <path
       id="path297-92"
       fill="#d1d3d4"
       d="m 151.23102,2211.2916 a 5.12,5.12 0 1 1 5.11,-5.12 5.12,5.12 0 0 1 -5.11,5.12 z m 0,-9.23 a 4.12,4.12 0 1 0 4.11,4.11 4.12,4.12 0 0 0 -4.11,-4.11 z" />
    <circle
       id="circle295-94"
       fill="#ffffff"
       r="4.6100001"
       cy="2620.1499"
       cx="288.80164" />
    <path
       id="path297-19"
       fill="#d1d3d4"
       d="m 288.80162,2625.2598 a 5.12,5.12 0 1 1 5.11,-5.12 5.12,5.12 0 0 1 -5.11,5.12 z m 0,-9.23 a 4.12,4.12 0 1 0 4.11,4.11 4.12,4.12 0 0 0 -4.11,-4.11 z" />
    <circle
       id="circle295-16"
       fill="#ffffff"
       r="4.6100001"
       cy="2541.6277"
       cx="335.91486" />
    <path
       id="path297-62"
       fill="#d1d3d4"
       d="m 335.91484,2546.7378 a 5.12,5.12 0 1 1 5.11,-5.12 5.12,5.12 0 0 1 -5.11,5.12 z m 0,-9.23 a 4.12,4.12 0 1 0 4.11,4.11 4.12,4.12 0 0 0 -4.11,-4.11 z" />
    <circle
       id="circle295-43"
       fill="#ffffff"
       r="4.6100001"
       cy="2623.9189"
       cx="234.15028" />
    <path
       id="path297-776"
       fill="#d1d3d4"
       d="m 234.15029,2629.0289 a 5.12,5.12 0 1 1 5.11,-5.12 5.12,5.12 0 0 1 -5.11,5.12 z m 0,-9.23 a 4.12,4.12 0 1 0 4.11,4.11 4.12,4.12 0 0 0 -4.11,-4.11 z" />
    <circle
       id="circle295-42"
       fill="#ffffff"
       r="4.6100001"
       cy="2686.7366"
       cx="28.736645" />
    <path
       id="path297-778"
       fill="#d1d3d4"
       d="m 28.736643,2691.8465 a 5.12,5.12 0 1 1 5.11,-5.12 5.12,5.12 0 0 1 -5.11,5.12 z m 0,-9.23 a 4.12,4.12 0 1 0 4.11,4.11 4.12,4.12 0 0 0 -4.11,-4.11 z" />
    <circle
       r="4.6100001"
       id="circle295-70"
       fill="#ffffff"
       cy="2823.0508"
       cx="50.722813" />
    <path
       id="path297-4"
       fill="#d1d3d4"
       d="m 50.722813,2828.1608 a 5.12,5.12 0 1 1 5.11,-5.12 5.12,5.12 0 0 1 -5.11,5.12 z m 0,-9.23 a 4.12,4.12 0 1 0 4.11,4.11 4.12,4.12 0 0 0 -4.11,-4.11 z" />
    <circle
       r="4.6100001"
       id="circle295-55"
       fill="#ffffff"
       cy="2756.4641"
       cx="155.62825" />
    <path
       id="path297-73"
       fill="#d1d3d4"
       d="m 155.62825,2761.5741 a 5.12,5.12 0 1 1 5.11,-5.12 5.12,5.12 0 0 1 -5.11,5.12 z m 0,-9.23 a 4.12,4.12 0 1 0 4.11,4.11 4.12,4.12 0 0 0 -4.11,-4.11 z" />
    <circle
       r="4.6100001"
       id="circle295-12"
       fill="#ffffff"
       cy="2883.9839"
       cx="130.50121" />
    <path
       id="path297-43"
       fill="#d1d3d4"
       d="m 130.5012,2889.0939 a 5.12,5.12 0 1 1 5.11,-5.12 5.12,5.12 0 0 1 -5.11,5.12 z m 0,-9.23 a 4.12,4.12 0 1 0 4.11,4.11 4.12,4.12 0 0 0 -4.11,-4.11 z" />
    <circle
       style="stroke-width:0.4879"
       id="circle173-8"
       fill="#ffffff"
       r="9.6311417"
       cy="2247.3171"
       cx="219.38303" />
    <path
       style="stroke-width:0.4879"
       id="path175-9"
       fill="#d1d3d4"
       d="m 219.38302,2257.1923 a 9.8750914,9.8750914 0 1 1 9.87021,-9.8751 9.8848494,9.8848494 0 0 1 -9.87021,9.8751 z m 0,-19.2574 a 9.3871916,9.3871916 0 1 0 9.38231,9.3823 9.3969496,9.3969496 0 0 0 -9.38231,-9.3823 z" />
    <circle
       id="circle173-86"
       fill="#ffffff"
       r="19.74"
       cy="2160.3147"
       cx="68.311745" />
    <path
       id="path175-3"
       fill="#d1d3d4"
       d="m 68.311748,2180.5548 a 20.24,20.24 0 1 1 20.23,-20.24 20.26,20.26 0 0 1 -20.23,20.24 z m 0,-39.47 a 19.24,19.24 0 1 0 19.23,19.23 19.26,19.26 0 0 0 -19.23,-19.23 z" />
    <circle
       r="12.388103"
       style="stroke-width:0.627564"
       id="circle173-0"
       fill="#ffffff"
       cy="2753.9414"
       cx="69.564377" />
    <path
       style="stroke-width:0.627564"
       id="path175-7"
       fill="#d1d3d4"
       d="m 69.564377,2766.6433 a 12.701885,12.701885 0 1 1 12.695608,-12.7018 12.714436,12.714436 0 0 1 -12.695608,12.7018 z m 0,-24.7699 a 12.074321,12.074321 0 1 0 12.068044,12.0681 12.086872,12.086872 0 0 0 -12.068044,-12.0681 z" />
    <circle
       id="circle303-8-7-2-7-6"
       fill="#d1d3d4"
       r="9.6102171"
       cy="2679.3123"
       cx="132.1669"
       style="stroke-width:0.542535" />
    <circle
       r="22.047474"
       id="circle303-8-7-2-7-5"
       fill="#d1d3d4"
       cy="2094.3169"
       cx="214.78583"
       style="stroke-width:1.24467" />
    <circle
       transform="rotate(95.986032)"
       r="25.969999"
       id="circle305-4"
       fill="#ffffff"
       cy="-275.96872"
       cx="555.2251" />
    <path
       id="path307-4"
       fill="#d1d3d4"
       d="m 190.23503,578.22681 a 26.47,26.47 0 1 1 30.65596,28.87443 v 0 a 26.48,26.48 0 0 1 -30.65596,-28.87443 z m 51.66673,5.41766 a 25.48,25.48 0 1 0 -21.17919,22.47385 v 0 a 25.52,25.52 0 0 0 21.18024,-22.48379 z" />
    <path
       id="path309-7"
       fill="#d1d3d4"
       d="m 205.69025,548.39592 c 0.48388,-4.6147 1.58823,-8.72193 3.97227,-9.11545 3.91653,-0.62497 7.87665,9.55352 9.90582,15.70869 a 0.50159745,0.50159745 0 0 1 -0.9567,0.30188 c -3.74763,-11.53372 -6.99019,-15.32253 -8.78384,-14.99781 -1.79364,0.32472 -3.65466,4.93578 -3.47707,17.05036 a 187,187 0 0 0 8.14018,49.32787 c 3.72878,11.52169 6.98129,15.31154 8.78383,14.99781 1.80255,-0.31373 3.64368,-4.92688 3.46713,-17.0514 a 0.50358713,0.50358713 0 0 1 1.00706,-0.0151 c 0.0963,6.46529 -0.34633,17.39875 -4.30577,18.04938 -3.95945,0.65064 -7.90753,-9.5467 -9.88801,-15.68671 a 187.23,187.23 0 0 1 -8.22616,-49.65865 77.33,77.33 0 0 1 0.36126,-8.91091 z" />
    <circle
       id="circle303-7"
       fill="#d1d3d4"
       r="4.6100001"
       cy="290.86218"
       cx="69.558098" />
    <circle
       id="circle303-71"
       fill="#d1d3d4"
       r="4.6100001"
       cy="658.97345"
       cx="200.21877" />
    <circle
       id="circle303-2"
       fill="#d1d3d4"
       r="4.6100001"
       cy="1098.0687"
       cx="14.906765" />
    <circle
       cx="95.951508"
       cy="758.23535"
       r="4.6100001"
       fill="#ffffff"
       id="circle295-34-6" />
    <path
       d="m 95.951505,763.34532 a 5.12,5.12 0 1 1 5.109995,-5.12 5.12,5.12 0 0 1 -5.109995,5.12 z m 0,-9.23 a 4.12,4.12 0 1 0 4.109995,4.11 4.12,4.12 0 0 0 -4.109995,-4.11 z"
       fill="#d1d3d4"
       id="path297-88-1" />
    <circle
       cx="29.993"
       cy="637.62549"
       r="4.6100001"
       fill="#ffffff"
       id="circle295-34-2" />
    <path
       d="m 29.992995,642.73547 a 5.12,5.12 0 1 1 5.11,-5.12 5.12,5.12 0 0 1 -5.11,5.12 z m 0,-9.23 a 4.12,4.12 0 1 0 4.11,4.11 4.12,4.12 0 0 0 -4.11,-4.11 z"
       fill="#d1d3d4"
       id="path297-88-12" />
    <path
       d="m 41.235168,198.19621 a 0.5,0.5 0 0 1 -0.5,-0.5 v -5.89 a 0.5,0.5 0 0 1 0.5,-0.5 0.5,0.5 0 0 1 0.5,0.5 v 5.89 a 0.5,0.5 0 0 1 -0.5,0.5 z"
       fill="#d1d3d4"
       id="path311-27-4" />
    <path
       d="m 44.235168,195.24621 h -5.89 a 0.5,0.5 0 0 1 -0.5,-0.5 0.51,0.51 0 0 1 0.5,-0.5 h 5.89 a 0.5,0.5 0 0 1 0.5,0.5 0.5,0.5 0 0 1 -0.5,0.5 z"
       fill="#d1d3d4"
       id="path313-3-6" />
    <path
       d="m 59.452281,350.21487 a 0.5,0.5 0 0 1 -0.5,-0.5 v -5.89 a 0.5,0.5 0 0 1 0.5,-0.5 0.5,0.5 0 0 1 0.5,0.5 v 5.89 a 0.5,0.5 0 0 1 -0.5,0.5 z"
       fill="#d1d3d4"
       id="path311-27-3" />
    <path
       d="m 62.452281,347.26487 h -5.89 a 0.5,0.5 0 0 1 -0.5,-0.5 0.51,0.51 0 0 1 0.5,-0.5 h 5.89 a 0.5,0.5 0 0 1 0.5,0.5 0.5,0.5 0 0 1 -0.5,0.5 z"
       fill="#d1d3d4"
       id="path313-3-3" />
    <path
       d="m 352.8106,1135.4352 a 0.5,0.5 0 0 1 -0.5,-0.5 v -5.89 a 0.5,0.5 0 0 1 0.5,-0.5 0.5,0.5 0 0 1 0.5,0.5 v 5.89 a 0.5,0.5 0 0 1 -0.5,0.5 z"
       fill="#d1d3d4"
       id="path311-27-2" />
    <path
       d="m 355.8106,1132.4852 h -5.89 a 0.5,0.5 0 0 1 -0.5,-0.5 0.51,0.51 0 0 1 0.5,-0.5 h 5.89 a 0.5,0.5 0 0 1 0.5,0.5 0.5,0.5 0 0 1 -0.5,0.5 z"
       fill="#d1d3d4"
       id="path313-3-0" />
    <circle
       style="stroke-width:0.441345"
       cx="111.65032"
       cy="520.77466"
       r="8.7121544"
       fill="#ffffff"
       id="circle173-86-5" />
    <path
       style="stroke-width:0.441345"
       d="m 111.65032,529.70752 a 8.9328269,8.9328269 0 1 1 8.92842,-8.93283 8.9416538,8.9416538 0 0 1 -8.92842,8.93283 z m 0,-17.41989 a 8.4914817,8.4914817 0 1 0 8.48707,8.48706 8.5003086,8.5003086 0 0 0 -8.48707,-8.48706 z"
       fill="#d1d3d4"
       id="path175-3-9" />
    <circle
       style="stroke-width:0.596527"
       cx="324.60361"
       cy="489.36575"
       r="11.775444"
       fill="#ffffff"
       id="circle173-86-2" />
    <path
       style="stroke-width:0.596527"
       d="m 324.60363,501.43959 a 12.073708,12.073708 0 1 1 12.06775,-12.07371 12.085639,12.085639 0 0 1 -12.06775,12.07371 z m 0,-23.54493 a 11.477181,11.477181 0 1 0 11.47122,11.47122 11.489112,11.489112 0 0 0 -11.47122,-11.47122 z"
       fill="#d1d3d4"
       id="path175-3-0" />
    <circle
       cx="325.86404"
       cy="533.97638"
       r="4.6100001"
       fill="#ffffff"
       id="circle295-4-0" />
    <path
       d="m 325.86402,539.08639 a 5.12,5.12 0 1 1 5.11,-5.12 5.12,5.12 0 0 1 -5.11,5.12 z m 0,-9.23 a 4.12,4.12 0 1 0 4.11,4.11 4.12,4.12 0 0 0 -4.11,-4.11 z"
       fill="#d1d3d4"
       id="path297-3-1" />
    <path
       d="m 375.42495,537.4114 a 0.5,0.5 0 0 1 -0.5,-0.5 v -5.89 a 0.5,0.5 0 0 1 0.5,-0.5 0.5,0.5 0 0 1 0.5,0.5 v 5.89 a 0.5,0.5 0 0 1 -0.5,0.5 z"
       fill="#d1d3d4"
       id="path311-4-2" />
    <path
       d="m 378.42495,534.4614 h -5.89 a 0.5,0.5 0 0 1 -0.5,-0.5 0.51,0.51 0 0 1 0.5,-0.5 h 5.89 a 0.5,0.5 0 0 1 0.5,0.5 0.5,0.5 0 0 1 -0.5,0.5 z"
       fill="#d1d3d4"
       id="path313-6-8" />
    <path
       d="m 120.38538,2819.5758 a 0.5,0.5 0 0 1 -0.5,-0.5 v -5.89 a 0.5,0.5 0 0 1 0.5,-0.5 0.5,0.5 0 0 1 0.5,0.5 v 5.89 a 0.5,0.5 0 0 1 -0.5,0.5 z"
       fill="#d1d3d4"
       id="path311-08-8" />
    <path
       d="m 123.38538,2816.6258 h -5.89 a 0.5,0.5 0 0 1 -0.5,-0.5 0.51,0.51 0 0 1 0.5,-0.5 h 5.89 a 0.5,0.5 0 0 1 0.5,0.5 0.5,0.5 0 0 1 -0.5,0.5 z"
       fill="#d1d3d4"
       id="path313-59-1" />
    <path
       d="m 230.94441,2847.2156 a 0.5,0.5 0 0 1 -0.5,-0.5 v -5.89 a 0.5,0.5 0 0 1 0.5,-0.5 0.5,0.5 0 0 1 0.5,0.5 v 5.89 a 0.5,0.5 0 0 1 -0.5,0.5 z"
       fill="#d1d3d4"
       id="path311-08-2" />
    <path
       d="m 233.94441,2844.2656 h -5.89 a 0.5,0.5 0 0 1 -0.5,-0.5 0.51,0.51 0 0 1 0.5,-0.5 h 5.89 a 0.5,0.5 0 0 1 0.5,0.5 0.5,0.5 0 0 1 -0.5,0.5 z"
       fill="#d1d3d4"
       id="path313-59-8" />
    <path
       d="m 274.28857,2725.3494 a 0.5,0.5 0 0 1 -0.5,-0.5 v -5.89 a 0.5,0.5 0 0 1 0.5,-0.5 0.5,0.5 0 0 1 0.5,0.5 v 5.89 a 0.5,0.5 0 0 1 -0.5,0.5 z"
       fill="#d1d3d4"
       id="path311-08-6" />
    <path
       d="m 277.28857,2722.3994 h -5.89 a 0.5,0.5 0 0 1 -0.5,-0.5 0.51,0.51 0 0 1 0.5,-0.5 h 5.89 a 0.5,0.5 0 0 1 0.5,0.5 0.5,0.5 0 0 1 -0.5,0.5 z"
       fill="#d1d3d4"
       id="path313-59-5" />
    <path
       d="m 188.22842,2756.7582 a 0.5,0.5 0 0 1 -0.5,-0.5 v -5.89 a 0.5,0.5 0 0 1 0.5,-0.5 0.5,0.5 0 0 1 0.5,0.5 v 5.89 a 0.5,0.5 0 0 1 -0.5,0.5 z"
       fill="#d1d3d4"
       id="path311-08-9" />
    <path
       d="m 191.22842,2753.8082 h -5.89 a 0.5,0.5 0 0 1 -0.5,-0.5 0.51,0.51 0 0 1 0.5,-0.5 h 5.89 a 0.5,0.5 0 0 1 0.5,0.5 0.5,0.5 0 0 1 -0.5,0.5 z"
       fill="#d1d3d4"
       id="path313-59-3" />
    <path
       d="m 357.20784,2849.7283 a 0.5,0.5 0 0 1 -0.5,-0.5 v -5.89 a 0.5,0.5 0 0 1 0.5,-0.5 0.5,0.5 0 0 1 0.5,0.5 v 5.89 a 0.5,0.5 0 0 1 -0.5,0.5 z"
       fill="#d1d3d4"
       id="path311-08-86" />
    <path
       d="m 360.20784,2846.7783 h -5.89 a 0.5,0.5 0 0 1 -0.5,-0.5 0.51,0.51 0 0 1 0.5,-0.5 h 5.89 a 0.5,0.5 0 0 1 0.5,0.5 0.5,0.5 0 0 1 -0.5,0.5 z"
       fill="#d1d3d4"
       id="path313-59-55" />
    <path
       d="m 287.48027,2924.4813 a 0.5,0.5 0 0 1 -0.5,-0.5 v -5.89 a 0.5,0.5 0 0 1 0.5,-0.5 0.5,0.5 0 0 1 0.5,0.5 v 5.89 a 0.5,0.5 0 0 1 -0.5,0.5 z"
       fill="#d1d3d4"
       id="path311-08-5" />
    <path
       d="m 290.48027,2921.5313 h -5.89 a 0.5,0.5 0 0 1 -0.5,-0.5 0.51,0.51 0 0 1 0.5,-0.5 h 5.89 a 0.5,0.5 0 0 1 0.5,0.5 0.5,0.5 0 0 1 -0.5,0.5 z"
       fill="#d1d3d4"
       id="path313-59-0" />
    <path
       d="m 84.579332,2905.636 a 0.5,0.5 0 0 1 -0.5,-0.5 v -5.89 a 0.5,0.5 0 0 1 0.5,-0.5 0.5,0.5 0 0 1 0.5,0.5 v 5.89 a 0.5,0.5 0 0 1 -0.5,0.5 z"
       fill="#d1d3d4"
       id="path311-08-3" />
    <path
       d="m 87.579332,2902.686 h -5.89 a 0.5,0.5 0 0 1 -0.5,-0.5 0.51,0.51 0 0 1 0.5,-0.5 h 5.89 a 0.5,0.5 0 0 1 0.5,0.5 0.5,0.5 0 0 1 -0.5,0.5 z"
       fill="#d1d3d4"
       id="path313-59-9" />
    <path
       d="m 17.992646,2769.9499 a 0.5,0.5 0 0 1 -0.5,-0.5 v -5.89 a 0.5,0.5 0 0 1 0.5,-0.5 0.5,0.5 0 0 1 0.5,0.5 v 5.89 a 0.5,0.5 0 0 1 -0.5,0.5 z"
       fill="#d1d3d4"
       id="path311-08-50" />
    <path
       d="m 20.992646,2766.9999 h -5.89 a 0.5,0.5 0 0 1 -0.5,-0.5 0.51,0.51 0 0 1 0.5,-0.5 h 5.89 a 0.5,0.5 0 0 1 0.5,0.5 0.5,0.5 0 0 1 -0.5,0.5 z"
       fill="#d1d3d4"
       id="path313-59-6" />
    <path
       d="m 225.29082,2821.4604 a 0.5,0.5 0 0 1 -0.5,-0.5 v -5.89 a 0.5,0.5 0 0 1 0.5,-0.5 0.5,0.5 0 0 1 0.5,0.5 v 5.89 a 0.5,0.5 0 0 1 -0.5,0.5 z"
       fill="#d1d3d4"
       id="path311-08-20" />
    <path
       d="m 228.29082,2818.5104 h -5.89 a 0.5,0.5 0 0 1 -0.5,-0.5 0.51,0.51 0 0 1 0.5,-0.5 h 5.89 a 0.5,0.5 0 0 1 0.5,0.5 0.5,0.5 0 0 1 -0.5,0.5 z"
       fill="#d1d3d4"
       id="path313-59-68" />
    <path
       d="m 204.561,2835.9084 a 0.5,0.5 0 0 1 -0.5,-0.5 v -5.89 a 0.5,0.5 0 0 1 0.5,-0.5 0.5,0.5 0 0 1 0.5,0.5 v 5.89 a 0.5,0.5 0 0 1 -0.5,0.5 z"
       fill="#d1d3d4"
       id="path311-08-34" />
    <path
       d="m 207.561,2832.9584 h -5.89 a 0.5,0.5 0 0 1 -0.5,-0.5 0.51,0.51 0 0 1 0.5,-0.5 h 5.89 a 0.5,0.5 0 0 1 0.5,0.5 0.5,0.5 0 0 1 -0.5,0.5 z"
       fill="#d1d3d4"
       id="path313-59-33" />
    <circle
       cx="103.47962"
       cy="1558.522"
       r="4.6100001"
       fill="#d1d3d4"
       id="circle303-2-1" />
    <circle
       cx="286.27893"
       cy="2054.7812"
       r="4.6100001"
       fill="#d1d3d4"
       id="circle303-2-3" />
    <circle
       cx="344.69931"
       cy="2783.4656"
       r="4.6100001"
       fill="#d1d3d4"
       id="circle303-2-6" />
    <circle
       cx="128.60667"
       cy="2948.0479"
       r="4.6100001"
       fill="#d1d3d4"
       id="circle303-2-67" />
    <circle
       cx="31.867525"
       cy="2882.7175"
       r="4.6100001"
       fill="#d1d3d4"
       id="circle303-2-5" />
    <circle
       cx="59.507282"
       cy="2559.835"
       r="4.6100001"
       fill="#d1d3d4"
       id="circle303-2-55" />
    <circle
       cx="372.47244"
       cy="2251.1152"
       r="4.6100001"
       fill="#d1d3d4"
       id="circle303-2-7" />
  </g>
</svg>
