<?xml version="1.0" encoding="UTF-8" standalone="no"?>
<svg
   xmlns:dc="http://purl.org/dc/elements/1.1/"
   xmlns:cc="http://creativecommons.org/ns#"
   xmlns:rdf="http://www.w3.org/1999/02/22-rdf-syntax-ns#"
   xmlns:svg="http://www.w3.org/2000/svg"
   xmlns="http://www.w3.org/2000/svg"
   xmlns:sodipodi="http://sodipodi.sourceforge.net/DTD/sodipodi-0.dtd"
   xmlns:inkscape="http://www.inkscape.org/namespaces/inkscape"
   viewBox="0 0 400 3000"
   version="1.1"
   id="svg328"
   sodipodi:docname="cosmosBG2.svg"
   width="400"
   height="3000"
   inkscape:version="1.0 (4035a4fb49, 2020-05-01)">
  <metadata
     id="metadata334">
    <rdf:RDF>
      <cc:Work
         rdf:about="">
        <dc:format>image/svg+xml</dc:format>
        <dc:type
           rdf:resource="http://purl.org/dc/dcmitype/StillImage" />
        <dc:title></dc:title>
      </cc:Work>
    </rdf:RDF>
  </metadata>
  <defs
     id="defs332">
    <g
       inkscape:label="Clip"
       id="use11991">
      <path
         id="path12349"
         fill="#ffffff"
         d="m 184.44465,379.95345 c 0,0 -4.42,12.73 -18.56,24.67 -14.14,11.94 -49.75,19 -49.75,19 l 19.52,-40.81 z"
         style="fill:#cccccc" />
      <path
         id="path12351"
         fill="#231f20"
         d="m 116.18465,424.07345 a 0.49,0.49 0 0 1 -0.39,-0.19 0.51,0.51 0 0 1 -0.06,-0.53 l 19.45,-40.8 a 0.5,0.5 0 0 1 0.42,-0.28 l 48.79,-2.82 a 0.48,0.48 0 0 1 0.43,0.2 0.51,0.51 0 0 1 0.08,0.46 c -0.05,0.13 -4.63,13 -18.72,24.89 -14.09,11.89 -49.61,19 -50,19.07 z m 19.85,-40.83 -19,39.64 c 5.83,-1.24 36,-8 48.54,-18.65 12,-10.12 17,-20.92 18.13,-23.75 z" />
      <path
         id="path12353"
         fill="#ffffff"
         d="m 157.44465,312.24345 c 0,0 -11.94,-4.24 -30.42,-3.17 -18.48,1.07 -49.169996,18.52 -49.169996,18.52 l 42.249996,16.18 z"
         style="fill:#cccccc" />
      <path
         id="path12355"
         fill="#231f20"
         d="m 120.10465,344.27345 a 0.58,0.58 0 0 1 -0.18,0 l -42.249996,-16.2 a 0.52,0.52 0 0 1 -0.32,-0.43 0.5,0.5 0 0 1 0.25,-0.47 c 0.31,-0.18 30.999996,-17.53 49.389996,-18.59 18.39,-1.06 30.5,3.15 30.61,3.19 a 0.5,0.5 0 0 1 0.16,0.86 l -37.34,31.53 a 0.55,0.55 0 0 1 -0.32,0.11 z m -41.069996,-16.76 40.999996,15.68 36.42,-30.75 c -3,-0.91 -14,-3.77 -29.37,-2.87 -16.4,0.95 -42.779996,15.04 -48.049996,17.94 z" />
      <path
         id="path12357"
         fill="#ffffff"
         d="m 110.49465,340.54345 c 15.53,-15.22 40.58,-30.89 70.63,-42.88 45.54,-18.16 79.27,-2.49 90.44,4.11 a 6.38,6.38 0 0 1 2.89,7.24 c -3.56,12.48 -17.26,47.05 -62.8,65.21 -30.05,12 -59,17.86 -80.74,17.5 0,0 -7,-6.19 -14.13,-24 -7.13,-17.81 -6.29,-27.18 -6.29,-27.18 z"
         style="fill:#cccccc" />
      <path
         id="path12359"
         fill="#231f20"
         d="m 132.78465,392.24345 h -1.88 a 0.5,0.5 0 0 1 -0.33,-0.12 c -0.29,-0.26 -7.18,-6.48 -14.25,-24.22 -7.07,-17.74 -6.36,-27 -6.33,-27.39 a 0.51,0.51 0 0 1 0.15,-0.31 c 16.12,-15.8 41.92,-31.47 70.8,-43 45.21,-18 78.61,-3.11 90.88,4.14 a 6.88,6.88 0 0 1 3.11,7.8 c -3.91,13.71 -17.88,47.52 -63.09,65.55 -28.08,11.2 -56.75,17.55 -79.06,17.55 z m -1.67,-1 c 22.38,0.3 51.69,-6 80.36,-17.47 44.8,-17.87 58.63,-51.33 62.5,-64.89 a 5.89,5.89 0 0 0 -2.66,-6.67 c -12.14,-7.17 -45.21,-21.94 -90,-4.07 -28.67,11.43 -54.29,27 -70.33,42.63 -0.06,1.37 -0.18,10.58 6.27,26.75 6.45,16.17 12.87,22.75 13.86,23.71 z" />
      <path
         id="path12361"
         fill="#ffffff"
         d="m 274.45465,309.01345 a 95.68,95.68 0 0 1 -24.68,40.7 c 0,0 -9.71,-6.64 -18.15,-27.82 -8.44,-21.18 -6,-32.67 -6,-32.67 a 95.5,95.5 0 0 1 45.91,12.55 6.38,6.38 0 0 1 2.92,7.24 z"
         style="fill:#cccccc" />
      <path
         id="path12363"
         fill="#231f20"
         d="m 249.77465,350.21345 a 0.51,0.51 0 0 1 -0.28,-0.09 c -0.4,-0.28 -9.93,-7 -18.34,-28 -8.41,-21 -6.09,-32.49 -6,-33 a 0.51,0.51 0 0 1 0.49,-0.4 v 0 a 95.64,95.64 0 0 1 46.16,12.62 6.88,6.88 0 0 1 3.11,7.8 v 0 a 95.68,95.68 0 0 1 -24.73,40.93 0.51,0.51 0 0 1 -0.41,0.14 z m -23.7,-60.48 c -0.32,2.21 -1.4,13.39 6,32 7.4,18.61 15.89,26 17.65,27.34 a 94.71,94.71 0 0 0 24.24,-40.18 v 0 a 5.89,5.89 0 0 0 -2.66,-6.67 94.53,94.53 0 0 0 -45.23,-12.49 z" />
      <path
         id="path12365"
         fill="#231f20"
         d="m 270.18465,300.53345 c 0,0 19.22,-5 20.36,-2.14 1.14,2.86 -16.24,12.46 -16.24,12.46" />
      <path
         id="path12367"
         fill="#231f20"
         d="m 274.30465,311.29345 a 0.44,0.44 0 0 1 -0.21,-0.82 c 8.2,-4.54 16.67,-10.38 16,-11.92 -0.67,-1.54 -10.78,0.05 -19.84,2.41 a 0.44384682,0.44384682 0 1 1 -0.22,-0.86 c 4.6,-1.19 19.69,-4.85 20.88,-1.87 1.19,2.98 -12.28,10.71 -16.44,13 a 0.54,0.54 0 0 1 -0.17,0.06 z" />
      <path
         id="path12369"
         fill="#ffffff"
         d="m 271.89465,312.66345 a 23.16,23.16 0 0 1 -4.7,-11.78 2.69,2.69 0 0 1 2.36,-2.78 v 0 a 2.17,2.17 0 0 1 2.62,1.73 20.08,20.08 0 0 0 4.01,10.16 2.16,2.16 0 0 1 -0.7,3.06 v 0 a 2.68,2.68 0 0 1 -3.59,-0.39 z"
         style="fill:#cccccc" />
      <path
         id="path12371"
         fill="#231f20"
         d="m 273.88465,314.07345 a 3,3 0 0 1 -2.39,-1.12 23.83,23.83 0 0 1 -4.8,-12 3.17,3.17 0 0 1 2.8,-3.33 3,3 0 0 1 2.27,0.57 2.33,2.33 0 0 1 0.91,1.61 19.66,19.66 0 0 0 3.95,9.91 2.32,2.32 0 0 1 0.45,1.79 3,3 0 0 1 -1.26,2 3.26,3.26 0 0 1 -1.93,0.57 z m -3.93,-15.51 h -0.33 a 2.19,2.19 0 0 0 -1.93,2.24 22.94,22.94 0 0 0 4.59,11.53 v 0 a 2.19,2.19 0 0 0 2.94,0.29 2,2 0 0 0 0.86,-1.31 1.34,1.34 0 0 0 -0.25,-1 20.71,20.71 0 0 1 -4.16,-10.42 1.38,1.38 0 0 0 -0.52,-0.93 1.93,1.93 0 0 0 -1.2,-0.39 z" />
      <path
         id="path12373"
         fill="#d1d3d4"
         d="m 159.77465,381.88345 a 0.50089919,0.50089919 0 0 1 -0.06,-1 c 0.45,-0.05 45.05,-5.4 80.56,-34.17 a 0.5,0.5 0 0 1 0.7,0.07 0.52,0.52 0 0 1 -0.07,0.71 c -35.74,29 -80.62,34.33 -81.07,34.38 z"
         style="fill:#666666" />
    </g>
    <g
       inkscape:label="Clip"
       id="use11991-6">
      <path
         style="fill:#b3b3b3"
         id="path12433"
         fill="#ffffff"
         d="m 184.44465,379.95345 c 0,0 -4.42,12.73 -18.56,24.67 -14.14,11.94 -49.75,19 -49.75,19 l 19.52,-40.81 z" />
      <path
         id="path12435"
         fill="#231f20"
         d="m 116.18465,424.07345 a 0.49,0.49 0 0 1 -0.39,-0.19 0.51,0.51 0 0 1 -0.06,-0.53 l 19.45,-40.8 a 0.5,0.5 0 0 1 0.42,-0.28 l 48.79,-2.82 a 0.48,0.48 0 0 1 0.43,0.2 0.51,0.51 0 0 1 0.08,0.46 c -0.05,0.13 -4.63,13 -18.72,24.89 -14.09,11.89 -49.61,19 -50,19.07 z m 19.85,-40.83 -19,39.64 c 5.83,-1.24 36,-8 48.54,-18.65 12,-10.12 17,-20.92 18.13,-23.75 z" />
      <path
         style="fill:#b3b3b3"
         id="path12437"
         fill="#ffffff"
         d="m 157.44465,312.24345 c 0,0 -11.94,-4.24 -30.42,-3.17 -18.48,1.07 -49.169996,18.52 -49.169996,18.52 l 42.249996,16.18 z" />
      <path
         id="path12439"
         fill="#231f20"
         d="m 120.10465,344.27345 a 0.58,0.58 0 0 1 -0.18,0 l -42.249996,-16.2 a 0.52,0.52 0 0 1 -0.32,-0.43 0.5,0.5 0 0 1 0.25,-0.47 c 0.31,-0.18 30.999996,-17.53 49.389996,-18.59 18.39,-1.06 30.5,3.15 30.61,3.19 a 0.5,0.5 0 0 1 0.16,0.86 l -37.34,31.53 a 0.55,0.55 0 0 1 -0.32,0.11 z m -41.069996,-16.76 40.999996,15.68 36.42,-30.75 c -3,-0.91 -14,-3.77 -29.37,-2.87 -16.4,0.95 -42.779996,15.04 -48.049996,17.94 z" />
      <path
         style="fill:#b3b3b3"
         id="path12441"
         fill="#ffffff"
         d="m 110.49465,340.54345 c 15.53,-15.22 40.58,-30.89 70.63,-42.88 45.54,-18.16 79.27,-2.49 90.44,4.11 a 6.38,6.38 0 0 1 2.89,7.24 c -3.56,12.48 -17.26,47.05 -62.8,65.21 -30.05,12 -59,17.86 -80.74,17.5 0,0 -7,-6.19 -14.13,-24 -7.13,-17.81 -6.29,-27.18 -6.29,-27.18 z" />
      <path
         id="path12443"
         fill="#231f20"
         d="m 132.78465,392.24345 h -1.88 a 0.5,0.5 0 0 1 -0.33,-0.12 c -0.29,-0.26 -7.18,-6.48 -14.25,-24.22 -7.07,-17.74 -6.36,-27 -6.33,-27.39 a 0.51,0.51 0 0 1 0.15,-0.31 c 16.12,-15.8 41.92,-31.47 70.8,-43 45.21,-18 78.61,-3.11 90.88,4.14 a 6.88,6.88 0 0 1 3.11,7.8 c -3.91,13.71 -17.88,47.52 -63.09,65.55 -28.08,11.2 -56.75,17.55 -79.06,17.55 z m -1.67,-1 c 22.38,0.3 51.69,-6 80.36,-17.47 44.8,-17.87 58.63,-51.33 62.5,-64.89 a 5.89,5.89 0 0 0 -2.66,-6.67 c -12.14,-7.17 -45.21,-21.94 -90,-4.07 -28.67,11.43 -54.29,27 -70.33,42.63 -0.06,1.37 -0.18,10.58 6.27,26.75 6.45,16.17 12.87,22.75 13.86,23.71 z" />
      <path
         style="fill:#b3b3b3"
         id="path12445"
         fill="#ffffff"
         d="m 274.45465,309.01345 a 95.68,95.68 0 0 1 -24.68,40.7 c 0,0 -9.71,-6.64 -18.15,-27.82 -8.44,-21.18 -6,-32.67 -6,-32.67 a 95.5,95.5 0 0 1 45.91,12.55 6.38,6.38 0 0 1 2.92,7.24 z" />
      <path
         id="path12447"
         fill="#231f20"
         d="m 249.77465,350.21345 a 0.51,0.51 0 0 1 -0.28,-0.09 c -0.4,-0.28 -9.93,-7 -18.34,-28 -8.41,-21 -6.09,-32.49 -6,-33 a 0.51,0.51 0 0 1 0.49,-0.4 v 0 a 95.64,95.64 0 0 1 46.16,12.62 6.88,6.88 0 0 1 3.11,7.8 v 0 a 95.68,95.68 0 0 1 -24.73,40.93 0.51,0.51 0 0 1 -0.41,0.14 z m -23.7,-60.48 c -0.32,2.21 -1.4,13.39 6,32 7.4,18.61 15.89,26 17.65,27.34 a 94.71,94.71 0 0 0 24.24,-40.18 v 0 a 5.89,5.89 0 0 0 -2.66,-6.67 94.53,94.53 0 0 0 -45.23,-12.49 z" />
      <path
         id="path12449"
         fill="#231f20"
         d="m 270.18465,300.53345 c 0,0 19.22,-5 20.36,-2.14 1.14,2.86 -16.24,12.46 -16.24,12.46" />
      <path
         id="path12451"
         fill="#231f20"
         d="m 274.30465,311.29345 a 0.44,0.44 0 0 1 -0.21,-0.82 c 8.2,-4.54 16.67,-10.38 16,-11.92 -0.67,-1.54 -10.78,0.05 -19.84,2.41 a 0.44384682,0.44384682 0 1 1 -0.22,-0.86 c 4.6,-1.19 19.69,-4.85 20.88,-1.87 1.19,2.98 -12.28,10.71 -16.44,13 a 0.54,0.54 0 0 1 -0.17,0.06 z" />
      <path
         style="fill:#b3b3b3"
         id="path12453"
         fill="#ffffff"
         d="m 271.89465,312.66345 a 23.16,23.16 0 0 1 -4.7,-11.78 2.69,2.69 0 0 1 2.36,-2.78 v 0 a 2.17,2.17 0 0 1 2.62,1.73 20.08,20.08 0 0 0 4.01,10.16 2.16,2.16 0 0 1 -0.7,3.06 v 0 a 2.68,2.68 0 0 1 -3.59,-0.39 z" />
      <path
         id="path12455"
         fill="#231f20"
         d="m 273.88465,314.07345 a 3,3 0 0 1 -2.39,-1.12 23.83,23.83 0 0 1 -4.8,-12 3.17,3.17 0 0 1 2.8,-3.33 3,3 0 0 1 2.27,0.57 2.33,2.33 0 0 1 0.91,1.61 19.66,19.66 0 0 0 3.95,9.91 2.32,2.32 0 0 1 0.45,1.79 3,3 0 0 1 -1.26,2 3.26,3.26 0 0 1 -1.93,0.57 z m -3.93,-15.51 h -0.33 a 2.19,2.19 0 0 0 -1.93,2.24 22.94,22.94 0 0 0 4.59,11.53 v 0 a 2.19,2.19 0 0 0 2.94,0.29 2,2 0 0 0 0.86,-1.31 1.34,1.34 0 0 0 -0.25,-1 20.71,20.71 0 0 1 -4.16,-10.42 1.38,1.38 0 0 0 -0.52,-0.93 1.93,1.93 0 0 0 -1.2,-0.39 z" />
      <path
         style="fill:#666666"
         id="path12457"
         fill="#d1d3d4"
         d="m 159.77465,381.88345 a 0.50089919,0.50089919 0 0 1 -0.06,-1 c 0.45,-0.05 45.05,-5.4 80.56,-34.17 a 0.5,0.5 0 0 1 0.7,0.07 0.52,0.52 0 0 1 -0.07,0.71 c -35.74,29 -80.62,34.33 -81.07,34.38 z" />
    </g>
    <g
       inkscape:label="Clip"
       id="use11991-3">
      <path
         id="path12377"
         fill="#ffffff"
         d="m 184.44465,379.95345 c 0,0 -4.42,12.73 -18.56,24.67 -14.14,11.94 -49.75,19 -49.75,19 l 19.52,-40.81 z" />
      <path
         id="path12379"
         fill="#231f20"
         d="m 116.18465,424.07345 a 0.49,0.49 0 0 1 -0.39,-0.19 0.51,0.51 0 0 1 -0.06,-0.53 l 19.45,-40.8 a 0.5,0.5 0 0 1 0.42,-0.28 l 48.79,-2.82 a 0.48,0.48 0 0 1 0.43,0.2 0.51,0.51 0 0 1 0.08,0.46 c -0.05,0.13 -4.63,13 -18.72,24.89 -14.09,11.89 -49.61,19 -50,19.07 z m 19.85,-40.83 -19,39.64 c 5.83,-1.24 36,-8 48.54,-18.65 12,-10.12 17,-20.92 18.13,-23.75 z" />
      <path
         id="path12381"
         fill="#ffffff"
         d="m 157.44465,312.24345 c 0,0 -11.94,-4.24 -30.42,-3.17 -18.48,1.07 -49.169996,18.52 -49.169996,18.52 l 42.249996,16.18 z" />
      <path
         id="path12383"
         fill="#231f20"
         d="m 120.10465,344.27345 a 0.58,0.58 0 0 1 -0.18,0 l -42.249996,-16.2 a 0.52,0.52 0 0 1 -0.32,-0.43 0.5,0.5 0 0 1 0.25,-0.47 c 0.31,-0.18 30.999996,-17.53 49.389996,-18.59 18.39,-1.06 30.5,3.15 30.61,3.19 a 0.5,0.5 0 0 1 0.16,0.86 l -37.34,31.53 a 0.55,0.55 0 0 1 -0.32,0.11 z m -41.069996,-16.76 40.999996,15.68 36.42,-30.75 c -3,-0.91 -14,-3.77 -29.37,-2.87 -16.4,0.95 -42.779996,15.04 -48.049996,17.94 z" />
      <path
         id="path12385"
         fill="#ffffff"
         d="m 110.49465,340.54345 c 15.53,-15.22 40.58,-30.89 70.63,-42.88 45.54,-18.16 79.27,-2.49 90.44,4.11 a 6.38,6.38 0 0 1 2.89,7.24 c -3.56,12.48 -17.26,47.05 -62.8,65.21 -30.05,12 -59,17.86 -80.74,17.5 0,0 -7,-6.19 -14.13,-24 -7.13,-17.81 -6.29,-27.18 -6.29,-27.18 z" />
      <path
         id="path12387"
         fill="#231f20"
         d="m 132.78465,392.24345 h -1.88 a 0.5,0.5 0 0 1 -0.33,-0.12 c -0.29,-0.26 -7.18,-6.48 -14.25,-24.22 -7.07,-17.74 -6.36,-27 -6.33,-27.39 a 0.51,0.51 0 0 1 0.15,-0.31 c 16.12,-15.8 41.92,-31.47 70.8,-43 45.21,-18 78.61,-3.11 90.88,4.14 a 6.88,6.88 0 0 1 3.11,7.8 c -3.91,13.71 -17.88,47.52 -63.09,65.55 -28.08,11.2 -56.75,17.55 -79.06,17.55 z m -1.67,-1 c 22.38,0.3 51.69,-6 80.36,-17.47 44.8,-17.87 58.63,-51.33 62.5,-64.89 a 5.89,5.89 0 0 0 -2.66,-6.67 c -12.14,-7.17 -45.21,-21.94 -90,-4.07 -28.67,11.43 -54.29,27 -70.33,42.63 -0.06,1.37 -0.18,10.58 6.27,26.75 6.45,16.17 12.87,22.75 13.86,23.71 z" />
      <path
         id="path12389"
         fill="#ffffff"
         d="m 274.45465,309.01345 a 95.68,95.68 0 0 1 -24.68,40.7 c 0,0 -9.71,-6.64 -18.15,-27.82 -8.44,-21.18 -6,-32.67 -6,-32.67 a 95.5,95.5 0 0 1 45.91,12.55 6.38,6.38 0 0 1 2.92,7.24 z" />
      <path
         id="path12391"
         fill="#231f20"
         d="m 249.77465,350.21345 a 0.51,0.51 0 0 1 -0.28,-0.09 c -0.4,-0.28 -9.93,-7 -18.34,-28 -8.41,-21 -6.09,-32.49 -6,-33 a 0.51,0.51 0 0 1 0.49,-0.4 v 0 a 95.64,95.64 0 0 1 46.16,12.62 6.88,6.88 0 0 1 3.11,7.8 v 0 a 95.68,95.68 0 0 1 -24.73,40.93 0.51,0.51 0 0 1 -0.41,0.14 z m -23.7,-60.48 c -0.32,2.21 -1.4,13.39 6,32 7.4,18.61 15.89,26 17.65,27.34 a 94.71,94.71 0 0 0 24.24,-40.18 v 0 a 5.89,5.89 0 0 0 -2.66,-6.67 94.53,94.53 0 0 0 -45.23,-12.49 z" />
      <path
         id="path12393"
         fill="#231f20"
         d="m 270.18465,300.53345 c 0,0 19.22,-5 20.36,-2.14 1.14,2.86 -16.24,12.46 -16.24,12.46" />
      <path
         id="path12395"
         fill="#231f20"
         d="m 274.30465,311.29345 a 0.44,0.44 0 0 1 -0.21,-0.82 c 8.2,-4.54 16.67,-10.38 16,-11.92 -0.67,-1.54 -10.78,0.05 -19.84,2.41 a 0.44384682,0.44384682 0 1 1 -0.22,-0.86 c 4.6,-1.19 19.69,-4.85 20.88,-1.87 1.19,2.98 -12.28,10.71 -16.44,13 a 0.54,0.54 0 0 1 -0.17,0.06 z" />
      <path
         id="path12397"
         fill="#ffffff"
         d="m 271.89465,312.66345 a 23.16,23.16 0 0 1 -4.7,-11.78 2.69,2.69 0 0 1 2.36,-2.78 v 0 a 2.17,2.17 0 0 1 2.62,1.73 20.08,20.08 0 0 0 4.01,10.16 2.16,2.16 0 0 1 -0.7,3.06 v 0 a 2.68,2.68 0 0 1 -3.59,-0.39 z" />
      <path
         id="path12399"
         fill="#231f20"
         d="m 273.88465,314.07345 a 3,3 0 0 1 -2.39,-1.12 23.83,23.83 0 0 1 -4.8,-12 3.17,3.17 0 0 1 2.8,-3.33 3,3 0 0 1 2.27,0.57 2.33,2.33 0 0 1 0.91,1.61 19.66,19.66 0 0 0 3.95,9.91 2.32,2.32 0 0 1 0.45,1.79 3,3 0 0 1 -1.26,2 3.26,3.26 0 0 1 -1.93,0.57 z m -3.93,-15.51 h -0.33 a 2.19,2.19 0 0 0 -1.93,2.24 22.94,22.94 0 0 0 4.59,11.53 v 0 a 2.19,2.19 0 0 0 2.94,0.29 2,2 0 0 0 0.86,-1.31 1.34,1.34 0 0 0 -0.25,-1 20.71,20.71 0 0 1 -4.16,-10.42 1.38,1.38 0 0 0 -0.52,-0.93 1.93,1.93 0 0 0 -1.2,-0.39 z" />
      <path
         id="path12401"
         fill="#d1d3d4"
         d="m 159.77465,381.88345 a 0.50089919,0.50089919 0 0 1 -0.06,-1 c 0.45,-0.05 45.05,-5.4 80.56,-34.17 a 0.5,0.5 0 0 1 0.7,0.07 0.52,0.52 0 0 1 -0.07,0.71 c -35.74,29 -80.62,34.33 -81.07,34.38 z" />
    </g>
    <g
       inkscape:label="Clip"
       id="use11991-60">
      <path
         id="path12405"
         fill="#ffffff"
         d="m 184.44465,379.95345 c 0,0 -4.42,12.73 -18.56,24.67 -14.14,11.94 -49.75,19 -49.75,19 l 19.52,-40.81 z" />
      <path
         id="path12407"
         fill="#231f20"
         d="m 116.18465,424.07345 a 0.49,0.49 0 0 1 -0.39,-0.19 0.51,0.51 0 0 1 -0.06,-0.53 l 19.45,-40.8 a 0.5,0.5 0 0 1 0.42,-0.28 l 48.79,-2.82 a 0.48,0.48 0 0 1 0.43,0.2 0.51,0.51 0 0 1 0.08,0.46 c -0.05,0.13 -4.63,13 -18.72,24.89 -14.09,11.89 -49.61,19 -50,19.07 z m 19.85,-40.83 -19,39.64 c 5.83,-1.24 36,-8 48.54,-18.65 12,-10.12 17,-20.92 18.13,-23.75 z" />
      <path
         id="path12409"
         fill="#ffffff"
         d="m 157.44465,312.24345 c 0,0 -11.94,-4.24 -30.42,-3.17 -18.48,1.07 -49.169996,18.52 -49.169996,18.52 l 42.249996,16.18 z" />
      <path
         id="path12411"
         fill="#231f20"
         d="m 120.10465,344.27345 a 0.58,0.58 0 0 1 -0.18,0 l -42.249996,-16.2 a 0.52,0.52 0 0 1 -0.32,-0.43 0.5,0.5 0 0 1 0.25,-0.47 c 0.31,-0.18 30.999996,-17.53 49.389996,-18.59 18.39,-1.06 30.5,3.15 30.61,3.19 a 0.5,0.5 0 0 1 0.16,0.86 l -37.34,31.53 a 0.55,0.55 0 0 1 -0.32,0.11 z m -41.069996,-16.76 40.999996,15.68 36.42,-30.75 c -3,-0.91 -14,-3.77 -29.37,-2.87 -16.4,0.95 -42.779996,15.04 -48.049996,17.94 z" />
      <path
         id="path12413"
         fill="#ffffff"
         d="m 110.49465,340.54345 c 15.53,-15.22 40.58,-30.89 70.63,-42.88 45.54,-18.16 79.27,-2.49 90.44,4.11 a 6.38,6.38 0 0 1 2.89,7.24 c -3.56,12.48 -17.26,47.05 -62.8,65.21 -30.05,12 -59,17.86 -80.74,17.5 0,0 -7,-6.19 -14.13,-24 -7.13,-17.81 -6.29,-27.18 -6.29,-27.18 z" />
      <path
         id="path12415"
         fill="#231f20"
         d="m 132.78465,392.24345 h -1.88 a 0.5,0.5 0 0 1 -0.33,-0.12 c -0.29,-0.26 -7.18,-6.48 -14.25,-24.22 -7.07,-17.74 -6.36,-27 -6.33,-27.39 a 0.51,0.51 0 0 1 0.15,-0.31 c 16.12,-15.8 41.92,-31.47 70.8,-43 45.21,-18 78.61,-3.11 90.88,4.14 a 6.88,6.88 0 0 1 3.11,7.8 c -3.91,13.71 -17.88,47.52 -63.09,65.55 -28.08,11.2 -56.75,17.55 -79.06,17.55 z m -1.67,-1 c 22.38,0.3 51.69,-6 80.36,-17.47 44.8,-17.87 58.63,-51.33 62.5,-64.89 a 5.89,5.89 0 0 0 -2.66,-6.67 c -12.14,-7.17 -45.21,-21.94 -90,-4.07 -28.67,11.43 -54.29,27 -70.33,42.63 -0.06,1.37 -0.18,10.58 6.27,26.75 6.45,16.17 12.87,22.75 13.86,23.71 z" />
      <path
         id="path12417"
         fill="#ffffff"
         d="m 274.45465,309.01345 a 95.68,95.68 0 0 1 -24.68,40.7 c 0,0 -9.71,-6.64 -18.15,-27.82 -8.44,-21.18 -6,-32.67 -6,-32.67 a 95.5,95.5 0 0 1 45.91,12.55 6.38,6.38 0 0 1 2.92,7.24 z" />
      <path
         id="path12419"
         fill="#231f20"
         d="m 249.77465,350.21345 a 0.51,0.51 0 0 1 -0.28,-0.09 c -0.4,-0.28 -9.93,-7 -18.34,-28 -8.41,-21 -6.09,-32.49 -6,-33 a 0.51,0.51 0 0 1 0.49,-0.4 v 0 a 95.64,95.64 0 0 1 46.16,12.62 6.88,6.88 0 0 1 3.11,7.8 v 0 a 95.68,95.68 0 0 1 -24.73,40.93 0.51,0.51 0 0 1 -0.41,0.14 z m -23.7,-60.48 c -0.32,2.21 -1.4,13.39 6,32 7.4,18.61 15.89,26 17.65,27.34 a 94.71,94.71 0 0 0 24.24,-40.18 v 0 a 5.89,5.89 0 0 0 -2.66,-6.67 94.53,94.53 0 0 0 -45.23,-12.49 z" />
      <path
         id="path12421"
         fill="#231f20"
         d="m 270.18465,300.53345 c 0,0 19.22,-5 20.36,-2.14 1.14,2.86 -16.24,12.46 -16.24,12.46" />
      <path
         id="path12423"
         fill="#231f20"
         d="m 274.30465,311.29345 a 0.44,0.44 0 0 1 -0.21,-0.82 c 8.2,-4.54 16.67,-10.38 16,-11.92 -0.67,-1.54 -10.78,0.05 -19.84,2.41 a 0.44384682,0.44384682 0 1 1 -0.22,-0.86 c 4.6,-1.19 19.69,-4.85 20.88,-1.87 1.19,2.98 -12.28,10.71 -16.44,13 a 0.54,0.54 0 0 1 -0.17,0.06 z" />
      <path
         id="path12425"
         fill="#ffffff"
         d="m 271.89465,312.66345 a 23.16,23.16 0 0 1 -4.7,-11.78 2.69,2.69 0 0 1 2.36,-2.78 v 0 a 2.17,2.17 0 0 1 2.62,1.73 20.08,20.08 0 0 0 4.01,10.16 2.16,2.16 0 0 1 -0.7,3.06 v 0 a 2.68,2.68 0 0 1 -3.59,-0.39 z" />
      <path
         id="path12427"
         fill="#231f20"
         d="m 273.88465,314.07345 a 3,3 0 0 1 -2.39,-1.12 23.83,23.83 0 0 1 -4.8,-12 3.17,3.17 0 0 1 2.8,-3.33 3,3 0 0 1 2.27,0.57 2.33,2.33 0 0 1 0.91,1.61 19.66,19.66 0 0 0 3.95,9.91 2.32,2.32 0 0 1 0.45,1.79 3,3 0 0 1 -1.26,2 3.26,3.26 0 0 1 -1.93,0.57 z m -3.93,-15.51 h -0.33 a 2.19,2.19 0 0 0 -1.93,2.24 22.94,22.94 0 0 0 4.59,11.53 v 0 a 2.19,2.19 0 0 0 2.94,0.29 2,2 0 0 0 0.86,-1.31 1.34,1.34 0 0 0 -0.25,-1 20.71,20.71 0 0 1 -4.16,-10.42 1.38,1.38 0 0 0 -0.52,-0.93 1.93,1.93 0 0 0 -1.2,-0.39 z" />
      <path
         id="path12429"
         fill="#d1d3d4"
         d="m 159.77465,381.88345 a 0.50089919,0.50089919 0 0 1 -0.06,-1 c 0.45,-0.05 45.05,-5.4 80.56,-34.17 a 0.5,0.5 0 0 1 0.7,0.07 0.52,0.52 0 0 1 -0.07,0.71 c -35.74,29 -80.62,34.33 -81.07,34.38 z" />
    </g>
    <g
       id="use12274"
       inkscape:label="Clip">
      <title
         id="title12315">w</title>
      <g
         id="g12345"
         clip-path="url(#clipPath11989)"
         transform="matrix(0.23681074,-0.24648995,0.22005282,0.26700962,179.56662,605.07818)">
        <g
           inkscape:label="Clip"
           id="g12343">
          <path
             id="path12317"
             fill="#ffffff"
             d="m 184.44465,379.95345 c 0,0 -4.42,12.73 -18.56,24.67 -14.14,11.94 -49.75,19 -49.75,19 l 19.52,-40.81 z"
             style="fill:#cccccc" />
          <path
             id="path12319"
             fill="#231f20"
             d="m 116.18465,424.07345 a 0.49,0.49 0 0 1 -0.39,-0.19 0.51,0.51 0 0 1 -0.06,-0.53 l 19.45,-40.8 a 0.5,0.5 0 0 1 0.42,-0.28 l 48.79,-2.82 a 0.48,0.48 0 0 1 0.43,0.2 0.51,0.51 0 0 1 0.08,0.46 c -0.05,0.13 -4.63,13 -18.72,24.89 -14.09,11.89 -49.61,19 -50,19.07 z m 19.85,-40.83 -19,39.64 c 5.83,-1.24 36,-8 48.54,-18.65 12,-10.12 17,-20.92 18.13,-23.75 z" />
          <path
             id="path12321"
             fill="#ffffff"
             d="m 157.44465,312.24345 c 0,0 -11.94,-4.24 -30.42,-3.17 -18.48,1.07 -49.169996,18.52 -49.169996,18.52 l 42.249996,16.18 z"
             style="fill:#cccccc" />
          <path
             id="path12323"
             fill="#231f20"
             d="m 120.10465,344.27345 a 0.58,0.58 0 0 1 -0.18,0 l -42.249996,-16.2 a 0.52,0.52 0 0 1 -0.32,-0.43 0.5,0.5 0 0 1 0.25,-0.47 c 0.31,-0.18 30.999996,-17.53 49.389996,-18.59 18.39,-1.06 30.5,3.15 30.61,3.19 a 0.5,0.5 0 0 1 0.16,0.86 l -37.34,31.53 a 0.55,0.55 0 0 1 -0.32,0.11 z m -41.069996,-16.76 40.999996,15.68 36.42,-30.75 c -3,-0.91 -14,-3.77 -29.37,-2.87 -16.4,0.95 -42.779996,15.04 -48.049996,17.94 z" />
          <path
             id="path12325"
             fill="#ffffff"
             d="m 110.49465,340.54345 c 15.53,-15.22 40.58,-30.89 70.63,-42.88 45.54,-18.16 79.27,-2.49 90.44,4.11 a 6.38,6.38 0 0 1 2.89,7.24 c -3.56,12.48 -17.26,47.05 -62.8,65.21 -30.05,12 -59,17.86 -80.74,17.5 0,0 -7,-6.19 -14.13,-24 -7.13,-17.81 -6.29,-27.18 -6.29,-27.18 z"
             style="fill:#cccccc" />
          <path
             id="path12327"
             fill="#231f20"
             d="m 132.78465,392.24345 h -1.88 a 0.5,0.5 0 0 1 -0.33,-0.12 c -0.29,-0.26 -7.18,-6.48 -14.25,-24.22 -7.07,-17.74 -6.36,-27 -6.33,-27.39 a 0.51,0.51 0 0 1 0.15,-0.31 c 16.12,-15.8 41.92,-31.47 70.8,-43 45.21,-18 78.61,-3.11 90.88,4.14 a 6.88,6.88 0 0 1 3.11,7.8 c -3.91,13.71 -17.88,47.52 -63.09,65.55 -28.08,11.2 -56.75,17.55 -79.06,17.55 z m -1.67,-1 c 22.38,0.3 51.69,-6 80.36,-17.47 44.8,-17.87 58.63,-51.33 62.5,-64.89 a 5.89,5.89 0 0 0 -2.66,-6.67 c -12.14,-7.17 -45.21,-21.94 -90,-4.07 -28.67,11.43 -54.29,27 -70.33,42.63 -0.06,1.37 -0.18,10.58 6.27,26.75 6.45,16.17 12.87,22.75 13.86,23.71 z" />
          <path
             id="path12329"
             fill="#ffffff"
             d="m 274.45465,309.01345 a 95.68,95.68 0 0 1 -24.68,40.7 c 0,0 -9.71,-6.64 -18.15,-27.82 -8.44,-21.18 -6,-32.67 -6,-32.67 a 95.5,95.5 0 0 1 45.91,12.55 6.38,6.38 0 0 1 2.92,7.24 z"
             style="fill:#cccccc" />
          <path
             id="path12331"
             fill="#231f20"
             d="m 249.77465,350.21345 a 0.51,0.51 0 0 1 -0.28,-0.09 c -0.4,-0.28 -9.93,-7 -18.34,-28 -8.41,-21 -6.09,-32.49 -6,-33 a 0.51,0.51 0 0 1 0.49,-0.4 v 0 a 95.64,95.64 0 0 1 46.16,12.62 6.88,6.88 0 0 1 3.11,7.8 v 0 a 95.68,95.68 0 0 1 -24.73,40.93 0.51,0.51 0 0 1 -0.41,0.14 z m -23.7,-60.48 c -0.32,2.21 -1.4,13.39 6,32 7.4,18.61 15.89,26 17.65,27.34 a 94.71,94.71 0 0 0 24.24,-40.18 v 0 a 5.89,5.89 0 0 0 -2.66,-6.67 94.53,94.53 0 0 0 -45.23,-12.49 z" />
          <path
             id="path12333"
             fill="#231f20"
             d="m 270.18465,300.53345 c 0,0 19.22,-5 20.36,-2.14 1.14,2.86 -16.24,12.46 -16.24,12.46" />
          <path
             id="path12335"
             fill="#231f20"
             d="m 274.30465,311.29345 a 0.44,0.44 0 0 1 -0.21,-0.82 c 8.2,-4.54 16.67,-10.38 16,-11.92 -0.67,-1.54 -10.78,0.05 -19.84,2.41 a 0.44384682,0.44384682 0 1 1 -0.22,-0.86 c 4.6,-1.19 19.69,-4.85 20.88,-1.87 1.19,2.98 -12.28,10.71 -16.44,13 a 0.54,0.54 0 0 1 -0.17,0.06 z" />
          <path
             id="path12337"
             fill="#ffffff"
             d="m 271.89465,312.66345 a 23.16,23.16 0 0 1 -4.7,-11.78 2.69,2.69 0 0 1 2.36,-2.78 v 0 a 2.17,2.17 0 0 1 2.62,1.73 20.08,20.08 0 0 0 4.01,10.16 2.16,2.16 0 0 1 -0.7,3.06 v 0 a 2.68,2.68 0 0 1 -3.59,-0.39 z"
             style="fill:#cccccc" />
          <path
             id="path12339"
             fill="#231f20"
             d="m 273.88465,314.07345 a 3,3 0 0 1 -2.39,-1.12 23.83,23.83 0 0 1 -4.8,-12 3.17,3.17 0 0 1 2.8,-3.33 3,3 0 0 1 2.27,0.57 2.33,2.33 0 0 1 0.91,1.61 19.66,19.66 0 0 0 3.95,9.91 2.32,2.32 0 0 1 0.45,1.79 3,3 0 0 1 -1.26,2 3.26,3.26 0 0 1 -1.93,0.57 z m -3.93,-15.51 h -0.33 a 2.19,2.19 0 0 0 -1.93,2.24 22.94,22.94 0 0 0 4.59,11.53 v 0 a 2.19,2.19 0 0 0 2.94,0.29 2,2 0 0 0 0.86,-1.31 1.34,1.34 0 0 0 -0.25,-1 20.71,20.71 0 0 1 -4.16,-10.42 1.38,1.38 0 0 0 -0.52,-0.93 1.93,1.93 0 0 0 -1.2,-0.39 z" />
          <path
             id="path12341"
             fill="#d1d3d4"
             d="m 159.77465,381.88345 a 0.50089919,0.50089919 0 0 1 -0.06,-1 c 0.45,-0.05 45.05,-5.4 80.56,-34.17 a 0.5,0.5 0 0 1 0.7,0.07 0.52,0.52 0 0 1 -0.07,0.71 c -35.74,29 -80.62,34.33 -81.07,34.38 z"
             style="fill:#666666" />
        </g>
      </g>
    </g>
  </defs>
  <sodipodi:namedview
     inkscape:document-rotation="0"
     pagecolor="#ffffff"
     bordercolor="#666666"
     borderopacity="1"
     objecttolerance="10"
     gridtolerance="10"
     guidetolerance="10"
     inkscape:pageopacity="0"
     inkscape:pageshadow="2"
     inkscape:window-width="1920"
     inkscape:window-height="1057"
     id="namedview330"
     showgrid="false"
     inkscape:zoom="1"
     inkscape:cx="263.96661"
     inkscape:cy="561.43963"
     inkscape:window-x="-8"
     inkscape:window-y="-8"
     inkscape:window-maximized="1"
     inkscape:current-layer="svg328"
     inkscape:pagecheckerboard="true" />
  <g
     transform="translate(3.3103476,-4.4137929)"
     id="_319_rocket_boy_flatline"
     data-name="#319_rocket_boy_flatline">
    <circle
       cx="155.34674"
       cy="79.701759"
       r="19.74"
       fill="#ffffff"
       id="circle173" />
    <path
       d="m 155.34674,99.941762 a 20.24,20.24 0 1 1 20.23,-20.24 20.26,20.26 0 0 1 -20.23,20.24 z m 0,-39.47 a 19.24,19.24 0 1 0 19.23,19.23 19.26,19.26 0 0 0 -19.23,-19.23 z"
       fill="#d1d3d4"
       id="path175" />
    <circle
       cx="294.49335"
       cy="205.31105"
       fill="#ffffff"
       id="circle305"
       r="25.969999" />
    <path
       d="m 294.50335,231.78104 a 26.47,26.47 0 1 1 25.52,-33.5 v 0 a 26.48,26.48 0 0 1 -25.52,33.5 z m 0,-51.95 a 25.48,25.48 0 1 0 24.56,18.72 v 0 a 25.52,25.52 0 0 0 -24.57,-18.72 z"
       fill="#d1d3d4"
       id="path307" />
    <path
       d="m 263.22335,219.52104 c -4.64,0 -8.84,-0.67 -9.48,-3 -1.03,-3.83 8.68,-8.83 14.59,-11.49 a 0.50159745,0.50159745 0 0 1 0.4,0.92 c -11.08,4.93 -14.51,8.55 -14,10.3 0.51,1.75 5.29,3.12 17.32,1.68 a 187,187 0 0 0 48.21,-13.24 c 11.07,-4.91 14.5,-8.54 14,-10.3 -0.5,-1.76 -5.28,-3.11 -17.32,-1.67 a 0.50358713,0.50358713 0 0 1 -0.12,-1 c 6.42,-0.77 17.34,-1.47 18.4,2.4 1.06,3.87 -8.67,8.86 -14.57,11.47 a 187.23,187.23 0 0 1 -48.53,13.36 77.33,77.33 0 0 1 -8.9,0.57 z"
       fill="#d1d3d4"
       id="path309" />
    <circle
       r="25.969999"
       id="circle305-0"
       fill="#ffffff"
       cy="1977.6807"
       cx="83.305962" />
    <path
       id="path307-6"
       fill="#d1d3d4"
       d="m 83.315965,2004.1506 a 26.47,26.47 0 1 1 25.519995,-33.5 v 0 a 26.48,26.48 0 0 1 -25.519995,33.5 z m 0,-51.95 a 25.48,25.48 0 1 0 24.559995,18.72 v 0 a 25.52,25.52 0 0 0 -24.569995,-18.72 z" />
    <path
       id="path309-8"
       fill="#d1d3d4"
       d="m 93.585019,2010.4576 c -0.565429,4.6055 -1.742326,8.6925 -4.132955,9.0438 -3.926991,0.5555 -7.706378,-9.6915 -9.626266,-15.8816 a 0.50159745,0.50159745 0 0 1 0.961858,-0.2849 c 3.54295,11.5983 6.717994,15.4439 8.517065,15.1509 1.799139,-0.2929 3.741425,-4.8703 3.778273,-16.9861 a 187,187 0 0 0 -7.265981,-49.4642 c -3.524347,-11.5859 -6.709278,-15.4327 -8.517065,-15.1509 -1.807787,0.2818 -3.7303,4.8616 -3.768319,16.9874 a 0.50358713,0.50358713 0 0 1 -1.007164,-0 c 0.01811,-6.466 0.65419,-17.3899 4.624496,-17.9703 3.970313,-0.5805 7.737334,9.6851 9.608839,15.8592 a 187.23,187.23 0 0 1 7.346143,49.7964 77.33,77.33 0 0 1 -0.518924,8.9031 z" />
    <circle
       r="25.969999"
       id="circle305-00"
       fill="#ffffff"
       cy="1119.0089"
       cx="242.1097"
       style="fill:#ffffff" />
    <path
       id="path307-3"
       fill="#d1d3d4"
       d="m 242.11971,1145.4788 a 26.47,26.47 0 1 1 25.52,-33.5 v 0 a 26.48,26.48 0 0 1 -25.52,33.5 z m 0,-51.95 a 25.48,25.48 0 1 0 24.56,18.72 v 0 a 25.52,25.52 0 0 0 -24.57,-18.72 z" />
    <path
       id="path309-3"
       fill="#d1d3d4"
       d="m 274.45774,1130.5269 c 3.33777,3.2233 5.89352,6.6228 4.7354,8.7434 -1.91968,3.4706 -12.37773,0.3222 -18.47676,-1.8698 a 0.50159745,0.50159745 0 0 1 0.35109,-0.9397 c 11.39493,4.1504 16.37693,3.9291 17.22575,2.316 0.84882,-1.6131 -1.638,-5.9191 -11.29192,-13.24 a 187,187 0 0 0 -43.87668,-23.9654 c -11.37383,-4.1579 -16.36274,-3.9294 -17.22575,-2.316 -0.86291,1.6133 1.63773,5.9049 11.29892,13.2328 a 0.50358982,0.50358982 0 0 1 -0.60837,0.8026 c -5.15301,-3.9058 -13.49448,-10.9879 -11.56863,-14.5081 1.92585,-3.5201 12.39137,-0.3506 18.44848,1.8704 a 187.23,187.23 0 0 1 44.19023,24.1014 77.33,77.33 0 0 1 6.79805,5.7724 z" />
    <circle
       style="stroke-width:3"
       cx="264.29276"
       cy="1610.0323"
       r="53.140614"
       fill="#d1d3d4"
       id="circle303-8-7" />
    <circle
       id="circle173-4"
       fill="#ffffff"
       r="19.74"
       cy="1486.9098"
       cx="146.20561" />
    <path
       id="path175-2"
       fill="#d1d3d4"
       d="m 146.20561,1507.1498 a 20.24,20.24 0 1 1 20.23,-20.24 20.26,20.26 0 0 1 -20.23,20.24 z m 0,-39.47 a 19.24,19.24 0 1 0 19.23,19.23 19.26,19.26 0 0 0 -19.23,-19.23 z" />
    <path
       id="path313-30"
       fill="#d1d3d4"
       d="m 358.95149,1706.0102 h -5.89 a 0.5,0.5 0 0 1 -0.5,-0.5 0.51,0.51 0 0 1 0.5,-0.5 h 5.89 a 0.5,0.5 0 0 1 0.5,0.5 0.5,0.5 0 0 1 -0.5,0.5 z" />
    <circle
       transform="rotate(7.2831481)"
       r="25.969999"
       id="circle305-5"
       fill="#ffffff"
       cy="2407.3948"
       cx="483.55829" />
    <path
       id="path307-32"
       fill="#d1d3d4"
       d="m 171.11874,2475.531 a 26.47,26.47 0 1 1 29.56099,-29.9944 v 0 a 26.48,26.48 0 0 1 -29.56099,29.9944 z m 6.58587,-51.5307 a 25.48,25.48 0 1 0 21.98863,21.6824 v 0 a 25.52,25.52 0 0 0 -21.99852,-21.6837 z" />
    <path
       id="path309-0"
       fill="#d1d3d4"
       d="m 141.64539,2459.4046 c -4.60257,-0.5883 -8.68375,-1.7853 -9.0232,-4.1777 -0.53617,-3.9296 9.72922,-7.6585 15.92889,-9.5477 a 0.50159891,0.50159891 0 0 1 0.28013,0.9633 c -11.6156,3.4856 -15.47682,6.6416 -15.19278,8.4421 0.28408,1.8006 4.85175,3.7654 16.96726,3.8622 a 187,187 0 0 0 49.49949,-7.0215 c 11.60318,-3.467 15.46567,-6.6329 15.19285,-8.442 -0.27285,-1.8093 -4.84313,-3.7543 -16.96859,-3.8523 a 0.50358713,0.50358713 0 0 1 0.008,-1.0071 c 6.46579,0.05 17.38644,0.7401 17.94731,4.7133 0.56084,3.973 -9.72071,7.6926 -15.90657,9.5303 a 187.23,187.23 0 0 1 -49.83211,7.1 77.33,77.33 0 0 1 -8.90046,-0.5629 z" />
    <circle
       id="circle303-8-7-2"
       fill="#d1d3d4"
       r="16.273033"
       cy="922.54974"
       cx="191.24387"
       style="stroke-width:0.918678" />
    <circle
       style="stroke-width:0.918678"
       cx="121.30167"
       cy="733.80157"
       r="16.273033"
       fill="#d1d3d4"
       id="circle303-8-7-2-7" />
    <circle
       style="stroke-width:0.918678"
       cx="344.04443"
       cy="799.50977"
       r="16.273033"
       fill="#d1d3d4"
       id="circle303-8-7-2-4" />
    <circle
       style="stroke-width:0.918678"
       cx="126.88447"
       cy="339.61768"
       r="16.273033"
       fill="#d1d3d4"
       id="circle303-8-7-2-8" />
    <circle
       id="circle173-86"
       fill="#ffffff"
       r="19.74"
       cy="2160.3147"
       cx="68.311745" />
    <path
       id="path175-3"
       fill="#d1d3d4"
       d="m 68.311748,2180.5548 a 20.24,20.24 0 1 1 20.23,-20.24 20.26,20.26 0 0 1 -20.23,20.24 z m 0,-39.47 a 19.24,19.24 0 1 0 19.23,19.23 19.26,19.26 0 0 0 -19.23,-19.23 z" />
    <circle
       r="22.047474"
       id="circle303-8-7-2-7-5"
       fill="#d1d3d4"
       cy="2094.3169"
       cx="214.78583"
       style="stroke-width:1.24467" />
    <circle
       transform="rotate(95.986032)"
       r="25.969999"
       id="circle305-4"
       fill="#ffffff"
       cy="-275.96872"
       cx="555.2251" />
    <path
       id="path307-4"
       fill="#d1d3d4"
       d="m 190.23503,578.22681 a 26.47,26.47 0 1 1 30.65596,28.87443 v 0 a 26.48,26.48 0 0 1 -30.65596,-28.87443 z m 51.66673,5.41766 a 25.48,25.48 0 1 0 -21.17919,22.47385 v 0 a 25.52,25.52 0 0 0 21.18024,-22.48379 z" />
    <path
       id="path309-7"
       fill="#d1d3d4"
       d="m 205.69025,548.39592 c 0.48388,-4.6147 1.58823,-8.72193 3.97227,-9.11545 3.91653,-0.62497 7.87665,9.55352 9.90582,15.70869 a 0.50159745,0.50159745 0 0 1 -0.9567,0.30188 c -3.74763,-11.53372 -6.99019,-15.32253 -8.78384,-14.99781 -1.79364,0.32472 -3.65466,4.93578 -3.47707,17.05036 a 187,187 0 0 0 8.14018,49.32787 c 3.72878,11.52169 6.98129,15.31154 8.78383,14.99781 1.80255,-0.31373 3.64368,-4.92688 3.46713,-17.0514 a 0.50358713,0.50358713 0 0 1 1.00706,-0.0151 c 0.0963,6.46529 -0.34633,17.39875 -4.30577,18.04938 -3.95945,0.65064 -7.90753,-9.5467 -9.88801,-15.68671 a 187.23,187.23 0 0 1 -8.22616,-49.65865 77.33,77.33 0 0 1 0.36126,-8.91091 z" />
  </g>
</svg>
