<?xml version="1.0" encoding="UTF-8" standalone="no"?>
<svg
   xmlns:dc="http://purl.org/dc/elements/1.1/"
   xmlns:cc="http://creativecommons.org/ns#"
   xmlns:rdf="http://www.w3.org/1999/02/22-rdf-syntax-ns#"
   xmlns:svg="http://www.w3.org/2000/svg"
   xmlns="http://www.w3.org/2000/svg"
   xmlns:sodipodi="http://sodipodi.sourceforge.net/DTD/sodipodi-0.dtd"
   xmlns:inkscape="http://www.inkscape.org/namespaces/inkscape"
   inkscape:version="1.0 (4035a4fb49, 2020-05-01)"
   height="510"
   width="510"
   sodipodi:docname="earth.svg"
   id="svg1132"
   version="1.1"
   viewBox="0 0 510 510">
  <metadata
     id="metadata1138">
    <rdf:RDF>
      <cc:Work
         rdf:about="">
        <dc:format>image/svg+xml</dc:format>
        <dc:type
           rdf:resource="http://purl.org/dc/dcmitype/StillImage" />
        <dc:title />
      </cc:Work>
    </rdf:RDF>
  </metadata>
  <defs
     id="defs1136" />
  <sodipodi:namedview
     inkscape:current-layer="_277_alien_flatline"
     inkscape:window-maximized="1"
     inkscape:window-y="-8"
     inkscape:window-x="-8"
     inkscape:cy="249.75066"
     inkscape:cx="118.87259"
     inkscape:zoom="0.92719377"
     inkscape:pagecheckerboard="true"
     showgrid="false"
     id="namedview1134"
     inkscape:window-height="1057"
     inkscape:window-width="1920"
     inkscape:pageshadow="2"
     inkscape:pageopacity="0"
     guidetolerance="10"
     gridtolerance="10"
     objecttolerance="10"
     borderopacity="1"
     bordercolor="#666666"
     pagecolor="#ffffff"
     inkscape:document-rotation="0" />
  <g
     data-name="#277_alien_flatline"
     id="_277_alien_flatline">
    <ellipse
       style="fill:#ffffff;stroke-width:2.18763"
       id="path74"
       cx="254.26483"
       cy="258.45416"
       rx="246.50801"
       ry="244.68729" />
    <path
       style="stroke-width:2.34391"
       id="path311-14"
       fill="#d1d3d4"
       d="m 290.14285,335.36296 a 1.1719558,1.1719558 0 0 1 -1.17196,-1.1718 v -13.8058 a 1.1719558,1.1719558 0 0 1 1.17196,-1.1719 1.1719558,1.1719558 0 0 1 1.17195,1.1719 v 13.8058 a 1.1719558,1.1719558 0 0 1 -1.17195,1.1718 z" />
    <path
       style="stroke-width:2.34391"
       id="path313-193"
       fill="#d1d3d4"
       d="m 297.17459,328.44836 h -13.80565 a 1.1719558,1.1719558 0 0 1 -1.17196,-1.1718 1.1953949,1.195395 0 0 1 1.17196,-1.1721 h 13.80565 a 1.1719558,1.1719558 0 0 1 1.17195,1.1721 1.1719558,1.1719558 0 0 1 -1.17195,1.1718 z" />
    <circle
       r="0"
       style="fill:#ffffff;stroke-width:1.67515"
       id="circle1017"
       fill="#fff"
       cy="1693.489"
       cx="210.625" />
    <path
       id="path1019"
       fill="#d1d3d4"
       d="M 255.31138,14.16626 A 243.12351,243.12351 0 1 1 12.187971,257.28956 243.08426,243.08426 0 0 1 255.31138,14.16626 m 0,-3.5731 A 246.69655,246.69655 0 1 0 501.96871,257.28956 246.93214,246.93214 0 0 0 255.31138,10.59316 Z"
       style="stroke-width:3.92641" />
    <path
       id="path1021"
       fill="#d1d3d4"
       d="m 437.57563,96.42466 a 9.2663351,9.2663353 0 0 1 -5.61484,0.3532 l 3.25898,-2.9841 q -6.59647,-7.2637 -13.78173,-13.9779 a 10.915429,10.915429 0 0 0 5.49694,8.7561 c -5.14372,0.2746 -9.14853,-2.788 -13.66385,-3.9267 a 145.98403,145.98403 0 0 0 -16.21611,-3.0626 l 8.04899,5.8111 a 39.264132,39.264132 0 0 1 -4.59384,1.4528 c -1.53127,-3.259 -3.45515,-0.5891 -5.22198,-0.7068 -3.92654,-0.2355 -8.32419,4.4368 -11.34736,-0.3925 a 25.914329,25.914329 0 0 0 -4.16208,0.903 43.190544,43.190544 0 0 0 -10.60129,4.9864 c -3.65157,2.9057 -4.79025,3.2592 -7.61724,-1.0991 l 3.73009,-1.2567 v -1.5313 l -7.57808,-1.6098 a 24.854196,24.854196 0 0 0 -0.3141,5.4186 9.6197121,9.6197121 0 0 0 1.53129,3.1804 60.545291,60.545293 0 0 0 -6.63561,1.0207 58.503556,58.503559 0 0 0 -6.12512,2.5523 l 1.84536,3.9263 -10.09077,-1.6489 -0.35347,0.9422 3.92629,2.5129 c -5.77163,1.7278 -9.38408,-1.2957 -9.38408,-7.1852 l -4.9473,-2.6308 a 11.425862,11.425862 0 0 1 5.22224,0.6282 c 5.4578,1.178 10.95474,2.5523 16.29463,-0.197 2.78762,-1.4135 2.63058,-3.3768 0,-4.7116 a 57.364897,57.364897 0 0 0 -10.13013,-4.3193 c -6.1645,-1.7668 -12.44688,-2.984 -18.80755,-4.4367 l 1.02077,-1.6098 a 63.097459,63.097457 0 0 0 -8.83444,-1.8454 14.292144,14.292144 0 0 0 -5.14348,1.6883 l 1.53127,-3.3374 c -2.94489,1.3741 -5.30075,3.5336 -7.06759,3.1018 -3.9263,-0.8639 -6.91057,2.1595 -10.95474,1.3743 -2.27711,-0.432 -5.30054,2.984 -7.06736,3.9263 a 29.64442,29.64442 0 0 0 -5.45781,1.2172 33.806417,33.806417 0 0 0 -4.55469,3.5339 l 6.20388,-1.4922 c -2.78785,3.4552 -5.81127,7.5389 -9.18791,11.2689 -2.3165,2.5521 -4.79025,5.8895 -7.85281,6.7141 a 27.484892,27.484892 0 0 0 -11.07241,6.3216 6.4393176,6.4393176 0 0 0 -1.64918,4.6723 32.589228,32.589228 0 0 0 2.15945,7.4996 5.5362426,5.5362424 0 0 0 6.98909,3.1411 c 2.43438,-1.2171 5.49694,-4.1228 6.94968,-3.4551 2.19883,1.0206 3.25899,4.5153 4.75112,6.9496 0.31408,0.5105 0.54966,1.0602 0.82436,1.5706 1.37423,2.9056 1.21719,9.6197 6.59646,2.67 4.35828,0.9422 4.35828,-2.6307 4.63322,-5.0652 a 6.9104873,6.9104873 0 0 1 3.92628,-5.8504 3.3767154,3.3767154 0 0 0 0.39284,-6.2036 c -3.3375,-2.3952 -3.7301,-4.5939 -0.86396,-7.8528 1.53128,-1.6493 3.92651,-2.5129 5.53632,-3.9266 1.6098,-1.4132 2.63057,-3.5731 4.27975,-4.9079 a 19.632066,19.632066 0 0 1 6.55709,-3.6908 c 1.37422,-0.3927 3.21959,0.903 5.22224,1.5705 -3.92652,3.1019 -6.94994,5.4184 -9.8946,7.8528 -1.64917,1.3351 -3.57305,9.3056 -2.08115,10.1695 a 20.849253,20.849253 0 0 0 9.07023,2.984 49.747654,49.747657 0 0 0 8.55949,-1.8061 12.525258,12.525257 0 0 1 4.16186,0.8637 v 1.7672 l -7.5385,0.6672 a 49.865448,49.865449 0 0 0 -5.92892,0.707 c -2.66994,0.5887 -3.0234,2.3949 -1.13867,4.1227 1.88474,1.7273 1.68832,3.9263 -0.35346,5.6146 -5.06496,-4.1229 -6.16449,-3.9263 -7.38169,2.7093 a 24.343762,24.343762 0 0 0 0,4.4761 c -2.08091,0.8638 -4.59383,2.9056 -5.88954,2.3165 -5.30076,-2.5521 -8.79529,2.1597 -13.5068,2.5129 -1.45274,-3.6906 -3.92651,-1.4133 -6.55708,-1.3742 a 7.420921,7.4209207 0 0 1 -4.31913,-2.0809 c -0.66755,-0.5496 -1.13867,-2.5523 -0.70669,-3.0234 a 7.3031285,7.3031285 0 0 0 1.37423,-8.1279 c -6.40005,3.4947 -6.36091,3.4947 -4.86876,10.0125 a 21.359687,21.359687 0 0 1 0.2747,3.9264 l -9.50176,3.9265 c -3.06278,3.0234 -5.22223,5.2221 -7.42104,7.3423 -0.78522,0.7461 -1.92389,1.2566 -2.43439,2.1596 a 6.9497514,6.949751 0 0 1 -9.42324,3.6518 c 0,1.3346 0.31409,2.5913 0.47113,3.9262 l -8.44184,-0.3926 a 86.145505,86.145506 0 0 0 7.85281,8.638 c 3.37664,3.9265 0.62817,7.8527 0,11.7794 -7.0676,0.5497 -14.13518,-2.7485 -20.96699,1.4135 3.92629,7.8527 -2.63081,16.0983 2.04179,23.8331 l 4.63297,-0.5496 2.78785,3.6911 c 7.06759,-1.6886 13.93878,-2.7095 16.05908,-8.8345 0,-2.3559 -0.54966,-3.9265 0,-4.9868 1.64893,-2.2378 3.92628,-3.9262 5.69313,-6.2036 1.21718,-1.4136 3.25897,-3.0626 3.18045,-4.5153 -0.23557,-4.5547 2.47377,-4.2799 5.02582,-3.2982 a 5.3006577,5.3006577 0 0 0 6.51794,-1.1388 39.264132,39.264132 0 0 1 4.98644,-3.416 c 1.2172,1.5315 2.39524,3.1413 3.92652,4.6726 a 47.862977,47.862977 0 0 0 7.02821,7.5778 c 4.59384,3.3374 10.05164,5.8113 8.08838,13.2321 l 3.2196,-4.4761 -1.53127,-5.34 5.30075,2.2774 c 0,-0.8637 0,-1.4528 -0.35346,-1.6097 -3.10171,-2.0419 -4.94729,-5.7327 -9.03063,-6.6357 -1.09953,-0.2356 -2.12029,-1.5313 -2.86637,-2.5523 -0.74607,-1.0208 -2.00239,-3.4551 -3.2196,-4.9864 -3.10192,-3.9266 -2.55228,-5.772 1.68833,-6.9107 a 11.77924,11.77924 0 0 0 1.45275,2.7095 c 0.47112,0.5102 1.92389,0.4711 2.04179,0.9421 1.13867,4.2407 4.75087,5.497 7.8528,7.4603 2.00241,1.2171 4.71174,3.6122 4.71174,5.4577 0,8.5986 6.12511,13.8209 9.10913,20.5746 a 34.434644,34.434644 0 0 0 3.4554,-6.0469 5.7325633,5.732563 0 0 0 -0.39261,-3.9264 48.020034,48.020034 0 0 0 -3.45539,-5.5754 c 1.92413,0 3.7301,0.7852 4.39764,0 3.3375,-2.9843 3.2196,-3.0628 6.08598,-1.4137 -0.23556,3.1411 -0.43198,5.772 -0.58904,8.1279 1.29573,1.9238 2.2382,4.8294 4.12272,5.693 1.88473,0.8639 4.2406,5.0652 8.20627,1.5707 1.25634,-1.0993 5.41842,1.0993 8.24541,1.8061 0,0 0.31408,0 0.43198,0 l 7.18526,-3.2982 c -1.4919,6.5963 -2.63057,11.7793 -3.92629,17.0407 -0.74606,3.3767 -2.04177,5.9288 -6.28238,6.0465 -1.64893,0 -3.25897,1.8063 -3.92628,2.2774 l 6.59623,6.9499 -3.21959,2.5129 0.43198,1.2564 6.32154,-1.8847 c 0.86372,1.5313 2.12006,3.4553 3.10169,5.4972 1.68855,3.4156 3.29835,6.9104 4.86876,10.4441 1.25658,2.8271 2.39525,5.6932 3.49455,8.5987 a 63.450837,63.450834 0 0 0 2.08092,6.361 58.307236,58.307237 0 0 0 4.2406,6.557 c 4.31914,6.2824 4.20124,13.7818 5.4578,20.8885 0.43175,2.5129 1.53129,3.416 3.92628,2.2772 3.92653,-2.0809 8.32417,-3.9262 12.17194,-6.4785 3.84799,-2.552 7.61725,-6.3999 11.77932,-8.9129 a 30.743816,30.743816 0 0 0 10.2087,-8.2455 c 0.74582,-1.0209 1.29571,-2.1594 1.96302,-3.2588 a 22.81246,22.81246 0 0 1 2.04178,-3.2592 c 4.90816,-5.3788 3.92652,-10.13 -2.63057,-13.3496 a 6.7926949,6.7926947 0 0 1 -2.78786,-3.5337 28.545025,28.545025 0 0 1 -0.62818,-5.772 45.467865,45.467865 0 0 0 -4.90814,6.3609 c -1.8845,3.7301 -4.90791,1.4527 -7.34231,1.9239 -0.27493,-1.5312 -0.5105,-3.0627 -0.82457,-4.594 -0.31411,-1.5313 -0.43176,-2.0024 -0.90313,-4.2402 l -1.72745,3.9261 -7.46021,-16.0196 c 3.92629,-4.4368 4.79027,-4.3583 7.61725,1.0602 0.39261,0.7852 0.74607,1.6097 1.06015,2.4343 a 11.033221,11.033221 0 0 0 15.70563,6.243 c 2.08092,5.183 2.51291,5.8505 8.40245,6.2035 5.88954,0.3536 12.13255,0 17.51183,0 l 9.93373,11.3083 -2.82699,1.1778 6.51796,5.6539 c 1.41337,-1.6882 2.7876,-3.4159 3.37663,-3.9261 1.53128,8.1668 2.78785,17.7079 5.14372,26.9743 a 144.80612,144.80612 0 0 0 8.91296,27.4851 33.374512,33.374512 0 0 0 7.85281,-23.912 11.151013,11.151013 0 0 1 0.7852,-6.3215 c 2.12031,-3.102 5.53632,-5.3007 7.53873,-8.4418 3.10193,-4.8688 9.26641,-7.3423 10.44424,-13.7032 0,-0.8246 1.88474,-1.6099 3.0234,-1.8848 3.18046,-0.8243 6.40005,-1.3742 9.73756,-2.081 a 24.068912,24.068912 0 0 0 2.31649,6.9498 39.264132,39.264132 0 0 1 4.90791,8.3633 245.71494,245.71494 0 0 0 1.57066,-27.485 242.22042,242.22042 0 0 0 -61.13415,-160.8649 z"
       style="stroke-width:3.92641" />
    <path
       id="path1023"
       fill="#d1d3d4"
       d="m 100.45355,444.81526 a 14.056559,14.056559 0 0 0 1.41361,-4.8689 8.8344295,8.8344293 0 0 1 5.10433,-8.4417 c 3.92629,-1.8061 8.24542,-3.0234 12.32898,-4.5939 a 4.8294881,4.8294881 0 0 0 2.47354,-1.5705 46.488733,46.488733 0 0 0 4.98667,-10.7192 134.08701,134.08701 0 0 0 1.84535,-15.902 3.4945078,3.4945078 0 0 1 0.35346,-1.7276 c 2.08093,-2.7091 4.51533,-5.2614 6.40006,-8.1278 a 24.500818,24.500818 0 0 0 5.18286,-10.2085 7.5387133,7.5387136 0 0 0 -7.06759,-8.3632 2.8270174,2.8270174 0 0 1 -1.68833,-1.2956 c -4.79026,-6.4002 -11.77933,-4.9868 -18.29727,-5.0653 0.58903,-2.7485 -0.82437,-3.6515 -3.69074,-4.3191 a 16.490936,16.490936 0 0 1 -13.977899,-12.2502 c -2.00265,-7.8529 -5.92893,-10.1696 -14.2531,-10.6407 a 15.430803,15.430803 0 0 1 -6.79265,-3.2981 30.194116,30.194116 0 0 1 -4.35827,-4.3192 14.998898,14.998898 0 0 0 -2.12031,-2.3163 c -2.31648,-1.5708 -3.92628,-4.9868 -7.0676,-4.3193 a 15.313011,15.313011 0 0 1 -9.7373,0 c -2.98428,-1.2957 -5.8898,-2.7484 -9.38433,-4.3975 -0.90288,2.3951 -2.04154,5.4969 -3.25873,8.8738 -2.19883,-3.4946 0,-6.9106 0.54964,-10.5232 -6.43943,3.9266 -13.89963,6.2431 -15.43091,15.0775 l -0.43175,-0.2355 a 243.43762,243.43762 0 0 0 76.918279,113.552 z"
       style="stroke-width:3.92641" />
    <path
       id="path1025"
       fill="#d1d3d4"
       d="m 51.844761,178.21166 c 8.16689,1.8454 14.25285,-2.2773 20.77056,-5.4183 a 4.2797903,4.2797903 0 0 0 2.2382,-3.1021 5.8110914,5.8110916 0 0 0 -2.3167,-3.9261 20.456613,20.456613 0 0 0 -5.73252,-1.4138 l 2.51291,-1.6488 a 55.323162,55.323162 0 0 1 -9.38408,-5.8113 c -1.41362,-1.2957 -0.94226,-4.4367 -2.04178,-6.3216 -1.84537,-3.2196 -4.24038,-6.0856 -6.51771,-9.2662 -2.19883,3.0626 -2.78785,8.599 -8.12775,7.2638 a 6.3607893,6.3607893 0 0 1 -3.92653,-2.709 241.35663,241.35663 0 0 0 -26.38542,93.2913 14.370672,14.370672 0 0 1 2.82699,-2.2773 c 6.675,-3.9263 7.0676,-4.9865 5.33991,-12.6821 a 38.950018,38.950018 0 0 1 0,-7.4997 l 1.68831,6.4 c 1.57067,-2.7874 3.92652,-5.065 3.92652,-7.5386 0.432,-4.3583 2.59144,-5.3399 6.28216,-5.4184 a 18.179293,18.179293 0 0 0 4.27998,-0.9422 l -1.21718,-0.5497 c 0.23555,-2.1597 -0.31433,-5.4969 0.82434,-6.2825 a 144.0601,144.0601 0 0 1 14.41013,-7.4601 l -3.1413,6.7535 1.09953,0.2355 15.23448,-8.1277 -0.66755,-1.1778 -1.88472,1.0993 1.021,-3.573 a 1.8846783,1.8846783 0 0 0 -1.6098,0.9816 c -2.7487,3.9264 -4.2406,4.3976 -8.36331,1.4527 -3.06255,-2.1987 -4.1621,-4.7115 -0.9031,-7.8529 0.27493,-0.2746 -0.51053,-2.5129 -0.90313,-2.552 a 13.938767,13.938767 0 0 0 -5.10434,0.3926 66.749023,66.749025 0 0 0 -6.51794,2.67 c 3.57307,-3.4551 7.0676,-8.2063 12.28984,-6.9891 z"
       style="stroke-width:3.92641" />
    <path
       id="path1027"
       fill="#d1d3d4"
       d="m 258.90503,331.46666 a 8.9522221,8.9522219 0 0 1 1.13866,6.2821 c -1.88474,6.4787 -1.96326,11.7794 3.3375,17.2764 a 23.28363,23.28363 0 0 1 6.20364,17.7865 4.2405262,4.2405262 0 0 0 0.66753,2.5129 c 2.12032,2.9056 0.82459,4.9867 -0.58903,7.8528 -3.14107,6.4395 -6.16448,13.0751 -1.72769,20.6529 a 30.70455,30.70455 0 0 1 5.73274,14.8418 22.341291,22.341291 0 0 0 5.57546,15.3524 14.724049,14.724049 0 0 1 4.35828,9.7769 7.3816569,7.3816571 0 0 0 4.1227,7.8527 26.778137,26.778137 0 0 1 4.16209,-1.3742 74.052153,74.05215 0 0 0 11.77909,-1.2565 c 9.93397,-2.8269 14.76336,-11.3471 19.63213,-19.3179 0.9425,-1.492 0.35348,-3.9263 0.5105,-6.7536 0.58903,-0.3139 1.92389,-1.1777 3.37665,-1.8452 a 6.4785817,6.4785819 0 0 0 3.92651,-8.7951 c -0.43197,-1.5313 -1.13866,-3.0234 -1.53126,-4.5547 -0.19689,-0.9031 -0.35346,-2.2774 0,-2.7093 3.25873,-3.0232 6.87117,-5.7327 10.13015,-8.7951 2.08092,-2.0025 4.90791,-4.2013 5.41842,-6.7142 a 33.335249,33.335249 0 0 0 -0.58903,-11.7793 c -0.43198,-2.5914 -2.15944,-4.9864 -2.6308,-7.5779 -0.47113,-2.5913 1.41361,-6.1644 -1.64894,-8.6774 -0.35348,-0.314 0,-1.8848 0.2747,-2.5129 4.90815,-6.7926 8.91296,-14.8419 15.2345,-19.9462 8.36331,-6.7927 12.52538,-15.7056 17.11922,-24.6186 a 30.70455,30.70455 0 0 0 1.68832,-8.4023 c -6.40006,1.6488 -12.05405,3.2195 -17.78654,4.4367 a 3.6908284,3.6908284 0 0 1 -3.18045,-1.4922 c -0.94227,-1.6098 -0.8246,-3.9261 -1.96327,-5.3399 -2.08092,-2.5521 -4.86877,-4.5546 -7.18526,-6.9496 a 13.035691,13.035691 0 0 1 -3.06255,-4.4369 c -1.88475,-5.8112 -6.24301,-10.405 -6.91056,-16.9621 -0.43199,-3.9263 -4.16208,-7.8529 -6.00745,-11.7793 a 154.85774,154.85774 0 0 1 -6.12511,-15.2737 c -1.29572,-3.9264 -3.45539,-3.4945 -6.47856,-2.67 a 14.488464,14.488464 0 0 1 -6.94995,0.5105 138.40607,138.40607 0 0 1 -13.38888,-4.6331 c -3.92652,-1.4921 -7.06761,0.1969 -7.42107,4.1618 -0.2747,2.9058 -1.49189,4.4761 -4.24036,2.4344 -2.74847,-2.0416 -8.16713,-0.9423 -9.14853,-6.0859 0,-0.197 -1.06015,0 -1.53151,-0.2747 -4.16185,-1.8063 -9.81583,0.5103 -12.1717,-3.9267 l 3.10169,-9.1876 a 37.732831,37.732831 0 0 0 -5.77164,-0.8246 c -5.02581,0 -10.091,0.3534 -15.07744,1.0208 a 43.190544,43.190544 0 0 0 -10.4051,2.7878 c -5.30051,2.1594 -10.44423,3.9264 -15.19512,0.2747 a 34.473907,34.473907 0 0 1 -6.87116,7.0286 8.9522221,8.9522219 0 0 0 -4.98667,8.1275 c 0,5.3401 -2.827,7.2245 -7.0676,8.5203 a 5.1828655,5.1828656 0 0 0 -2.7091,1.8847 c -2.51291,3.9265 -4.98668,8.1669 -7.14611,12.4467 -1.49214,2.9843 -4.27975,5.5364 -1.49214,9.9339 a 13.624653,13.624653 0 0 1 0.31409,10.2088 33.335249,33.335249 0 0 0 -1.09929,13.4281 c 0,0.9817 1.02077,1.924 1.72768,2.788 0.7067,0.8635 1.57044,1.2172 2.12031,2.0024 a 105.77757,105.77757 0 0 0 7.65639,11.0332 106.01316,106.01316 0 0 0 10.09077,8.5204 6.3215253,6.3215255 0 0 0 6.83203,0.9423 63.254516,63.254513 0 0 1 10.99388,-1.0602 19.082369,19.082369 0 0 0 4.24062,-0.6282 89.914862,89.914862 0 0 1 8.59887,-3.0626 c 2.90551,-0.6284 6.91056,-2.4738 8.28479,1.924 1.37424,4.3976 3.49454,3.9261 6.67476,3.5336 a 5.5755067,5.5755067 0 0 1 5.0652,2.0811 z"
       style="stroke-width:3.92641" />
    <path
       id="path1029"
       fill="#d1d3d4"
       d="m 78.112411,90.84896 a 9.3448634,9.3448632 0 0 0 2.43439,-1.1384 l 7.14612,4.9864 -9.10915,-1.2956 -0.23555,1.335 8.75568,3.2981 v 4.3189 l -10.44424,5.3007 4.79025,3.9266 c 0,1.4527 -0.43174,2.827 0,3.9263 3.29835,6.7926 6.67499,13.546 10.24806,20.1817 a 11.425862,11.425862 0 0 0 4.16184,3.9265 74.601851,74.601851 0 0 0 7.656619,3.4552 c 1.92389,0.8245 3.92628,1.8063 4.35826,-1.5707 0.432,-3.3765 1.41363,-6.4391 2.19883,-9.6588 0,-0.5889 0.39262,-1.4135 0.8246,-1.61 a 8.3632601,8.3632601 0 0 0 4.20122,-8.638 c 0,-1.2172 2.1203,-3.573 3.06256,-3.4946 a 16.176822,16.176822 0 0 0 15.35238,-8.2454 c 1.06015,-1.4527 2.82699,-3.259 4.39742,-3.3767 a 57.561217,57.561217 0 0 0 25.32548,-9.4628 l -11.11178,-1.1386 3.02342,-3.6513 8.79506,3.7297 a 6.3607893,6.3607893 0 0 0 -4.35827,-7.8527 c -3.92652,-1.492 -4.16209,-3.5336 -2.19882,-6.1645 h 10.16928 l -2.94464,-3.2981 6.51771,-0.9422 -2.90551,-3.0235 c 5.10434,-3.4551 -1.57043,-5.1828 -1.17783,-7.8528 l 6.32154,-0.3926 c -1.13868,-1.7668 -1.76684,-3.9264 -3.10192,-4.4368 a 17.982971,17.982971 0 0 0 -6.28217,-0.4715 c 5.85017,-8.795 15.70562,-11.779 24.97182,-15.9801 a 19.632066,19.632066 0 0 0 -16.09823,-1.021 101.37999,101.37999 0 0 1 -14.40991,2.8664 l 2.23797,-3.5731 c -1.88451,0.2355 -3.92628,0.4711 -5.65398,0.6282 -1.02077,0 -2.08093,0 -3.10193,0 v -1.8061 l 11.42586,-1.9242 c -3.92628,-1.0601 -7.61724,-2.5129 -11.34735,-3.2586 a 243.79099,243.79099 0 0 0 -73.895089,53.399 z"
       style="stroke-width:3.926;stroke-miterlimit:4;stroke-dasharray:none" />
    <path
       id="path1031"
       fill="#d1d3d4"
       d="m 47.211451,131.52656 -1.41337,2.356 a 27.210042,27.210042 0 0 1 2.82698,1.0209 z"
       style="stroke-width:3.92641" />
    <path
       id="path1037"
       fill="#d1d3d4"
       d="m 357.2804,421.57096 a 11.77924,11.77924 0 0 0 1.53127,11.7791 4.9472807,4.9472807 0 0 0 7.85281,-2.0024 c 2.51291,-8.3634 4.75088,-16.8052 7.10675,-25.2468 0,-0.6284 0,-1.4527 0.43197,-1.9242 a 7.5779774,7.5779778 0 0 0 -1.37422,-9.9337 c -4.86877,3.6516 -5.37928,11.7794 -14.17435,11.3079 0,2.8273 0,5.4972 0,8.0887 a 23.126573,23.126573 0 0 1 -1.37423,7.9314 z"
       style="stroke-width:3.92641" />
    <path
       id="path1039"
       fill="#d1d3d4"
       d="m 239.9198,153.59316 c 0.3926,-1.0602 1.41362,-2.6306 1.06016,-3.1021 a 4.5153751,4.5153751 0 0 0 -2.3165,-1.06 c -3.416,-4.6724 -6.40004,-8.7558 -9.54111,-13.1142 2.59141,-4.5544 2.47351,-6.2821 -0.9425,-8.5204 -2.15945,-1.3743 -6.98908,0.5499 -9.18766,3.691 -0.98163,1.4133 0.47112,4.1228 4.27974,7.8528 l -0.54965,2.7093 c 0.74584,0 1.29573,0 1.57043,0.2356 1.37424,1.0207 3.41602,1.9238 3.92652,3.2587 0.51026,1.3351 -0.86396,3.0234 -3.10193,2.0813 a 3.2196589,3.2196589 0 0 0 -1.09929,1.6097 c 0,1.6098 0,3.2197 0,5.2613 l 3.61219,1.0602 c -1.88473,1.492 -3.7301,2.8662 -6.43943,4.9472 l 17.43332,-2.7877 c 0.6284,-2.2381 0.94249,-3.1804 1.29571,-4.1227 z"
       style="stroke-width:3.92641" />
    <path
       id="path1043"
       fill="#d1d3d4"
       d="m 168.93046,130.23086 a 10.247938,10.247938 0 0 0 5.222,0 22.262763,22.262763 0 0 0 7.53872,-3.5728 c 1.68831,-1.3745 5.53632,-2.513 3.69096,-5.6934 a 30.90087,30.90087 0 0 0 -6.40006,-6.1645 l -0.35345,1.4529 -13.31061,3.1804 -3.21959,-4.3192 0.5105,1.4136 -5.81128,3.3767 0.58904,0.746 h 6.24301 l -5.65399,2.9448 6.28215,1.8456 -3.18021,2.3164 c 2.74847,0.9422 5.26137,1.9238 7.85281,2.4735 z"
       style="stroke-width:3.92641" />
    <path
       id="path1045"
       fill="#d1d3d4"
       d="m 282.95349,56.84626 c 2.86613,-2.2774 5.222,-4.3192 7.8528,-6.0074 a 3.2196589,3.2196589 0 0 1 2.98404,0 c 0.70669,0.4711 0.86372,1.8062 1.41337,3.0234 h 8.48122 v -1.5707 l -23.91189,-9.5411 1.49214,3.259 -14.2531,-1.2566 -0.31408,1.4921 a 22.576877,22.576877 0 0 0 6.16449,4.1228 18.925312,18.925312 0 0 0 6.91055,-0.9424 v 1.0994 l -5.41842,1.9632 v 0.7461 l 4.27974,0.3926 -2.86637,1.4919 z"
       style="stroke-width:3.92641" />
    <path
       id="path1047"
       fill="#d1d3d4"
       d="m 219.7773,145.62236 c 2.00265,-1.2563 2.35587,-2.984 0.31433,-3.9263 -2.0418,-0.9422 -4.35852,-2.7877 -6.67499,0 -1.2172,1.4527 -2.74847,2.6306 -4.4368,4.2797 v 6.8713 l -1.41362,0.6675 c 0.74608,0.6282 1.68833,1.924 2.23797,1.7669 a 43.504659,43.504659 0 0 0 9.18791,-3.3375 c 0.70668,-0.4318 0,-3.1017 0.27494,-4.751 0.0399,-0.6675 0.15704,-1.3742 0.51026,-1.5706 z"
       style="stroke-width:3.92641" />
    <path
       id="path1051"
       fill="#d1d3d4"
       d="m 47.133091,299.10596 c 0.35324,-3.9263 -6.67499,-6.4001 -13.03566,-4.6722 l 3.37664,3.9261 -6.59646,-0.628 c 5.18307,3.6123 10.68001,0.9423 16.25548,1.3741 z"
       style="stroke-width:3.92641" />
    <path
       id="path1057"
       fill="#d1d3d4"
       d="m 262.73236,195.72346 -2.9055,1.178 v 7.4995 c 4.98643,-0.2355 2.70909,-4.2406 3.69073,-6.4002 0.23555,-0.5105 -0.47113,-1.4527 -0.78523,-2.2773 z"
       style="stroke-width:3.92641" />
  </g>
</svg>
