<?xml version="1.0" encoding="UTF-8" standalone="no"?>
<svg
   xmlns:dc="http://purl.org/dc/elements/1.1/"
   xmlns:cc="http://creativecommons.org/ns#"
   xmlns:rdf="http://www.w3.org/1999/02/22-rdf-syntax-ns#"
   xmlns:svg="http://www.w3.org/2000/svg"
   xmlns="http://www.w3.org/2000/svg"
   xmlns:sodipodi="http://sodipodi.sourceforge.net/DTD/sodipodi-0.dtd"
   xmlns:inkscape="http://www.inkscape.org/namespaces/inkscape"
   viewBox="0 0 230 600"
   version="1.1"
   id="svg179"
   sodipodi:docname="modern_stars.svg"
   inkscape:version="1.0 (4035a4fb49, 2020-05-01)"
   width="230"
   height="600">
  <metadata
     id="metadata185">
    <rdf:RDF>
      <cc:Work
         rdf:about="">
        <dc:format>image/svg+xml</dc:format>
        <dc:type
           rdf:resource="http://purl.org/dc/dcmitype/StillImage" />
        <dc:title />
      </cc:Work>
    </rdf:RDF>
  </metadata>
  <defs
     id="defs183" />
  <sodipodi:namedview
     inkscape:document-rotation="0"
     pagecolor="#ffffff"
     bordercolor="#666666"
     borderopacity="1"
     objecttolerance="10"
     gridtolerance="10"
     guidetolerance="10"
     inkscape:pageopacity="0"
     inkscape:pageshadow="2"
     inkscape:window-width="1920"
     inkscape:window-height="1057"
     id="namedview181"
     showgrid="false"
     inkscape:pagecheckerboard="true"
     inkscape:zoom="4.1955001"
     inkscape:cx="100.94084"
     inkscape:cy="420.05536"
     inkscape:window-x="-8"
     inkscape:window-y="-8"
     inkscape:window-maximized="1"
     inkscape:current-layer="_53_astronaut" />
  <g
     id="_53_astronaut"
     data-name="#53_astronaut">
    <polygon
       transform="matrix(0.78379155,0,0,0.78379155,-154.98095,196.14135)"
       id="polygon162"
       fill="#ffffff"
       points="276.66,229.18 275.32,234.51 273.99,229.18 268.66,227.85 273.99,226.51 275.32,221.18 276.66,226.51 281.99,227.85 " />
    <polygon
       points="105.91,89.14 99.16,87.44 105.91,85.75 107.61,79 109.3,85.75 116.06,87.44 109.3,89.14 107.61,95.89 "
       fill="#d1d3d4"
       id="polygon160-5"
       transform="matrix(0.78379155,0,0,0.78379155,60.984113,427.27752)" />
    <polygon
       transform="matrix(0.78379155,0,0,0.78379155,21.901694,501.18386)"
       id="polygon160-4-2"
       fill="#d1d3d4"
       points="107.61,95.89 105.91,89.14 99.16,87.44 105.91,85.75 107.61,79 109.3,85.75 116.06,87.44 109.3,89.14 " />
    <polygon
       transform="matrix(0.78379155,0,0,0.78379155,8.9921205,475.26572)"
       points="66.86,62.73 67.53,60.06 68.2,62.73 70.86,63.4 68.2,64.06 67.53,66.73 66.86,64.06 64.2,63.4 "
       fill="#d1d3d4"
       id="polygon168-0" />
    <polygon
       transform="matrix(0.78379155,0,0,0.78379155,-148.56935,340.10311)"
       id="polygon172-1-9"
       fill="#d1d3d4"
       points="285.1,167.08 281.99,166.3 285.1,165.51 285.88,162.4 286.67,165.51 289.78,166.3 286.67,167.08 285.88,170.19 " />
    <polygon
       points="105.91,89.14 99.16,87.44 105.91,85.75 107.61,79 109.3,85.75 116.06,87.44 109.3,89.14 107.61,95.89 "
       fill="#FFF"
       id="polygon160-6"
       transform="matrix(0.78379155,0,0,0.78379155,-43.845616,407.89269)" />
    <polygon
       points="285.1,165.51 285.88,162.4 286.67,165.51 289.78,166.3 286.67,167.08 285.88,170.19 285.1,167.08 281.99,166.3 "
       fill="#d1d3d4"
       id="polygon172-1-9-0"
       transform="matrix(0.78379155,0,0,0.78379155,-37.097995,400.51899)" />
    <polygon
       points="276.66,226.51 281.99,227.85 276.66,229.18 275.32,234.51 273.99,229.18 268.66,227.85 273.99,226.51 275.32,221.18 "
       fill="#FFF"
       id="polygon162-1-4-4"
       transform="matrix(0.78379155,0,0,0.78379155,-85.915648,367.61168)" />
    <polygon
       points="286.67,167.08 285.88,170.19 285.1,167.08 281.99,166.3 285.1,165.51 285.88,162.4 286.67,165.51 289.78,166.3 "
       fill="#d1d3d4"
       id="polygon172-1-9-5"
       transform="matrix(0.78379155,0,0,0.78379155,-42.046796,115.64843)" />
    <polygon
       points="134.24,71.56 131.13,70.78 134.24,70 135.03,66.88 135.81,70 138.92,70.78 135.81,71.56 135.03,74.68 "
       fill="#d1d3d4"
       id="polygon170-3"
       transform="matrix(0.78379155,0,0,0.78379155,99.998832,315.87758)" />
    <polygon
       transform="matrix(0.78379155,0,0,0.78379155,-110.75248,205.15929)"
       id="polygon172-1-2"
       fill="#d1d3d4"
       points="285.88,170.19 285.1,167.08 281.99,166.3 285.1,165.51 285.88,162.4 286.67,165.51 289.78,166.3 286.67,167.08 " />
    <polygon
       points="134.24,70 135.03,66.88 135.81,70 138.92,70.78 135.81,71.56 135.03,74.68 134.24,71.56 131.13,70.78 "
       fill="#d1d3d4"
       id="polygon170-9-9-0"
       transform="matrix(0.78379155,0,0,0.78379155,103.44084,224.37937)" />
    <polygon
       points="107.61,95.89 105.91,89.14 99.16,87.44 105.91,85.75 107.61,79 109.3,85.75 116.06,87.44 109.3,89.14 "
       fill="#d1d3d4"
       id="polygon160-4-4-8"
       transform="matrix(0.78379155,0,0,0.78379155,-38.340632,219.86932)" />
    <polygon
       points="135.03,66.88 135.81,70 138.92,70.78 135.81,71.56 135.03,74.68 134.24,71.56 131.13,70.78 134.24,70 "
       fill="#FFF"
       id="polygon170-9-9-1"
       transform="matrix(0.78379155,0,0,0.78379155,53.598351,242.67186)" />
    <polygon
       transform="matrix(0.78379155,0,0,0.78379155,70.391158,385.41996)"
       points="67.53,60.06 68.2,62.73 70.86,63.4 68.2,64.06 67.53,66.73 66.86,64.06 64.2,63.4 66.86,62.73 "
       fill="#d1d3d4"
       id="polygon168-0-3" />
    <polygon
       points="285.88,162.4 286.67,165.51 289.78,166.3 286.67,167.08 285.88,170.19 285.1,167.08 281.99,166.3 285.1,165.51 "
       fill="#d1d3d4"
       id="polygon172-1-9-0-2-3-2"
       transform="matrix(0.78379155,0,0,0.78379155,-27.825758,334.38265)" />
    <polygon
       transform="matrix(0.78379155,0,0,0.78379155,93.303736,307.9895)"
       points="67.53,60.06 68.2,62.73 70.86,63.4 68.2,64.06 67.53,66.73 66.86,64.06 64.2,63.4 66.86,62.73 "
       fill="#d1d3d4"
       id="polygon168-0-8-1-8" />
    <polygon
       points="134.24,71.56 131.13,70.78 134.24,70 135.03,66.88 135.81,70 138.92,70.78 135.81,71.56 135.03,74.68 "
       fill="#d1d3d4"
       id="polygon170-3-2-8-82"
       transform="matrix(0.78379155,0,0,0.78379155,71.856765,387.12303)" />
    <polygon
       transform="matrix(0.78379155,0,0,0.78379155,128.52966,365.78824)"
       id="polygon160-4-2-2"
       fill="#FFF"
       points="107.61,95.89 105.91,89.14 99.16,87.44 105.91,85.75 107.61,79 109.3,85.75 116.06,87.44 109.3,89.14 " />
    <polygon
       transform="matrix(0.78379155,0,0,0.78379155,-68.690651,439.55757)"
       id="polygon170-8-8"
       fill="#d1d3d4"
       points="135.81,70 138.92,70.78 135.81,71.56 135.03,74.68 134.24,71.56 131.13,70.78 134.24,70 135.03,66.88 " />
    <polygon
       transform="matrix(0.78379155,0,0,0.78379155,-85.767143,538.72825)"
       id="polygon164-2"
       fill="#d1d3d4"
       points="304.97,70.4 302.3,71.07 301.64,73.73 300.97,71.07 298.3,70.4 300.97,69.73 301.64,67.07 302.3,69.73 " />
    <polygon
       points="134.24,70 135.03,66.88 135.81,70 138.92,70.78 135.81,71.56 135.03,74.68 134.24,71.56 131.13,70.78 "
       fill="#d1d3d4"
       id="polygon170-2-4-3-3"
       transform="matrix(0.78379155,0,0,0.78379155,-43.520396,514.71188)" />
    <polygon
       points="285.1,165.51 285.88,162.4 286.67,165.51 289.78,166.3 286.67,167.08 285.88,170.19 285.1,167.08 281.99,166.3 "
       fill="#d1d3d4"
       id="polygon172-0-2"
       transform="matrix(0.78379155,0,0,0.78379155,-200.45959,420.76705)" />
    <polygon
       points="135.81,70 138.92,70.78 135.81,71.56 135.03,74.68 134.24,71.56 131.13,70.78 134.24,70 135.03,66.88 "
       fill="#d1d3d4"
       id="polygon170-9-1-0-3"
       transform="matrix(0.78379155,0,0,0.78379155,-87.604433,367.40341)" />
    <polygon
       points="289.78,166.3 286.67,167.08 285.88,170.19 285.1,167.08 281.99,166.3 285.1,165.51 285.88,162.4 286.67,165.51 "
       fill="#d1d3d4"
       id="polygon172-1-9-5-1-2-5"
       transform="matrix(0.78379155,0,0,0.78379155,-214.30063,221.32106)" />
    <polygon
       transform="matrix(0.78379155,0,0,0.78379155,-214.50885,66.506471)"
       id="polygon164-9-9"
       fill="#d1d3d4"
       points="301.64,67.07 302.3,69.73 304.97,70.4 302.3,71.07 301.64,73.73 300.97,71.07 298.3,70.4 300.97,69.73 " />
    <polygon
       transform="matrix(0.78379155,0,0,0.78379155,-205.07065,127.18063)"
       id="polygon164-9-5"
       fill="#d1d3d4"
       points="301.64,67.07 302.3,69.73 304.97,70.4 302.3,71.07 301.64,73.73 300.97,71.07 298.3,70.4 300.97,69.73 " />
    <polygon
       transform="matrix(0.78379155,0,0,0.78379155,-21.604036,454.48513)"
       id="polygon164-9-7"
       fill="#d1d3d4"
       points="304.97,70.4 302.3,71.07 301.64,73.73 300.97,71.07 298.3,70.4 300.97,69.73 301.64,67.07 302.3,69.73 " />
    <polygon
       points="276.66,226.51 281.99,227.85 276.66,229.18 275.32,234.51 273.99,229.18 268.66,227.85 273.99,226.51 275.32,221.18 "
       fill="#d1d3d4"
       id="polygon162-3"
       transform="matrix(0.78379155,0,0,0.78379155,-45.321506,14.133797)" />
    <polygon
       transform="matrix(0.78379155,0,0,0.78379155,98.196665,507.98407)"
       id="polygon170-5-2"
       fill="#d1d3d4"
       points="135.03,66.88 135.81,70 138.92,70.78 135.81,71.56 135.03,74.68 134.24,71.56 131.13,70.78 134.24,70 " />
    <polygon
       transform="matrix(0.78379155,0,0,0.78379155,-16.688327,449.34982)"
       id="polygon170-5-9"
       fill="#d1d3d4"
       points="135.03,66.88 135.81,70 138.92,70.78 135.81,71.56 135.03,74.68 134.24,71.56 131.13,70.78 134.24,70 " />
    <polygon
       points="107.61,95.89 105.91,89.14 99.16,87.44 105.91,85.75 107.61,79 109.3,85.75 116.06,87.44 109.3,89.14 "
       fill="#d1d3d4"
       id="polygon160-4-2-5"
       transform="matrix(-0.78379155,0,0,-0.78379155,119.40247,121.01908)" />
    <polygon
       transform="matrix(-0.78379155,0,0,-0.78379155,371.40959,205.9944)"
       id="polygon172-1-9-5-2"
       fill="#d1d3d4"
       points="285.1,165.51 285.88,162.4 286.67,165.51 289.78,166.3 286.67,167.08 285.88,170.19 285.1,167.08 281.99,166.3 " />
    <polygon
       transform="matrix(-0.78379155,0,0,-0.78379155,174.67657,69.376433)"
       id="polygon170-9-9-0-3"
       fill="#d1d3d4"
       points="134.24,70 135.03,66.88 135.81,70 138.92,70.78 135.81,71.56 135.03,74.68 134.24,71.56 131.13,70.78 " />
    <polygon
       transform="matrix(-0.78379155,0,0,-0.78379155,267.28687,200.98669)"
       id="polygon170-9-3-2-1"
       fill="#d1d3d4"
       points="135.03,66.88 135.81,70 138.92,70.78 135.81,71.56 135.03,74.68 134.24,71.56 131.13,70.78 134.24,70 " />
    <polygon
       transform="matrix(-0.78379155,0,0,-0.78379155,214.26998,456.75667)"
       id="polygon170-9-9-1-9"
       fill="#d1d3d4"
       points="135.81,71.56 135.03,74.68 134.24,71.56 131.13,70.78 134.24,70 135.03,66.88 135.81,70 138.92,70.78 " />
    <polygon
       transform="matrix(-0.78379155,0,0,-0.78379155,308.18447,340.87811)"
       id="polygon162-3-6"
       fill="#d1d3d4"
       points="268.66,227.85 273.99,226.51 275.32,221.18 276.66,226.51 281.99,227.85 276.66,229.18 275.32,234.51 273.99,229.18 " />
    <polygon
       transform="matrix(0.78379155,0,0,0.78379155,25.976431,164.99754)"
       id="polygon170-9-9-1-5"
       fill="#ffffff"
       points="135.03,66.88 135.81,70 138.92,70.78 135.81,71.56 135.03,74.68 134.24,71.56 131.13,70.78 134.24,70 " />
  </g>
</svg>
