<?xml version="1.0" encoding="UTF-8" standalone="no"?>
<svg
   xmlns:dc="http://purl.org/dc/elements/1.1/"
   xmlns:cc="http://creativecommons.org/ns#"
   xmlns:rdf="http://www.w3.org/1999/02/22-rdf-syntax-ns#"
   xmlns:svg="http://www.w3.org/2000/svg"
   xmlns="http://www.w3.org/2000/svg"
   xmlns:sodipodi="http://sodipodi.sourceforge.net/DTD/sodipodi-0.dtd"
   xmlns:inkscape="http://www.inkscape.org/namespaces/inkscape"
   viewBox="0 0 400 300"
   version="1.1"
   id="svg328"
   sodipodi:docname="rocket_boy_dark.svg"
   width="400"
   height="300"
   inkscape:version="1.0 (4035a4fb49, 2020-05-01)">
  <metadata
     id="metadata334">
    <rdf:RDF>
      <cc:Work
         rdf:about="">
        <dc:format>image/svg+xml</dc:format>
        <dc:type
           rdf:resource="http://purl.org/dc/dcmitype/StillImage" />
        <dc:title></dc:title>
      </cc:Work>
    </rdf:RDF>
  </metadata>
  <defs
     id="defs332" />
  <sodipodi:namedview
     inkscape:document-rotation="0"
     pagecolor="#ffffff"
     bordercolor="#666666"
     borderopacity="1"
     objecttolerance="10"
     gridtolerance="10"
     guidetolerance="10"
     inkscape:pageopacity="0"
     inkscape:pageshadow="2"
     inkscape:window-width="1920"
     inkscape:window-height="1057"
     id="namedview330"
     showgrid="false"
     inkscape:zoom="0.90625"
     inkscape:cx="198.00468"
     inkscape:cy="67.111108"
     inkscape:window-x="-8"
     inkscape:window-y="-8"
     inkscape:window-maximized="1"
     inkscape:current-layer="svg328" />
  <g
     transform="translate(3.3103476,-4.4137929)"
     id="_319_rocket_boy_flatline"
     data-name="#319_rocket_boy_flatline">
    <circle
       cx="95.669998"
       cy="73.419998"
       r="19.74"
       fill="#ffffff"
       id="circle173" />
    <path
       d="M 95.67,93.66 A 20.24,20.24 0 1 1 115.9,73.42 20.26,20.26 0 0 1 95.67,93.66 Z m 0,-39.47 A 19.24,19.24 0 1 0 114.9,73.42 19.26,19.26 0 0 0 95.67,54.19 Z"
       fill="#d1d3d4"
       id="path175" />
    <polygon
       points="264.97,146 224.73,126.11 233.91,114.28 299.32,137.19 "
       fill="#231f20"
       id="polygon177" />
    <path
       d="m 265,146.44 a 0.41,0.41 0 0 1 -0.19,0 l -40.24,-19.89 a 0.45,0.45 0 0 1 -0.24,-0.3 0.45,0.45 0 0 1 0.08,-0.37 L 233.56,114 a 0.46,0.46 0 0 1 0.5,-0.15 l 65.41,22.91 a 0.44,0.44 0 0 1 0.29,0.44 0.43,0.43 0 0 1 -0.33,0.4 l -34.35,8.82 z M 225.41,126 265,145.53 297.78,137.12 234.07,114.8 Z"
       fill="#231f20"
       id="path179" />
    <path
       d="m 157.28,190.5 c 0,0 -34.68,10.51 -51.95,0 0,0 13.2,16.48 31.16,14.64 17.96,-1.84 20.79,-14.64 20.79,-14.64 z"
       fill="#d1d3d4"
       id="path181" />
    <path
       d="m 169.37,181.39 c 0,0 -26.43,25.61 -56.44,18.87 -41.67,-9.3 -73.77,-58.85 -45.87,-121 0,0 -29,42.12 -14,89.1 20.56,64.31 70.22,61.65 120.78,48.52"
       fill="#d1d3d4"
       id="path183" />
    <path
       d="m 241.23,65.69 c 0,0 -7.55,34.37 -7.32,48.59 0,0.7 2.25,2.45 2.3,3 1.09,12.69 -39.84,2 -39.84,2 0,0 -1.52,-26.91 1.53,-36.54 3.05,-9.63 6.32,-11.74 6.32,-11.74 0,0 27.38,-10.76 32.19,-9.25 4.81,1.51 4.82,3.94 4.82,3.94 z"
       fill="#6b6e6f"
       id="path185" />
    <polygon
       points="274.46,39.67 218.78,67.89 226.54,80.36 278.61,53.05 "
       fill="#6b6e6f"
       id="polygon187" />
    <path
       d="m 152.33,190.89 c 0,0 -0.77,5.57 3.69,16.76 4.46,11.19 8.85,14.69 8.85,14.69 l 15.86,-2 -15.55,-39 z"
       fill="#231f20"
       id="path189" />
    <path
       d="m 164.87,222.78 a 0.44,0.44 0 0 1 -0.27,-0.09 c -0.18,-0.15 -4.54,-3.71 -9,-14.88 -4.46,-11.17 -3.75,-16.75 -3.72,-17 a 0.43,0.43 0 0 1 0.18,-0.29 l 12.85,-9.5 a 0.43,0.43 0 0 1 0.38,-0.07 0.42,0.42 0 0 1 0.29,0.26 l 15.55,39 a 0.45,0.45 0 0 1 0,0.39 0.44,0.44 0 0 1 -0.32,0.21 l -15.86,1.95 z m -12.12,-31.65 c -0.08,1 -0.25,6.52 3.68,16.35 3.93,9.83 7.82,13.71 8.58,14.4 l 15.1,-1.85 L 165,182.08 Z"
       fill="#231f20"
       id="path191" />
    <path
       d="m 231.26,216.88 c 0,0 -4.42,12.73 -18.56,24.67 -14.14,11.94 -49.75,19 -49.75,19 l 19.52,-40.81 z"
       fill="#ffffff"
       id="path193" />
    <path
       d="m 163,261 a 0.49,0.49 0 0 1 -0.39,-0.19 0.51,0.51 0 0 1 -0.06,-0.53 L 182,219.48 a 0.5,0.5 0 0 1 0.42,-0.28 l 48.79,-2.82 a 0.48,0.48 0 0 1 0.43,0.2 0.51,0.51 0 0 1 0.08,0.46 c -0.05,0.13 -4.63,13 -18.72,24.89 -14.09,11.89 -49.61,19 -50,19.07 z m 19.85,-40.83 -19,39.64 c 5.83,-1.24 36,-8 48.54,-18.65 12,-10.12 17,-20.92 18.13,-23.75 z"
       fill="#231f20"
       id="path195" />
    <path
       d="m 204.26,149.17 c 0,0 -11.94,-4.24 -30.42,-3.17 -18.48,1.07 -49.17,18.52 -49.17,18.52 l 42.25,16.18 z"
       fill="#ffffff"
       id="path197" />
    <path
       d="m 166.92,181.2 a 0.58,0.58 0 0 1 -0.18,0 L 124.49,165 a 0.52,0.52 0 0 1 -0.32,-0.43 0.5,0.5 0 0 1 0.25,-0.47 c 0.31,-0.18 31,-17.53 49.39,-18.59 18.39,-1.06 30.5,3.15 30.61,3.19 a 0.5,0.5 0 0 1 0.16,0.86 l -37.34,31.53 a 0.55,0.55 0 0 1 -0.32,0.11 z m -41.07,-16.76 41,15.68 36.42,-30.75 c -3,-0.91 -14,-3.77 -29.37,-2.87 -16.4,0.95 -42.78,15.04 -48.05,17.94 z"
       fill="#231f20"
       id="path199" />
    <path
       d="m 157.31,177.47 c 15.53,-15.22 40.58,-30.89 70.63,-42.88 45.54,-18.16 79.27,-2.49 90.44,4.11 a 6.38,6.38 0 0 1 2.89,7.24 c -3.56,12.48 -17.26,47.05 -62.8,65.21 -30.05,12 -59,17.86 -80.74,17.5 0,0 -7,-6.19 -14.13,-24 -7.13,-17.81 -6.29,-27.18 -6.29,-27.18 z"
       fill="#ffffff"
       id="path201" />
    <path
       d="m 179.6,229.17 h -1.88 a 0.5,0.5 0 0 1 -0.33,-0.12 c -0.29,-0.26 -7.18,-6.48 -14.25,-24.22 -7.07,-17.74 -6.36,-27 -6.33,-27.39 a 0.51,0.51 0 0 1 0.15,-0.31 c 16.12,-15.8 41.92,-31.47 70.8,-43 45.21,-18 78.61,-3.11 90.88,4.14 a 6.88,6.88 0 0 1 3.11,7.8 c -3.91,13.71 -17.88,47.52 -63.09,65.55 -28.08,11.2 -56.75,17.55 -79.06,17.55 z m -1.67,-1 c 22.38,0.3 51.69,-6 80.36,-17.47 44.8,-17.87 58.63,-51.33 62.5,-64.89 a 5.89,5.89 0 0 0 -2.66,-6.67 c -12.14,-7.17 -45.21,-21.94 -90,-4.07 -28.67,11.43 -54.29,27 -70.33,42.63 -0.06,1.37 -0.18,10.58 6.27,26.75 6.45,16.17 12.87,22.75 13.86,23.71 z"
       fill="#231f20"
       id="path203" />
    <path
       d="m 321.27,145.94 a 95.68,95.68 0 0 1 -24.68,40.7 c 0,0 -9.71,-6.64 -18.15,-27.82 -8.44,-21.18 -6,-32.67 -6,-32.67 a 95.5,95.5 0 0 1 45.91,12.55 6.38,6.38 0 0 1 2.92,7.24 z"
       fill="#ffffff"
       id="path205" />
    <path
       d="m 296.59,187.14 a 0.51,0.51 0 0 1 -0.28,-0.09 c -0.4,-0.28 -9.93,-7 -18.34,-28 -8.41,-21 -6.09,-32.49 -6,-33 a 0.51,0.51 0 0 1 0.49,-0.4 v 0 a 95.64,95.64 0 0 1 46.16,12.62 6.88,6.88 0 0 1 3.11,7.8 v 0 A 95.68,95.68 0 0 1 297,187 a 0.51,0.51 0 0 1 -0.41,0.14 z m -23.7,-60.48 c -0.32,2.21 -1.4,13.39 6,32 7.4,18.61 15.89,26 17.65,27.34 a 94.71,94.71 0 0 0 24.24,-40.18 v 0 a 5.89,5.89 0 0 0 -2.66,-6.67 94.53,94.53 0 0 0 -45.23,-12.49 z"
       fill="#231f20"
       id="path207" />
    <path
       d="m 164.26,175.33 a 0.52,0.52 0 0 1 -0.38,-0.17 0.49,0.49 0 0 1 0.06,-0.7 358,358 0 0 1 35.3,-25.46 0.51,0.51 0 0 1 0.69,0.16 0.49,0.49 0 0 1 -0.16,0.68 360.94,360.94 0 0 0 -35.19,25.36 0.49,0.49 0 0 1 -0.32,0.13 z"
       fill="#ffffff"
       id="path209" />
    <path
       d="m 202.62,227.29 a 0.5,0.5 0 0 1 -0.34,-0.13 c -0.14,-0.13 -13.65,-13 -20.36,-29.84 -6.71,-16.84 -5.77,-35.48 -5.76,-35.66 a 0.49,0.49 0 0 1 0.53,-0.48 0.51,0.51 0 0 1 0.47,0.53 c 0,0.18 -0.93,18.63 5.69,35.24 6.62,16.61 20,29.35 20.12,29.48 a 0.5,0.5 0 0 1 0,0.71 0.51,0.51 0 0 1 -0.35,0.15 z"
       fill="#231f20"
       id="path211" />
    <path
       d="m 317,137.46 c 0,0 19.22,-5 20.36,-2.14 1.14,2.86 -16.24,12.46 -16.24,12.46"
       fill="#231f20"
       id="path213" />
    <path
       d="m 321.12,148.22 a 0.44,0.44 0 0 1 -0.21,-0.82 c 8.2,-4.54 16.67,-10.38 16,-11.92 -0.67,-1.54 -10.78,0.05 -19.84,2.41 a 0.44384682,0.44384682 0 1 1 -0.22,-0.86 c 4.6,-1.19 19.69,-4.85 20.88,-1.87 1.19,2.98 -12.28,10.71 -16.44,13 a 0.54,0.54 0 0 1 -0.17,0.06 z"
       fill="#231f20"
       id="path215" />
    <path
       d="m 318.71,149.59 a 23.16,23.16 0 0 1 -4.7,-11.78 2.69,2.69 0 0 1 2.36,-2.78 v 0 a 2.17,2.17 0 0 1 2.62,1.73 20.08,20.08 0 0 0 4.01,10.16 2.16,2.16 0 0 1 -0.7,3.06 v 0 a 2.68,2.68 0 0 1 -3.59,-0.39 z"
       fill="#ffffff"
       id="path217" />
    <path
       d="m 320.7,151 a 3,3 0 0 1 -2.39,-1.12 23.83,23.83 0 0 1 -4.8,-12 3.17,3.17 0 0 1 2.8,-3.33 3,3 0 0 1 2.27,0.57 2.33,2.33 0 0 1 0.91,1.61 19.66,19.66 0 0 0 3.95,9.91 2.32,2.32 0 0 1 0.45,1.79 3,3 0 0 1 -1.26,2 3.26,3.26 0 0 1 -1.93,0.57 z m -3.93,-15.51 h -0.33 a 2.19,2.19 0 0 0 -1.93,2.24 22.94,22.94 0 0 0 4.59,11.53 v 0 a 2.19,2.19 0 0 0 2.94,0.29 2,2 0 0 0 0.86,-1.31 1.34,1.34 0 0 0 -0.25,-1 20.71,20.71 0 0 1 -4.16,-10.42 1.38,1.38 0 0 0 -0.52,-0.93 1.93,1.93 0 0 0 -1.2,-0.39 z"
       fill="#231f20"
       id="path219" />
    <path
       d="m 206.59,218.81 a 0.50089919,0.50089919 0 0 1 -0.06,-1 c 0.45,-0.05 45.05,-5.4 80.56,-34.17 a 0.5,0.5 0 0 1 0.7,0.07 0.52,0.52 0 0 1 -0.07,0.71 c -35.74,29 -80.62,34.33 -81.07,34.38 z"
       fill="#d1d3d4"
       id="path221" />
    <path
       d="m 227.32,59.48 a 3.84,3.84 0 0 0 2,-1.95 A 16,16 0 0 0 231.9,49 17.07,17.07 0 0 0 215,32.27 l 3.54,2.88 a 18.53,18.53 0 0 0 -15.68,7.57 5.61,5.61 0 0 1 3.64,0.17 47.33,47.33 0 0 0 -5.33,1.73 1.35,1.35 0 0 0 -0.7,0.46 1.37,1.37 0 0 0 -0.06,1 c 1.28,5.95 5.74,11.44 11.69,12.7 1,0.21 2,0.3 3.07,0.43 2.27,0.29 4.51,0.77 6.8,0.89 a 15.08,15.08 0 0 0 4.29,-0.31 8.89,8.89 0 0 0 1.06,-0.31 z"
       fill="#ffffff"
       id="path223" />
    <path
       d="m 223,60.61 h -1.12 a 43.46,43.46 0 0 1 -4.46,-0.55 c -0.79,-0.12 -1.58,-0.24 -2.37,-0.34 l -0.74,-0.09 c -0.78,-0.1 -1.58,-0.19 -2.37,-0.36 -5.79,-1.22 -10.62,-6.46 -12,-13 a 1.72,1.72 0 0 1 0.12,-1.37 1.74,1.74 0 0 1 0.91,-0.63 c 1.18,-0.47 2.38,-0.88 3.59,-1.25 a 5.1,5.1 0 0 0 -1.6,0.21 0.46,0.46 0 0 1 -0.5,-0.17 0.48,0.48 0 0 1 0,-0.54 19.11,19.11 0 0 1 14.75,-7.77 l -2.53,-2.06 a 0.47,0.47 0 0 1 -0.14,-0.51 0.47,0.47 0 0 1 0.44,-0.3 17.56,17.56 0 0 1 17.38,17.12 16.36,16.36 0 0 1 -2.65,8.81 4.28,4.28 0 0 1 -2.22,2.14 v 0 A 6.82,6.82 0 0 1 226.35,60.3 14.35,14.35 0 0 1 223,60.61 Z M 204.42,42 a 6.1,6.1 0 0 1 2.23,0.43 0.48,0.48 0 0 1 0.29,0.46 0.47,0.47 0 0 1 -0.34,0.41 44.72,44.72 0 0 0 -5.29,1.72 0.62,0.62 0 0 0 -0.47,1 c 1.34,6.24 5.89,11.2 11.33,12.35 0.75,0.16 1.53,0.25 2.28,0.34 l 0.76,0.09 c 0.79,0.1 1.59,0.23 2.39,0.35 a 42.39,42.39 0 0 0 4.37,0.54 14,14 0 0 0 4.16,-0.31 6.35,6.35 0 0 0 1,-0.31 v 0 a 3.35,3.35 0 0 0 1.78,-1.75 15.63,15.63 0 0 0 2.54,-8.32 16.62,16.62 0 0 0 -15.09,-16.2 l 2.45,2 a 0.47,0.47 0 0 1 0.14,0.52 0.42,0.42 0 0 1 -0.45,0.29 18.26,18.26 0 0 0 -14.57,6.45 z m 22.9,17.45 z"
       fill="#231f20"
       id="path225" />
    <path
       d="m 215.13,68.46 c 0,0 0.18,10.46 5.1,10.79 4.92,0.33 5,-9.25 5,-9.25"
       fill="#231f20"
       id="path227" />
    <path
       d="m 220.47,79.7 h -0.27 c -5.27,-0.35 -5.51,-10.78 -5.52,-11.22 a 0.45,0.45 0 1 1 0.89,0 c 0,0.1 0.23,10.05 4.69,10.35 a 2.67,2.67 0 0 0 2.12,-0.76 c 2.34,-2.16 2.45,-8 2.45,-8.06 a 0.46,0.46 0 0 1 0.44,-0.43 0.44,0.44 0 0 1 0.44,0.44 c 0,0.26 -0.11,6.28 -2.73,8.7 a 3.62,3.62 0 0 1 -2.51,0.98 z"
       fill="#231f20"
       id="path229" />
    <path
       d="m 224.81,63.4 0.46,6.6 c 0,0 -0.43,3.72 -4.52,2.85 a 8.3,8.3 0 0 1 -5.62,-4.39 c 0,0 -1,-15.8 -1.37,-20 a 21.11,21.11 0 0 0 8.31,-2.83 5.45,5.45 0 0 1 1.23,-0.71 c 0.82,-0.12 0.72,0.34 1.08,1 a 6.49,6.49 0 0 0 3,2.88 0.91,0.91 0 0 1 0.42,0.29 0.78,0.78 0 0 1 0.1,0.36 c 0.42,3.77 1.19,7.52 0.65,11.31 -0.44,3.24 -3.74,2.64 -3.74,2.64 z"
       fill="#ffffff"
       id="path231" />
    <path
       d="m 221.92,73.44 a 5.65,5.65 0 0 1 -1.26,-0.14 8.68,8.68 0 0 1 -5.95,-4.65 0.47,0.47 0 0 1 0,-0.16 c 0,-0.16 -1,-15.84 -1.36,-20 a 0.48,0.48 0 0 1 0.11,-0.34 0.42,0.42 0 0 1 0.31,-0.15 20.63,20.63 0 0 0 8.12,-2.78 L 222.23,45 a 2.67,2.67 0 0 1 1,-0.54 1.12,1.12 0 0 1 1.38,0.86 2.78,2.78 0 0 0 0.18,0.42 5.9,5.9 0 0 0 2.78,2.67 1.31,1.31 0 0 1 0.62,0.47 1.23,1.23 0 0 1 0.16,0.55 c 0.09,0.81 0.2,1.62 0.3,2.42 a 32.59,32.59 0 0 1 0.35,9 3.33,3.33 0 0 1 -1.29,2.34 4.16,4.16 0 0 1 -2.41,0.68 l 0.42,6.06 a 4.2,4.2 0 0 1 -1.58,2.82 3.71,3.71 0 0 1 -2.22,0.69 z m -6.34,-5.09 a 7.91,7.91 0 0 0 5.27,4.06 3,3 0 0 0 4,-2.47 l -0.46,-6.5 a 0.46,0.46 0 0 1 0.14,-0.37 0.47,0.47 0 0 1 0.39,-0.12 3.39,3.39 0 0 0 2.28,-0.47 2.49,2.49 0 0 0 0.93,-1.73 32.88,32.88 0 0 0 -0.35,-8.75 c -0.11,-0.81 -0.21,-1.62 -0.3,-2.44 0,0 0,-0.14 0,-0.17 l -0.21,-0.11 a 6.86,6.86 0 0 1 -3.27,-3.09 5.19,5.19 0 0 1 -0.23,-0.51 1.87,1.87 0 0 0 -0.13,-0.3 v 0 a 1.18,1.18 0 0 0 -0.25,0 2.63,2.63 0 0 0 -0.66,0.39 c -0.16,0.1 -0.3,0.21 -0.42,0.27 a 21.93,21.93 0 0 1 -8,2.84 c 0.3,4.54 1.19,18.23 1.27,19.47 z"
       fill="#231f20"
       id="path233" />
    <path
       d="m 225,66.65 a 6.37,6.37 0 0 1 -4.5,-1.39 4.63,4.63 0 0 1 -1.7,-3.49 12.8,12.8 0 0 0 6,1.63 z"
       fill="#231f20"
       id="path235" />
    <path
       d="m 224.5,67.11 a 6.5,6.5 0 0 1 -4.32,-1.53 5.06,5.06 0 0 1 -1.84,-3.84 0.47,0.47 0 0 1 0.24,-0.36 0.44,0.44 0 0 1 0.43,0 12.38,12.38 0 0 0 5.78,1.62 0.46,0.46 0 0 1 0.46,0.42 l 0.17,3.24 a 0.43,0.43 0 0 1 -0.39,0.46 3.08,3.08 0 0 1 -0.53,-0.01 z m -5.2,-4.58 a 4.7,4.7 0 0 0 1.47,2.4 5.67,5.67 0 0 0 3.75,1.29 l -0.13,-2.37 a 12.85,12.85 0 0 1 -5.09,-1.32 z"
       fill="#231f20"
       id="path237" />
    <path
       d="m 223.8,51.69 c 0,0 2.32,3 1.85,3.62 -0.47,0.62 -1.9,0.31 -1.9,0.31"
       fill="#ffffff"
       id="path239" />
    <path
       d="m 224.48,56.13 a 3.78,3.78 0 0 1 -0.81,-0.08 0.44229515,0.44229515 0 1 1 0.16,-0.87 c 0.49,0.1 1.28,0.1 1.48,-0.15 a 11.85,11.85 0 0 0 -1.86,-3.03 0.44,0.44 0 0 1 0.08,-0.62 0.44,0.44 0 0 1 0.62,0.09 c 1.68,2.19 2.3,3.59 1.85,4.16 a 2,2 0 0 1 -1.52,0.5 z"
       fill="#231f20"
       id="path241" />
    <path
       d="m 223.51,59.56 h -0.18 c -2.21,-0.12 -3.87,-2.26 -3.94,-2.35 a 0.44204072,0.44204072 0 1 1 0.7,-0.54 c 0,0 1.49,1.91 3.28,2 a 3.09,3.09 0 0 0 2.46,-1.17 0.45,0.45 0 0 1 0.62,0 0.44,0.44 0 0 1 0,0.63 4,4 0 0 1 -2.94,1.43 z"
       fill="#231f20"
       id="path243" />
    <path
       d="m 226.79,152.55 -7.31,29.74 c 0,0 36.41,-12.19 37.72,-16.17 1.31,-3.98 -18.83,0.6 -18.83,0.6 l 1.43,-8.5 z"
       fill="#ffffff"
       id="path245" />
    <path
       d="M 219.48,182.79 A 0.5,0.5 0 0 1 219,182.17 l 7.3,-29.74 a 0.5,0.5 0 0 1 0.69,-0.34 l 13,5.67 a 0.52,0.52 0 0 1 0.3,0.54 l -1.29,7.77 c 4,-0.88 16.42,-3.4 18.43,-1.18 a 1.29,1.29 0 0 1 0.25,1.38 c -1.35,4.11 -34.28,15.24 -38,16.49 a 0.41,0.41 0 0 1 -0.2,0.03 z m 7.65,-29.54 -6.94,28.27 c 14,-4.73 35.65,-12.89 36.54,-15.56 0.07,-0.24 0,-0.33 -0.05,-0.4 -1.37,-1.51 -11.89,0.21 -18.2,1.65 a 0.5,0.5 0 0 1 -0.45,-0.13 0.5,0.5 0 0 1 -0.15,-0.45 l 1.37,-8.11 z"
       fill="#231f20"
       id="path247" />
    <path
       d="m 196.37,119.29 c 0,0 -5.05,21 4.92,23.85 9.97,2.85 26.65,-8.55 26.65,-8.55 l -5.4,19.51 c 0,0 -3.62,8.81 1.63,8.42 4.73,-6.13 11.19,-7.75 15.63,-4.3 6.95,-7.71 19.15,-31.93 11.27,-40.24 -7.88,-8.31 -54.7,1.31 -54.7,1.31 z"
       fill="#231f20"
       id="path249" />
    <path
       d="m 223.84,163 a 2.69,2.69 0 0 1 -2.32,-1.05 c -1.69,-2.32 0.52,-7.75 0.61,-8 l 5.07,-18.32 c -3.77,2.41 -17.27,10.46 -26,8 -10.26,-2.93 -5.44,-23.51 -5.23,-24.38 a 0.44,0.44 0 0 1 0.34,-0.33 c 1.93,-0.4 47.16,-9.58 55.11,-1.18 7.95,8.4 -4,32.81 -11.26,40.83 a 0.44,0.44 0 0 1 -0.6,0.06 8,8 0 0 0 -6,-1.62 c -3.2,0.41 -6.38,2.48 -9,5.84 a 0.42,0.42 0 0 1 -0.31,0.17 z m 4.1,-28.82 a 0.43,0.43 0 0 1 0.26,0.09 0.43,0.43 0 0 1 0.17,0.47 L 223,154.22 c -0.6,1.49 -1.89,5.58 -0.72,7.19 a 1.87,1.87 0 0 0 1.7,0.68 c 2.72,-3.45 6.06,-5.58 9.44,-6 a 8.84,8.84 0 0 1 6.36,1.54 c 6.9,-7.93 18.45,-31.48 11,-39.34 -7.45,-7.86 -50.13,0.61 -54,1.39 -0.54,2.45 -4.18,20.52 4.67,23 9.64,2.75 26.12,-8.38 26.28,-8.49 a 0.46,0.46 0 0 1 0.21,-0.04 z"
       fill="#231f20"
       id="path251" />
    <path
       d="m 219.48,182.29 c 0,0 4,3.92 15.4,0 11.4,-3.92 25.8,-14.43 22.32,-16.17 -3.48,-1.74 -33.86,10.68 -37.72,16.17 z"
       fill="#231f20"
       id="path253" />
    <path
       d="m 225.81,184.48 c -4.63,0 -6.52,-1.77 -6.63,-1.88 a 0.44,0.44 0 0 1 -0.06,-0.57 c 3.8,-5.39 34.21,-18.35 38.28,-16.31 a 1.32,1.32 0 0 1 0.77,1.31 c -0.24,3.46 -13.21,12.25 -23.14,15.68 a 28.68,28.68 0 0 1 -9.22,1.77 z m -5.7,-2.27 c 1.13,0.75 5.4,2.84 14.63,-0.34 10,-3.45 22.36,-12.08 22.55,-14.9 A 0.44,0.44 0 0 0 257,166.51 c -3,-1.51 -32.14,10.13 -36.89,15.7 z m -0.63,0.08 z"
       fill="#231f20"
       id="path255" />
    <path
       d="m 240,164.83 a 54.23,54.23 0 0 0 -7.63,3.53 l 0.41,-4.6 c 0,0 5.91,-2.87 7.22,-2.7 z"
       fill="#ffffff"
       id="path257" />
    <path
       d="m 232.39,168.86 a 0.47,0.47 0 0 1 -0.25,-0.07 0.49,0.49 0 0 1 -0.24,-0.48 l 0.41,-4.59 a 0.48,0.48 0 0 1 0.27,-0.4 c 1,-0.49 6.13,-2.92 7.51,-2.76 a 0.49,0.49 0 0 1 0.43,0.5 v 3.77 a 0.51,0.51 0 0 1 -0.32,0.47 54.1,54.1 0 0 0 -7.53,3.48 0.54,0.54 0 0 1 -0.28,0.08 z m 0.89,-4.77 -0.3,3.33 a 63.15,63.15 0 0 1 6.54,-2.93 v -2.9 a 38.77,38.77 0 0 0 -6.24,2.5 z m 6.74,0.74 z"
       fill="#231f20"
       id="path259" />
    <path
       d="m 208.63,69.34 c 0,0 -36.11,14.66 -39.17,18.78 -3.06,4.12 -8.31,29.1 -8.31,29.1 l 10.91,-1.57 c 0,0 9.87,-15.5 12.93,-18.78 3.06,-3.28 20.35,-7.87 20.35,-7.87 z"
       fill="#6b6e6f"
       id="path261" />
    <path
       d="m 178,108.58 -7.34,12.56 c 0,0 6.24,5 4.72,5.82 -1.52,0.82 -3,1.47 -3,1.47 0,0 -0.16,4.11 -2,4.6 -1.84,0.49 -12.11,-0.42 -11.65,-3.94 1.6,-12.14 3.59,-25.95 3.46,-24.37 z"
       fill="#ffffff"
       id="path263" />
    <path
       d="m 168.94,133.65 c -2.75,0 -7.69,-0.69 -9.7,-2.45 a 2.38,2.38 0 0 1 -0.94,-2.18 c 0.67,-5.15 1.5,-11.19 2.26,-16.56 0.67,-4.69 1,-6.77 1.19,-7.68 a 0.4,0.4 0 0 1 0,-0.11 0.15,0.15 0 0 0 0,0.07 c 0.17,-0.68 0.3,-0.67 0.54,-0.64 a 0.49,0.49 0 0 1 0.36,0.2 l 15.45,3.79 a 0.52,0.52 0 0 1 0.34,0.29 0.51,0.51 0 0 1 0,0.45 L 171.3,121 c 1.5,1.23 4.93,4.2 4.8,5.63 a 0.94,0.94 0 0 1 -0.5,0.75 c -1.12,0.6 -2.21,1.13 -2.71,1.36 -0.08,1.07 -0.47,4.25 -2.31,4.75 a 7.09,7.09 0 0 1 -1.64,0.16 z m -6.32,-28.32 c -0.42,2.63 -2,13.44 -3.33,23.82 a 1.45,1.45 0 0 0 0.61,1.3 c 2.22,1.94 9,2.47 10.41,2.09 1.19,-0.32 1.56,-3.16 1.6,-4.13 a 0.5,0.5 0 0 1 0.29,-0.43 c 0,0 1.44,-0.66 2.93,-1.46 0.06,-0.53 -2.17,-2.89 -4.79,-5 a 0.49,0.49 0 0 1 -0.12,-0.64 l 7,-12 z"
       fill="#231f20"
       id="path265" />
    <path
       d="m 275.31,56.94 c 0,-0.5 -4.93,-17.27 -4.93,-17.27 l 10.67,-3.74 c 0,0 -0.16,-3.94 2.13,-5.42 2.29,-1.48 5.42,0 5.42,0 0,0 9.35,-7.87 10.5,-6.23 1.15,1.64 -2.3,5.25 -7.55,9 0,0 2.79,7.88 -0.33,10.34 a 11.94,11.94 0 0 1 -6.37,2.57 z"
       fill="#ffffff"
       id="path267" />
    <path
       d="m 275.31,57.44 a 0.57,0.57 0 0 1 -0.18,0 0.49,0.49 0 0 1 -0.32,-0.44 c -0.11,-0.7 -3,-10.63 -4.91,-17.16 a 0.52,0.52 0 0 1 0.32,-0.62 l 10.33,-3.62 c 0,-1.07 0.27,-4.13 2.36,-5.48 2.09,-1.35 4.72,-0.51 5.6,-0.16 1.79,-1.49 8.13,-6.66 10.26,-6.37 a 1.05,1.05 0 0 1 0.74,0.43 c 1.66,2.37 -3.76,6.88 -7.37,9.5 0.52,1.63 2.39,8.18 -0.61,10.54 a 12.61,12.61 0 0 1 -6.44,2.67 l -9.41,10.57 a 0.5,0.5 0 0 1 -0.37,0.14 z m 0.5,-0.5 z M 271,40 c 1.53,5.24 3.82,13.09 4.56,15.92 l 8.92,-10 a 0.53,0.53 0 0 1 0.35,-0.17 11.53,11.53 0 0 0 6.08,-2.46 c 2.33,-1.84 0.91,-7.68 0.17,-9.78 a 0.5,0.5 0 0 1 0.18,-0.57 c 6.1,-4.38 8.12,-7.35 7.43,-8.34 -0.71,-0.43 -5.26,2.54 -9.77,6.34 A 0.49,0.49 0 0 1 288.39,31 c 0,0 -2.91,-1.33 -4.94,0 -2.03,1.33 -1.9,4.94 -1.9,5 a 0.5,0.5 0 0 1 -0.34,0.49 z"
       fill="#231f20"
       id="path269" />
    <path
       d="m 234.35,106.46 h -0.09 a 0.46,0.46 0 0 1 -0.36,-0.54 c 2.93,-14.42 5.71,-40.35 5.57,-41.61 a 0.44,0.44 0 0 1 0.32,-0.54 0.47,0.47 0 0 1 0.57,0.34 c 0.25,0.93 -2.63,27.56 -5.56,42 a 0.47,0.47 0 0 1 -0.45,0.35 z"
       fill="#231f20"
       id="path271" />
    <path
       d="m 188.24,94.5 a 0.46,0.46 0 0 1 -0.15,-0.89 l 20.39,-6.7 a 0.46,0.46 0 0 1 0.29,0.87 l -20.39,6.7 a 0.36,0.36 0 0 1 -0.14,0.02 z"
       fill="#231f20"
       id="path273" />
    <path
       d="m 288.79,41 a 1.18,1.18 0 0 1 -0.26,0 4.61,4.61 0 0 1 -3.38,-3 3.44,3.44 0 0 1 -2.35,2.9 0.44,0.44 0 1 1 -0.22,-0.85 c 2.23,-0.58 1.84,-4.47 1.83,-4.51 a 0.45,0.45 0 0 1 0.39,-0.49 0.46,0.46 0 0 1 0.49,0.38 c 0,0 0.62,4.2 3.37,4.61 a 0.5,0.5 0 0 0 0.51,-0.16 c 1,-1.1 -0.1,-6.27 -1,-9.26 a 0.44,0.44 0 0 1 0.29,-0.55 0.44,0.44 0 0 1 0.55,0.3 c 0.25,0.84 2.4,8.26 0.81,10.09 A 1.33,1.33 0 0 1 288.79,41 Z"
       fill="#231f20"
       id="path275" />
    <path
       d="m 63.28,177.39 c -1.5,-3 -16.14,-28.19 -18.39,-44.33 0,0 -0.26,31.45 12.82,47.64 13.08,16.19 5.57,-3.31 5.57,-3.31 z"
       fill="#d1d3d4"
       id="path277" />
    <polygon
       points="211.8,53.69 218.61,51.69 216.84,50.42 211.8,52.59 "
       fill="#231f20"
       id="polygon279" />
    <path
       d="m 211.8,54.13 a 0.44,0.44 0 0 1 -0.27,-0.09 0.43,0.43 0 0 1 -0.17,-0.35 v -1.1 a 0.44,0.44 0 0 1 0.26,-0.41 l 5,-2.17 a 0.44,0.44 0 0 1 0.43,0.05 l 1.77,1.28 a 0.44,0.44 0 0 1 0.17,0.43 0.43,0.43 0 0 1 -0.31,0.35 l -6.81,2 z m 0.44,-1.25 v 0.22 l 5.38,-1.58 -0.83,-0.6 z"
       fill="#231f20"
       id="path281" />
    <path
       d="m 215.19,54.61 c -0.76,-0.94 -2,-2.66 -3.39,-2 a 2.35,2.35 0 0 0 -0.94,0.8 4.22,4.22 0 0 0 0.08,4.76 c 0.75,1.28 3,3.14 4.3,1.39"
       fill="#ffffff"
       id="path283" />
    <path
       d="m 213.91,60.71 h -0.13 a 4.84,4.84 0 0 1 -3.24,-2.32 4.68,4.68 0 0 1 0,-5.28 2.81,2.81 0 0 1 1.12,-0.94 c 1.64,-0.73 3,0.93 3.75,1.92 l 0.18,0.23 a 0.47,0.47 0 0 1 -0.06,0.65 0.46,0.46 0 0 1 -0.65,-0.07 l -0.19,-0.24 C 213.81,53.55 212.94,52.6 212.03,53 a 2,2 0 0 0 -0.76,0.66 3.79,3.79 0 0 0 0.11,4.26 3.87,3.87 0 0 0 2.5,1.87 1.2,1.2 0 0 0 1,-0.53 0.46,0.46 0 0 1 0.64,-0.08 0.45,0.45 0 0 1 0.08,0.64 2.09,2.09 0 0 1 -1.69,0.89 z"
       fill="#231f20"
       id="path285" />
    <ellipse
       cx="219.89"
       cy="50.099998"
       rx="3.0599999"
       ry="2.3499999"
       transform="rotate(-6.07,219.95527,50.151495)"
       fill="#ffffff"
       id="ellipse287" />
    <path
       d="m 219.72,52.92 a 3.13,3.13 0 0 1 -3.33,-2.45 c -0.17,-1.54 1.27,-3 3.2,-3.17 a 4.08,4.08 0 0 1 2.51,0.52 2.53,2.53 0 0 1 1.28,1.9 c 0.17,1.54 -1.27,3 -3.2,3.17 a 3.55,3.55 0 0 1 -0.46,0.03 z m 0.34,-4.73 h -0.38 c -1.42,0.15 -2.49,1.12 -2.38,2.16 0.11,1.04 1.35,1.76 2.79,1.61 1.44,-0.15 2.5,-1.12 2.39,-2.16 v 0 a 1.7,1.7 0 0 0 -0.86,-1.22 3,3 0 0 0 -1.56,-0.39 z"
       fill="#231f20"
       id="path289" />
    <ellipse
       cx="226.14999"
       cy="49.799999"
       rx="3.0599999"
       ry="2.3499999"
       transform="rotate(-6.07,226.2143,49.821371)"
       fill="#ffffff"
       id="ellipse291" />
    <path
       d="m 226,52.62 a 3.13,3.13 0 0 1 -3.33,-2.45 c -0.16,-1.54 1.28,-3 3.2,-3.17 1.92,-0.17 3.64,0.88 3.8,2.42 v 0 c 0.16,1.54 -1.27,3 -3.2,3.16 z m 0.35,-4.73 h -0.38 c -1.43,0.15 -2.5,1.12 -2.39,2.16 0.11,1.04 1.37,1.76 2.79,1.61 1.42,-0.15 2.5,-1.12 2.39,-2.16 a 2.22,2.22 0 0 0 -2.43,-1.61 z"
       fill="#231f20"
       id="path293" />
    <circle
       cx="100.72"
       cy="154.05"
       r="4.6100001"
       fill="#ffffff"
       id="circle295" />
    <path
       d="m 100.72,159.16 a 5.12,5.12 0 1 1 5.11,-5.12 5.12,5.12 0 0 1 -5.11,5.12 z m 0,-9.23 a 4.12,4.12 0 1 0 4.11,4.11 4.12,4.12 0 0 0 -4.11,-4.11 z"
       fill="#d1d3d4"
       id="path297" />
    <circle
       cx="274.45001"
       cy="97.32"
       r="2.3099999"
       fill="#ffffff"
       id="circle299" />
    <path
       d="m 274.45,100.13 a 2.81,2.81 0 1 1 2.8,-2.81 2.81,2.81 0 0 1 -2.8,2.81 z m 0,-4.62 a 1.81,1.81 0 1 0 1.8,1.81 1.81,1.81 0 0 0 -1.8,-1.81 z"
       fill="#d1d3d4"
       id="path301" />
    <circle
       cx="307.14001"
       cy="87.349998"
       r="4.6100001"
       fill="#d1d3d4"
       id="circle303" />
    <circle
       cx="314.78"
       cy="232.62"
       r="25.969999"
       fill="#ffffff"
       id="circle305" />
    <path
       d="m 314.79,259.09 a 26.47,26.47 0 1 1 25.52,-33.5 v 0 a 26.48,26.48 0 0 1 -25.52,33.5 z m 0,-51.95 a 25.48,25.48 0 1 0 24.56,18.72 v 0 a 25.52,25.52 0 0 0 -24.57,-18.72 z"
       fill="#d1d3d4"
       id="path307" />
    <path
       d="m 283.51,246.83 c -4.64,0 -8.84,-0.67 -9.48,-3 C 273,240 282.71,235 288.62,232.34 a 0.50159745,0.50159745 0 0 1 0.4,0.92 c -11.08,4.93 -14.51,8.55 -14,10.3 0.51,1.75 5.29,3.12 17.32,1.68 A 187,187 0 0 0 340.55,232 c 11.07,-4.91 14.5,-8.54 14,-10.3 -0.5,-1.76 -5.28,-3.11 -17.32,-1.67 a 0.50358713,0.50358713 0 0 1 -0.12,-1 c 6.42,-0.77 17.34,-1.47 18.4,2.4 1.06,3.87 -8.67,8.86 -14.57,11.47 a 187.23,187.23 0 0 1 -48.53,13.36 77.33,77.33 0 0 1 -8.9,0.57 z"
       fill="#d1d3d4"
       id="path309" />
    <path
       d="m 262,225.79 a 0.5,0.5 0 0 1 -0.5,-0.5 v -5.89 a 0.5,0.5 0 0 1 0.5,-0.5 0.5,0.5 0 0 1 0.5,0.5 v 5.89 a 0.5,0.5 0 0 1 -0.5,0.5 z"
       fill="#d1d3d4"
       id="path311" />
    <path
       d="m 265,222.84 h -5.89 a 0.5,0.5 0 0 1 -0.5,-0.5 0.51,0.51 0 0 1 0.5,-0.5 H 265 a 0.5,0.5 0 0 1 0.5,0.5 0.5,0.5 0 0 1 -0.5,0.5 z"
       fill="#d1d3d4"
       id="path313" />
    <path
       d="m 330.16,106.5 a 0.5,0.5 0 0 1 -0.5,-0.5 v -5.89 a 0.5,0.5 0 0 1 0.5,-0.5 0.5,0.5 0 0 1 0.5,0.5 V 106 a 0.5,0.5 0 0 1 -0.5,0.5 z"
       fill="#d1d3d4"
       id="path315" />
    <path
       d="m 333.11,103.56 h -5.89 a 0.5,0.5 0 0 1 -0.5,-0.5 0.5,0.5 0 0 1 0.5,-0.5 h 5.89 a 0.5,0.5 0 0 1 0.5,0.5 0.51,0.51 0 0 1 -0.5,0.5 z"
       fill="#d1d3d4"
       id="path317" />
    <path
       d="m 81.81,235.61 a 0.5,0.5 0 0 1 -0.5,-0.5 v -5.89 a 0.5,0.5 0 0 1 0.5,-0.5 0.5,0.5 0 0 1 0.5,0.5 v 5.89 a 0.5,0.5 0 0 1 -0.5,0.5 z"
       fill="#d1d3d4"
       id="path319" />
    <path
       d="m 84.75,232.67 h -5.89 a 0.51,0.51 0 0 1 -0.5,-0.5 0.5,0.5 0 0 1 0.5,-0.5 h 5.89 a 0.5,0.5 0 0 1 0.5,0.5 0.5,0.5 0 0 1 -0.5,0.5 z"
       fill="#d1d3d4"
       id="path321" />
    <path
       d="m 141.18,109.45 a 0.5,0.5 0 0 1 -0.5,-0.5 v -5.89 a 0.5,0.5 0 0 1 1,0 V 109 a 0.5,0.5 0 0 1 -0.5,0.45 z"
       fill="#d1d3d4"
       id="path323" />
    <path
       d="m 144.12,106.5 h -5.89 a 0.5,0.5 0 0 1 0,-1 h 5.89 a 0.5,0.5 0 0 1 0,1 z"
       fill="#d1d3d4"
       id="path325" />
  </g>
</svg>
